<?xml version="1.0" standalone="no"?>
<!DOCTYPE svg PUBLIC "-//W3C//DTD SVG 1.1//EN" "http://www.w3.org/Graphics/SVG/1.1/DTD/svg11.dtd">
<svg xmlns="http://www.w3.org/2000/svg">
<metadata>Generated by Fontastic.me</metadata>
<defs>
<font id="bradesco" horiz-adv-x="512">
<font-face font-family="bradesco" units-per-em="512" ascent="480" descent="-32"/>
<missing-glyph horiz-adv-x="512" />

<glyph glyph-name="icon-viagem-abrangencia" unicode="&#57344;" d="M472 252c0 119-97 216-216 216-119 0-216-97-216-216 0-63 27-122 73-163-3-10-5-21-5-32 0 0 0-1 0-1 0-6 5-11 11-11l275 0c3 0 5 2 7 4 2 2 3 5 3 8 0 11-2 22-5 32 46 41 73 100 73 163z m-342-185c1 8 3 15 6 23 1 2 1 4 2 6 0 0 1 1 1 2 1 2 1 3 2 5 1 1 1 2 1 3 1 1 2 2 3 4 1 2 2 3 3 5 0 1 1 2 2 4 1 1 2 3 3 4 1 1 1 2 2 3 1 1 2 3 3 4 1 1 2 2 2 3 2 1 3 2 4 3 1 1 1 2 2 3 7 7 15 13 24 18 0 0 0 1 1 1 2 1 3 2 5 3 1 0 2 1 2 1 2 1 3 2 5 2 1 1 3 2 4 2 1 1 2 1 3 1 3 1 6 2 8 3 3 1 5 3 7 6 1 2 1 5 0 8-1 2-2 4-5 6-22 12-36 36-36 62 0 39 32 71 72 71 39 0 71-32 71-71 0-26-14-50-36-62-1-1-3-3-4-4-1-3-1-6 0-9 0-2 1-3 2-4 2-1 3-2 5-3 2 0 5-1 7-2 2-1 3-1 4-2 1 0 3-1 4-2 1 0 3-1 4-2 1 0 2-1 3-1 2-1 3-2 5-3 0 0 1-1 1-1 9-5 17-11 24-18 1-1 1-2 2-3 1-1 2-2 3-4 1 0 2-1 3-2 1-1 2-3 3-4 0-1 1-2 2-3 1-1 2-3 3-4 1-1 1-3 2-4 1-2 2-3 3-5 1-2 2-3 2-4 1-1 1-2 2-3 1-2 1-4 2-5 0-1 1-2 1-3 1-1 1-3 2-5 3-8 5-15 6-23l-252 0z m223 94c0 0-1 0-1 1-1 0-1 1-2 1-3 2-5 4-8 6-1 1-2 2-3 2-2 2-4 3-7 5-1 1-2 1-3 2-3 2-7 3-10 5 16 15 26 35 29 57 0 0 0 1 0 2 0 3 1 6 1 9 0 52-42 93-93 93-51 0-93-41-93-93 0-3 0-6 1-9 0-1 0-2 0-3 0-2 1-5 1-7 0 0 0-1 0-1 5-18 14-35 28-48-3-2-7-3-10-5-1-1-2-2-3-2-3-2-5-3-8-5-1-1-2-1-3-2-2-2-5-4-7-6-1 0-1-1-2-1 0-1-1-1-1-1-23 24-36 57-36 90 0 74 60 133 133 133 73 0 133-59 133-133 0-33-13-66-36-90z m32-40c0 1 0 1-1 2-2 3-4 7-6 10-1 1-1 1-2 2-2 3-3 5-5 7-1 1-2 2-3 3 0 0 0 1 0 1 27 28 42 66 42 105 0 85-69 155-154 155-85 0-154-70-154-155 0-39 15-77 42-105 0 0 0-1-1-1 0-1-1-2-2-3-2-2-4-4-5-7-1-1-2-1-2-2-2-4-5-7-7-10 0-1 0-2-1-2-1-3-3-6-4-9 0-1-1-1-1-1-38 36-60 87-60 141 0 107 87 194 195 194 107 0 195-87 195-194 0-54-22-105-60-141-1 0-1 1-1 1-1 3-3 6-5 9z"/>
<glyph glyph-name="icon-viagem-acessoria" unicode="&#57345;" d="M435 181c-10 0-19-4-25-11-12-11-34-28-51-33-1 14-7 23-13 28-21 21-63 16-78 14-37 34-85 37-107 37l0 17c0 6-5 10-11 10l-96 0c-6 0-11-4-11-10l0-170c0-6 5-10 11-10l96 0c6 0 11 4 11 10l0 16c11-6 28-14 49-22 29-10 57-15 84-15 20 0 39 3 57 9 4 1 83 29 110 71 11 18 11 36-1 48-7 7-16 11-25 11z m-296-107l-74 0 0 148 74 0z m304 60c-23-37-98-62-99-63-78-26-163 21-183 33l0 91c19 0 64-3 95-35 3-3 7-4 10-3 12 2 51 7 65-7 4-4 6-8 6-14l-116 0c-6 0-11-5-11-11 0-6 5-11 11-11l124 0c1 0 1 0 1 0 1 0 1 0 2 0 0 0 0 0 0 0 32 0 72 37 77 41 5 5 14 5 19 0 7-6 2-16-1-21z m-329-31c0-7-5-12-12-12-7 0-12 5-12 12 0 6 5 12 12 12 7 0 12-6 12-12z m116 210l45-26 22-47c1-2 4-4 6-4 1 0 1 0 2 0 2 0 4 0 5 2l16 15c2 2 3 5 2 8l-7 32 44 37 44-88c1-2 3-4 6-4 2-1 5 0 6 2l25 22c2 2 3 5 2 8l-26 107 37 31c7 6 11 15 11 24 1 10-3 19-9 26-6 6-15 11-25 11-10 1-19-2-26-9 0 0 0 0 0 0l-33-34-105 34c-3 1-6 1-8-1l-24-23c-2-1-3-4-3-6 0-3 2-5 4-6l84-51-40-41-31 10c-3 1-6 0-8-2l-17-14c-2-2-3-5-2-7 0-3 1-5 3-6z m23 12l32-10c2-1 5 0 8 2l50 51c2 2 3 5 3 7-1 2-2 5-4 6l-84 51 13 12 106-35c3-1 6-1 8 2l36 38c4 3 9 5 14 4 6 0 11-3 14-6 4-4 6-9 5-14 0-5-2-10-5-13l-41-34c-3-2-4-5-3-8l26-108-13-12-43 88c-2 2-4 4-6 4-2 1-5 0-7-2l-55-46c-2-2-3-5-3-8l8-32-5-5-18 38c0 1-1 2-1 2l-1 1c-1 1-1 1-2 2l-37 21z"/>
<glyph glyph-name="icon-viagem-bagagem" unicode="&#57346;" d="M469 147l0 159c0 0 0 0 0 0 0 1 0 1 0 1l0 52c0 9-7 16-16 16l-114 0 0 44c0 8-7 16-16 16l-135 0c-8 0-16-8-16-16l0-44-113 0c-9 0-16-7-16-16l0-52c0 0 0 0 0-1 0 0 0 0 0 0l0-159c0 0 0-1 0-1 0 0 0 0 0 0l0-53c0-9 7-16 16-16l394 0c9 0 16 7 16 16l0 53c0 0 0 0 0 0 0 0 0 1 0 1z m-79-48l-268 0c-1 10-5 25-16 38-10 11-24 17-42 19l0 140c18 2 32 9 42 20 12 12 15 28 16 38l268 0c1-10 4-26 16-38 10-11 24-18 42-20l0-140c-18-2-32-8-42-19-12-13-15-28-16-38z m58 219c-11 1-20 5-26 12-7 8-10 17-11 24l37 0 0-36z m-254 95l124 0 0-38-124 0z m-93-59c-1-7-4-16-11-24-6-7-15-11-26-12l0 36 37 0z m-37-219c11-2 20-6 26-12 7-8 10-17 11-24l-37 0z m347-36c1 7 4 16 11 24 6 6 14 10 26 12l0-37-37 0z m-207 220c-24 0-44-20-44-44 0-24 20-43 44-43 24 0 43 19 43 43 0 24-19 44-43 44z m0-71c-16 0-28 12-28 27 0 15 12 28 28 28 15 0 27-13 27-28 0-15-12-27-27-27z m154 18c-3 7-10 10-17 8l-84-31c-7-2-11-10-8-17l14-39c2-6 7-9 12-9 2 0 3 0 5 1l84 31c3 1 6 3 8 6 1 4 1 7 0 11z m-81-71l-12 34 79 29 12-34z m-56 2l-54 19c-4 2-7 2-11 0-3-1-5-4-7-7l-11-33c-2-3-2-7 0-10 1-4 4-6 7-7l54-20c2 0 3-1 5-1 2 0 4 1 6 2 3 1 5 4 7 7l11 33c2 3 2 7 0 10-1 3-4 6-7 7z m-19-42l-49 18 11 27 49-17z"/>
<glyph glyph-name="icon-viagem-hospedagem" unicode="&#57347;" d="M160 105c-17 0-31-14-31-31 0-18 14-31 31-31 17 0 31 13 31 31 0 17-14 31-31 31z m0-41c-5 0-9 4-9 10 0 5 4 9 9 9 6 0 10-4 10-9 0-6-4-10-10-10z m194 41c-17 0-31-14-31-31 0-18 14-31 31-31 17 0 31 13 31 31 0 17-14 31-31 31z m0-41c-6 0-10 4-10 9 0 6 4 10 10 10 5 0 9-4 9-10 0-5-4-9-9-9z m59 66l-11 0 0 169c0 62-47 113-108 120 1 4 2 7 2 10 0 22-18 40-40 40-22 0-40-18-40-40 0-3 1-6 2-10-61-7-108-58-108-120l0-169-11 0c-6 0-11-4-11-10 0-6 5-11 11-11l314 0c6 0 11 5 11 11 0 6-5 10-11 10z m-157 318c10 0 18-9 18-19 0-3-1-6-2-9l-32 0c-2 3-2 6-2 9 0 10 8 19 18 19z m-125-149c0 55 45 100 101 100l48 0c55 0 100-45 100-100l0-169-17 0 0 129c0 6-5 11-11 11l-50 0 7 31c1 3 0 6-2 9-2 2-5 4-8 4l-76 0c-5 0-9-4-10-8l-8-36-46 0c-6 0-10-5-10-11l0-129-18 0z m149-29l-53 0 5 23 53 0z m9-22l8 0 0-118-127 0 0 118z m30 0l23 0 0-118-23 0z"/>
<glyph glyph-name="icon-viagem-perda" unicode="&#57348;" d="M104 197l9-19c1-3 4-5 7-6 1 0 2-1 3-1 2 0 3 1 5 2l336 194c3 2 5 5 5 9 0 8-2 20-7 29-7 13-19 22-33 26-15 3-30 1-43-6 0 0 0 0 0 0l-71-46-170 57c-2 1-6 0-8-1l-48-27c-4-2-6-6-6-10 0-3 2-7 5-9l123-74-64-36-62 5c-2 0-5-1-6-2l-31-18c-3-1-5-5-5-8 0-3 1-7 3-9z m-17 65l62-4c2 0 4 0 5 1l84 46c3 2 5 6 5 9 1 4-1 8-5 10l-123 74 28 16 170-57c3-1 7 0 9 1l75 48c8 5 17 6 26 4 9-2 16-8 21-15 1-3 3-8 3-13l-319-185-5 11c-1 1-2 3-3 4l-48 41z m-34-148l405 0c6 0 11 5 11 11 0 6-5 10-11 10l-405 0c-5 0-10-4-10-10 0-6 5-11 10-11z m405-20l-405 0c-5 0-10-4-10-10 0-6 5-11 10-11l405 0c6 0 11 5 11 11 0 6-5 10-11 10z"/>
<glyph glyph-name="icon-viagem-pousar" unicode="&#57349;" d="M446 176c0 0-1 0-2 0l-387 70c-3 0-5 2-7 5-2 2-2 5-1 8l6 21-12 77c-1 3 0 6 3 9 2 2 6 3 9 3l36-7c2 0 4-1 5-2l45-45 74-14-47 138c-1 4 0 8 2 11 3 2 7 4 10 3l56-10c3-1 5-3 7-5l94-155 85-11c0 0 0 0 0 0 15-3 28-12 37-24 9-12 12-27 9-41-2-11-8-21-14-27-2-3-5-4-8-4z m-373 89l369-67c2 4 4 9 5 13 2 8 0 17-6 25-5 8-13 13-23 15l-89 11c-3 1-6 2-7 5l-95 156-33 6 47-139c2-3 1-7-2-10-2-3-6-4-10-4l-95 19c-2 1-4 2-5 3l-45 44-18 3 10-64c0-1 0-3 0-4z m385-169l-405 0c-6 0-10 5-10 11 0 6 4 10 10 10l405 0c6 0 11-4 11-10 0-6-5-11-11-11z m0-37l-405 0c-6 0-10 4-10 10 0 6 4 11 10 11l405 0c6 0 11-5 11-11 0-6-5-10-11-10z"/>
<glyph glyph-name="icon-viagem-seguro" unicode="&#57350;" d="M463 249l-157 87 4 78c0 0 0 0 0 0 0 31-24 55-54 55-30 0-55-25-55-55 0 0 0-1 1-2l4-76-157-87c-3-2-5-5-5-9l0-53c0-4 1-7 4-9 3-2 6-2 9-1l155 44 4-96-47-27c-3-2-5-5-5-9l-1-35c0-4 2-7 4-9 2-2 5-2 7-2 1 0 2 0 3 0l79 25 79-25c1 0 2 0 3 0 2 0 4 0 6 2 3 2 5 5 5 9l-1 35c0 4-2 7-6 9l-46 27 4 96 154-44c4-1 7-1 10 1 2 2 4 5 4 9l0 53c0 4-2 7-5 9z m-16-48l-154 44c-3 1-7 1-9-1-3-2-5-5-5-9l-5-116c0-4 2-7 6-9l47-27 0-15-68 22c0 0 0 0 0 0 0 0-1 0-1 0-1 0-1 0-1 0 0 0-1 0-1 0-1 0-1 0-1 0 0 0-1 0-1 0 0 0-1 0-1-1 0 0 0 0 0 0l-68-21 0 14 47 28c4 2 6 5 6 9l-5 116c-1 4-2 7-5 9-3 1-6 2-9 1l-154-44 0 32 157 87c4 2 6 6 6 10l-5 85c0 0 0 0 0 0 0 18 15 33 33 33 18 0 33-15 33-33l-5-85c0-4 2-8 5-10l158-87 0-32z"/>
<glyph glyph-name="icon-vert-auto" unicode="&#57351;" d="M468 332c0 10-8 17-17 17l-46-1c-3 0-6-1-9-2-9 43-40 85-89 84l-105-1c-44-1-79-36-88-87-2 1-5 2-8 2l-46-1c-9 0-17-8-17-17l0-19c0-10 8-17 18-17l31 0c-13-14-20-33-20-53l1-54c0-23 12-41 31-52 1-24 21-43 45-43 1 0 1 0 1 0l10 0c24 0 43 14 48 33l102 2c5-20 24-33 49-32l5 0c25 0 46 19 49 44 19 11 30 31 30 54l-1 53c0 21-9 39-22 53l32 0c9 1 17 8 17 18z m-266 75l105 2c39 0 63-36 70-72l2-17c-5 1-11 2-17 3l-42 3c-48 4-91 3-139-2l-33-4c-5-1-10-2-15-3l2 17c4 35 27 73 67 73z m-141-101c-1 0-2 1-2 1l0 19c0 1 1 2 1 2l46 0c0 0 1 0 1 0 0 0 0 0 0-1l0-13 3-5 0-2c-1-1-2-2-3-2l-12 2z m360-117c1-22-12-33-23-38l-6-3 0-7c0-15-13-28-29-29l-5 0c-12 0-28 6-29 23l0 10-141-2 0-10c0-17-16-23-28-24l-10 0c0 0 0 0 0 0-13 0-24 11-24 24l-1 12-6 2c-11 5-24 15-25 37l0 54c-1 30 24 58 56 61l34 3c27 3 53 5 79 5 18 0 37-1 56-2l42-3 0 0c33-2 59-28 60-60z m30 123l-34-1-11-3c-1 0-2 1-4 2l0 3 3 5-1 13c0 1 1 1 2 2l45 0c1 0 1 0 1-1l1-19c0-1-1-1-2-1z m-286-55c-10 0-19-4-26-11-7-8-11-17-10-27 0-10 4-19 11-26 7-7 16-10 26-10 0 0 0 0 0 0 21 0 37 17 37 37 0 10-4 19-11 26-8 7-17 11-27 11z m1-59c-6 0-11 2-15 6-4 4-6 10-6 15-1 6 2 11 6 15 3 4 9 7 14 7 1 0 1 0 1 0 5 0 10-2 14-6 4-4 7-10 7-15 0-12-9-21-21-22z m182 61c-9 0-19-4-26-11-7-7-10-16-10-26 0-21 17-37 37-37 0 0 0 0 0 0 10 0 20 4 27 11 6 7 10 17 10 27 0 20-17 37-38 36z m16-52c-4-4-9-6-15-6-11 0-21 9-21 21 0 5 2 11 6 15 4 4 9 6 15 6 0 0 0 0 0 0 12 0 21-9 21-21 0-5-2-10-6-15z"/>
<glyph glyph-name="icon-vert-capitalizacao" unicode="&#57352;" d="M292 245l-12 0c-3 4-4 7-4 11 0 3 1 6 3 9 0 1 1 1 2 2l11 0c24-2 46-3 65-3 41 0 69 6 89 26 25 25 25 63 0 88-14 14-35 18-49 19 0 13-3 33-19 49-12 12-28 19-44 19-16 0-32-7-44-19-29-29-28-75-23-155l0-6c-1-1-2-3-4-5-2-1-4-2-7-2-4 0-8 3-11 5l0 8c5 80 6 126-23 155-12 12-28 19-44 19-16 0-32-7-44-19-16-16-19-36-19-49-14-1-35-5-49-19-25-25-25-63 0-88 20-20 48-26 89-26 19 0 40 1 65 3l9 0c2-3 4-7 4-11 0-4-1-7-4-11l-9 0c-79 5-125 6-154-23-25-24-25-63 0-88 14-14 35-18 49-18 0-13 3-34 19-50 12-12 27-19 44-19 16 0 32 7 44 19 29 29 28 76 23 155l0 7c3 1 7 4 11 4 4 0 7-2 11-5l0-6c-5-79-6-126 23-155 12-12 28-19 44-19 16 0 32 7 44 19 16 16 19 37 19 50 14 0 35 4 49 18 25 25 25 64 0 88-29 29-75 28-154 23z m-37 9c0 0 0-1 0-1 0 0 0 0 0 0 0 0 0 1 0 1z m50 177c8 8 18 12 29 12 11 0 21-4 29-12 17-17 13-43 12-43 0-4 1-7 3-9 2-3 6-4 9-4 0 0 30 2 44-12 16-16 16-42 0-58-22-23-65-21-138-17-1 0-1 0-1 0l-4 0 0 3c0 1 0 1 0 1-4 74-6 116 17 139z m-50-174c0 0-1 0-1 0 0 0 1 0 1 0 0 0 0 0 0 0z m-35 31c0 0-1 0-1 0-73-4-116-6-138 17-17 16-17 42 0 58 11 11 30 12 39 12 3 0 5 0 5 0 3 0 7 1 9 4 2 2 3 6 3 9 0 0-5 26 12 43 8 8 18 13 29 13 11 0 21-5 29-13 23-22 21-65 17-139 0 0 0 0 0 0l0-4z m-13-207c-8-8-18-12-29-12-11 0-21 4-29 12-17 17-13 43-13 43 1 4 0 7-2 9-2 3-5 4-8 4 0 0-1 0-1 0 0 0-30-2-44 12-17 16-17 42 0 58 22 23 65 22 138 17 0 0 1 0 1 0l3 0 0-3c0 0 0-1 0-1 5-74 6-116-16-139z m224 68c-14-14-44-12-44-12-3 0-7-1-9-4-2-2-3-5-3-9 0 0 5-26-12-43-8-8-18-12-29-12-11 0-21 4-29 12-23 23-21 65-17 139 0 0 0 0 0 1l0 3 4 0c0 0 0 0 1 0 73 4 115 6 138-17 17-16 17-41 0-58z"/>
<glyph glyph-name="icon-vert-previdencia" unicode="&#57353;" d="M337 105l-59 57c-13 13-31 12-44 0l-59-57c-4-4-5-12-3-19 3-6 9-10 15-10l138 0c6 0 12 4 15 10 2 7 1 14-3 19z m-13-13l-137 0c0 0 0 1 0 2l58 56c6 7 15 7 22 1l58-57c0-1 0-2-1-2z m-59 129c0-5-4-9-9-9-5 0-9 4-9 9 0 5 4 9 9 9 5 0 9-4 9-9z m0-28c0-5-4-9-9-9-5 0-9 4-9 9 0 5 4 9 9 9 5 0 9-4 9-9z m14 97c23 19 43 36 58 64 5 8 5 15 2 21-5 7-14 8-17 8l-130 0c-5 0-15 0-19-8-5-8 0-18 2-21 15-28 34-44 58-64 8-8 16-11 23-11 7 0 15 3 23 11z m-90 71c-1 3-2 5-2 6 1 0 2 0 5 0l130 0c1 0 3 0 3-1 0 0 0-2-2-4-13-25-29-39-54-60-12-10-14-10-26 0-23 20-40 35-54 59z m222-296l-11 0c-5 108-74 169-104 191 30 22 99 84 104 192l11 0c6 0 11 4 11 10 0 6-5 11-11 11l-310 0c-6 0-11-5-11-11 0-6 5-10 11-10l11 0c4-108 73-170 104-192-31-22-100-83-104-191l-11 0c-6 0-11-5-11-11 0-6 5-11 11-11l310 0c6 0 11 5 11 11 0 6-5 11-11 11z m-171 182c0 0 0 0 0 0 1 0 2 1 2 2 0 0 1 0 1 0 0 1 1 1 1 2 0 0 0 0 0 0 0 0 0 0 0 0 1 1 1 1 1 1 0 1 0 1 0 1 0 0 0 1 0 1 0 1 1 1 1 1 0 1 0 1 0 1 0 1 0 1 0 1 0 1-1 1-1 1 0 1 0 1 0 1 0 1 0 1 0 1 0 1 0 1-1 1 0 0 0 0 0 0 0 1 0 1 0 1 0 0-1 1-1 1 0 0 0 1-1 1 0 0 0 0 0 0-1 1-1 1-1 1 0 0-1 0-1 1-1 0-101 58-107 182l245 0c-5-124-106-182-107-182 0-1 0-1 0-1-1 0-1 0-1 0 0-1-1-1-1-1 0 0 0-1-1-1 0 0 0-1 0-1-1 0-1 0-1 0 0-1 0-1 0-1 0 0 0-1 0-1-1 0-1 0-1-1 0 0 0 0 0-1 0 0 0 0 0-1 0 0 0 0 0-1 0 0 0 0 0-1 0 0 0-1 0-1 0 0 0 0 0-1 0 0 1 0 1-1 0 0 0 0 0-1 0 0 0 0 0 0 0 0 0 0 0 0 1-1 1-1 2-2 0 0 0 0 0 0 1-1 1-1 2-2 0 0 0 0 0 0 1-1 102-59 107-182l-245 0c6 123 106 181 107 182z"/>
<glyph glyph-name="icon-vert-dental" unicode="&#57354;" d="M465 367c-11 36-39 65-74 77-36 12-72-4-98-16-9-4-19-8-23-8-5 0-15 4-24 8-24 11-56 25-89 18l-2 16c-1 4-4 7-8 7-4 0-7-3-8-7l-4-23c-24-12-44-33-56-59l-28-4c-4-1-7-4-7-8 0-4 3-8 7-8l20-4c-7-36-3-91 52-161 18-23 22-55 25-82 4-35 8-71 46-71 36 0 45 47 52 89 5 26 12 62 24 62 12 0 18-36 23-62 7-42 16-89 52-89 38 0 42 36 46 71 4 27 8 59 26 82 59 78 59 136 48 172z m-332 9c0 0 0 1 0 1 5 4 9 9 11 15 0 0 0 1 0 1 0 0 0 1 0 1 0 0 0 0 0 0l3 16 2-15c0 0 0-1 0-1 3-11 12-20 24-23l20-3-21-4c-11-2-20-11-23-23l-2-16-3 16c-2 12-11 21-23 23l-20 4 20 3c4 1 8 3 11 5 0 0 0 0 1 0z m-2 35l-3-14c0 0 0 0 0 0 0 0 0 0 0 0 0-3-2-6-5-8 0 0 0 0 0 0-1-1-3-2-5-2l-13-2c8 11 16 20 26 26z m269-203c-22-28-26-64-30-93-4-38-8-52-25-52-19 0-25 38-31 72-7 39-15 79-45 79-29 0-37-40-44-79-6-34-13-72-31-72-17 0-21 14-25 52-4 29-8 65-30 93-50 65-54 113-47 145l26-4c5-2 9-6 10-11l11-65c1-3 4-6 8-6 4 0 7 3 8 6l10 65c1 5 5 9 10 10l68 12c4 0 7 4 7 8 0 4-3 7-7 8l-67 11c-6 1-10 5-11 10l-4 28c26 6 55-7 76-16 13-6 24-11 33-11 8 0 19 5 32 11 23 10 54 24 83 14 22-7 49-27 60-63 9-30 9-82-45-152z"/>
<glyph glyph-name="icon-vert-residencial" unicode="&#57355;" d="M410 290c-6 0-10-5-10-11l0-156c0-5-4-9-9-9l-269 0c-5 0-8 4-8 9l0 156c0 6-5 11-11 11-6 0-11-5-11-11l0-156c0-17 14-30 30-30l269 0c17 0 30 13 30 30l0 156c0 6-5 11-11 11z m55 5l-75 50 0 63c0 6-5 11-11 11l-55 0c-6 0-11-5-11-11l0-15c-6 4-15 10-25 16-31 21-62 1-63 1l-178-114c-5-4-6-10-3-15 2-3 6-5 9-5 2 0 4 0 6 2l177 114c0 0 21 13 40 0 25-17 42-27 43-27 3-2 7-2 10 0 4 2 6 5 6 9l0 24 33 0 0-59c0-3 2-7 5-9l80-52c5-3 11-2 14 3 4 5 2 11-2 14z"/>
<glyph glyph-name="icon-vert-saude" unicode="&#57356;" d="M250 175c2-1 4-2 6-2 2 0 4 1 5 2 5 3 118 75 150 149 6 14 10 29 10 44 0 55-46 101-102 101-23 0-45-8-63-23-18 15-41 23-64 23-56 0-101-46-101-101 0-13 2-25 6-37 2-3 35-83 153-156z m-58 273c21 0 41-9 56-23 0-1 1-1 1-1 4-3 10-3 14 1 15 15 35 23 56 23 45 0 80-36 80-80 0-12-2-24-7-34 0 0 0-1 0-1-26-60-113-121-136-136-108 68-139 142-139 142-3 9-5 19-5 29 0 44 36 80 80 80z m264-165c0 16-12 28-28 28-15 0-28-12-28-28 0-12 8-23 20-26 0-4-3-14-15-31-22-31-79-83-149-83-71 0-128 52-150 83-12 17-14 27-15 31 12 3 20 14 20 26 0 16-13 28-28 28-15 0-28-12-28-28 0-11 6-20 15-25 0-8 3-19 11-32 22-38 86-99 164-104 0-15-3-44-17-54-7-5-16-5-27 0l-42 18c1 3 1 6 1 9 0 26-22 48-48 48-27 0-48-22-48-48 0-27 21-48 48-48 16 0 30 7 39 19l42-18c8-3 16-5 23-5 9 0 18 3 25 8 23 16 25 55 25 71 78 5 142 66 164 104 8 13 11 24 11 32 9 5 15 14 15 25z m-373 7c4 0 7-3 7-7 0-4-3-7-7-7-4 0-7 3-7 7 0 4 3 7 7 7z m29-222c-15 0-27 12-27 27 0 14 12 26 27 26 15 0 27-12 27-26 0 0 0 0 0 0l-23 9c-5 3-12 0-14-5-2-5 0-12 6-14l22-10c-5-4-11-7-18-7z m316 222c4 0 7-3 7-7 0-4-3-7-7-7-3 0-6 3-6 7 0 4 3 7 6 7z"/>
<glyph glyph-name="icon-vert-vida" unicode="&#57357;" d="M371 267c14 14 22 33 22 52 0 41-34 74-76 74-38 0-69-27-75-63-13 15-32 24-53 24-37 0-67-26-71-62 0 0 0-1 0-1l0 0c0-7-3-21-21-27-5-2-9-7-7-13 0-1 4-13 17-22 3-1 6-3 10-4-23-19-38-46-39-76l-6-70c-1-4 2-9 6-10l56-24c1-1 3-1 4-1 4 0 8 2 10 6 2 6 0 12-6 14l-49 21 6 63c2 36 27 67 63 78 3 1 6 3 7 6 1 3 1 7-1 10-2 3-7 5-12 4-23-6-34-1-40 3 16 10 23 27 24 40l0 1c0 0 0 0 0 0l0 1c2 24 23 42 49 42 27 0 49-21 49-47 0-17-10-32-25-41-2-1-4-3-5-6-1-6 2-12 7-13 3-1 6-1 9 1 18 10 30 27 34 46 6-7 13-13 21-17 3-2 7-3 10-1 6 2 8 9 5 14 0 2-2 4-4 5-17 9-27 27-27 45 0 29 24 53 54 53 30 0 55-24 55-53 0-18-11-36-28-45-1-1-2-2-3-3-2-3-3-7-1-10 1-3 3-6 7-7 39-11 67-46 69-85l6-83-50-20c-6-2-9-8-7-13 2-5 6-7 10-7 2 0 3 0 4 0l58 22c4 2 7 6 7 11l-7 91c-2 42-28 79-66 97z m-70-138c10 10 15 23 15 37 0 32-27 58-59 58-33 0-60-26-60-58 0-14 5-27 15-37-28-15-46-43-48-74 0 0 0-1 0-1 0-6 5-10 11-10l163 0c6 0 11 5 11 10 0 1 0 1 0 1-2 31-20 59-48 74z m-114-64c6 24 24 43 48 50 3 1 6 3 7 6 1 3 1 6 0 9-1 2-2 4-4 5-12 6-19 19-19 31 0 21 17 37 38 37 21 0 38-16 38-37 0-12-8-25-19-31-2-1-3-2-4-4-2-3-2-6-1-9 1-3 4-6 7-7 24-7 43-26 48-50z m282 279c-60 108-158 124-212 124-53 0-152-16-211-124-3-5-1-11 4-14 2-1 4-2 5-2 4 0 8 2 10 6 54 98 144 113 192 113 49 0 139-15 193-113 2-4 6-6 10-6 1 0 3 1 5 2 5 3 7 9 4 14z"/>
<glyph glyph-name="icon-vb-beneficios" unicode="&#57358;" d="M475 263l-106 132c-2 2-5 4-9 4l-306 0c-6 0-10-5-10-11l0-264c0-6 4-11 10-11l306 0c3 0 7 2 9 4l106 133c4 4 4 9 0 13z m-120-129l-290 0 0 243 290 0 98-121z m44 122c0-8-7-15-15-15-8 0-15 7-15 15 0 9 7 15 15 15 8 0 15-6 15-15z m-241-21c2-2 4-2 6-2 2 0 4 0 5 2l71 70c3 4 3 9 0 12-3 3-8 3-11 0l-71-71c-3-3-3-8 0-11z m16 42c14 0 24 10 24 24 0 13-10 24-24 24-13 0-23-11-23-24 0-14 10-24 23-24z m0 31c5 0 8-3 8-7 0-5-3-8-8-8-4 0-7 3-7 8 0 4 3 7 7 7z m50-33c-13 0-24-10-24-24 0-13 11-24 24-24 13 0 24 11 24 24 0 14-11 24-24 24z m0-32c-5 0-8 4-8 8 0 5 3 8 8 8 4 0 8-3 8-8 0-4-4-8-8-8z m86 73c0 0 0 0 0 0 0 0 0 0 0 0 0 0 0 0 0 0-2 2-3 3-6 3-2 0-4-1-5-3 0 0 0 0 0 0 0 0 0 0 0 0 0 0-1 0-1 0l-30-35c-2-3-2-8 1-11 2-2 4-2 5-2 3 0 5 1 6 3l16 18 0-20c0-50-40-90-89-90-49 0-89 41-89 90l0 16c0 4-4 8-8 8-5 0-8-4-8-8l0-16c0-58 47-106 105-106 58 0 105 48 105 106l0 20 16-18c3-4 8-4 12-1 3 3 3 8 1 11z"/>
<glyph glyph-name="icon-vb-bercario" unicode="&#57359;" d="M360 175c-33 0-60-25-66-56l-16 0 0 93 96 0c19 0 38 8 51 23 42 47 55 105 33 155-21 45-66 75-117 75-6 0-10-5-10-11l0-104-213 0 0 35c0 13-11 24-24 24l-40 0c-6 0-11-5-11-11 0-5 5-10 11-10l40 0c1 0 3-1 3-3l0-45c0 0 0 0 0 0 0 0 0 0 0 0l0-1c-3-122 118-127 119-127l40 0 0-93-22 0c-5 32-32 56-66 56-36 0-66-30-66-67 0-36 30-66 66-66 34 0 61 24 66 56l60 0c6-32 33-56 66-56 37 0 67 30 67 66 0 37-30 67-67 67z m-242 154l223 0c6 0 11 5 11 11l0 103c37-4 71-27 86-62 19-42 8-90-29-132-9-10-22-16-35-16l-158 0c-4 0-95 4-98 96z m50-266c-25 0-45 20-45 45 0 25 20 45 45 45 25 0 46-20 46-45 0-25-21-45-46-45z m192 0c-25 0-45 20-45 45 0 25 20 45 45 45 25 0 45-20 45-45 0-25-20-45-45-45z"/>
<glyph glyph-name="icon-vb-danca" unicode="&#57360;" d="M427 341c-22 0-41-19-41-41-2-42-7-72-7-72 0 0-17-20-43-20-11 0-25 4-40 16 25 14 41 41 41 71 0 46-36 82-82 82-45 0-82-36-82-82 0-29 16-56 40-70-4 2-17 9-36 9-15 0-34-4-55-16l-66-38-12-85c-1-3-1-6-1-9 0-23 18-41 41-41 22 0 41 18 41 41 2 41 7 51 7 51 0 0 17 19 43 19 0 0 0 0 0 0l0-111 161 0 0 71 119 69 12 105c1 3 1 6 1 10 0 22-18 41-41 41z m20-46c-1-1-1-1-1-2l-11-95-109-63c-7-4-11-11-11-19l0-50-119 0 0 90c0 12-9 21-21 22l0 0c-35 0-57-24-59-27-1-1-2-3-3-4-2-5-7-20-9-60 0 0 0-1 0-1 0-11-9-20-20-20-11 0-20 9-20 20 0 1 0 3 1 5 0 0 0 1 0 1l11 74 57 33c15 9 30 14 44 14 15 0 24-5 26-6 0 0 0 0 0 0 3-3 7-4 12-4 12 0 21 10 21 21 0 8-4 15-11 19 0 0 0 0-1 0-18 12-29 31-29 53 0 33 27 60 60 60 34 0 61-27 61-60 0-22-12-42-30-53-6-4-10-10-11-17-1-7 2-14 8-18 17-14 35-21 54-21 34 0 56 24 58 27 3 3 5 6 5 10 0 2 5 33 8 75 0 0 0 0 0 1 0 11 8 20 19 20 11 0 20-9 20-20 0-2 0-3 0-5z m-232-71z m246 247l-59 0c-4 0-8-4-8-8l0-55c-4 3-10 4-16 4-17 0-32-13-32-29 0-16 15-30 32-30 18 0 32 14 32 30l0 40 51 0c4 0 8 3 8 8l0 32c0 4-4 8-8 8z m-83-102c-8 0-16 6-16 14 0 7 8 13 16 13 9 0 16-6 16-13 0-8-7-14-16-14z m75 70l-43 0 0 16 43 0z m-379-86c18 0 32 13 32 29l0 40 64 0 0-14c-5 2-10 4-16 4-18 0-32-13-32-30 0-16 14-29 32-29 18 0 32 13 32 29l0 80c0 5-4 8-8 8l-80 0c-4 0-8-3-8-8l0-54c-5 2-10 4-16 4-17 0-32-13-32-29 0-17 15-30 32-30z m80 16c-9 0-16 6-16 13 0 8 7 14 16 14 9 0 16-6 16-14 0-7-7-13-16-13z m-48 85l64 0 0-16-64 0z m-32-58c9 0 16-6 16-14 0-7-7-13-16-13-9 0-16 6-16 13 0 8 7 14 16 14z"/>
<glyph glyph-name="icon-vb-documentarios" unicode="&#57361;" d="M458 469l-405 0c-6 0-10-5-10-11l0-404c0-6 4-11 10-11l405 0c6 0 10 5 10 11l0 404c0 6-4 11-10 11z m-11-202l-67 0 0 77 67 0z m-88 0l-207 0 0 181 207 0 0-181z m-228 0l-67 0 0 77 67 0z m-67-22l67 0 0-77-67 0z m88 0l207 0 0-181-207 0z m228 0l67 0 0-77-67 0z m67 120l-67 0 0 83 67 0z m-316 83l0-83-67 0 0 83z m-67-301l67 0 0-83-67 0z m316-83l0 83 67 0 0-83z"/>
<glyph glyph-name="icon-vb-exposicoes" unicode="&#57362;" d="M186 269l141 0c5 0 8 4 8 8l0 181c0 5-3 8-8 8l-141 0c-5 0-8-3-8-8l0-181c0-4 3-8 8-8z m133 27l-18 18c0 0 0 1 0 1l0 106c0 0 0 0 0 0l18 18z m-91 27l0 29 9 9 8-10c2-1 4-2 7-3 2 0 4 2 6 3l13 17 14-13 0-32z m57 90l0-36-9 9c0 0 0 0 0 0 0 0 0 0 0 0-1 1-2 1-2 1-1 1-1 1-1 1-1 0-2 0-2 0-1 0-1 0-1 0-1 0-2 0-2-1-1 0-1 0-1 0-1 0-1-1-2-1 0 0 0 0 0 0 0 0 0-1 0-1-1 0-1 0-1 0l-13-16-7 9c-2 2-4 3-6 3-2 0-4-1-6-2l-4-5 0 39z m-58-106l59 0 22-22-103 0z m59 122l-59 0-22 21 103 0z m-74-8c0 0 0 0 0 0l0-106c0-1 0-1 0-1l-18-18 0 143z m-134-149l48 0c8 0 16 7 16 16l0 28c0 9-8 16-16 16l-48 0c-9 0-16-7-16-16l0-28c0-9 7-16 16-16z m5 39l37 0 0-18-37 0z m363-205l0 150c0 6-5 11-11 11l-49 0c-6 0-11-5-11-11l0-7c-39-33-79-50-119-50-40 0-80 18-119 51l0 7c0 6-5 10-11 10l-49 0c-6 0-11-4-11-10l0-151c-9-6-23-22-23-55 0-5 5-10 11-10l95 0c6 0 11 5 11 10 0 33-14 49-23 55l0 89c19-29 55-61 120-61 63 0 99 31 118 60l0-88c-9-7-23-22-23-55 0-6 5-11 11-11l95 0c6 0 11 5 11 11 0 33-14 48-23 55z m-308-44l-73 0c3 22 16 28 16 28 4 2 7 6 7 10l0 146 28 0 0-146c0-4 2-8 6-10 1 0 13-5 16-28z m119 93c-61 0-91 32-106 58 34-23 70-35 105-36 0 0 1 0 1 0 35 1 71 13 106 36-15-26-45-58-106-58z m117-93c3 22 15 28 16 28 4 2 6 5 6 10l0 146 28 0 0-146c0-4 3-8 7-10 0 0 13-6 16-28l-73 0z m12 209l48 0c9 0 16 8 16 16l0 29c0 9-7 16-16 16l-48 0c-8 0-16-7-16-16l0-29c0-8 8-16 16-16z m6 40l37 0 0-18-37 0z"/>
<glyph glyph-name="icon-vb-facilidades" unicode="&#57363;" d="M446 158c-6 0-10-5-10-11l0-29-372 0 0 267 372 0 0-32c0-6 5-11 10-11 6 0 11 5 11 11l0 38c0 9-7 16-16 16l-382 0c-9 0-16-7-16-16l0-278c0-9 7-16 16-16l382 0c9 0 16 7 16 16l0 34c0 6-5 11-11 11z m-341 88l98 0c4 0 8 3 8 8 0 4-4 8-8 8l-98 0c-4 0-8-4-8-8 0-5 4-8 8-8z m148-38c0 4-4 8-8 8l-115 0c-5 0-8-4-8-8 0-4 3-8 8-8l115 0c4 0 8 3 8 8z m-148-54l98 0c4 0 8 4 8 8 0 4-4 8-8 8l-98 0c-4 0-8-4-8-8 0-4 4-8 8-8z m0 130l59 0c4 0 8 4 8 8l0 52c0 4-4 8-8 8l-59 0c-4 0-8-4-8-8l0-52c0-4 4-8 8-8z m51 52l0-10-7 0c-4 0-8-4-8-8 0-4 4-8 8-8l7 0 0-10-43 0 0 10 7 0c4 0 8 4 8 8 0 4-4 8-8 8l-7 0 0 10z m214 17c-57 0-103-47-103-103 0-57 46-104 103-104 57 0 103 47 103 104 0 56-46 103-103 103z m0-185c-45 0-82 36-82 82 0 45 37 81 82 81 45 0 82-36 82-81 0-46-37-82-82-82z m35 119l-44-53-24 24c-4 4-11 4-15-1-4-4-4-10 0-15l32-31c2-2 5-3 8-3 0 0 0 0 0 0 3 0 6 2 8 4l51 61c4 5 3 12-1 15-5 4-11 4-15-1z"/>
<glyph glyph-name="icon-vb-jazz" unicode="&#57364;" d="M437 385c0 0 0 0 0 0-2 1-14 1-23-6-3-3-7-9-7-18 0-17-17-57-44-57l-64 0 0 27c0 6-5 11-10 11-6 0-11-5-11-11l0-27-24 0 0 27c0 6-5 11-11 11-6 0-10-5-10-11l0-27-24 0 0 27c0 6-5 11-11 11-6 0-11-5-11-11l0-27c-7 0-43-1-66-23-13-12-19-27-20-46l-37 0 0 27c0 6-5 11-11 11-6 0-11-5-11-11l0-77c0-6 5-11 11-11 6 0 11 5 11 11l0 28 38 0c8-47 47-64 69-66 0 0 1 0 1 0l131 0c1 0 1 0 2 0 7 0 24 1 37 13 8 9 13 20 13 34 0 17-7 26-14 31-14 12-34 11-42 10l0 48 64 0c24 0 40-35 40-49 0-20 13-33 33-33 18 0 32 15 32 33l0 119c1 17-13 32-31 32z m-204-102l0-48-24 0 0 48z m45-114l-24 0 0 44 24 0z m-45 0l-24 0 0 44 24 0z m-97 97c17 16 46 17 52 17l0-48-66 0c1 13 5 23 14 31z m-12-53l64 0 0-44-15 0c-5 0-41 6-49 44z m176 1c5 1 20 1 28-5 4-3 6-8 6-15 0-8-2-14-7-18-8-8-22-7-22-7-1 0-1 0-1 0l-5 0 0 44c0 1 1 1 1 1z m-22 21l-24 0 0 48 24 0z m169-1c0-7-5-12-11-12-8 0-11 4-11 12 0 16-11 44-31 59 22 17 34 49 34 68 0 0 0 1 0 2 2 1 5 1 7 1 0 0 0 0 0 0 1 0 1 0 1 0 6 0 11-5 11-11z"/>
<glyph glyph-name="icon-vb-livro" unicode="&#57365;" d="M441 375c-7 4-45 23-85 23-39 0-77-19-85-23-6-4-12-7-16-12-4 5-9 8-16 12-7 4-45 23-85 23-39 0-77-19-85-23-18-9-27-22-27-38l0-191c0-17 15-32 32-32l160 0c8 0 16 3 21 8 6-5 13-8 21-8l160 0c18 0 32 15 32 32l0 191c0 16-9 29-27 38z m-160-19c4 2 40 20 75 20 36 0 71-18 75-20 14-7 16-14 16-19l0-175c-2 1-4 2-6 3-7 4-45 22-85 22-39 0-77-18-85-22-2-1-3-2-5-3l0 175c0 1 0 2 0 2 0 5 3 11 15 17z m-202 0c4 2 40 20 75 20 36 0 71-18 75-20 13-6 15-12 16-17 0-1 0-1 0-2l0-175c-2 1-4 2-6 3-7 4-45 22-85 22-39 0-77-18-85-22-2-1-3-2-5-3l0 175c0 5 2 12 15 19z m-5-220c-2 0-5 1-7 3 2 0 3 1 4 2 2 1 5 3 8 5 4 2 40 20 75 20 36 0 71-18 75-20 4-2 6-4 9-5 1-1 2-2 4-2-2-2-5-3-8-3z m202 0c-2 0-5 1-7 3 2 0 3 1 4 2 2 1 5 3 8 5 4 2 40 20 75 20 36 0 71-18 75-20 4-2 6-4 9-5 1-1 2-2 4-2-2-2-5-3-8-3z"/>
<glyph glyph-name="icon-vb-musical" unicode="&#57366;" d="M295 286c-3 1-54 40-124 40-64 0-121-39-124-41-3-2-4-5-4-9 0-2 2-53 18-104 22-72 60-109 110-109 53 0 92 38 113 109 15 52 15 103 15 105 0 4-2 7-4 9z m-32-108c-18-62-49-94-92-94-88 0-104 155-107 187 15 9 59 34 107 34 52 0 93-24 107-33-1-14-3-55-15-94z m-105 51c0 6-5 11-11 11l-42 0c-6 0-11-5-11-11 0-6 5-11 11-11l42 0c6 0 11 5 11 11z m37-11l42 0c6 0 11 5 11 11 0 6-5 11-11 11l-42 0c-6 0-11-5-11-11 0-6 5-11 11-11z m-26-21c-21 0-38-19-38-42 0-24 17-43 38-43 20 0 37 19 37 43 0 23-17 42-37 42z m0-63c-9 0-16 9-16 21 0 11 7 21 16 21 8 0 15-10 15-21 0-12-7-21-15-21z m177 222l0 40 50 0c5 0 8 4 8 8l0 32c0 4-3 8-8 8l-58 0c-4 0-8-4-8-8l0-55c-5 3-10 4-16 4-17 0-32-13-32-29 0-16 15-29 32-29 18 0 32 13 32 29z m0 72l42 0 0-16-42 0z m-32-85c-9 0-16 6-16 13 0 8 7 14 16 14 9 0 16-6 16-14 0-7-7-13-16-13z m154-77l0 48 0 32c0 4-4 8-8 8l-79 0c-5 0-8-4-8-8l0-55c-5 3-11 4-16 4-18 0-32-13-32-29 0-16 14-29 32-29 17 0 31 13 31 29l0 40 64 0 0-15c-5 3-10 4-16 4-17 0-32-13-32-29 0-16 15-29 32-29 17 0 31 12 32 27 0 1 0 2 0 2z m-111-13c-9 0-16 6-16 13 0 7 7 13 16 13 9 0 16-6 16-13 0-7-8-13-16-13z m32 85l63 0 0-16-63 0z m47-85c-9 0-16 6-16 13 0 7 7 13 16 13 9 0 16-6 16-13 0-7-7-13-16-13z"/>
<glyph glyph-name="icon-vb-recompensas" unicode="&#57367;" d="M457 364l-101 0c21 7 38 14 48 23 9 8 15 19 15 31 0 14-5 26-14 36-17 17-43 17-65 1-23-17-66-65-84-85-18 20-62 68-85 85-22 16-48 16-65-1-9-10-14-22-14-36 1-12 6-23 15-31 10-9 28-16 48-23l-101 0c-6 0-11-5-11-10l0-83c0-6 5-11 11-11l3 0 0-208c0-6 5-10 11-10l371 0c6 0 11 5 11 10l0 208 7 0c6 0 11 5 11 11l0 83c0 6-5 10-11 10z m-10-83l-138 0 0 62 138 0z m-159 62l0-62-71 0 0 62z m65 95c10 7 26 12 37 1 5-6 8-13 7-20 0-6-2-12-7-16-14-12-52-24-106-34 20 23 52 56 69 69z m-239-19c0 7 2 14 7 20 5 4 11 6 16 6 8 0 16-3 21-8 17-12 49-45 69-68-54 10-92 22-106 34-4 4-7 10-7 16z m-50-76l131 0 0-62-131 0z m15-83l116 0 0-197-116 0z m138-197l0 197 71 0 0-197z m211 0l-119 0 0 197 119 0 0-197z"/>
<glyph glyph-name="icon-vb-teatro" unicode="&#57368;" d="M201 222c-40 27-78 1-80 0-3-3-4-8-2-11 3-4 8-5 12-2 0 0 30 21 61 0 1-1 3-2 4-2 3 0 6 2 7 4 3 3 2 8-2 11z m-53 49c4 3 5 8 2 11-3 4-8 5-11 2-10-7-18-1-19 0-3 3-8 2-11-1-3-4-2-9 1-11 4-3 11-7 20-7 5 0 12 2 18 6z m50 13c0 0-9-7-19 0-3 3-8 2-11-2-2-3-1-8 2-11 7-4 13-6 19-6 8 0 16 4 19 7 4 2 4 7 1 11-2 3-7 4-11 1z m267 55c-2 2-49 37-113 37-39 0-75-16-95-27-20 12-55 27-98 27-58 0-110-35-113-37-3-2-4-6-4-9 0-2 2-48 17-95 20-65 55-100 100-100 45 0 78 29 98 83 21-54 54-83 95-83 49 0 85 35 104 100 13 48 13 94 13 96 0 3-1 6-4 8z m-306-183c-78 0-93 138-95 169 13 8 53 30 95 30 32 0 59-10 78-19-1 0-1 0-1 0 0-1 0-2 0-2-1-1-1-1-1-1 0-1 0-2 0-3 0 0 0-1 0-1 0 0 0 0 0 0 0-1 0-1 0-1 0-1 0-1 0-2 0 0 0 0 0-1 0 0 0-1 0-1 0-1 0-1 0-2 1 0 1-1 1-2 0 0 0-1 0-1 0-4 1-10 2-17 0 0 0-1 0-1 0-1 0-3 0-4 0-1 0-1 0-2 1-2 1-3 1-5 0 0 0-1 0-1 1-2 1-4 1-6 0 0 0 0 0-1 1-5 3-11 4-17 0-1 0-2 0-3 1-1 1-3 1-4 1-1 1-2 1-3-11-46-34-99-87-99z m276 85c-16-56-44-85-83-85-49 0-73 54-85 102 0 0 0 1 0 1-1 2-1 4-1 6 0 0-1 0-1 0-5 26-8 49-8 60 1 1 3 2 5 3 17 10 52 27 90 27 47 0 84-22 96-30 0-13-3-48-13-84z m-123-10c-2-4-1-9 2-11 1-1 18-13 41-13 12 0 25 3 39 12 4 3 5 8 2 12-2 3-7 4-11 2-31-21-60-1-62 0-3 2-8 1-11-2z m20 49c1-1 3-1 5-1 2 0 4 1 6 3 3 4 2 9-2 11-16 12-32 5-38 0-3-3-4-8-1-11 3-4 8-4 11-2 1 1 9 7 19 0z m36-1c1 0 3 0 4 1 10 7 18 1 19 0 4-2 9-2 11 2 3 3 3 8-1 11-6 5-22 12-38 0-4-2-4-7-2-11 2-2 4-3 7-3z"/>
<glyph glyph-name="icon-vb-todas" unicode="&#57369;" d="M165 119c7 10 12 21 12 34 0 28-24 52-52 52-29 0-53-24-53-52 0-13 5-24 12-34-23-13-38-37-40-65 0 0 0 0 0-1 0-5 5-10 11-10l139 0c6 0 11 5 11 11 0 0 0 0 0 0-2 28-17 52-40 65z m-98-55c5 20 20 36 40 42 3 1 5 3 7 6 1 3 1 6 0 9-1 2-3 4-5 5-9 5-15 16-15 27 0 17 14 31 31 31 17 0 31-14 31-31 0-11-6-22-16-27-2-1-3-2-4-4-1-3-2-6-1-9 2-3 4-6 7-6 20-7 35-23 40-42l-115 0z m234 405c-93 0-168-59-168-131 0-41 25-79 66-104 2-20 0-36-4-45l-10-17c-2-3-1-8 2-12 2-2 5-3 8-3 1 0 2 0 4 0 2 1 49 19 79 52 8-1 16-1 23-1 93 0 169 58 169 130 0 72-76 131-169 131z m0-240c-8 0-17 1-26 2-3 0-7-1-9-4-14-16-33-28-48-37 4 13 4 31 2 52 0 3-2 6-5 8-38 21-61 54-61 88 0 60 66 109 147 109 81 0 147-49 147-109 0-60-66-109-147-109z m59 102l-109 0c-4 0-8-4-8-8 0-31 28-56 63-56 34 0 62 25 62 56 0 4-3 8-8 8z m-54-48c-23 0-42 14-46 32l92 0c-5-18-24-32-46-32z m-47 96c9 0 16-5 16-10 0-4 4-8 8-8 4 0 8 4 8 8 0 15-14 26-32 26-18 0-33-11-33-26 0-4 4-8 8-8 5 0 8 4 8 8 0 5 7 10 17 10z m94 16c-18 0-33-11-33-26 0-4 4-8 8-8 5 0 8 4 8 8 0 5 7 10 17 10 9 0 16-5 16-10 0-4 4-8 8-8 4 0 8 4 8 8 0 15-14 26-32 26z"/>
<glyph glyph-name="icon-seta-baixo-a" unicode="&#57370;" d="M426 413l-170-170-170 170-72-72 170-170 72-72 72 72 170 170z"/>
<glyph glyph-name="icon-seta-baixo-b" unicode="&#57371;" d="M447 398l-191-191-191 191-47-47 191-190 47-47 47 47 191 190z"/>
<glyph glyph-name="icon-seta-baixo-c" unicode="&#57372;" d="M469 382l-213-213-213 213-20-19 214-214 19-19 20 19 213 214z"/>
<glyph glyph-name="icon-seta-cima-a" unicode="&#57373;" d="M86 98l171 170 170-170 72 72-171 170-71 72-242-242z"/>
<glyph glyph-name="icon-seta-cima-b" unicode="&#57374;" d="M65 114l191 190 191-190 47 47-191 190-47 47-47-47-191-190z"/>
<glyph glyph-name="icon-seta-cima-c" unicode="&#57375;" d="M43 130l213 213 213-213 20 19-213 214-20 19-19-19-214-214z"/>
<glyph glyph-name="icon-seta-direita-a" unicode="&#57376;" d="M99 426l170-170-170-170 72-72 170 170 72 72-72 72-170 170z"/>
<glyph glyph-name="icon-seta-direita-b" unicode="&#57377;" d="M114 447l191-191-191-191 47-47 190 191 47 47-47 47-190 191z"/>
<glyph glyph-name="icon-seta-direita-c" unicode="&#57378;" d="M130 469l213-213-213-213 19-20 214 213 19 20-19 19-214 214z"/>
<glyph glyph-name="icon-seta-esquerda-a" unicode="&#57379;" d="M413 86l-170 170 170 170-72 72-170-170-72-72 72-72 170-170z"/>
<glyph glyph-name="icon-seta-esquerda-b" unicode="&#57380;" d="M398 65l-190 191 190 191-47 47-190-191-47-47 47-47 190-191z"/>
<glyph glyph-name="icon-seta-esquerda-c" unicode="&#57381;" d="M382 43l-213 213 213 213-19 20-214-214-19-19 19-20 214-213z"/>
<glyph glyph-name="icon-saude-agendar-consulta" unicode="&#57382;" d="M452 314l-51 0 0 12c0 6-5 11-11 11-6 0-11-5-11-11l0-12-25 0c0 1 0 2 0 3 0 85-70 155-155 155-86 0-156-70-156-155 0-73 50-134 117-151l0-103c0-9 7-16 16-16l276 0c9 0 17 7 17 16l0 235c0 9-8 16-17 16z m-73-21l0-12c0-6 5-11 11-11 6 0 11 5 11 11l0 12 46 0 0-31-103 0c4 10 7 20 8 31z m-315 24c0 74 61 134 135 134 74 0 134-61 134-134 0-74-61-135-134-135-74 0-135 61-135 135z m117-249l0 94c6 0 12-1 18-1 34 0 66 12 92 31-1-2-2-4-2-6 0-4 4-8 8-8l35 0c4 0 8 4 8 8 0 5-4 8-8 8l-35 0c-1 0-3 0-4-1 18 14 34 33 44 53l110 0 0-178-266 0z m221 126l-35 0c-5 0-8-3-8-8 0-4 3-8 8-8l35 0c4 0 8 4 8 8 0 5-4 8-8 8z m-140-52l-35 0c-4 0-8-3-8-8 0-4 4-8 8-8l35 0c4 0 8 4 8 8 0 5-4 8-8 8z m70 0l-35 0c-5 0-8-3-8-8 0-4 3-8 8-8l35 0c4 0 8 4 8 8 0 5-4 8-8 8z m70 0l-35 0c-5 0-8-3-8-8 0-4 3-8 8-8l35 0c4 0 8 4 8 8 0 5-4 8-8 8z m-167 127c1-2 3-2 5-2 2 0 5 1 6 2 3 3 3 8 0 11l-39 40 0 73c0 4-4 8-8 8-5 0-8-4-8-8l0-76c0-3 0-5 2-6z m71 40l11 0c4 0 8 3 8 8 0 4-4 8-8 8l-11 0c-5 0-8-4-8-8 0-5 3-8 8-8z m-214 16l-12 0c-4 0-8-4-8-8 0-5 4-8 8-8l12 0c4 0 8 3 8 8 0 4-4 8-8 8z m115-127l0 12c0 4-4 8-8 8-5 0-8-4-8-8l0-12c0-4 3-8 8-8 4 0 8 4 8 8z m-8 218c4 0 8 3 8 8l0 11c0 4-4 8-8 8-5 0-8-4-8-8l0-11c0-5 3-8 8-8z"/>
<glyph glyph-name="icon-saude-primeiros-socorros" unicode="&#57383;" d="M453 377l-117 0 0 42c0 9-7 16-16 16l-133 0c-9 0-16-7-16-16l0-42-112 0c-9 0-16-8-16-16l0-267c0-9 7-16 16-16l394 0c9 0 16 7 16 16l0 267c0 8-7 16-16 16z m-261 37l123 0 0-37-123 0z m256-315l-384 0 0 256 384 0 0-256z m-157 209c0 6-5 10-11 10l-48 0c-6 0-11-4-11-10l0-46-46 0c-5 0-10-5-10-11l0-48c0-6 5-10 10-10l46 0 0-46c0-6 5-11 11-11l48 0c6 0 11 5 11 11l0 46 45 0c6 0 11 4 11 10l0 48c0 6-5 11-11 11l-45 0 0 46z m35-67l0-27-46 0c-6 0-11-5-11-11l0-45-27 0 0 45c0 6-4 11-10 11l-46 0 0 27 46 0c6 0 10 5 10 10l1 46 26 0 0-46c0-6 5-10 11-10l46 0z"/>
<glyph glyph-name="icon-saude-planos-saude" unicode="&#57384;" d="M256 469c-117 0-213-96-213-213 0-117 96-213 213-213 117 0 213 96 213 213 0 117-96 213-213 213z m0-404c-106 0-191 85-191 191 0 105 85 191 191 191 105 0 191-86 191-191 0-106-86-191-191-191z m107 232l-66 0 0 66c0 5-4 10-10 10l-62 0c-6 0-11-5-11-10l0-66-65 0c-6 0-11-4-11-10l0-62c0-6 5-11 11-11l65 0 0-65c0-6 5-10 11-10l62 0c6 0 10 4 10 10l0 65 66 0c5 0 10 5 10 11l0 62c0 6-5 10-10 10z m-11-61l-65 0c-6 0-11-5-11-11l0-65-40 0 0 65c0 6-5 11-11 11l-65 0 0 40 65 0c6 0 11 5 11 11l0 65 40 0 0-65c0-6 5-11 11-11l65 0 0-40z"/>
<glyph glyph-name="icon-saude-ambulancia" unicode="&#57385;" d="M216 308l-34 0 0 33c0 5-3 8-8 8l-35 0c-5 0-8-3-8-8l-1-33-33 0c-4 0-8-4-8-8l0-36c0-4 4-8 8-8l34 0 0-33c0-5 3-8 8-8l35 0c5 0 8 3 8 8l0 33 34 0c4 0 8 4 8 8l0 36c0 4-4 8-8 8z m-8-36l-34 0c-4 0-8-3-8-8l0-33-19 0 0 33c0 5-4 8-8 8l-34 0 0 20 34 0c4 0 8 3 8 8l0 33 19 0 0-33c0-5 4-8 8-8l34 0z m255-23l-59 25-100 129c0 0 0 0-1 0 0 0 0 1 0 1-1 0-1 0-1 0 0 1-1 1-1 1 0 0-1 0-1 1 0 0 0 0-1 0 0 0 0 0-1 0 0 0 0 0-1 0 0 1 0 1-1 1 0 0 0 0 0 0l-24 0 0 14c0 16-14 28-30 28-17 0-30-12-30-28l0-14-159 0c-6 0-11-5-11-11l0-257c0-5 5-10 11-10l43 0c0-4-1-7-1-11 0-33 27-59 59-59 33 0 59 26 59 59 0 4 0 7-1 11l108 0c-1-4-1-7-1-11 0-33 26-59 58-59 33 0 59 26 59 59 0 4 0 7-1 11l24 0c6 0 11 5 11 10l0 100c-1 4-3 8-7 10z m-230 172c0 4 4 7 9 7 4 0 8-3 8-7l0-14-17 0z m-79-340c-21 0-38 16-38 37 0 21 17 38 38 38 21 0 38-17 38-38 0-21-17-37-38-37z m223 0c-20 0-37 16-37 37 0 21 17 38 37 38 21 0 38-17 38-38 0-21-17-37-38-37z m71 69l-21 0c-11 16-29 27-50 27-20 0-38-11-49-27l-125 0c-10 16-28 27-49 27-20 0-39-11-49-27l-41 0 0 236 226 0 99-127c1-2 2-3 4-4l55-23z m-131 171c-2 2-4 3-7 3l-39 0c-5 0-8-4-8-8l0-62c0-4 3-8 8-8l65 0c4 0 8 4 8 8l0 30c0 1-1 3-2 5z m11-59l-49 0 0 46 28 0 21-27z"/>
<glyph glyph-name="icon-saude-cardiograma" unicode="&#57386;" d="M255 67c-2 0-4 0-6 1-154 96-197 199-198 204-6 15-9 31-9 46 0 72 58 130 129 130 31 0 61-11 84-31 23 20 53 31 83 31 72 0 130-58 130-130 0-19-4-38-12-55-42-97-189-191-195-195-2-1-4-1-6-1z m-84 359c-59 0-108-48-108-108 0-13 3-26 7-39 1 0 42-98 185-189 27 18 147 101 181 182 0 0 0 0 0 0 0 0 0 0 0 0 7 15 11 30 11 46 0 60-49 108-108 108-29 0-56-11-76-31-4-4-10-4-14-1-1 0-1 1-2 1-20 20-47 31-76 31z m80-260c0 0 0 0 0 0-5 0-9 3-10 8l-32 124-8-27c-2-5-6-8-10-8l-72 0c-6 0-11 5-11 11 0 6 5 10 11 10l64 0 16 57c2 5 6 8 11 8 5 0 9-4 10-8l31-123 34 123c2 5 6 8 11 8 5 0 9-4 10-8l22-86 63 0c6 0 11-4 11-10 0-6-5-11-11-11l-71 0c-5 0-9 3-11 8l-14 55-34-124c-1-4-5-7-10-7z"/>
<glyph glyph-name="icon-saude-dental-cirurgia" unicode="&#57387;" d="M389 375c1 4-1 8-5 10l-26 9 1 2c5 14-2 31-17 36l-54 23c0 0 0 1 0 1-15 5-31-3-37-18l-9-27c-3-8-2-15 1-22 1-3 3-5 5-7-4-19-19-75-93-129 0 0 0 0 0 0-7-2-13-5-18-11l-88-108c-11-13-9-34 5-45l50-41c6-5 13-7 20-7 1 0 3 0 4 0 8 1 16 5 21 11l88 108c6 7 8 15 8 23 11 16 72 101 76 175 1 0 3 0 4 0 5 0 9 1 13 2 7 4 12 10 14 17l1 2 26-9c0-1 1-1 2-1 4 0 7 2 8 6z m-122-3l32-8c0-38-19-82-38-115l-11 9c-4 3-9 2-12-1-2-4-2-9 2-11l13-11c-1-2-2-5-4-7l-30 24c-3 2-8 2-11-2-3-3-2-8 1-11l32-24c-3-4-5-8-7-10l-52 42c62 50 80 100 85 125z m-46-198l-88-108c-4-5-11-5-15-2l-51 42c-4 3-5 10-1 15l88 108c4 4 10 5 15 1l50-41c5-4 6-11 2-15z m108 206c-2-1-4-1-6-1 0 0 0 1-1 1l-9 2c0 0 0 0-1 0l-46 13c0 0-1 0-1 0-1 1-2 2-3 3-1 2-1 4 0 6l10 27c1 4 5 6 8 5l54-24c0 0 0 0 1 0 3-1 5-5 4-9l-7-19c0-2-2-4-3-4z m33-51c-5 0-8-4-7-8l4-45c0-4 4-7 8-7 0 0 0 0 1 0 4 1 7 5 7 9l-4 44c-1 5-5 8-9 7z m40 15c-3 4-8 5-12 2-3-2-4-7-1-11l26-36c2-2 4-3 7-3 1 0 3 0 4 2 4 2 5 7 2 11z m54 12l-40 19c-4 2-9 1-10-3-2-4-1-9 3-11l40-20c1 0 2 0 4 0 3 0 5 1 7 4 2 4 0 9-4 11z m3 57l-45-2c-4 0-7-4-7-8 0-4 4-8 8-8 0 0 0 0 0 0l45 2c4 1 7 4 7 9 0 4-4 8-8 7z m-60 14c2 0 3 1 5 2l37 23c4 3 5 8 3 11-3 4-8 5-11 3l-38-24c-4-2-5-7-2-11 1-2 4-4 6-4z"/>
<glyph glyph-name="icon-saude-dental-dentista" unicode="&#57388;" d="M313 226c0-7-5-12-11-12-7 0-12 5-12 12 0 6 5 11 12 11 6 0 11-5 11-11z m-93 0c0-7-5-12-11-12-7 0-12 5-12 12 0 6 5 11 12 11 6 0 11-5 11-11z m51 130c0-9-7-16-16-16-9 0-16 7-16 16 0 9 7 16 16 16 9 0 16-7 16-16z m135 3c-1 1-1 2-1 2-20 48-58 82-109 94-3 1-14 4-41 4-26 0-38-3-41-4-77-18-124-85-124-175 0-24 5-45 10-59 6-19 30-55 38-65 5-6 9-12 13-17 1-1 2-2 3-4 7-15 14-45 4-51-4-2-16-8-13-19 3-14 17-17 110-17 93 0 107 4 110 17 3 11-9 17-13 19-11 7-2 36 4 49 5 7 11 14 16 23l1 0c6 9 31 45 37 65 5 14 10 35 10 59 0 29-5 56-14 79z m-51-191c-13-19-23-32-31-42 3 17 2 34 2 43 13 3 26 7 39 13-4-6-7-10-9-13z m-162 178c5-30 31-53 62-53 31 0 57 23 62 53l71 0c5-15 9-31 10-49 0-1-1-1-1-2-9-19-26-18-28-18 0 0 0 0-1 0l-226 0c-1 0-1 0-1 0 0 0-19-2-28 18 0 1 0 1-1 2 1 17 5 34 10 49z m15 10c0 26 21 47 47 47 26 0 47-21 47-47 0-26-21-47-47-47-26 0-47 21-47 47z m-88-126c0 0-1 0-1 0-3 9-6 21-7 34 11-7 23-8 28-8 1 0 2 0 2 0l226 0c0 0 1 0 2 0 5 0 17 1 28 8-1-13-4-25-7-34 0 0-1 0-1 0-33-51-133-46-134-46-1 0-1 0-1 0 0 0-1 0-1 0-1 0-101-5-134 46z m95-125c-8 11-10 40-10 60 16-2 30-2 39-2 6 0 9 0 11 0 2 0 5 0 11 0 9 0 23 0 39 2 1-21-1-50-11-61-10-3-22-4-39-4-18 0-30 1-40 5z m4 329l1 0c0 0 9 3 35 3 25 0 35-3 35-3l1 0c39-9 69-33 87-67l-61 0c-5 30-31 53-62 53-31 0-57-23-62-53l-61 0c18 34 48 58 87 67z m-74-252c13-6 26-10 39-13 0-8-1-24 1-40-5 7-10 14-17 23-4 5-9 11-14 17-2 3-5 8-9 13z m110-113c-38 0-65 1-80 3 7 7 9 17 9 28 6-6 13-11 20-14 0 0 0 0 0 0 13-5 28-7 51-7 35 0 54 4 71 19 0-10 2-19 9-26-15-2-42-3-80-3z"/>
<glyph glyph-name="icon-saude-homeopatia" unicode="&#57389;" d="M284 328c2 0 4 1 6 2l22 20 6 5c9-8 18-12 28-12 18-1 32 12 34 14 49 42 55 99 55 101 0 0 0 0 0 0 0 1 0 1 0 1 0 0 0 0 0 0 0 1 0 1 0 1 0 0 0 1 0 1 0 0 0 0 0 1 0 0-1 0-1 0 0 1 0 1 0 1 0 0 0 1 0 1-1 0-1 0-1 0 0 1 0 1 0 1-1 0-1 0-1 0 0 0 0 1-1 1 0 0 0 0 0 0 0 0-1 0-1 0 0 1 0 1-1 1 0 0 0 0-1 0 0 0 0 0 0 0 0 0 0 0 0 0-1 0-1 0-1 0-2 0-59 3-108-39-2-2-17-14-19-32-2-10 1-20 7-29l-28-25c-3-2-4-7-1-11 2-2 4-3 6-3z m32 66c1 13 13 21 13 21 0 0 0 0 1 1 33 28 71 34 88 35-4-17-15-53-48-82-1 0-1 0-1 0 0 0-10-11-23-10-5 0-11 2-16 6l44 38c3 3 3 8 1 11-3 3-8 4-12 1l-43-38c-4 6-5 12-4 17z m153-117c0 25-21 46-46 46l-177 0c0 4-1 8-3 11l-44 68c6 8 7 18 3 26l-13 26c-6 12-20 16-29 16-4 0-7-1-11-2l-78-40c-13-6-20-26-14-39l13-27c4-8 13-13 22-13l9-26-12 0c-26 0-46-21-46-47 0-16 8-31 21-39 2-16 12-101 53-152-2-4-3-7-3-12 0-16 13-29 29-29l225 0c16 0 30 13 30 29 0 5-1 8-3 12 41 51 51 136 52 152 14 9 22 23 22 40z m-363 98l-7-4c-1 0-3-1-5-1-2 0-4 1-4 2l-14 26c-1 3 2 10 4 11l79 40c0 0 1 0 2 0 3 0 8-2 9-4l13-27c1-2-3-7-5-8l-7-3 54-84-101 0z m-17-73l34 0c0 0 1-1 1-1l101 0c0 0 1 0 1 1l197 0c14 0 25-12 25-25 0-14-11-25-25-25l-334 0c-14 0-25 11-25 25 0 13 11 25 25 25z m279-236l-225 0c-4 0-7 3-7 7 0 5 3 8 7 8l225 0c5 0 8-3 8-8 0-4-3-7-8-7z m12 34c-3 2-7 3-12 3l-225 0c-4 0-8-1-11-3-31 40-42 104-45 130 0 0 1 0 2 0l334 0c1 0 1 0 2 0-3-26-14-90-45-130z"/>
<glyph glyph-name="icon-saude-hospital" unicode="&#57390;" d="M458 366l-174 0 0 93c0 6-5 11-11 11l-220 0c-6 0-10-5-10-11l0-405c0-6 4-11 10-11l406 0c5 0 10 5 10 11l0 301c0 6-5 11-11 11z m-394 82l198 0 0-384-33 0 0 77c0 6-5 11-11 11l-110 0c-6 0-10-5-10-11l0-77-34 0z m143-384l-88 0 0 66 88 0z m241 0l-164 0 0 280 164 0 0-280z m-136 157l110 0c5 0 10 5 10 10l0 69c0 6-5 11-10 11l-110 0c-6 0-11-5-11-11l0-69c0-5 5-10 11-10z m11 68l88 0 0-47-88 0z m-178-105c6 0 11 5 11 11l0 75c0 6-5 10-11 10l-55 0c-6 0-11-4-11-10l0-75c0-6 5-11 11-11z m-44 75l33 0 0-54-33 0z m70 11l0-75c0-6 5-11 11-11l55 0c6 0 11 5 11 11l0 75c0 6-5 10-11 10l-55 0c-6 0-11-4-11-10z m22-11l33 0 0-54-33 0z m119-163l110 0c5 0 10 5 10 11l0 68c0 6-5 11-10 11l-110 0c-6 0-11-5-11-11l0-68c0-6 5-11 11-11z m11 68l88 0 0-47-88 0z m-210 177l27 0 0-27c0-5 4-8 8-8l30 0c5 0 8 3 8 8l0 27 28 0c4 0 8 4 8 8l0 30c0 5-4 8-8 8l-28 0 0 28c0 4-3 8-8 8l-30 0c-4 0-8-4-8-8l0-28-27 0c-5 0-8-3-8-8l0-30c0-4 3-8 8-8z m8 30l27 0c4 0 8 4 8 8l0 28 14 0 0-28c0-4 4-8 8-8l28 0 0-14-28 0c-4 0-8-3-8-8l0-27-14 0 0 27c0 5-4 8-8 8l-27 0 0 14z"/>
<glyph glyph-name="icon-saude-infantil" unicode="&#57391;" d="M316 224c0-8-6-14-14-14-7 0-14 6-14 14 0 8 7 14 14 14 8 0 14-6 14-14z m-98 0c0-8-7-14-14-14-8 0-14 6-14 14 0 8 6 14 14 14 7 0 14-6 14-14z m69-39c0 0 0 0 0 0-11 0-19-3-23-10 0 0-2-1-11-1-8 0-10 1-11 1-4 7-12 10-23 10 0 0 0 0 0 0-10-1-30-10-30-40 0-37 27-53 37-53l3 0c5 0 13 0 20 7 1 2 2 3 2 3 0 0 1 0 2 0 2 0 3 0 2 0 0 0 1 0 2-2 5-7 12-8 17-8 1 0 2 0 3 0 1 0 2 0 3 0 10 0 37 16 37 53 0 30-20 39-30 40z m-7-77c-1 0-3 0-4 0-5 0-5 0-6 1-4 7-9 9-17 9-8 0-12-3-17-8-1-2-2-2-7-2l-2 0c-5 1-22 12-22 37 0 21 13 24 15 24 4 0 8-1 9-3 5-7 15-8 24-8 9 0 19 1 24 8 2 2 5 3 9 3 3 0 15-3 15-24 0-25-17-36-21-37z m-14 31c0 5-6 9-13 9-7 0-13-4-13-9 0-5 6-10 13-10 7 0 13 5 13 10z m160 52c5 17 8 35 8 52 0 84-59 158-141 176-3 3-6 5-9 6-2 1-5 3-6 7-2 6-1 13 3 21 1 4 1 9-2 12-3 3-7 4-11 3-3-1-48-17-64-51-77-22-131-93-131-174 0-17 2-35 8-52-4-3-6-7-7-12-3-8-1-16 2-23l17-29c7-11 20-16 32-14 54-64 99-72 128-71 1 0 2 0 2 0 30 0 74 8 126 71 12-2 26 3 32 14l17 29c7 12 5 26-4 35z m-171 248c0-6 1-11 3-14 3-9 9-16 17-19 2-1 4-2 5-4 0 0 1 0 1 0 2-2 3-4 4-6 1-1 1-2 2-3 0 0 0 0 0 0 0-1 0-2 0-3 0 0 0 0 0 0 0-11-16-20-34-20-18 0-34 9-34 20 0 2 0 3 1 4 0 1 0 1 0 1 0 1 0 2 0 3 0 0 0 1 1 2 0 0 0 1 0 1 0 1 1 2 1 3 5 16 21 28 33 35z m157-272l-17-29c-1-2-3-3-5-4-2 0-5 0-6 1l-1 0c-5 3-10 2-14-2-49-63-87-70-116-70-28 0-67 7-116 70-3 4-9 5-13 2l-1 0c-4-2-9-1-11 3l-17 29c-1 2-1 4-1 6 1 2 2 4 4 5 5 3 7 8 5 13-6 17-9 35-9 52 0 68 42 127 104 149 0 0 0-1 0-2 0-23 24-42 55-42 2 0 4 1 6 1 28 2 50 19 50 41 0 1 0 2 0 2 61-22 103-82 103-149 0-17-3-35-8-52-2-5 0-10 4-13l1 0c3-2 5-7 3-11z"/>
<glyph glyph-name="icon-saude-medico" unicode="&#57392;" d="M456 286c0 16-13 28-28 28-16 0-28-12-28-28 0-12 8-23 19-26 0-4-2-14-14-30-5-6-10-13-17-20-15 13-32 23-51 31 30 24 48 61 48 101 0 72-58 130-130 130-72 0-130-58-130-130 0-40 18-77 48-101-19-8-36-18-51-31-7 7-12 14-16 20-12 16-15 26-15 30 11 4 20 14 20 27 0 15-13 28-28 28-16 0-28-13-28-28 0-11 6-21 15-25-1-9 3-20 10-32 23-39 86-100 165-105-1-15-4-44-17-54-7-5-16-5-28 0l-41 18c0 3 1 6 1 9 0 26-22 48-49 48-26 0-48-21-48-48 0-27 22-48 48-48 16 0 30 8 39 19l42-18c9-3 16-5 24-5 9 0 17 3 24 8 23 17 26 55 26 71 78 6 141 66 164 105 7 12 11 23 10 32 9 4 16 14 16 24z m-373 7c3 0 6-3 6-7 0-3-3-6-6-6-4 0-7 3-7 6 0 4 3 7 7 7z m28-222c-14 0-26 12-26 27 0 15 12 27 26 27 15 0 27-12 27-27 0 0 0 0 0 0l-22 10c-6 2-12 0-14-6-3-5 0-11 5-14l23-10c-5-4-12-7-19-7z m95 171c-1 2-3 4-5 5-34 20-55 56-55 95 0 60 49 109 109 109 60 0 109-49 109-109 0-39-21-75-55-95-1-1-3-2-4-4-1-2-2-6-1-9 2-3 4-5 7-6 23-7 43-18 62-33-29-25-70-49-118-49-48 0-89 24-118 49 19 15 39 26 62 33 2 0 5 2 6 5 1 3 2 6 1 9z m222 51c3 0 6-3 6-7 0-3-3-6-6-6-4 0-7 3-7 6 0 4 3 7 7 7z"/>
<glyph glyph-name="icon-saude-diaria-hospitalar" unicode="&#57393;" d="M456 211l-175 0 0 41c19-13 42-19 65-19 67 0 121 53 121 120 0 10-2 19-4 29-1 4-5 7-10 6-4-1-7-6-6-10 3-8 4-17 4-25 0-58-47-104-105-104-24 0-46 8-65 23l0 162c19 15 41 23 65 23 9 0 18-1 26-3 4-1 8 1 10 5 1 5-2 9-6 10-10 3-20 4-30 4-23 0-46-7-65-20l0 9c0 6-5 11-11 11l-219 0c-6 0-11-5-11-11l0-405c0-6 5-11 11-11l405 0c6 0 11 5 11 11l0 144c0 5-5 10-11 10z m-395 240l199 0 0-383-34 0 0 76c0 6-5 11-11 11l-109 0c-6 0-11-5-11-11l0-76-34 0z m144-383l-89 0 0 65 89 0z m240 0l-164 0 0 122 164 0z m-136 16l110 0c6 0 11 5 11 11l0 68c0 6-5 11-11 11l-110 0c-6 0-10-5-10-11l0-68c0-6 4-11 10-11z m11 69l88 0 0-48-88 0z m-178 34c6 0 11 5 11 11l0 75c0 6-5 11-11 11l-55 0c-6 0-10-5-10-11l0-75c0-6 4-11 10-11z m-44 75l34 0 0-54-34 0z m71 11l0-75c0-6 5-11 11-11l54 0c6 0 11 5 11 11l0 75c0 6-5 11-11 11l-54 0c-6 0-11-5-11-11z m21-11l34 0 0-54-34 0z m-80 82l27 0 0-27c0-4 4-8 8-8l31 0c4 0 8 4 8 8l0 27 27 0c4 0 8 4 8 8l0 31c0 4-4 8-8 8l-27 0 0 27c0 4-4 8-8 8l-30 0c-5 0-8-4-8-8l0-27-28 0c-4 0-8-4-8-8l0-31c0-4 4-8 8-8z m8 31l27 0c5 0 8 3 8 8l0 27 15 0 0-27c0-5 3-8 8-8l27 0 0-15-27 0c-5 0-8-3-8-8l0-27-15 0 0 27c0 5-3 8-8 8l-27 0z m194-54c5 0 8 3 8 8l0 48c0 2-1 5-4 7-3 1-6 1-8-1l-11-6c-3-3-4-8-2-11 2-4 6-5 9-4l0-33c0-5 4-8 8-8z m18 13c-2-2-3-6-1-9 1-2 4-4 7-4l28 0c4 0 8 3 8 8 0 4-4 8-8 8l-11 0 6 7c5 5 15 17 7 31-3 6-8 9-15 10-5 0-11-1-16-4-3-2-5-7-2-11 2-4 7-5 10-3 2 1 5 2 7 2 2-1 2-1 2-2 1-1 3-4-5-12z m60-13c4 0 8 3 8 8l0 16 12 0 0-16c0-5 4-8 8-8 4 0 8 3 8 8l0 48c0 4-4 8-8 8-4 0-8-4-8-8l0-16-12 0 0 16c0 4-4 8-8 8-4 0-8-4-8-8l0-48c0-5 4-8 8-8z m18 93c2-1 4-2 6-2 2 0 4 1 6 2l24 24c3 4 3 9 0 12-3 3-8 3-12 0l-24-24c-3-3-3-9 0-12z m15-20c2-3 5-4 7-4 2 0 3 0 5 1l28 19c4 2 5 7 2 11-2 4-7 5-11 2l-28-18c-4-3-5-8-3-11z m-36 37c2-1 3-1 5-1 3 0 5 1 7 3l20 28c2 3 1 8-2 11-4 3-9 2-11-2l-20-28c-3-3-2-8 1-11z"/>
<glyph glyph-name="icon-saude-dental-endodontia" unicode="&#57394;" d="M272 387c-19 6-37-2-50-7-3-2-8-4-10-4-1 0-7 2-10 4-12 5-31 13-49 7-18-5-32-20-38-39-5-17-6-47 24-85 8-11 10-25 12-38 2-17 4-37 25-37 20 0 24 24 28 46 1 8 5 26 8 27 4-1 7-19 8-27 4-22 9-46 28-46 21 0 24 20 26 37 1 13 3 27 11 38 30 38 29 68 24 85-6 19-20 34-37 39z m1-114c-11-14-14-32-15-46-3-19-4-23-10-23-6 0-10 19-12 32-3 20-7 41-24 41-17 0-20-21-24-41-2-13-6-32-12-32-6 0-7 4-9 23-2 14-4 32-15 46-26 33-26 57-21 71 5 16 17 25 27 28 12 4 26-2 38-7 6-3 12-5 16-5 5 0 10 2 17 5 11 5 25 11 38 7 10-3 22-12 27-28 4-15 4-38-21-71z m187-164l-105 100c17 27 27 57 27 91 0 93-76 169-170 169-93 0-169-76-169-170 0-93 76-169 169-169 32 0 62 9 88 25l103-103c6-6 15-9 23-9 8 0 16 3 22 9l12 12c12 12 12 32 0 45z m-396 191c0 81 66 148 148 148 82 0 148-67 148-148 0-82-66-149-148-149-82 0-148 67-148 149z m381-221l-12-12c-4-4-11-4-15 0l-100 100c9 8 17 16 25 25l102-98c2-2 3-5 3-8 0-3-1-5-3-7z"/>
<glyph glyph-name="icon-saude-dental-odontopediatria" unicode="&#57395;" d="M457 195c-1 6-4 11-8 15 6 19 9 38 9 58 0 111-90 201-201 201-9 0-18 0-27-1 0 0-1-1-1-1-98-13-174-97-174-199 0-20 3-39 9-58-4-4-6-9-8-15-2-8-1-16 3-24l19-32c4-8 11-13 19-15 6-1 11-2 17 0 58-71 107-81 140-81 1 0 2 0 2 0 34 0 84 8 144 81 5-1 10-1 16 0 8 2 15 7 19 15l19 32c4 8 5 16 3 24z m-22-13l-18-32c-2-3-4-5-7-5-2-1-5-1-8 1l-1 0c-4 3-10 2-13-3-29-36-70-78-130-78 0 0-1 0-2 0 0 0-1 0-2 0-31 0-74 9-129 78-2 3-5 4-8 4-2 0-4 0-5-1l-1 0c-2-2-5-2-8-1-3 0-5 2-7 5l-18 32c-2 2-2 5-1 8 0 3 2 5 5 7 4 2 6 8 5 12-7 19-10 39-10 59 0 84 57 155 135 175-3-13-4-29 4-50 5-13 14-22 25-26 5-2 11-3 17-3 15 0 30 7 33 8 12 6 26 21 17 45-5 12-13 17-18 19-14 5-28-1-30-2-5-3-7-9-5-14 3-6 9-8 15-5 2 1 8 3 12 1 1 0 4-1 6-7 4-11-2-15-6-17 0 0 0 0-1 0-5-3-21-9-33-5-5 2-9 6-12 13-9 24-3 41 1 47 6 1 13 1 20 1 99 0 179-81 179-180 0-20-3-40-10-59-1-5 1-10 5-12l0-1c3-1 5-3 5-6 1-3 1-6-1-8z m-92 31l-173 0c-9 0-16-7-16-16 0-58 46-105 103-105 56 0 102 47 102 104 0 1 0 1 0 1 0 9-7 16-16 16z m-60-17l0-41-52 0 0 41z m-26-88c-48 0-87 40-87 89l44 0 0-50c0-5 4-8 8-8l69 0c4 0 8 3 8 8l0 50 44 0c0-49-38-89-86-89z m69 149c0-7-6-14-14-14-8 0-14 7-14 14 0 8 6 14 14 14 8 0 14-6 14-14z m-111 0c0-7-6-14-14-14-8 0-14 7-14 14 0 8 6 14 14 14 8 0 14-6 14-14z"/>
<glyph glyph-name="icon-saude-dental-pais" unicode="&#57396;" d="M421 234c3 4 8 8 12 13 6 6 13 13 19 20 18 20 18 30 16 41 0 2 0 4 0 6 0 15-11 18-16 19-3 1-6 2-9 6-13 16-23 27-49 27-13 0-20 6-28 15-2 2-5 5-8 7-7 7-15 7-20 7-4 0-8 0-17 9 3 3 3 8 1 12l-14 30c-2 4-6 6-10 6-3 0-7-2-9-5-4-7-10-14-13-16-9 8-23 5-35 2-10-3-21-6-25-2-3 3-4 5-4 6 0 1 2 3 2 3 2 1 3 3 4 5 3 6 4 16-2 21-9 8-22 2-34-6-4 0-8 1-11 1-7 1-15 3-20-5-5-7 0-16 3-20 0-1 1-2 1-3-4-1-13-5-15-4 0 0-1 0-1 1-9 18-28 13-36 12-1-1-2-1-3-1-7-1-13-7-16-15-2-8 0-17 6-23 2-1 3-4-1-18-3-12-4-12-9-13-18-2-32-13-32-26 0-1-1-3-2-4-2-8-8-22 6-34 6-6 14-8 20-9 1-2 2-4 3-6 2-3 6-8 15-8 15 0 28 6 37 11 0 0 0-1 0-1 0-16 13-29 35-36 7-2 15-6 15-14 0-17 10-22 19-23 3-15 3-19 2-24-2-10-5-23 3-32 2-4 6-7 14-8 0-1 0-2 0-3 1-5 2-21 20-21 0 0 0 0 0 0 1-2 1-6 0-7 0-1 0-2 0-3-2-4-12-11-28-22-3-2-5-4-6-5-4-3-5-8-4-12 6-15 13-20 20-23 2-1 3-2 4-3 6-5 15-13 15-13 2-3 5-4 8-4 2 0 5 1 7 4 0 0 18 17 29 25 7 6 17 19 25 32 2-5 3-9 3-15 1-26 15-45 34-46 1 0 1 0 1 0 18 0 26 16 30 31 5-16 12-31 31-31 19 1 34 20 34 46 1 12 6 21 13 31 8 13 19 29 18 53 0 31-21 57-48 62z m-155-146c-7-5-16-14-23-20-2 3-6 5-9 8-2 2-5 4-7 5-3 1-4 2-6 4 28 20 36 28 36 37 0 1 0 2 0 3 0 7 1 16-6 23-3 3-7 6-14 7 0 1 0 1 0 2-1 6-2 22-20 22 0 0 0 0 0 0 0 2 0 5 2 13 3 12 1 21-5 42-1 5-5 8-10 8-3 0-4 1-5 1 0 0 0 1 0 2 0 16-11 29-31 35-12 3-19 9-19 15 0 13-7 19-10 21-6 4-14 3-21-1-5-3-15-7-25-8 0 0 0 1 0 1 2 4 1 8-2 11-3 3-8 4-12 2 0 0-8-2-14 3-1 1-2 2 1 10 1 4 3 8 3 11 0 2 5 5 13 6 20 2 24 16 27 29 3 8 8 27-5 39 0 0 0 0 0 1 2 0 3 0 4 1 9 2 11 1 11 0 10-22 32-13 44-8 3 1 4 2 6 2 4 2 9 4 11 9 2 6 0 10-3 15 4-1 9-2 13 1 1 0 1 0 1 0 0 0 0-1 0-1-1-6 1-14 10-23 12-13 30-8 45-4 5 1 14 3 16 3 5-5 10-7 16-6 7 1 13 6 18 11l1-1c-1 0-1-1-2-2-7-10 4-21 10-28 14-15 25-16 34-16 4 0 4 0 5-1 2-2 5-4 7-6 9-10 21-22 43-22 17 0 22-5 32-18 7-10 16-12 20-14 0-3 1-6 1-8 1-6 2-9-10-23-7-7-13-13-19-19-11-11-20-20-24-29-10-3-16-7-21-10 0 0 0 0 0 0 0 0 0 0 0 1-7 4-19 11-36 11 0 0-1 0-1 0-32 0-59-28-59-63 0-21 7-35 14-47-2-9-15-29-25-37z m167 43c-8-12-16-24-16-43 0-14-7-24-13-24-8 0-11 17-14 29-1 9-4 18-6 24-2 3-6 6-10 6l-2 0c-4 0-8-3-10-6-3-6-5-15-6-24-3-12-7-29-14-29-6 0-13 10-13 24 0 19-8 31-16 43-7 11-15 23-15 41 0 23 17 42 38 42 0 0 1 0 1 0 11 0 19-5 25-8 4-3 7-5 10-5 1 0 1 0 2 0 3 0 6 2 10 5 6 4 14 8 25 8 0 0 0 0 1 0 20 0 38-19 38-42 0-18-8-30-15-41z"/>
<glyph glyph-name="icon-saude-dental-periodontia" unicode="&#57397;" d="M345 269l0 45c0 2-1 3-1 5l-29 54 50 42c5 3 6 10 2 15-4 4-11 5-15 1l-58-48c-3-3-5-8-2-13l31-59 0-42c-12-4-21-16-21-30l0-164c0-17 14-31 31-31l2 0c17 0 32 14 32 31l0 164c0 14-10 25-22 30z m0-194c0-5-4-10-10-10l-2 0c-6 0-10 5-10 10l0 164c0 5 4 10 10 10l2 0c6 0 10-5 10-10z m-131 395c-39 0-71-32-71-71 0-36 26-65 60-71l0-60c-12-4-21-15-21-29l0-164c0-17 14-31 31-31l2 0c18 0 32 14 32 31l0 164c0 14-10 26-22 30l0 59c34 5 60 35 60 70 0 40-32 72-71 72z m12-395c0-5-5-10-11-10l-2 0c-5 0-10 5-10 10l0 164c0 5 5 10 10 10l2 0c6 0 11-5 11-10z m-12 274c-27 0-50 22-50 49 0 28 23 50 50 50 27 0 50-22 50-50 0-27-23-49-50-49z m0 82c-18 0-32-15-32-32 0-18 14-33 32-33 18 0 32 15 32 33 0 17-14 32-32 32z m0-49c-9 0-16 8-16 16 0 9 7 17 16 17 9 0 16-8 16-17 0-8-7-16-16-16z"/>
<glyph glyph-name="icon-saude-dental-prevencao" unicode="&#57398;" d="M261 367c0 15-9 28-21 34l-3 49c-1 11-10 20-21 20l-30 0c-11 0-20-9-20-20l-4-49c-12-6-21-19-21-34l-19-284c0 0 0-1 0-1 0-22 18-40 39-40l80 0c22 0 39 18 39 40 0 0 0 1 0 1z m-74 81l28 0 3-42-34 0z m54-384l-80 0c-10 0-18 8-18 18l19 284c0 0 0 0 0 0 0 9 6 16 14 18 1 0 1 0 1 0 1 1 3 1 4 1l41 0c1 0 2 0 3-1 0 0 1 0 1 0 8-2 14-9 14-18 0 0 0 0 0 0l19-284c0-10-8-18-18-18z m121 405l-48 0c-11 0-21-9-21-21l0-111c0-12 10-21 21-21l42 0-9-18c0-1-1-3-1-4l0-242c0-6 5-11 11-11 6 0 11 5 11 11l0 239 14 27c0 2 1 3 1 5l0 125c0 12-10 21-21 21z m-48-21l48 0 0-111-48 0z"/>
<glyph glyph-name="icon-saude-dental-protese" unicode="&#57399;" d="M469 390c0 1-1 3-1 4-1 6-5 16-16 22-11 5-26 3-43-7-7-4-79-28-153-28-75 0-146 24-153 28-17 10-32 12-43 7-11-6-15-16-16-22-1-1-1-3-1-4l0-63c0-3 1-6 3-7 0-2 0-3 0-5l0-27c0-7 3-14 8-18l0-25c0-3 0-6 1-8-2-2-3-5-3-8l0-26c0-1-1-23 17-38l2-1c52-43 114-65 185-65 70 0 133 22 185 65l2 1c18 15 17 37 17 37l0 27c0 3-1 6-3 8 1 2 1 5 1 8l0 25c5 4 8 11 8 18l0 27c0 2 0 3 0 5 1 1 3 4 3 7l0 63z m-23-110c-1 0-2 0-2-1 0 0-1 0-1 0 0 0-1 0-2 0l-1 0 0 25c0 1 0 3-1 4 0 1 0 1 0 1 0 1 0 3-1 4 0 0 0 1 0 1-1 1-1 2-2 4 0 0 0 0-1 0 0 1-1 2-2 3 0 0 0 0-1 0 0 1-1 1-1 2 1 1 3 1 4 1l6 0c5 0 9-4 9-9l0-27c0-3-2-6-4-8 0 0 0 0 0 0z m-198-84c0-15-12-26-27-26-14 0-26 11-26 26l0 12c0 0 0 0 1 0 1 0 3 0 5 0l38 0c2 0 3 0 5 0 0 0 1 0 1 1 1 0 2 0 3 0l0-13z m-127 8c-2-1-4-1-6-1-12 0-21 9-22 21l0 13c2 0 3 0 4 0l15 0c2 0 3 0 4 0 0 0 0 0 0 0 0 0 0 0 0-1 1 0 1-1 2-1 0-1 1-2 1-2 1-1 1-1 2-1 0-1 0-1 0-1z m-53 75c0 0 0 0 0 0-1 1-1 1-2 1 0 0 0 0 0 0-3 2-4 5-4 8l0 27c0 5 4 9 9 9l5 0c2 0 3 0 5-1-1-1-1-1-2-2 0 0 0 0 0 0-1-1-2-2-3-3 0 0 0-1 0-1-1-1-2-2-2-3 0-1 0-1 0-1-1-1-1-3-2-4 0 0 0-1 0-1 0-1 0-3 0-4l0-25-1 0c-1 0-2 0-3 0z m324 31c2 2 5 3 7 3l16 0c1 0 1 0 2-1 2 0 4-1 5-3 1 0 1-1 1-2 0 0 1 0 1-1 0 0 0-1 0-2l0-43c0 0 0-1 0-1 0-1 0-1 0-1 0 0-1-1-1-1 0 0 0 0 0 0 0-1-1-2-2-3 0-1-1-1-1-1 0 0 0 0 0 0-1-1-1-1-2-1 0 0 0 0 0 0 0 0-1 0-1-1-1 0-1 0-2 0l-15 0c0 0 0 0-1 0l0 40c0 2 0 3 0 5 0 1-1 2-1 3 0 0 0 1 0 2-1 1-1 1-2 2 0 1 0 1-1 2 0 1-1 1-2 2 0 1 0 1-1 2z m-13-10c1-1 2-2 3-3 0 0 0 0 0 0 0-1 1-1 1-2 0 0 0 0 0 0 0-1 0-2 0-3l0-42c0-1 0-1 0-2-1-2-2-5-4-6 0 0-1 0-1 0 0 0-1-1-1-1 0 0-1 0-1 0 0 0-1 0-2 0l-29 0c-5 0-9 4-9 9l0 42c0 5 4 9 9 9l29 0c2 0 3 0 5-1z m-59-50l0-17c0-1 0-2 0-3 0 0 0 0 0-1-1 0-1 0-1-1 0 0 0 0 0 0 0 0-1-1-1-1 0 0 0 0 0 0 0-1-1-1-1-1 0 0 0 0 0-1-1 0-1 0-2 0 0-1 0-1 0-1-1 0-1 0-1 0-1 0-1 0-1 0 0 0-1 0-2 0l-38 0c-5 0-9 4-9 9l0 52c0 5 4 9 9 9l38 0c5 0 9-4 9-9l0-35z m-72-17c0-5-4-9-9-9l-38 0c-1 0-2 0-2 0 0 0-1 0-1 0 0 0-1 0-1 0 0 0 0 0 0 1-1 0-1 0-2 0 0 1 0 1 0 1 0 0-1 0-1 1 0 0 0 0 0 0-1 0-1 1-1 1 0 0 0 0 0 0 0 1-1 1-1 1 0 1 0 1 0 1 0 0 0 1 0 1 0 0 0 1 0 2l0 52c0 5 4 9 9 9l38 0c5 0 9-4 9-9l0-52z m-72 52l0-35c0-5-4-9-9-9l-29 0c-1 0-2 0-2 0-1 0-1 0-1 0 0 0-1 1-2 1 0 0 0 0 0 0 0 0-1 1-1 1 0 0 0 0 0 0-2 1-3 3-3 5 0 1 0 1 0 2l0 42c0 1 0 2 0 3 0 0 0 0 0 0 0 1 0 1 1 2 0 0 0 0 0 0 1 1 2 2 3 3 1 1 3 1 5 1l29 0c5 0 9-4 9-9l0-7z m-57 23c-1 0-2-1-2-2-1 0-1-1-1-1-1-1-1-2-2-3 0-1 0-1 0-2-1-1-1-2-1-3 0-1-1-3-1-5l0-39c0 0 0 0 0 0l-15 0c-1 0-1 0-2 0 0 0-1 0-1 0 0 0 0 0 0 0-1 0-1 1-2 1 0 0 0 0 0 0 0 0-1 0-1 1-1 1-2 2-2 3 0 0 0 0 0 0-1 0-1 1-1 2 0 0 0 0 0 0 0 0 0 1 0 2l0 42c0 1 0 2 0 3 0 0 0 0 0 0 1 1 1 2 2 2 1 2 3 3 5 4 0 0 1 0 2 0l15 0c3 0 6-1 7-3 0-1 0-1 0-2z m18-105l0 22c0 0 0 0 1 0l29 0c1 0 3 0 5 0 0 0 1 1 1 1 1 0 2 0 3 1 1-2 1-3 1-4 1 0 1 0 1-1 0-1 1-1 1-2l0-17c0-12-9-22-21-22-11 0-21 10-21 22z m127 6c1 0 2 0 3 0 0-1 1-1 1-1 2 0 3 0 5 0l38 0c2 0 4 0 5 0 1 0 1 0 1 0l0-12c0-15-12-26-27-26-14 0-26 11-26 26l0 13z m69 11c0 0 0 1 1 2 0 0 0 1 1 2 0 1 0 2 1 3 0-1 1-1 2-1 1 0 2-1 2-1 2 0 4 0 5 0l29 0c0 0 1 0 1 0l0-22c0-12-10-22-21-22-12 0-22 10-22 22l0 17z m58 11c0 0 0 0 0 0 1 1 1 1 2 2 0 0 1 1 1 2 1 0 1 1 1 1 0 1 0 1 1 1 0 0 0 0 0 0 1 0 2 0 3 0l16 0c1 0 2 0 3 0l0-13c0-12-9-21-21-21-2 0-4 0-6 1l0 27z m-322 165c5 3 13 0 23-5 12-8 88-32 164-32 76 0 151 24 164 32 10 5 18 8 22 6 4-2 5-7 5-9l0-49c-2 1-4 1-6 1l-6 0c-8 0-16-4-21-11l-15 0c-8 0-16-5-21-12-1 0-2 0-4 0l-29 0c-9 0-16-4-21-11-3 2-8 4-13 4l-38 0c-7 0-13-3-17-7-4 4-10 7-17 7l-38 0c-5 0-9-2-13-4-5 7-12 11-21 11l-29 0c-1 0-3 0-4 0-5 7-12 12-21 12l-15 0c-5 7-13 11-21 11l-6 0c-2 0-4 0-6-1l0 49c0 2 1 7 4 8z m3-133l0-1c0-2 0-4 0-5 0-1 1-1 1-2 0-1 0-2 0-2 1-1 1-2 1-3 1 0 1-1 1-1 1-1 1-2 2-2 0-1 0-1 0-1l0-14c-4 3-7 7-7 13l0 18c0 0 0 0 1 0z m357-81l-1-2c-49-40-107-60-172-60-65 0-123 20-172 60l-2 2c-9 7-9 19-9 20l0 15c2-1 4-1 6-1 4-17 18-29 36-29 3 0 6 0 9 1 6-13 19-23 34-23 10 0 20 5 26 11 7-13 22-22 38-22 14 0 26 6 34 17 8-11 20-17 35-17 16 0 30 9 37 22 6-7 16-11 26-11 15 0 28 10 34 23 3-1 6-1 9-1 18 0 32 12 36 29 2 0 4 0 6 1l0-15c-1-1 0-13-10-20z m13 81l0-18c0-6-3-10-8-13l0 14c1 0 1 0 1 1 0 0 1 1 1 2 1 0 1 1 1 2 1 0 1 1 1 2 1 0 1 1 1 2 0 1 0 1 1 2 0 1 0 3 0 5l0 1 1 0c0 0 1 0 1 0z"/>
<glyph glyph-name="icon-saude-dental-radiologia" unicode="&#57400;" d="M458 457l-404 0c-6 0-11-5-11-11l0-276c0-6 5-10 11-10l165 0 0-79-66 0c-6 0-11-4-11-10 0-6 5-11 11-11l76 0c0 0 0 0 0 0 1 0 1 0 1 0l52 0c0 0 0 0 1 0 0 0 0 0 1 0l75 0c6 0 11 5 11 11 0 6-5 11-11 11l-66 0 0 78 165 0c6 0 11 5 11 11l0 276c0 5-5 10-11 10z m-186-375l-32 0 0 78 32 0z m176 99l-384 0 0 255 384 0z m-253 67c2-16 4-38 27-38 21 0 26 25 29 46 1 6 3 15 5 21 2-6 4-15 5-21 3-21 8-46 29-46 23 0 25 22 27 38 2 11 3 25 10 34 29 37 29 66 23 84-5 18-19 33-37 39-18 6-37-2-48-8-3-1-7-3-9-3-2 0-6 2-8 3-12 6-31 14-49 8-18-6-32-21-37-39-6-18-6-46 23-84 7-9 8-23 10-34z m-13 111c4 14 15 22 23 25 11 4 24-2 34-6 6-3 12-5 17-5 5 0 10 2 17 5 10 4 23 10 34 6 8-3 19-11 23-25 4-12 4-34-19-64-11-14-13-31-15-45-2-16-3-19-6-19-4 2-7 20-8 28-4 20-8 41-26 41-19 0-22-21-26-41-1-8-4-26-8-28-3 0-4 3-6 19-2 14-4 31-15 45-23 30-23 52-19 64z"/>
<glyph glyph-name="icon-saude-dermatologia" unicode="&#57401;" d="M256 169c38 0 70 29 70 65 0 6-1 11-2 17-24 159 21 198 24 200 5 4 9 11 9 18 0 12-9 21-21 21-4 0-8-1-11-3-140-82-140-243-140-253 0-36 32-65 71-65z m80 300c0 0-61-38-33-223 1-4 2-8 2-12 0-24-22-44-49-44-28 0-50 20-50 44 0 0-3 158 130 235z m89-169l-89 0c3-25 11-59 7-75-7-34-28-72-81-72-12 0-25 1-39 6-70 19-58 108-51 141l-82 0c-19 0-34-15-34-33l0-189c0-18 15-33 34-33l335 0c18 0 33 15 33 33l0 189c0 18-15 33-33 33z m12-222c0-7-6-12-12-12l-335 0c-7 0-13 5-13 12l0 189c0 6 6 12 13 12l57 0c-9-74 16-126 70-141 16-4 31-7 45-7 53 0 90 33 102 89 3 15 0 36-3 59l64 0c6 0 12-6 12-12l0-189z"/>
<glyph glyph-name="icon-residencial-antenas" unicode="&#57402;" d="M461 112l-109 33c-2 0-3 1-5 0l-80-15 0 177 54-45c2-2 4-3 7-3 3 0 6 1 8 4 4 4 3 11-1 15l-68 57 0 10 25 6 79-67c2-1 4-2 7-2 3 0 6 1 8 4 4 4 3 11-1 15l-68 57 27 7 61-51c2-2 4-3 7-3 3 0 6 2 8 4 4 5 3 11-2 15l-48 41 26 7 40-33c2-2 4-3 7-3 3 0 6 2 8 4 4 5 3 11-1 15l-28 24c4 2 7 7 5 12-1 6-7 9-13 8l-12-4-39 33c-4 4-11 3-15-1-4-5-3-12 2-15l26-23-26-7-60 51c-5 4-12 3-15-1-4-5-4-12 1-15l49-41-27-7-80 67c-4 3-11 3-15-2-4-4-3-11 1-15l68-57-34-9-64 55c-5 4-12 3-15-1-4-5-4-11 1-15l53-45-35-9-55 46c-4 4-11 3-15-1-4-5-3-11 2-15l43-37-33-8-40 33c-4 4-11 3-15-2-3-4-3-11 2-15l27-23-1 0c-6-2-9-7-8-13 1-5 6-8 11-8 0 0 1 0 2 0l16 4 41-34c2-1 4-2 7-2 3 0 6 1 8 4 4 4 3 11-2 15l-29 24 33 8 51-42c2-2 4-3 7-3 3 0 6 1 8 4 4 4 3 11-2 15l-38 33 35 9 12-11 0-199-194-37c-5-1-9-7-8-13 1-5 5-8 10-8 1 0 2 0 2 0l203 39 90 17 107-32c6-2 12 1 13 7 2 6-1 12-7 13z"/>
<glyph glyph-name="icon-residencial-assist" unicode="&#57403;" d="M407 173c-12-12-34-28-51-34-1 14-7 23-12 28-22 21-63 16-79 14-36 34-85 38-107 37l0 17c0 6-5 11-11 11l-96 0c-5 0-10-5-10-11l0-170c0-5 5-10 10-10l96 0c6 0 11 5 11 10l0 17c12-7 29-15 49-22 29-11 57-16 84-16 20 0 40 3 58 9 3 1 83 29 109 71 12 18 11 36-1 48-14 14-36 14-50 1z m-270-97l-75 0 0 148 75 0z m303 60c-22-36-98-62-98-62-78-27-163 20-184 32l0 91c20 0 65-3 96-35 2-3 6-4 10-3 12 2 50 7 65-7 4-3 6-8 6-14l-117 0c-6 0-11-5-11-11 0-6 5-10 11-10l125 0c0 0 0 0 0 0 1 0 2 0 2 0 0 0 1 0 1 0 31-1 71 36 76 40 5 6 14 6 20 0 6-6 2-16-2-21z m-328-31c0-7-6-12-13-12-6 0-12 5-12 12 0 7 6 12 12 12 7 0 13-5 13-12z m116 281c-6 0-10-5-10-11l0-102c0-13 10-23 23-23l176 0c13 0 23 10 23 23l0 102c0 6-5 11-11 11-6 0-10-5-10-11l0-102c0-1-1-2-2-2l-176 0c-1 0-2 1-2 2l0 102c0 6-5 11-11 11z m239 3l-47 31 0 40c0 6-5 10-11 10l-36 0c-6 0-11-4-11-10l0-4c-3 3-7 5-11 8-22 14-44 0-45 0l-116-75c-5-3-7-10-3-15 2-3 5-4 9-4 2 0 4 0 5 1l116 75c1 0 12 7 22 0 17-11 28-18 29-18 3-2 7-2 10 0 4 2 6 6 6 9l0 12 14 0 0-34c0-4 2-7 5-9l52-35c5-3 12-1 15 3 3 5 2 12-3 15z"/>
<glyph glyph-name="icon-residencial-bens" unicode="&#57404;" d="M326 274l0 7c0 1-2 3-3 3l-14 0 0 1c-4 21-18 34-35 34l-36 0c-18 0-32-14-35-34l0-1-14 0c-2 0-3-1-3-3l0-7c0-1 1-3 3-3l7 0c-5-6-8-13-8-21l0-18c0-9 4-16 11-21 1-9 9-17 19-17l4 0c9 0 16 5 19 12l29 0c3-7 11-12 20-12l1 0c11 0 19 7 21 17 7 4 11 12 11 21l0 18c0 8-3 15-8 21l8 0c1 0 3 2 3 3z m-88 29l36 0c10 0 17-10 19-21 0 0-1 0-1 0l-14 2c-17 1-32 1-48-1l-12-1c2 11 9 21 20 21z m69-71c0-4-2-7-5-9-3-1-5-4-5-7 0-3-3-6-6-6l-1 0c-2 0-6 1-6 4 0 4-4 8-8 8l-41 0c-4 0-8-4-8-8 0-3-4-4-6-4l-3 0c-2 0-4 2-4 4l0 2c0 3-2 6-4 7-4 2-6 5-6 9l0 18c0 9 7 16 16 16l11 2c16 1 30 1 46 0l14-2c0 0 0 0 0 0 9 0 16-7 16-16l0-18z m-73 12c0-6-4-10-10-10-5 0-10 4-10 10 0 5 5 10 10 10 6 0 10-5 10-10z m63 0c0-6-4-10-10-10-6 0-10 4-10 10 0 5 4 10 10 10 6 0 10-5 10-10z m64 53c-4 0-8-3-8-8l0-106c0-3-2-5-5-5l-184 0c-2 0-5 2-5 5l0 106c0 5-3 8-8 8-4 0-8-3-8-8l0-106c0-12 10-21 21-21l184 0c12 0 21 9 21 21l0 106c0 5-4 8-8 8z m37 4l-50 34 0 42c0 5-4 8-8 8l-38 0c-4 0-8-3-8-8l0-9c-4 3-10 7-16 11-22 14-43 1-44 0l-121-78c-4-2-5-7-2-11 1-2 4-3 6-3 2 0 3 0 5 1l121 78c0 0 13 8 26 0 17-12 29-18 29-19 3-1 6-1 8 0 3 2 4 4 4 7l0 15 22 0 0-39c0-2 1-5 3-6l55-36c3-3 8-2 11 2 2 4 1 9-3 11z m39 117c-2 2-6 3-9 2-45-6-86 1-123 19-27 15-41 31-41 31-2 2-5 4-8 4-3 0-6-1-8-3-67-67-163-51-165-51-3 1-6 0-8-2-3-2-4-5-4-8l0-177c0-101 172-191 180-194 1-1 3-2 5-2 1 0 3 1 4 2 8 3 180 93 180 194l0 177c0 3-1 6-3 8z m-18-185c0-45-45-90-83-120-34-27-68-46-80-53-13 7-47 26-81 53-38 30-83 75-83 120l0 165c29-3 104-3 163 50 20-18 75-58 164-50l0-165z"/>
<glyph glyph-name="icon-residencial-chaveiro" unicode="&#57405;" d="M153 400c-23 0-41-18-41-41 0-23 18-41 41-41 22 0 41 18 41 41 0 23-19 41-41 41z m0-61c-11 0-20 9-20 20 0 11 9 20 20 20 11 0 20-9 20-20 0-11-9-20-20-20z m313-191l-159 159c2 9 3 19 3 29 0 73-60 133-134 133-73 0-133-60-133-133 0-74 60-134 133-134 9 0 18 1 26 3l46-47c1-1 2-1 3-2l39-17 9-35c1-4 4-7 7-8l48-14 7-31c2-5 6-8 11-8l86 0c6 0 11 4 11 10l0 87c0 3-1 6-3 8z m-18-84l-68 0-7 29c-1 4-4 7-8 8l-47 14-9 34c-1 3-3 6-6 7l-41 19-49 49c-3 3-6 4-10 3l0 0c0 0 0 0 0 0-9-2-18-3-27-3-62 0-112 50-112 112 0 62 50 112 112 112 62 0 112-50 112-112 0-10-1-20-3-29-2-4 0-8 2-11l161-160 0-72z"/>
<glyph glyph-name="icon-residencial-cobertura" unicode="&#57406;" d="M401 301c-1 0-1 0-1 0l-140 73c-3 1-6 1-10 0l-139-73c-5-2-7-8-5-13l0-167c0-4 2-8 6-9l139-69c1 0 1 0 1 0 1 0 1 0 1 0 1-1 2-1 3-1 1 0 2 0 3 1 0 0 0 0 0 0 1 0 1 0 2 0l139 69c4 1 6 5 6 9l0 171c0 3-2 7-5 9z m-146 51l116-60-46-23-115 60z m1-117l-116 57 47 25 114-60z m-129 40l118-58 0-147-118 58z m258-147l-119-58 0 147 119 58z m82 216c-59 108-158 125-211 125-54 0-153-17-212-125-3-5-1-11 4-14 5-3 12-1 15 4 54 99 144 113 193 113 48 0 138-14 192-113 2-4 6-6 10-6 2 0 3 1 5 2 5 3 7 9 4 14z"/>
<glyph glyph-name="icon-residencial-descarte" unicode="&#57407;" d="M290 333c-6 1-12-2-13-8-1-6 2-11 8-13l62-14c1 0 2 0 3 0 0 0 0 0 0 0 1 0 2 0 3 0 0 0 0 1 1 1 0 0 1 0 1 0 0 0 0 0 0 0 0 0 0 0 1 1 0 0 0 0 0 0 1 0 1 1 1 1 0 0 1 0 1 0 0 1 0 1 0 1 1 1 1 1 1 1 0 0 0 1 0 1 1 0 1 1 1 1 0 0 0 1 0 1 0 0 0 0 0 0l14 62c2 6-2 12-8 13-5 1-11-2-13-8l-8-36-66 115c-5 9-14 14-24 14-11 0-20-5-25-14l-43-75c-3-5-2-12 3-15 6-3 12-1 15 4l44 76c1 3 4 3 6 3 1 0 4 0 6-3l68-118z m175-201l-44 75c-3 5-9 7-14 4-5-3-7-10-4-15l44-75c1-3 0-6 0-7-1-1-3-3-6-4l-136 0 27 29c4 4 4 11-1 15-4 4-11 4-15 0l-43-48c0 0 0 0 0 0-1 0-1-1-1-1 0 0 0-1-1-1 0 0 0-1 0-1 0 0 0-1 0-1 0 0-1 0-1-1 0 0 0-1 0-1 0 0 0-1 0-1 0 0 0 0 0 0 0 0 0-1 0-1 0 0 0-1 0-1 1 0 1-1 1-1 0 0 0-1 0-1 0 0 0-1 1-1 0 0 0 0 0-1 0 0 0 0 1 0 0-1 0-1 0-1 1 0 1 0 1-1l47-43c2-2 4-3 7-3 3 0 6 2 8 4 4 4 4 11-1 15l-27 25 133 0c10 0 19 6 24 14 5 9 5 20 0 29z m-307-27l-87-1c-4 0-5 2-6 3-1 2-2 4 0 8l66 118 12-38c2-4 6-7 10-7 1 0 3 0 4 0 5 2 8 8 6 14l-19 61c-1 0-1 0-1 0 0 1 0 1 0 1 0 1-1 1-1 1 0 1 0 1 0 1-1 0-1 1-1 1 0 0-1 0-1 1 0 0 0 0-1 0 0 0 0 1 0 1-1 0-1 0-1 0 0 0 0 0-1 0 0 0 0 1-1 1 0 0 0 0-1 0 0 0 0 0-1 0 0 0 0 0-1 0 0 0 0 0-1 0 0 0 0 0-1 0 0 0 0 0-1 0 0 0 0 0 0 0l-61-20c-5-2-8-8-7-14 2-5 8-8 14-6l35 11-65-116c-5-9-4-20 1-29 5-8 14-13 24-13 0 0 0 0 1 0l86 1c6 0 11 5 11 11 0 6-5 10-11 10z"/>
<glyph glyph-name="icon-residencial-eletricista" unicode="&#57408;" d="M469 379c0 50-41 91-92 91-36 0-67-21-82-52l-25 46c-2 4-5 6-9 6l-121 0c-4 0-8-2-10-6-2-3-1-7 1-10l64-105c-15 10-34 15-52 15-56 0-100-45-100-100 0-19 6-38 16-55-19-20-21-52-3-75l26-34c2-3 5-4 8-4 3 0 5 0 7 2 0 0 0 0 0 0l4 3 26-34c2-2 6-4 9-4 2 0 4 1 6 2 5 4 6 11 2 15l-26 34 33 25 26-34c2-2 5-4 9-4 2 0 4 1 6 2 5 4 6 11 2 15l-26 34 5 4c0 0 0 0 0 0 5 3 6 10 2 15l-26 34c-17 23-48 30-73 17-8 13-12 27-12 42 0 44 35 79 78 79 23 0 45-10 60-27l-74 8c-5 1-9-1-11-5-2-4-2-9 1-12l209-259c2-3 5-4 8-4 2 0 4 0 6 1 4 3 6 9 4 14l-73 179 111-19c4-1 8 1 11 4 2 4 2 8 0 12l-29 53c4 0 8-1 12-1 51 0 92 41 92 92z m-337-187l20-26-60-45-19 26c-13 17-9 40 7 52 16 13 40 10 52-7z m125 70c-4 1-8-1-10-4-2-3-3-7-2-10l53-130-147 182 85-10c4 0 8 2 10 5 3 3 3 8 1 11l-88 143 95 0 111-205z m52 131c6 32 35 56 68 56 39 0 70-32 70-70 0-39-31-70-70-70-9 0-17 1-26 5z m104-42c6 0 11 4 11 10l0 35c0 6-5 11-11 11-6 0-10-5-10-11l0-35c0-6 4-10 10-10z m-72 56c-6 0-11-5-11-11l0-35c0-5 5-10 11-10 6 0 11 5 11 10l0 35c0 6-5 11-11 11z m47 9c0-6-5-11-11-11-6 0-11 5-11 11 0 6 5 11 11 11 6 0 11-5 11-11z m0-75c0-6-5-11-11-11-6 0-11 5-11 11 0 6 5 11 11 11 6 0 11-5 11-11z"/>
<glyph glyph-name="icon-residencial-encanador" unicode="&#57409;" d="M153 382c15-3 37 0 69 9 8-10 21-15 34-15 13 0 25 5 33 15 32-9 54-12 69-9 11 2 20 9 26 18 7 11 9 24 6 35-6 22-27 35-52 32-11-1-28-5-50-12-9 9-20 14-32 14-13 0-24-5-33-14-23 7-40 11-50 12-25 3-46-10-52-32-3-11-1-24 5-35 6-9 16-16 27-18z m-11 48c3 13 17 17 29 16 10-2 28-6 53-13 3-1 7 0 9 2 1 1 2 1 2 2 5 7 13 11 21 11 8 0 15-4 20-11 2-2 5-4 9-4 1 0 2 0 3 0 24 7 42 11 52 13 11 1 26-2 29-16 2-6 1-13-3-18-2-5-7-8-12-9-7-2-24-2-65 10-5 1-10-1-13-5-4-6-12-11-20-11-9 0-17 5-21 12-1 0-1 1-1 1l-1 0c-2 3-5 4-7 4-1 0-2 0-4-1-41-12-58-12-65-10-5 1-10 4-13 9-3 5-4 12-2 18z m249-102l-59 0c-5 11-12 21-21 28-2 2-5 3-7 3l-97 0c-2 0-5-1-7-3-9-7-16-17-21-28l-126 0c-6 0-10-4-10-10l0-70c0-6 4-11 10-11l137 0c16-19 40-31 65-31 26 0 51 12 67 32l39 0c4 0 7-3 7-8l0-50c0-6 5-10 11-10 6 0 11 4 11 10l0 50c0 17-13 30-29 30l-44 0c-4 0-7-2-9-5-12-17-32-27-52-27-21 0-40 9-52 26-2 2-5 4-8 4l-132 0 0 49 122 0c4 0 8 3 10 7 3 9 9 17 15 24l89 0c7-7 12-15 15-23 1-5 6-8 10-8l66 0c31 0 57-25 57-57l0-70c0-6 4-10 10-10 6 0 11 4 11 10l0 70c0 43-35 78-78 78z m35-162c0 0 0 1 0 0-3 4-9 5-13 2-3-1-49-45-40-90 3-12 10-22 20-28 8-5 17-7 25-7 4 0 9 0 13 1 23 7 36 29 33 56-4 35-33 62-38 66z m-1-101c-7-2-14-1-21 3-5 3-9 8-10 14-5 24 14 50 24 62 9-9 22-26 25-46 1-13-2-29-18-33z"/>
<glyph glyph-name="icon-residencial-explosao" unicode="&#57410;" d="M458 102l-405 0c-6 0-11-5-11-11 0-6 5-11 11-11l405 0c6 0 11 5 11 11 0 6-5 11-11 11z m-67-38l-271 0c-6 0-11-5-11-10 0-6 5-11 11-11l271 0c6 0 11 5 11 11 0 5-5 10-11 10z m-295 101l-34-29c-5-4-6-10-2-15 4-4 11-5 15-1l43 36c3 2 4 5 4 8 0 3-1 6-3 8l-44 43 64 12c6 1 10 7 9 12l-20 115 75-59c2-2 6-2 9-2 3 1 6 4 7 7l52 121 24-134c0-4 3-7 6-8 4-1 7-1 10 1l57 41-6-79c-1-3 0-6 3-8 2-2 5-3 8-3l63 2-54-69c-2-2-2-5-2-8 1-3 2-6 5-7l47-30c2-1 4-2 6-2 3 0 7 2 9 5 3 5 1 12-4 15l-37 24 60 77c3 3 3 7 2 11-2 4-6 6-10 6l-74-2 7 89c0 4-2 8-5 10-4 2-8 2-12-1l-61-44-27 153c-1 5-5 8-9 9-5 0-9-2-11-7l-61-141-86 66c-4 3-8 3-12 1-4-2-6-7-5-11l23-131-74-14c-4-1-7-4-8-7-1-4 0-8 3-11z m287 40c-2 4-7 6-11 6l-45-9 3 36c1 4-1 8-5 10-3 2-7 2-11 0l-28-17-16 74c-1 4-5 8-9 8-5 1-10-2-11-6l-27-68-39 32c-3 3-8 3-12 1-4-2-6-7-5-11l10-64-35 1c-4 0-8-2-10-6-1-4-1-8 2-11l27-33-15-12c-5-3-6-10-2-15 3-4 10-5 15-1l24 18c2 2 3 5 4 8 0 2-1 5-3 7l-19 23 24 0c3-1 6 1 8 3 2 3 3 6 3 9l-8 49 28-24c3-2 7-3 10-2 3 1 6 3 7 7l20 48 11-55c1-3 3-6 6-7 3-2 7-1 10 1l23 13-3-29c0-3 1-6 3-8 3-3 6-4 10-3l28 5-29-32c-2-2-3-6-3-9 1-3 3-6 5-7l25-16c2-1 4-2 6-2 4 0 7 2 9 5 3 5 2 12-3 15l-15 9 42 47c3 3 3 8 1 12z"/>
<glyph glyph-name="icon-residencial-linha-branca" unicode="&#57411;" d="M128 336c5 0 8 3 8 8l0 38c0 4-3 8-8 8-4 0-8-4-8-8l0-38c0-5 4-8 8-8z m0-54c-4 0-8-3-8-8l0-37c0-5 4-8 8-8 5 0 8 3 8 8l0 37c0 5-3 8-8 8z m289-25l-48 0 20 16 27 23c3 3 5 7 5 12 0 5-2 9-5 12l-27 23-27 22c-3 3-7 4-10 4-1 0-1 0-1 0l0 57c0 23-19 42-43 42l-181 0c-24 0-43-19-43-42l0-115c0-1 0-1 0-2 0 0 0-1 0-1l0-223c0-23 19-42 43-42l181 0c24 0 43 19 43 42l0 84c0 2-1 3-1 5 0 1 1 3 1 5l0 12 66 0c9 0 16 7 16 16l0 34c0 9-7 16-16 16z m-65 68l0 28 26-23 27-22-27-23-26-22 0 28-83 0 0 34 83 0z m-225 122l181 0c12 0 22-10 22-21l0-85-61 0c-9 0-16-7-16-16l0-5-148 0 0 106c0 12 10 21 22 21z m181-383l-181 0c-12 0-22 10-22 21l0 213 148 0 0-7c0-9 7-16 16-16l48 0-20-17-27-22c-3-3-5-8-5-12 0-5 2-10 5-13l27-22 27-23c2-1 4-2 5-3l0-78c1-11-9-21-21-21z m109 160l0-17-82 0 0-28-27 22-27 23 27 22 27 23 0-28 82 0z"/>
<glyph glyph-name="icon-residencial-lixeira" unicode="&#57412;" d="M458 405l-119 0 0 49c0 8-7 16-16 16l-134 0c-8 0-16-8-16-16l0-49-87 0c-1 0-3 0-4 0 0 0 0 0-1 0l-27 0c-6 0-11-5-11-11 0-6 5-11 11-11l20 0 40-330c0-5 5-9 10-9l264 0c6 0 10 4 11 9l39 330 20 0c6 0 11 5 11 11 0 6-5 11-11 11z m-263 43l123 0 0-43-123 0z m184-383l-245 0-39 318 232 0c0 0 1 0 1 0 1 0 1 0 2 0l87 0z m-73 266c-6 0-11-5-11-10l0-191c0-5 5-10 11-10 6 0 11 5 11 10l0 191c0 5-5 10-11 10z m-100 0c-6 0-11-5-11-10l0-191c0-5 5-10 11-10 6 0 11 5 11 10l0 191c0 5-5 10-11 10z"/>
<glyph glyph-name="icon-residencial-obra" unicode="&#57413;" d="M375 366l-9-29c-1-3 0-7 3-9 1-1 3-2 5-2 1 0 2 0 3 1l34 15 34-15c3-1 6-1 8 1 3 2 4 5 3 8l-8 30 18 19c2 2 3 4 3 7-1 3-3 5-6 6l-31 10-13 28c-2 3-5 5-8 5-3 0-5-2-7-5l-14-28-31-10c-2-1-4-3-5-6-1-3 0-5 2-7z m24 28c2 1 3 2 4 4l8 17 8-17c1-2 3-3 5-4l22-7-13-13c-2-2-3-5-2-8l5-18-21 10c-1 0-3 0-4 0-1 0-2 0-3 0l-21-10 5 18c1 3 0 6-2 8l-13 13z m46-244c-4 83-52 154-123 183 0 0 0 1 0 1 0 0 0 1 0 2 0 1 0 2 0 3-1 0-1 1-1 2 0 0 0 1 0 2-1 1-1 1-1 2 0 1-1 2-1 3 0 0 0 1-1 1 0 1 0 2-1 3 0 0 0 1-1 2 0 0 0 1-1 2 0 0 0 1-1 2 0 0-1 1-1 2-1 0-1 1-1 1-1 1-1 1-2 2 0 1-1 1-1 2-1 0-1 1-2 1 0 1-1 1-1 2-1 0-2 1-2 1-1 1-1 1-2 1 0 1-1 1-2 2 0 0-1 0-1 1-1 0-2 0-3 1 0 0-1 0-1 1-1 0-2 0-3 1 0 0-1 0-1 0-1 1-2 1-3 1 0 0-1 0-1 0-1 1-2 1-3 1-1 0-1 0-2 0-1 0-3 0-4 0l-44 0c-2 0-3 0-5 0 0 0-1 0-1 0-1 0-2 0-3-1-1 0-1 0-2 0-1 0-1 0-2-1-1 0-1 0-2 0-1-1-1-1-2-1-1-1-1-1-2-1-1-1-1-1-2-1-1-1-1-1-2-1 0-1-1-1-2-2 0 0-1 0-1-1-1 0-1-1-2-1-1-1-1-1-2-2 0 0-1-1-1-1-1-1-1-1-2-2 0-1-1-1-1-2 0 0-1-1-1-1-1-1-1-2-2-2 0-1 0-2-1-2 0-1 0-2-1-2 0-1 0-2-1-2 0-1 0-2-1-3 0 0 0-1-1-2 0 0 0-1 0-2-1-1-1-1-1-2 0-1 0-2-1-3 0 0 0-1 0-2 0-1 0-1 0-2 0-1-1-2-1-2 0-1 0-1 0-1-70-29-118-100-122-183-13-2-23-15-23-30 0-17 12-30 27-31 10-2 84-18 185-18 100 0 175 16 185 18 15 1 27 14 27 31 0 15-10 28-23 30z m-5-40c-1 0-2 0-3 0 0 0-78-18-181-18-103 0-181 18-182 18 0 0-1 0-2 0-4 0-7 5-7 10 0 5 3 9 7 9l6 0c6 0 10 5 10 11 0 75 40 141 101 170l0-123c0-6 5-10 11-10 6 0 11 4 11 10l0 142c0 15 10 28 23 28l44 0c13 0 23-13 23-28l0-142c0-6 5-10 11-10 6 0 10 4 10 10l0 123c61-29 102-95 102-170 0-6 4-11 10-11l6 0c4 0 7-4 7-9 0-5-4-10-7-10z m-71 30c0 0-48-11-113-11-65 0-113 11-114 11-4 1-9-2-10-6-1-4 2-8 6-9 2-1 51-12 118-12 66 0 115 11 117 12 4 1 7 5 6 9-1 4-5 7-10 6z"/>
<glyph glyph-name="icon-residencial-patrimonio" unicode="&#57414;" d="M410 290c-6 0-11-5-11-11l0-155c0-5-4-9-8-9l-269 0c-5 0-8 4-8 9l0 155c0 6-5 11-11 11-6 0-11-5-11-11l0-155c0-17 14-30 30-30l269 0c16 0 30 13 30 30l0 155c0 6-5 11-11 11z m54 6l-75 49 0 63c0 6-4 11-10 11l-55 0c-6 0-11-5-11-11l0-15c-7 4-16 10-26 17-30 20-61 1-62 0l-178-114c-5-3-6-10-3-15 2-3 6-5 9-5 2 0 4 1 6 2l177 114c0 0 21 13 40 0 25-17 42-26 43-27 3-2 7-2 10 0 3 2 5 6 5 9l0 24 34 0 0-59c0-3 2-6 5-8l79-53c5-3 12-2 15 3 3 5 2 12-3 15z m-208-104c-3 0-7 1-7 5 0 5-4 8-8 8-5 0-8-3-8-8 0-10 6-17 15-20l0-2c0-4 4-8 8-8 4 0 8 4 8 8l0 2c10 3 16 10 16 20 0 13-9 17-18 22l-5 2c-9 5-9 5-9 8 0 4 5 5 8 5 5 0 8-2 8-5 0-5 3-8 8-8 4 0 8 3 8 8 0 9-7 17-16 20l0 2c0 4-4 8-8 8-4 0-8-4-8-8l0-2c-9-3-15-11-15-20 0-13 8-18 17-22l5-3c9-4 9-4 9-7 0-4-4-5-8-5z m-90-13c0-21 17-38 39-38l103 0c21 0 39 17 39 38 0 3-2 77-59 113l20 39c1 4 0 8-3 10-3 3-7 3-10 0 0 0-10-8-36 2-37 14-55-8-56-8-2-3-2-7 0-10l20-33c-59-44-57-111-57-113z m88 149c13-5 23-6 31-6l-13-25-34 0-18 31c5 3 16 7 34 0z m-18-47l39 0c54-30 56-102 56-102 0-12-10-22-23-22l-103 0c-13 0-23 10-23 22 0 1-1 64 54 102z"/>
<glyph glyph-name="icon-residencial-personalizado" unicode="&#57415;" d="M453 311c0 3-1 5-2 6l-149 149c-3 3-8 3-11 0l-47-46c-3-3-3-8 0-11l149-149c1-1 1-1 1-1 0 0 1 0 1-1 1 0 1 0 2 0 0 0 1 0 1 0 0-1 1-1 1-1 0 0 0 0 0 0l46 0c4 0 8 4 8 8l0 45c0 1 0 1 0 1z m-161 72l35 35 107-107-35-34z m4 66l20-20-35-34-20 19z m122-176l19 19 0-19z m-114-55l-20 0 0 71c0 54-44 99-99 99-54 0-99-45-99-99l0-71-20 0c-6 0-10-5-10-11l0-153c0-6 4-11 10-11l238 0c6 0 11 5 11 11l0 153c0 6-5 11-11 11z m-196 71c0 42 34 77 77 77 43 0 78-35 78-77l0-71-155 0z m185-224l-216 0 0 131 216 0z m-134 17l52 0c3 0 5 1 7 3 1 2 2 5 1 7l-11 35c6 6 9 13 9 22 0 16-13 30-30 30-17 0-30-14-30-30 0-8 3-16 8-22l-13-34c-1-3-1-6 1-8 1-2 3-3 6-3z m20 54c0 1 0 1 0 1-4 2-7 7-7 12 0 8 7 14 15 14 8 0 14-6 14-14 0-5-2-10-6-12-3-2-4-6-3-9l9-30-30 0 11 29c1 3 0 7-3 9z"/>
<glyph glyph-name="icon-residencial-provisoria" unicode="&#57416;" d="M442 218l-30 12c-4 2-9 0-10-4-2-5 0-9 4-11l29-12c1 0 1 0 1 0-1-2-1-3-1-5l6-31c1-4 4-7 8-7 1 0 1 0 2 0 4 1 7 5 6 10l-6 31c-1 3-3 5-5 6 2 4 0 9-4 11z m-65 11l-30-11c-4-2-6-6-5-11 1-3 4-5 8-5 1 0 2 0 3 1l29 11c4 2 6 7 5 11-2 4-6 6-10 4z m-57-15c3 0 6 2 7 5 2 4 0 8-4 10l-18 7c-2 0-4 0-5 0l-13-5c-4-2-6-7-4-11 1-4 6-6 10-4l10 4 14-6c1 0 2 0 3 0z m4 102c-1-4 0-9 5-10l7-4c1 0 2 0 3 0 1 0 2 0 3 1l22 9c4 2 6 7 4 11-1 4-6 5-10 4l-19-8-4 1c-4 2-9 0-11-4z m-40-196l-23-9-6 2c1 0 1 0 2 0 4 0 8 3 8 8l0 32c0 4-4 8-8 8-4 0-8-4-8-8l0-32c0-3 2-6 4-7l-43 17c-2 1-5 1-8 0l-36-14 8 86 37 14 38-15 0-17c0-5 4-8 8-8 4 0 8 3 8 8l0 18c1 1 1 2 2 3 0 1 0 1 0 1 2 3 2 5 1 8-1 1-2 2-3 3-1 4-4 7-8 7-2 0-3-1-4-2l-38 15c-2 1-5 1-7 0l-31-12 7 76 32 14 37-16c1 0 3-1 4-1 4 0 8 3 10 7 1 1 1 3 1 5 1-1 3-2 5-2 1 0 2 0 3 1l22 9 1-1c5-2 9 0 11 4 2 5 0 9-4 11l-5 2c-2 1-4 1-6 0l-25-11c-3-1-5-4-5-7 0 0 0 0 0 0l0 28c0 4-3 8-8 8-4 0-8-4-8-8l0-20-28 13c-3 1-6 1-9 0l-25-11 7 71 55 0 0-21c0-5 4-8 8-8 5 0 8 3 8 8l0 24c4 0 7 4 7 8 0 4-3 8-8 8l0 0c-2 1-4 2-7 2l-145 0c-5 0-9-3-10-8l-60-303c0-2 0-3 0-5 0-2 0-4 1-7 2-5 8-7 14-5l45 19 47-19c0 0 0 0 1 0 0 0 0-1 1-1 0 0 0 0 1 0 0 0 0 0 0 0 0 0 1 0 1 0 0 0 0 0 0 0 0 0 1 0 1 0 0 0 1 0 1 0 1 0 2 1 2 1l49 19 47-19c1-1 3-1 4-1 4 0 8 2 9 6l24 9c4 2 6 6 4 10-2 5-6 7-10 5z m-182 182l32 14 29-13-8-78-33 13c-3 1-5 1-8 0l-27-11z m19 96l51 0-7-72-27 11c-2 1-6 1-8 0l-23-10z m-24-267l-31-13 16 84 36 15 35-14-9-87-39 15c-2 2-5 2-8 0z m372-28c0 1 0 3 0 4l-6 31c-1 5-5 7-9 7-5-1-8-5-7-10l5-22-14 6c-4 2-9 0-11-4-1-4 0-9 4-10l27-12c1 0 2 0 3 0 3 0 6 1 8 4 0 2 0 4 0 6z m-67 23l-30-12c-4-1-6-6-4-10 1-3 4-5 7-5 1 0 2 0 3 1l30 11c4 2 6 7 4 11-1 4-6 6-10 4z m-53-12l-30 12c-4 2-8 0-10-4-2-4 0-9 4-11l30-12c1 0 2 0 3 0 3 0 6 1 7 4 2 5 0 9-4 11z m69 219c-5-1-8-5-7-9l1-2-18 8c-4 2-9 0-11-4-2-4 0-9 4-10l28-13 2-11c1-3 4-6 8-6 1 0 1 0 2 0 4 1 7 5 6 9l-6 32c-1 4-5 7-9 6z m12-63c-5-1-8-5-7-9l6-31c1-4 4-7 8-7 1 0 1 0 2 0 4 1 7 5 6 10l-6 31c-1 4-5 7-9 6z m-134 130l32 0c4 0 8 4 8 8 0 5-4 8-8 8l-32 0c-4 0-8-3-8-8 0-4 4-8 8-8z m64 0l32 0c4 0 8 4 8 8 0 5-4 8-8 8l-32 0c-4 0-8-3-8-8 0-4 4-8 8-8z m39-14l6-31c1-4 4-6 8-6 0 0 1 0 1 0 5 0 8 5 7 9l-6 31c-1 5-5 8-10 7-4-1-7-5-6-10z m-142-97c-5 0-8-4-8-8l0-32c0-5 3-8 8-8 4 0 8 3 8 8l0 32c0 4-4 8-8 8z"/>
<glyph glyph-name="icon-residencial-quadros" unicode="&#57417;" d="M458 395l-109 0-89 55c0 0 0 0-1 0 0 0 0 1 0 1-1 0-1 0-1 0 0 0-1 0-1 0 0 0 0 0-1 0 0 0 0 0 0 0-1 0-1 0-1 0 0 0-1 0-1 0 0 0 0 0-1 0 0 0 0 0 0 0-1 0-1 0-1-1 0 0 0 0-1 0l-89-55-108 0c-6 0-11-5-11-11l0-315c0-5 5-10 11-10l404 0c5 0 10 5 10 10l0 315c0 6-5 11-10 11z m-11-304l-35 35 0 201 35 35z m-383 271l35-35 0-201-35-35z m372 12l-35-35-291 0-34 35z m-45-185l-76 50c0 0 0 0 0 0 0 1-1 1-1 1 0 0-1 0-1 0 0 0 0 0 0 0-1 0-1 0-1 0 0 0-1 1-1 1 0 0-1 0-1 0 0 0 0 0 0-1-1 0-1 0-1 0 0 0-1 0-1 0 0 0 0 0-1 0 0 0 0 0 0-1-1 0-1 0-1 0 0 0 0 0 0 0l-71-60-49 41c-3 2-7 2-10 0l-56-38 0 135 271 0z m-271-26l60 41 50-42c3-2 8-2 11 0l70 61 80-53 0-34-271 0z m-10-48l291 0 35-35-360 0z m146 319l63-39-127 0z m-18-202c20 0 36 16 36 36 0 20-16 36-36 36-20 0-36-16-36-36 0-20 16-36 36-36z m0 56c11 0 20-9 20-20 0-11-9-20-20-20-11 0-20 9-20 20 0 11 9 20 20 20z"/>
<glyph glyph-name="icon-residencial-raio" unicode="&#57418;" d="M395 319c-2 3-6 5-10 5l-89-10 86 140c2 3 2 7 0 10-2 4-5 6-9 6l-121 0c-4 0-8-2-10-6l-124-230c-2-3-2-8 1-11 2-3 6-5 10-4l111 19-73-180c-2-5 0-10 5-13 2-1 3-2 5-2 3 0 6 2 9 4l208 260c3 3 3 8 1 12z m-181-202l53 130c2 4 1 8-2 11-2 3-5 4-8 4 0 0-1 0-2 0l-108-19 111 206 96 0-88-143c-2-3-2-8 0-11 2-4 6-5 10-5l85 10z"/>
<glyph glyph-name="icon-residencial-reparo" unicode="&#57419;" d="M469 291c-3 14-12 27-24 35-13 8-28 10-42 7-5-1-11-3-15-6l-125 80c0 5 0 11-1 16-3 15-12 27-24 35-13 8-28 11-42 7-6-1-11-3-16-6-1 0-1 0-1-1-2-1-3-4-3-6 0-3 1-5 3-7l32-20-15-23-31 20c-3 2-6 2-9 0-2-1-3-3-3-6-1-5 0-11 1-17 3-14 12-26 24-34 12-8 27-11 42-8 5 2 10 4 15 6l125-79c-1-6 0-11 1-17 3-14 12-27 24-35 9-5 19-8 30-8 4 0 8 0 12 1 5 1 11 3 16 6 0 0 0 0 0 0 2 2 4 4 4 7 0 3-2 5-4 7l-32 20 15 23 32-20c2-2 4-2 6-1 3 0 4 2 5 4 1 1 1 2 1 3 0 6 0 11-1 17z m-41 15c-4 2-9 1-11-2l-24-37c-1-2-1-4-1-6 1-2 2-4 4-5l25-16c-10-1-19 1-27 6-9 6-15 15-18 25-1 5-1 10 0 16 1 3-1 6-3 8l-134 85c-1 1-2 1-4 1-2 0-3 0-5-1-4-3-9-5-14-7-10-2-21 0-29 6-9 5-14 13-17 22l25-16c1-1 4-1 6-1 2 0 3 2 5 3l23 37c2 3 1 8-3 11l-24 16c9 1 19-1 27-6 9-6 15-14 17-25 1-5 1-10 1-15-1-4 0-7 3-9l134-85c2-1 6-1 8 1 5 3 9 5 15 6 10 2 20 0 29-6 8-5 14-13 17-22z m-104-110c-5 0-10-5-10-11l0-118c0-2-2-4-4-4l-204 0c-2 0-4 2-4 4l0 118c0 6-5 11-10 11-6 0-11-5-11-11l0-118c0-14 11-25 25-25l204 0c14 0 25 11 25 25l0 118c0 6-5 11-11 11z m43 4l-56 36 0 47c0 6-4 11-10 11l-42 0c-6 0-11-5-11-11l0-7c-4 3-9 6-15 10-25 17-50 1-51 0l-134-86c-5-3-6-10-3-15 2-3 5-5 9-5 2 0 4 1 6 2l134 86c1 1 14 9 27 0 20-12 32-20 33-20 3-2 7-2 10 0 4 2 6 5 6 9l0 15 20 0 0-41c0-4 2-7 5-9l60-40c5-3 12-2 15 3 3 5 2 12-3 15z"/>
<glyph glyph-name="icon-residencial-restaurante" unicode="&#57420;" d="M319 469c-6 0-11-5-11-11l0-110-23 0 0 110c0 6-5 11-11 11-6 0-11-5-11-11l0-110-24 0 0 110c0 6-5 11-11 11-6 0-10-5-10-11l0-139c0-17 14-31 31-31l1 0c-5-43-19-186-19-202 0-24 20-43 43-43 24 0 43 19 43 43 0 15-14 159-18 202 17 1 30 14 30 31l0 139c0 6-5 11-10 11z m-45-405c-12 0-21 10-21 22 0 14 12 142 18 202l7 0c6-60 18-189 18-202 0-12-10-22-22-22z m24 245l-49 0c-5 0-10 5-10 10l0 8 69 0 0-8c0-5-5-10-10-10z m-187 160c-38 0-68-41-68-91 0-38 18-71 43-84-3-32-18-191-18-208 0-24 19-43 42-43 24 0 43 19 43 43 0 16-15 174-18 207 26 13 45 46 45 85 0 50-31 91-69 91z m21-383c0-12-10-22-22-22-11 0-21 10-21 22 0 14 13 143 18 202 2 0 3 0 4 0 1 0 2 0 3 0 6-60 18-189 18-202z m-21 223c-26 0-47 31-47 69 0 38 21 69 47 69 27 0 48-31 48-69 0-38-21-69-48-69z m347 160c-36 0-73-42-73-111l0-147c0-6 5-11 10-11l11 0 0-126c0-17 14-31 32-31 17 0 31 14 31 31l0 384c0 6-5 11-11 11z m-52-111c0 48 20 79 41 87l0-224-41 0z m31-294c-5 0-9 4-9 10l0 126 19 0 0-126c0-6-4-10-10-10z"/>
<glyph glyph-name="icon-residencial-telhas" unicode="&#57421;" d="M468 102l-41 229c-1 4-3 7-7 8l-22 10c-3 1-7 1-10-1-3-1-4-4-5-8l-3-20-10 20c-2 4-5 6-8 6-4 0-7-1-10-3l-24-27 7 53c1 5-3 11-8 12l-19 4 16 21c2 3 2 7 0 11-1 3-5 6-9 6l-200 0c-5 0-9-4-10-9l-62-312c-1-3 1-7 4-10 2-2 6-3 10-2l46 15 47-15c1-1 1-1 2-1 1 0 1 0 1 0 1 0 2 0 3 0 0 0 0 0 1 0l48 16 47-15c2-1 4-1 7 0l48 15 46-15c0 0 0 0 0-1 1 0 2 0 3 0 0 0 0 0 0 0 1 0 1 0 1 0 1 0 2 0 3 0l48 16 46-16c2 0 3 0 4 0 2 0 5 1 7 3 3 2 4 6 3 10z m-110 215l19-36c2-4 6-6 11-5 5 0 8 4 9 9l5 39 5-2 18-100-30 10c-2 0-4 0-6 0l-33-11-8 85z m-253-14l32 11 27-9-9-84-33 10c-2 1-4 1-6 0l-27-9z m142 98l-1-74-25 9c-2 0-5 0-7 0l-26-9 8 74z m-62-98l32 11 29-10 0-83-32 11c-2 0-4 0-6 0l-31-10z m83 1l29 10 9-3-3-27c-1-4 1-9 6-11 4-2 9-1 12 3l7 8 6-62-29 9c-2 1-5 1-7 0l-31-9z m12 70c1-4 4-6 8-7l25-5-4-29-9 3c-2 0-4 0-6 0l-26-9 0 74 26 0-13-17c-2-3-2-7-1-10z m-156 27l50 0-8-75-26 10c-2 0-5 0-7 0l-24-9z m-22-274c-1 0-2 0-3-1l-31-10 16 82 35 12 34-10-9-86-38 12c-1 1-2 1-4 1z m100-1l-36-11 9 84 36 11 35-11-1-85-36 12c-2 1-5 1-7 0z m102 0l-38-12 1 86 34 10 35-11 8-84-34 11c-2 1-4 1-6 0z m107 0c-2 1-4 1-7 0l-38-12-8 86 34 10 37-12 15-82z"/>
<glyph glyph-name="icon-residencial-vendaval" unicode="&#57422;" d="M54 307l213 0c31 0 57 26 57 58 0 32-26 58-57 58-32 0-58-26-58-58 0-6 4-10 10-10 6 0 11 4 11 10 0 21 16 37 37 37 20 0 36-16 36-37 0-20-16-36-36-36l-213 0c-6 0-11-5-11-11 0-6 5-11 11-11z m213-103l-213 0c-6 0-11-4-11-10 0-6 5-11 11-11l213 0c20 0 36-16 36-37 0-20-16-36-36-36-21 0-37 16-37 36 0 6-5 11-11 11-6 0-10-5-10-11 0-31 26-57 57-57 32 0 58 26 58 57 0 32-26 58-57 58z m144 157c-32 0-58-26-58-58 0-6 5-11 11-11 6 0 11 5 11 11 0 20 16 37 36 37 20 0 37-17 37-37 0-20-17-36-37-36l-357 0c-6 0-11-5-11-11 0-6 5-11 11-11l357 0c32 0 58 26 58 58 0 32-26 58-58 58z"/>
<glyph glyph-name="icon-residencial-vidraceiro" unicode="&#57423;" d="M455 469l-394 0c-9 0-16-7-16-16l0-394c0-9 7-16 16-16l269 0c0 0 0 0 0 0l125 0c9 0 16 7 16 16l0 394c0 9-7 16-16 16z m-150-344l24-45-7-16-54 0 0 181 182 0 0-71-31-16-41 24c-3 1-6 1-9 0-3-1-6-3-7-6l-10-32-39-4c-3 0-6-2-8-5-2-3-2-7 0-10z m145 142l-182 0 0 181 182 0 0-181z m-203 181l0-181-181 0 0 181z m-181-203l181 0 0-181-181 0z m279-181l5 13c1 3 1 6 0 9l-19 35 30 3c4 1 8 3 9 7l9 26 35-20c3-2 7-2 10 0l26 13 0-86z"/>
<glyph glyph-name="icon-residencial-vigilancia" unicode="&#57424;" d="M184 305c0-8-7-15-15-15-8 0-15 7-15 15 0 9 7 15 15 15 8 0 15-6 15-15z m277 20l-16 4 21 25c3 3 3 7 2 10-1 4-4 7-8 7l-309 68c-2 0-5 0-8-2-2-1-4-4-4-7l-34-154c-1-6 3-11 8-13l69-15c0-11 3-22 9-32 7-9 16-16 26-21l-13-55-96 0c-5 26-28 46-55 46-6 0-11-5-11-11l0-91c0-6 5-11 11-11 27 0 50 20 55 46l104 0c5 0 9 3 10 8l16 64c0 0 0 0 1 0 22 0 42 13 51 34l51-11c0-1 1-1 2-1 3 0 6 2 8 4l23 27 62-16c0 0 1 0 2 0 2 0 4 0 6 1 2 1 4 4 5 7l19 76c2 6-1 12-7 13z m-397-229l0 67c14-5 24-18 24-34 0-15-10-28-24-33z m168 117c-10 2-17 7-23 15-3 5-5 10-5 16l65-15c-8-12-22-19-37-16z m107 23l-53 11c0 0 0 1 0 1 0 0-1 0-1 0l-89 19-67 15 28 133 282-61z m92 15l-42 11 41 49 15-4z"/>
<glyph glyph-name="icon-redes-facebook" unicode="&#57425;" d="M196 230l0-192 93 0 0 191 63 0 16 80-78 0c0 0 0 37 0 58 0 8 4 19 17 19 20 0 45 0 45 0l0 81c0 0-41 0-85 0-29 0-72-36-72-74 0-40 0-82 0-82l-49 0 0-81z"/>
<glyph glyph-name="icon-redes-google" unicode="&#57426;" d="M45 261c1 69 65 130 135 128 33 1 64-13 90-34-11-12-22-24-34-35-31 21-75 27-105 3-44-31-46-102-4-135 41-37 119-19 130 38-26 1-52 0-77 1 0 15 0 31 0 46 43 0 85 0 129 0 2-36-3-74-25-104-33-47-101-61-153-41-53 20-90 76-86 133z m347 51c13 0 26 0 39 0 0-13 0-26 0-39 13 0 26 0 39 0 0-13 0-26 0-38-13 0-26 0-39-1 0-12 0-25 0-38-13 0-26 0-39 0 0 13 0 26 0 38-13 1-26 1-38 1 0 13 0 25 0 38 12 0 25 0 38 0 0 13 0 26 0 39z"/>
<glyph glyph-name="icon-redes-instagram" unicode="&#57427;" d="M257 430c57 0 64 0 86-1 21-1 32-5 39-7 10-4 17-9 25-16 7-8 12-15 16-25 3-7 6-18 7-39 1-23 1-29 1-86 0-57 0-63-1-86-1-20-4-32-7-39-4-10-9-17-16-25-8-7-15-12-25-15-7-3-18-7-39-8-22-1-29-1-86-1-57 0-63 0-86 1-20 1-32 5-39 8-10 3-17 8-24 15-8 8-12 15-16 25-3 7-7 19-8 39-1 23-1 29-1 86 0 57 0 63 1 86 1 21 5 32 8 39 4 10 8 17 16 25 7 7 14 12 24 16 7 2 19 6 39 7 23 1 29 1 86 1m0 38c-58 0-65 0-87-1-23-1-38-5-52-10-14-5-26-13-38-24-11-12-19-24-24-38-5-13-9-29-10-52-1-22-1-29-1-87 0-58 0-65 1-88 1-22 5-38 10-51 5-14 13-26 24-38 12-12 24-19 38-24 13-6 29-9 52-10 22-1 29-2 87-2 58 0 65 1 88 2 22 1 38 4 51 10 14 5 26 12 38 24 12 12 19 24 24 38 6 13 9 29 10 51 1 23 2 30 2 88 0 58-1 65-2 87-1 23-4 38-10 52-5 14-12 26-24 38-12 11-24 19-38 24-13 5-29 9-51 10-23 1-30 1-88 1m0-103c-60 0-109-49-109-109 0-60 49-109 109-109 60 0 109 49 109 109 0 60-49 109-109 109m0-180c-39 0-71 32-71 71 0 39 32 71 71 71 39 0 71-32 71-71 0-39-32-71-71-71m139 184c0-14-11-25-26-25-14 0-25 11-25 25 0 14 11 26 25 26 15 0 26-12 26-26"/>
<glyph glyph-name="icon-redes-linkedin" unicode="&#57428;" d="M141 419c0-25-18-45-49-45-29 0-47 20-47 45 0 26 19 45 48 45 30 0 47-19 48-45z m-94-374l0 293 91 0 0-293z m145 199c0 37-1 67-2 94l79 0 4-41 2 0c12 19 41 47 90 47 59 0 105-40 105-126l0-173-91 0 0 162c0 38-13 64-46 64-25 0-41-18-47-34-3-7-3-15-3-23l0-169-91 0 0 199z"/>
<glyph glyph-name="icon-redes-twitter" unicode="&#57429;" d="M470 387c-16-7-33-12-50-14 18 11 32 28 38 48-17-10-35-17-55-21-16 17-39 28-64 28-48 0-87-40-87-88 0-7 0-13 2-20-73 4-137 39-180 92-8-13-12-28-12-44 0-31 16-57 39-73-14 0-28 4-40 11 0 0 0-1 0-1 0-42 31-78 70-86-7-2-15-3-23-3-5 0-11 1-16 2 11-35 43-60 81-61-29-23-67-37-108-37-7 0-14 0-21 1 39-25 85-39 134-39 161 0 249 133 249 248 0 4 0 8-1 11 18 13 32 28 44 46z"/>
<glyph glyph-name="icon-redes-whatsapp" unicode="&#57430;" d="M45 48c1 3 2 5 3 7 11 34 23 68 34 102 0 1 0 3 0 4-15 25-25 52-28 81-5 48 5 93 30 134 20 31 46 56 79 73 26 13 52 21 81 23 43 3 83-6 120-27 40-24 69-57 87-100 12-28 17-59 15-90-2-40-15-76-38-109-22-30-50-53-84-69-21-9-43-15-66-17-41-4-80 4-116 24-2 1-3 1-4 0-37-11-74-23-110-35-1 0-2 0-3-1m54 53c1 1 2 1 3 1 20 7 40 13 61 20 1 0 2 0 4-1 37-23 77-32 121-25 38 7 71 24 98 53 24 26 38 57 44 92 3 24 2 49-5 73-10 35-29 64-58 87-42 33-89 44-142 34-47-9-84-35-110-76-24-37-32-77-25-121 4-26 14-49 29-71 1-1 1-2 0-4-4-12-8-25-12-38-3-8-5-15-8-24m57 210c1 18 7 32 19 44 4 4 8 8 14 8 2 0 5 0 7 0 2 0 4-1 5-1 5 1 8-2 10-6 2-4 3-8 5-11 4-11 8-22 12-33 1-3 1-6-1-9-3-6-8-11-13-16 0-1-1-1-1-2-4-3-4-6-2-10 3-4 5-9 8-13 15-23 35-40 59-51 2-1 3-2 5-2 3-1 6-1 8 1 6 7 12 14 18 20 4 5 6 6 11 3 10-4 19-9 28-14 5-2 9-5 14-7 4-2 6-5 5-9 0-7-2-15-5-21-2-4-5-7-8-9-7-7-16-11-26-13-10-3-20-2-30 1-16 6-31 12-46 19-16 9-29 20-41 33-13 13-24 28-34 43-7 10-13 21-17 33-2 8-4 15-4 22"/>
<glyph glyph-name="icon-redes-youtube" unicode="&#57431;" d="M454 376c-12 21-25 24-50 26-26 2-91 2-147 2-56 0-121 0-146-2-26-2-39-5-50-26-12-21-19-58-19-121l0-1c0-63 7-100 19-120 11-21 24-25 50-27 25-1 90-2 146-2 56 0 121 1 147 2 25 2 38 6 50 27 12 20 18 57 18 120l0 1c0 63-6 100-18 121z m-240-200l0 157 122-78z"/>
<glyph glyph-name="icon-nav-adicionar" unicode="&#57432;" d="M256 468c-117 0-213-95-213-212 0-118 96-213 213-213 117 0 213 95 213 213 0 117-96 212-213 212z m0-404c-106 0-191 86-191 192 0 105 85 191 191 191 105 0 191-86 191-191 0-106-86-192-191-192z m107 202l-96 0 0 96c0 6-5 11-11 11-6 0-11-5-11-11l0-96-96 0c-5 0-10-4-10-10 0-6 5-11 10-11l96 0 0-96c0-6 5-11 11-11 6 0 11 5 11 11l0 96 96 0c6 0 10 5 10 11 0 6-4 10-10 10z"/>
<glyph glyph-name="icon-nav-anexar" unicode="&#57433;" d="M190 40c-71 0-128 57-128 127 0 31 13 63 34 87l185 185c18 18 43 28 68 28 55 0 100-45 100-101 0-24-8-47-24-65l-1-2c-1 0-1 0-1 0l-186-185c-1-1-1-1-2-1-12-11-28-16-45-16-39 0-71 32-71 71 0 19 7 37 21 50l81 82c4 4 11 4 15 0 4-5 4-11 0-15l-81-82c-10-9-15-22-15-35 0-28 23-50 50-50 12 0 23 4 32 12l186 184 1 1c12 14 19 33 19 51 0 44-35 79-79 79-20 0-39-7-54-21l-2-3-181-182c-18-20-28-46-28-72 0-59 47-106 106-106 26 0 51 9 70 27l2 1 85 85c4 4 11 4 15 0 4-4 4-11 0-15l-85-85c0 0-1-1-1-1l-2-1c-23-21-53-32-84-32z"/>
<glyph glyph-name="icon-nav-apresentacao" unicode="&#57434;" d="M461 470l-405 0c-6 0-10-5-10-11l0-86c0-6 4-11 10-11l29 0 0-180c0-6 5-10 11-10l61 0-70-113c-3-5-2-11 3-15 2-1 4-1 6-1 3 0 7 2 9 5l77 124 154 0 77-124c2-3 6-5 10-5 1 0 3 0 5 1 5 4 7 10 4 15l-70 113 60 0c6 0 11 4 11 10l0 180 28 0c6 0 11 5 11 11l0 86c0 6-5 11-11 11z m-50-277l-305 0 0 169 305 0z m39 190l-383 0 0 65 383 0z m-301-145c2-2 4-3 7-3 3 0 6 1 8 2l28 27 53-14c4-1 9 1 11 4l53 63c3 5 3 12-2 15-4 4-11 3-15-1l-48-59-53 14c-4 1-7 0-10-3l-32-30c-4-4-5-11 0-15z"/>
<glyph glyph-name="icon-nav-atualizar" unicode="&#57435;" d="M458 262c-5 0-10-5-10-11 0-2 0-3 0-4-2-104-89-188-192-188-77 0-147 46-177 116l86 0c6 0 11 5 11 11 0 6-5 11-11 11l-112 0c-6 0-10-5-10-11l0-111c0-6 4-11 10-11 6 0 11 5 11 11l0 83c35-73 109-120 192-120 115 0 211 93 213 208 0 2 0 3 0 5 0 6-5 11-11 11z m0 175c-5 0-10-5-10-10l0-83c-35 73-110 120-192 120-115 0-211-94-213-209 0-1 0-3 0-4 0-6 5-11 10-11 6 0 11 5 11 11 0 1 0 2 0 3 2 104 88 189 192 189 78 0 147-47 177-117l-86 0c-6 0-11-5-11-11 0-6 5-11 11-11l111 0c6 0 11 5 11 11l0 112c0 5-5 10-11 10z"/>
<glyph glyph-name="icon-nav-audio" unicode="&#57436;" d="M255 175c57 0 102 46 102 102l0 86c0 56-45 102-102 102-56 0-102-46-102-102l0-86c0-56 46-102 102-102z m-80 188c0 45 36 81 80 81 45 0 81-36 81-81l0-86c0-44-36-81-81-81-44 0-80 37-80 81z m181-302l-90 0 0 71c74 5 132 67 132 142 0 6-5 11-10 11-6 0-11-5-11-11 0-67-55-121-122-121-67 0-122 54-122 121 0 6-4 11-10 11-6 0-11-5-11-11 0-75 59-137 132-142l0-71-90 0c-5 0-10-5-10-11 0-6 5-11 10-11l202 0c6 0 10 5 10 11 1 6-4 11-10 11z"/>
<glyph glyph-name="icon-nav-baixar" unicode="&#57437;" d="M248 100c2-2 5-4 8-4 3 0 5 2 7 4l203 205c4 4 4 11 0 15-4 4-11 4-15 0l-184-186 0 324c0 6-5 11-11 11-6 0-11-5-11-11l0-325-184 187c-4 4-10 4-15 0-4-4-4-11 0-15z m210 18c-6 0-10-5-10-11l0-43-384 0 0 43c0 6-5 11-11 11-6 0-10-5-10-11l0-53c0-6 4-11 10-11l405 0c6 0 11 5 11 11l0 53c0 6-5 11-11 11z"/>
<glyph glyph-name="icon-nav-busca" unicode="&#57438;" d="M459 109l-104 100c17 27 26 57 26 91 0 93-76 169-169 169-93 0-169-76-169-169 0-94 76-170 169-170 32 0 62 9 88 25l103-103c6-6 14-9 23-9 8 0 16 3 22 9l12 12c12 12 12 32-1 45z m-395 191c0 81 66 148 148 148 81 0 148-67 148-148 0-82-66-149-148-149-82 0-148 67-148 149z m381-221l-12-12c-4-4-11-4-15 0l-100 100c9 8 17 16 25 25l102-98c4-4 4-11 0-15z"/>
<glyph glyph-name="icon-nav-cadastrar-senha" unicode="&#57439;" d="M170 91l65 0c3 0 5 1 7 3 1 2 2 5 1 7l-14 45c8 7 12 16 12 27 0 19-16 36-36 36-20 0-36-17-36-36 0-10 4-20 11-26l-18-45c-1-3 0-5 1-8 2-2 4-3 7-3z m24 65c0 0 0 0 0 0-6 4-9 10-9 16 0 12 9 21 20 21 11 0 20-9 20-21 0-6-3-13-9-16-3-2-4-6-3-9l12-40-44 0 16 39c1 4 0 7-3 10z m264 210l-136 0c-8 59-59 103-119 103-67 0-122-54-122-121l0-92-27 0c-6 0-11-4-11-10l0-192c0-6 5-11 11-11l298 0c6 0 11 5 11 11l0 181 95 0c6 0 11 5 11 11l0 110c0 5-5 10-11 10z m-355-18c0 55 45 100 100 100 48 0 89-35 98-82l-153 0c-6 0-11-5-11-11l0-99-34 0 0 92z m238-284l-277 0 0 171 277 0z m107 192l-290 0 0 89 290 0z m-263 50l11-6-11-6c-4-2-5-7-3-11 2-2 5-4 7-4 2 0 3 1 4 1l10 6 0-11c0-5 4-8 8-8 5 0 8 3 8 8l0 11 11-6c1 0 2-1 4-1 2 0 5 2 7 4 2 4 1 9-3 11l-11 6 11 6c3 3 5 8 2 11-2 4-7 5-11 3l-10-6 0 12c0 4-3 8-8 8-4 0-8-4-8-8l0-12-10 6c-4 2-9 1-11-3-2-3-1-8 3-11z m89 0l11-6-11-6c-4-2-5-7-3-11 2-2 4-4 7-4 2 0 3 1 4 1l10 6 0-11c0-5 4-8 8-8 5 0 8 3 8 8l0 11 10-6c2 0 3-1 4-1 3 0 6 2 7 4 3 4 1 9-2 11l-11 6 11 6c3 3 5 8 2 11-2 4-7 5-11 3l-10-6 0 12c0 4-3 8-8 8-4 0-8-4-8-8l0-12-10 6c-4 2-9 1-11-3-2-3-1-8 3-11z m89 0l10-6-10-6c-4-2-5-7-3-11 2-2 4-4 7-4 1 0 3 1 4 1l10 6 0-11c0-5 4-8 8-8 5 0 8 3 8 8l0 11 10-6c2 0 3-1 4-1 3 0 6 2 7 4 2 4 1 9-3 11l-10 6 10 6c4 3 5 7 3 11-2 4-7 5-11 3l-10-6 0 12c0 4-4 8-8 8-4 0-8-4-8-8l0-12-10 6c-4 2-9 1-11-3-2-3-1-8 3-11z"/>
<glyph glyph-name="icon-nav-compartilhar" unicode="&#57440;" d="M256 469c-118 0-213-95-213-213 0-118 95-213 213-213 118 0 213 95 213 213 0 118-96 213-213 213z m0-405c-106 0-192 86-192 192 0 106 86 192 192 192 106 0 192-86 192-192 0-106-86-192-192-192z m65 222c27 0 49 22 49 50 0 27-22 49-49 49-28 0-50-22-50-49 0-4 1-7 1-11l-67-37c-9 11-23 18-38 18-27 0-49-23-49-50 0-27 22-49 49-49 15 0 28 6 38 17l68-38c-1-4-2-9-2-13 0-27 22-50 50-50 27 0 49 23 49 50 0 27-22 49-49 49-15 0-29-6-38-17l-68 37c1 5 2 9 2 14 0 5-1 9-2 13l66 37c9-12 24-20 40-20z m0-85c15 0 28-13 28-28 0-16-13-28-28-28-16 0-29 12-29 28 0 15 13 28 29 28z m-154 27c-15 0-28 13-28 28 0 16 13 28 28 28 16 0 28-12 28-28 0-15-12-28-28-28z m154 136c15 0 28-13 28-28 0-16-13-28-28-28-16 0-29 12-29 28 0 15 13 28 29 28z"/>
<glyph glyph-name="icon-nav-configuracoes" unicode="&#57441;" d="M256 159c-54 0-98 44-98 97 0 54 44 98 98 98 54 0 97-44 97-98 0-53-43-97-97-97z m0 174c-42 0-77-34-77-77 0-42 35-76 77-76 42 0 76 34 76 76 0 43-34 77-76 77z m34-290l-67 0c-6 0-11 5-11 11l0 34c-15 4-30 10-44 18l-24-24c-2-2-5-3-7-3-3 0-6 1-8 3l-47 47c-5 5-5 11 0 16l24 24c-8 13-14 28-18 43l-34 0c-6 0-11 5-11 11l0 67c0 6 5 11 11 11l34 0c4 15 10 29 18 43l-24 24c-2 2-3 5-3 8 0 2 1 5 3 7l47 48c4 4 11 4 15 0l25-25c13 8 28 14 43 18l0 34c0 6 5 11 11 11l67 0c3 0 5-1 7-3 2-2 3-5 3-7l0-35c15-4 30-10 43-18l25 25c4 4 11 4 15 0l47-48c2-2 3-4 3-7 0-3-1-6-3-8l-24-24c8-13 14-28 18-43l34 0c3 0 5-1 7-3 2-2 4-5 4-8l0-67c0-6-5-11-11-11l-34 0c-4-15-11-30-19-43l25-24c2-2 3-5 3-8 0-2-1-5-3-7l-48-48c-4-4-10-4-15 0l-24 24c-13-8-28-14-43-18l0-34c0-6-4-11-10-11z m-57 22l46 0 0 32c0 5 4 9 9 10 18 4 35 11 51 21 4 3 9 3 13-1l23-22 32 32-22 22c-4 4-5 9-2 14 11 16 18 33 22 52 1 5 5 9 10 9l32 0 0 45-32 0c-5 0-9 4-10 9-4 18-11 36-22 52-3 4-2 10 2 13l22 23-32 32-23-23c-3-3-9-4-13-1-16 10-33 17-52 21-4 1-8 6-8 11l0 32-46 0 0-32c0-5-3-10-8-11-19-4-36-11-52-21-4-3-10-2-14 1l-22 23-33-32 23-23c4-3 4-9 2-13-11-16-18-34-22-52-1-5-6-9-11-9l-32 0 0-45 32 0c5 0 10-4 11-9 4-18 11-36 21-52 3-4 3-10-1-13l-23-23 33-32 22 23c4 3 9 4 13 1 16-11 34-18 53-22 5-1 8-5 8-10z"/>
<glyph glyph-name="icon-nav-conversa" unicode="&#57442;" d="M251 452c-119 0-217-76-217-169 0-48 26-93 71-125-16-61-32-86-33-87-2-3-2-8 0-11 2-3 6-5 9-5 1 0 1 0 2 0 97 13 134 47 146 60 8 0 15-1 22-1 120 0 217 76 217 169 0 93-97 169-217 169z m0-316c-8 0-17 0-26 1-4 0-8-2-10-5 0-1-24-36-114-53 7 16 17 42 27 81 1 4-1 9-4 12-44 28-68 68-68 111 0 81 88 147 195 147 108 0 196-66 196-147 0-81-88-147-196-147z m106 120l-205 0c-6 0-11-4-11-10 0-6 5-11 11-11l205 0c6 0 11 5 11 11 0 6-5 10-11 10z m0 75l-205 0c-6 0-11-5-11-11 0-6 5-11 11-11l205 0c6 0 11 5 11 11 0 6-5 11-11 11z"/>
<glyph glyph-name="icon-nav-desligar" unicode="&#57443;" d="M251 478c-117 0-213-96-213-213 0-118 96-214 213-214 118 0 214 96 214 214 0 117-96 213-214 213z m0-405c-105 0-191 86-191 192 0 105 86 192 191 192 106 0 192-87 192-192 0-106-86-192-192-192z m78 303c-5 4-12 2-15-3-4-4-2-11 3-14 31-22 50-58 50-96 0-64-52-116-116-116-63 0-115 52-115 116 0 38 19 74 50 96 5 3 6 10 3 14-3 5-10 7-15 3-37-25-60-68-60-113 0-76 62-137 137-137 76 0 137 62 137 137 0 45-22 88-59 113z m-78-124c6 0 11 5 11 11l0 143c0 6-5 11-11 11-5 0-10-5-10-11l0-143c0-6 4-11 10-11z"/>
<glyph glyph-name="icon-nav-editar" unicode="&#57444;" d="M45 138c0-6 5-11 11-11l74 0c0 0 1 0 1 0 3 0 6 1 8 3l245 245c4 4 4 11 0 15l-76 76c-4 4-11 4-15 0l-51-51-194-194c-2-3-3-6-3-9z m21 49l40-39-40 0z m235 256l61-60-36-36-61 61z m-51-50l61-61-180-180-60 61z m208-326l-405 0c-6 0-10-5-10-11 0-6 4-10 10-10l405 0c6 0 11 4 11 10 0 6-5 11-11 11z"/>
<glyph glyph-name="icon-nav-fechar" unicode="&#57445;" d="M271 257l194 194c4 4 4 11 0 15-4 4-11 4-15 0l-194-194-194 194c-4 4-11 4-15 0-4-4-4-11 0-15l194-194-194-194c-4-5-4-11 0-16 2-2 5-3 7-3 3 0 6 1 8 3l194 195 194-195c2-2 5-3 7-3 3 0 6 1 8 3 4 5 4 11 0 16z"/>
<glyph glyph-name="icon-nav-filme" unicode="&#57446;" d="M462 362c-4 2-9 1-12-2l-62-64 0 83c0 6-5 11-11 11l-324 0c-6 0-11-5-11-11l0-255c0-6 5-11 11-11l324 0c6 0 11 5 11 11l0 82 62-63c2-2 5-3 8-3 1 0 3 0 4 1 4 2 7 5 7 10l0 202c-1 4-3 8-7 9z m-95-227l-304 0 0 234 304 0z m80 42l-59 59 0 30 59 60z"/>
<glyph glyph-name="icon-nav-imprimir" unicode="&#57447;" d="M453 401l-83 0 0 49c0 9-7 16-16 16l-195 0c-9 0-16-7-16-16l0-49-84 0c-9 0-16-7-16-16l0-264c0-9 7-16 16-16l83 0 0-43c0-9 8-16 16-16l196 0c9 0 16 7 16 16l0 43 83 0c9 0 16 7 16 16l0 264c0 9-7 16-16 16z m-289 44l184 0 0-44-184 0z m185-378l-185 0 0 132 185 0z m99 59l-78 0 0 73 31 0c6 0 11 5 11 11 0 5-5 10-11 10l-290 0c-6 0-10-5-10-10 0-6 4-11 10-11l32 0 0-73-78 0 0 254 383 0z m-129 185c0-6 4-11 10-11l72 0c6 0 11 5 11 11 0 6-5 10-11 10l-72 0c-6 0-10-4-10-10z m0-146l-126 0c-6 0-10-5-10-11 0-6 4-11 10-11l126 0c6 0 11 5 11 11 0 6-5 11-11 11z m0-47l-126 0c-6 0-10-4-10-10 0-6 4-11 10-11l126 0c6 0 11 5 11 11 0 6-5 10-11 10z"/>
<glyph glyph-name="icon-nav-informacoes" unicode="&#57448;" d="M255 466c-117 0-213-95-213-213 0-117 96-213 213-213 118 0 213 96 213 213 1 118-95 213-213 213z m0-405c-105 0-192 86-192 192 0 106 87 192 192 192 106 0 192-86 192-192 0-106-86-192-192-192z m15 115c-9-7-13-8-15-8 0 0-2 0-4 3l21 108c1 8-1 17-6 23-6 6-13 10-22 10l-11 0c-6 0-11-5-11-11 0-6 5-10 11-10l11 0c3 0 5-2 5-3 1-1 2-3 2-5l-21-109c-1-6 0-12 4-17 5-6 12-10 20-10 0 0 1 0 2 0 9 0 18 4 28 14 5 4 5 10 1 15-4 4-11 4-15 0z m7 167c0-9-7-16-16-16-9 0-16 7-16 16 0 9 7 16 16 16 9 0 16-7 16-16z"/>
<glyph glyph-name="icon-nav-login" unicode="&#57449;" d="M405 257l-28 0 0 92c0 67-54 121-121 121-67 0-121-54-121-121l0-92-28 0c-6 0-11-5-11-11l0-192c0-6 5-10 11-10l298 0c6 0 11 4 11 10l0 192c0 6-5 11-11 11z m-249 92c0 55 45 100 100 100 55 0 100-45 100-100l0-92-200 0z m238-284l-277 0 0 171 277 0z m-171 26l66 0c2 0 4 2 6 4 1 2 2 4 1 7l-13 45c7 7 11 16 11 26 0 20-16 36-36 36-20 0-36-16-36-36 0-10 4-19 11-26l-17-45c-1-2-1-5 1-7 1-2 4-4 6-4z m24 65c-6 4-9 10-9 17 0 11 9 20 20 20 11 0 20-9 20-20 0-7-3-13-9-17-3-2-4-5-3-9l12-40-43 0 15 40c1 3 0 7-3 9z"/>
<glyph glyph-name="icon-nav-ocultar" unicode="&#57450;" d="M466 260c-1 1-24 31-61 61-13 11-26 20-40 28l49 48c4 4 4 11 0 15-5 4-11 4-15 0l-53-53c-31 15-61 23-91 23-48 0-100-21-150-61-37-30-60-60-61-61-3-4-3-9 0-13 1-1 24-31 61-61 14-10 27-19 40-27l-48-49c-4-4-4-10 0-15 2-2 5-3 8-3 2 0 5 1 7 3l53 53c30-15 61-23 90-23 49 0 100 21 150 61 37 30 60 60 61 61 3 4 3 9 0 13z m-399-6c20 24 98 107 188 107 27 0 52-7 75-18l-25-25c-14 11-31 17-49 17-44 0-80-36-80-80 0-18 6-35 17-49l-32-32c-47 27-82 65-94 80z m247 1c0-32-26-58-58-58-12 0-23 3-33 10l82 81c6-10 9-21 9-33z m-117 0c0 33 26 59 59 59 12 0 24-4 34-11l-82-82c-7 10-11 22-11 34z m58-109c-26 0-51 7-74 18l27 27c13-10 30-16 48-16 44 0 80 36 80 80 0 18-6 35-16 48l30 30c46-27 81-64 94-79-21-25-98-108-189-108z"/>
<glyph glyph-name="icon-nav-pasta" unicode="&#57451;" d="M416 393l-155 0-37 42c-2 2-4 3-8 3l-162 0c-6 0-11-5-11-11l0-342c0-6 5-10 11-10l405 0c6 0 10 4 10 10l0 255c0 29-23 53-53 53z m32-297l-384 0 0 321 148 0 36-42c2-2 5-3 8-3l160 0c18 0 32-15 32-32z"/>
<glyph glyph-name="icon-nav-produtos" unicode="&#57452;" d="M225 469l-171 0c-6 0-11-5-11-11l0-171c0-6 5-11 11-11l171 0c6 0 11 5 11 11l0 171c0 6-5 11-11 11z m-11-171l-150 0 0 150 150 0 0-150z m244 171l-171 0c-6 0-11-5-11-11l0-171c0-6 5-11 11-11l171 0c6 0 11 5 11 11l0 171c0 6-5 11-11 11z m-10-171l-151 0 0 150 151 0 0-150z m-223-62l-171 0c-6 0-11-5-11-11l0-171c0-6 5-11 11-11l171 0c6 0 11 5 11 11l0 171c0 6-5 11-11 11z m-11-172l-150 0 0 150 150 0 0-150z m244 172l-171 0c-6 0-11-5-11-11l0-171c0-6 5-11 11-11l171 0c6 0 11 5 11 11l0 171c0 6-5 11-11 11z m-10-172l-151 0 0 150 151 0 0-150z"/>
<glyph glyph-name="icon-nav-remover" unicode="&#57453;" d="M256 469c-117 0-213-96-213-213 0-117 96-213 213-213 117 0 213 96 213 213 0 117-96 213-213 213z m0-404c-106 0-191 85-191 191 0 105 85 191 191 191 105 0 191-86 191-191 0-106-86-191-191-191z m107 202l-214 0c-5 0-10-5-10-11 0-6 5-11 10-11l214 0c6 0 10 5 10 11 0 6-4 11-10 11z"/>
<glyph glyph-name="icon-nav-reportar" unicode="&#57454;" d="M340 43l-168 0c-3 0-5 1-7 3l-119 118c-2 2-3 5-3 8l0 168c0 3 1 5 3 7l118 119c2 2 5 3 8 3l168 0c3 0 5-1 7-3l119-119c2-2 3-4 3-7l0-168c0-3-1-6-3-8l-119-118c-2-2-4-3-7-3z m-164 21l159 0 113 112 0 159-113 113-159 0-112-113 0-159z m80 139c-6 0-11 5-11 11l0 157c0 5 5 10 11 10 6 0 11-5 11-10l0-157c0-6-5-11-11-11z m16-46c0-9-7-16-16-16-9 0-16 7-16 16 0 9 7 16 16 16 9 0 16-7 16-16z"/>
<glyph glyph-name="icon-nav-sair" unicode="&#57455;" d="M263 221c-5 0-10-5-10-11l0-146-189 0 0 384 189 0 0-146c0-6 4-11 10-11 6 0 11 5 11 11l0 157c0 6-5 10-11 10l-210 0c-6 0-10-4-10-10l0-405c0-6 4-11 10-11l210 0c6 0 11 5 11 11l0 156c0 6-5 11-11 11z m206 35c0 3-2 7-4 8l-104 104c-4 4-11 4-15 0-4-4-4-11 0-15l86-86-277 0c-6 0-11-5-11-11 0-6 5-11 11-11l278 0-87-86c-4-4-4-11 0-15 2-2 5-3 8-3 2 0 5 1 7 3l105 104c2 2 3 5 3 8z"/>
<glyph glyph-name="icon-nav-seguir" unicode="&#57456;" d="M256 470c-117 0-213-96-213-213 0-117 96-212 213-212 117 0 213 95 213 212 0 117-96 213-213 213z m0-404c-106 0-191 86-191 191 0 106 85 191 191 191 105 0 191-85 191-191 0-105-86-191-191-191z m-45 306c-4 4-11 5-15 0-4-4-4-11 0-15l99-101-101-99c-4-4-4-11 0-15 2-2 5-3 8-3 2 0 5 1 7 3l109 107c4 4 4 11 0 15z"/>
<glyph glyph-name="icon-nav-selecionar" unicode="&#57457;" d="M299 292c-3 3-7 4-10 3l-209-62c-4-2-7-5-8-9 0-4 1-8 5-10l47-32-78-78c-2-2-3-4-3-7 0-3 1-6 3-8l50-50c3-2 5-3 8-3 3 0 5 1 7 3l78 78 32-47c2-4 6-6 10-5 4 1 8 3 9 7l62 210c1 3 0 7-3 10z m-73-192l-26 39c-2 3-5 5-8 5-3 0-6-1-9-3l-79-80-35 36 79 79c2 3 3 6 3 9 0 3-2 6-5 8l-38 26 168 50z m232 362l-283 0c-6 0-11-5-11-11l0-148c0-6 5-10 11-10 6 0 10 4 10 10l0 138 263 0 0-263-137 0c-6 0-11-5-11-10 0-6 5-11 11-11l147 0c6 0 11 5 11 11l0 283c0 6-5 11-11 11z"/>
<glyph glyph-name="icon-nav-som" unicode="&#57458;" d="M402 464c-2 0-4 0-5-1l-176-117 0 3c0 9-7 16-16 16l-96 0c-8 0-16-7-16-16l0-197c0-9 8-16 16-16l96 0c9 0 16 7 16 16l0 5 176-117c1-1 3-2 5-2 9 0 16 7 16 16l0 394c0 9-7 16-16 16z m-287-307l0 187 85 0 0-15c-1-2-1-4 0-6l0-143c-1-2-1-4 0-6l0-17z m282-92l-176 117 0 139 176 116z"/>
<glyph glyph-name="icon-nav-visualizar" unicode="&#57459;" d="M467 263c-1 1-24 31-61 61-50 40-102 61-150 61-48 0-100-21-150-61-37-30-60-60-61-61-3-4-3-9 0-13 1-1 24-31 61-61 50-40 102-61 150-61 48 0 100 21 150 61 37 30 60 60 61 61 3 4 3 9 0 13z m-211-114c-91 0-168 83-189 107 21 25 98 108 189 108 90 0 168-83 189-108-21-24-99-107-189-107z m0 189c-44 0-80-36-80-80 0-44 36-80 80-80 44 0 80 36 80 80 0 44-36 80-80 80z m0-139c-32 0-58 27-58 59 0 32 26 59 58 59 33 0 59-27 59-59 0-32-26-59-59-59z"/>
<glyph glyph-name="icon-nav-voltar" unicode="&#57460;" d="M256 470c-117 0-213-96-213-213 0-117 96-213 213-213 117 0 213 96 213 213 0 117-96 213-213 213z m0-404c-106 0-191 85-191 191 0 105 85 191 191 191 105 0 191-86 191-191 0-105-86-191-191-191z m-39 190l99 101c4 4 4 11 0 15-4 4-11 4-15 0l-107-108c-2-2-3-5-3-8 0-3 1-5 3-7l109-107c2-2 4-3 7-3 3 0 6 1 8 3 4 4 4 11 0 15z"/>
<glyph glyph-name="icon-info-anunciar" unicode="&#57461;" d="M428 418l-8 0c-19 0-34-14-36-33l-264-82c-4 16-18 27-35 27l-9 0c-20 0-36-16-36-36l0-91c0-20 16-37 36-37l9 0c16 0 30 11 34 26l33-9 0-26c0-23 15-43 37-49l61-17c4-2 8-2 13-2 10 0 20 3 28 9 12 9 19 23 19 38l0 5 74-19c2-18 17-32 36-32l8 0c20 0 37 16 37 36l0 256c0 20-17 36-37 36z m-328-215c0-9-7-15-15-15l-9 0c-8 0-15 6-15 15l0 91c0 8 7 15 15 15l9 0c8 0 15-7 15-15z m21 78l262 82 0-219-218 58c0 0-1 0-1 0l-43 11z m167-145c0-8-3-16-10-21-7-5-15-6-23-4l-61 17c-12 4-21 15-21 29l0 20 115-30z m155-10c0-9-7-15-15-15l-8 0c-9 0-15 6-15 15l0 256c0 8 6 15 15 15l8 0c8 0 15-7 15-15z"/>
</font>
</defs>
</svg>
