<?xml version="1.0" standalone="no"?>
<!DOCTYPE svg PUBLIC "-//W3C//DTD SVG 1.1//EN" "http://www.w3.org/Graphics/SVG/1.1/DTD/svg11.dtd" >
<svg xmlns="http://www.w3.org/2000/svg" xmlns:xlink="http://www.w3.org/1999/xlink" version="1.1">
<metadata>
Created by FontForge 20160407 at Mon Jun 20 22:21:56 2016
 By Jimmy Wärting
Copyright (c) 1999 by Hubert Jocham. All rights reserved.
</metadata>
<defs>
<font id="NewJune-Regular" horiz-adv-x="590" >
  <font-face 
    font-family="NewJuneRegular"
    font-weight="400"
    font-stretch="normal"
    units-per-em="1000"
    panose-1="2 0 5 3 3 0 0 2 0 4"
    ascent="800"
    descent="-200"
    x-height="544"
    cap-height="744"
    bbox="-61 -197 1282 952"
    underline-thickness="20"
    underline-position="-133"
    stemh="68"
    stemv="74"
    unicode-range="U+000D-FB02"
  />
<missing-glyph horiz-adv-x="1000" 
 />
    <glyph glyph-name=".notdef" horiz-adv-x="1000" 
 />
    <glyph glyph-name=".null" horiz-adv-x="0" 
 />
    <glyph glyph-name=".null" horiz-adv-x="0" 
 />
    <glyph glyph-name="CR" unicode="&#xd;" horiz-adv-x="259" 
 />
    <glyph glyph-name="space" unicode=" " horiz-adv-x="259" 
 />
    <glyph glyph-name="numbersign" unicode="#" horiz-adv-x="706" 
d="M679 525l-11 -67h-137l-34 -181h142l-11 -68h-144l-39 -209h-73l40 209h-172l-41 -209h-74l41 209h-133l11 68h136l35 181h-142l11 67h144l42 219h73l-42 -219h169l42 219h72l-42 -219h137zM459 458h-171l-35 -181h172z" />
    <glyph glyph-name="dollar" unicode="$" 
d="M238 423l136 -33c108 -26 172 -84 172 -193c0 -135 -104 -199 -210 -204v-122h-72v124c-57 6 -107 21 -167 41l-47 16l17 71l48 -17c68 -24 137 -45 207 -45c73 0 151 38 151 133c0 66 -32 105 -112 124l-137 33c-105 25 -170 86 -170 192c0 137 106 202 210 204v120h72
v-123c54 -6 102 -21 161 -41l47 -16l-17 -71l-48 17c-68 24 -132 45 -202 45c-76 0 -150 -37 -150 -132c0 -65 31 -104 111 -123z" />
    <glyph glyph-name="percent" unicode="%" horiz-adv-x="901" 
d="M408 566c0 -122 -72 -195 -185 -195c-114 0 -183 74 -183 195c0 120 72 194 185 194c114 0 183 -74 183 -194zM341 566c0 86 -43 136 -118 136c-76 0 -115 -51 -115 -136c0 -87 42 -138 117 -138c76 0 116 50 116 138zM789 744l-601 -744h-82l602 744h81zM862 180
c0 -122 -72 -195 -185 -195c-114 0 -183 74 -183 195c0 120 72 194 185 194c114 0 183 -74 183 -194zM795 180c0 86 -43 136 -118 136c-76 0 -115 -51 -115 -136c0 -87 42 -138 117 -138c76 0 116 50 116 138z" />
    <glyph glyph-name="ampersand" unicode="&#x26;" horiz-adv-x="701" 
d="M651 0h-94l-51 62c-52 -45 -144 -74 -224 -74c-154 0 -232 90 -232 195c0 74 35 151 156 206c-55 60 -94 105 -94 185c0 122 97 182 212 182c116 0 201 -58 201 -172c0 -100 -60 -161 -202 -219l186 -204c32 35 53 113 53 194v89h72v-93c0 -88 -28 -187 -76 -240z
M455 583c0 61 -40 110 -131 110c-96 0 -140 -51 -140 -119c0 -56 30 -94 95 -160c116 43 176 87 176 169zM460 112l-209 227c-94 -39 -124 -91 -124 -154c0 -64 43 -131 155 -131c63 0 137 23 178 58z" />
    <glyph glyph-name="quotesingle" unicode="'" horiz-adv-x="206" 
d="M146 763l-8 -200h-70l-8 200h86z" />
    <glyph glyph-name="parenleft" unicode="(" horiz-adv-x="277" 
d="M36 341c0 349 121 403 223 403v-65c-52 -4 -147 -34 -147 -338c0 -318 95 -346 147 -350v-65c-92 0 -223 61 -223 415z" />
    <glyph glyph-name="parenright" unicode=")" horiz-adv-x="277" 
d="M245 341c0 -354 -131 -415 -223 -415v65c52 4 147 32 147 350c0 304 -95 334 -147 338v65c102 0 223 -54 223 -403z" />
    <glyph glyph-name="asterisk" unicode="*" horiz-adv-x="551" 
d="M500 572l-181 -43l121 -144l-67 -47l-97 163l-97 -162l-67 47l122 144l-182 43l24 75l174 -71l-15 186h82l-15 -186l174 70z" />
    <glyph glyph-name="plus" unicode="+" 
d="M531 259h-202v-212h-73v212h-198v71h198v210h73v-210h202v-71z" />
    <glyph glyph-name="comma" unicode="," horiz-adv-x="208" 
d="M167 104l-46 -164c-6 -20 -19 -31 -39 -31c-30 0 -43 23 -36 50l38 145h83z" />
    <glyph glyph-name="hyphen" unicode="-" horiz-adv-x="413" 
d="M353 290h-293v73h293v-73z" />
    <glyph glyph-name="period" unicode="." horiz-adv-x="208" 
d="M155 47c0 -35 -19 -56 -50 -56s-50 21 -50 56s19 56 50 56s50 -21 50 -56z" />
    <glyph glyph-name="slash" unicode="/" horiz-adv-x="410" 
d="M399 744l-311 -744h-77l313 744h75z" />
    <glyph glyph-name="zero" unicode="0" 
d="M526 502v-263c0 -156 -74 -250 -226 -250c-151 0 -233 94 -233 247v269c0 153 82 247 233 247c152 0 226 -94 226 -250zM454 240v261c0 117 -46 184 -157 184c-110 0 -157 -69 -157 -184v-261c0 -115 47 -184 157 -184c111 0 157 67 157 184z" />
    <glyph glyph-name="one" unicode="1" 
d="M550 0h-482v69h222v605h-48c-29 0 -81 -2 -113 -18l-19 67c27 15 89 21 128 21h59c48 0 73 -25 73 -68v-607h180v-69z" />
    <glyph glyph-name="two" unicode="2" 
d="M306 751c115 0 223 -55 223 -207c0 -75 -30 -153 -132 -247l-249 -231h383v-66h-423c-30 0 -47 20 -47 49c0 19 8 35 22 49l258 245c78 73 114 127 114 203c0 99 -69 133 -151 133c-51 0 -114 -14 -181 -34l-44 -13l-15 69l43 13c75 23 139 37 199 37z" />
    <glyph glyph-name="three" unicode="3" 
d="M310 -8c-64 0 -136 16 -215 38l-45 12l16 69l46 -13c69 -19 142 -37 196 -37c108 0 162 49 162 125c0 40 -15 69 -43 100l-53 55h-142v66h143l41 57c19 30 33 63 33 102c0 67 -40 114 -144 114c-51 0 -114 -16 -180 -34l-44 -12l-15 69l43 12c75 21 137 36 197 36
c143 0 217 -69 217 -184c0 -49 -17 -90 -41 -127l-46 -62l56 -59c35 -38 52 -78 52 -129c0 -120 -93 -198 -234 -198z" />
    <glyph glyph-name="four" unicode="4" 
d="M410 140h-327c-32 0 -47 20 -47 48c0 16 7 31 17 43l318 485c15 23 36 34 60 34c34 0 52 -17 52 -53v-491h89v-66h-89v-140h-73v140zM410 206v440l-287 -440h287z" />
    <glyph glyph-name="five" unicode="5" 
d="M294 62c119 0 175 72 175 175c0 118 -65 169 -177 169c-29 0 -79 -6 -129 -20l-70 -20v378h416v-72h-347v-220c61 17 97 23 140 23c146 0 240 -74 240 -238c0 -147 -94 -245 -247 -245c-60 0 -117 14 -192 35l-43 12l15 69l44 -12c66 -18 124 -34 175 -34z" />
    <glyph glyph-name="six" unicode="6" 
d="M137 513v-69c81 26 130 31 162 31c163 0 244 -87 244 -238c0 -138 -80 -243 -237 -243c-152 0 -243 101 -243 249v270c0 136 83 237 228 237c60 0 122 -14 195 -34l43 -12l-15 -69l-44 12c-64 17 -126 33 -177 33c-108 0 -156 -65 -156 -167zM137 378v-131
c0 -114 61 -186 171 -186c106 0 160 70 160 176c0 98 -44 168 -176 168c-31 0 -66 -4 -155 -27z" />
    <glyph glyph-name="seven" unicode="7" 
d="M537 654l-272 -654h-81l284 676h-402v68h430c33 0 52 -17 52 -46c0 -16 -6 -32 -11 -44z" />
    <glyph glyph-name="eight" unicode="8" 
d="M298 -11c-154 0 -253 76 -253 196c0 51 17 94 52 132l54 59l-44 62c-24 37 -41 77 -41 126c0 115 86 188 228 188c146 0 231 -73 231 -188c0 -49 -17 -89 -41 -126l-44 -62l54 -59c35 -38 52 -81 52 -132c0 -120 -94 -196 -248 -196zM296 58c118 0 176 50 176 126
c0 40 -15 69 -43 100l-51 55h-165l-51 -55c-28 -31 -43 -60 -43 -100c0 -76 62 -126 177 -126zM173 462l39 -57h167l39 57c19 30 33 63 33 102c0 66 -47 118 -156 118s-155 -52 -155 -118c0 -39 14 -72 33 -102z" />
    <glyph glyph-name="nine" unicode="9" 
d="M456 231v69c-81 -26 -130 -31 -162 -31c-163 0 -244 86 -244 237c0 138 80 244 237 244c152 0 243 -101 243 -249v-270c0 -136 -83 -237 -228 -237c-60 0 -122 14 -195 34l-43 12l15 69l44 -12c64 -17 126 -33 177 -33c108 0 156 65 156 167zM456 366v131
c0 114 -61 186 -171 186c-106 0 -160 -71 -160 -177c0 -100 47 -167 176 -167c31 0 66 4 155 27z" />
    <glyph glyph-name="colon" unicode=":" horiz-adv-x="208" 
d="M155 47c0 -35 -19 -56 -50 -56s-50 21 -50 56s19 56 50 56s50 -21 50 -56zM155 481c0 -35 -19 -56 -50 -56s-50 21 -50 56s19 56 50 56s50 -21 50 -56z" />
    <glyph glyph-name="semicolon" unicode=";" horiz-adv-x="208" 
d="M167 104l-46 -164c-6 -20 -19 -31 -39 -31c-30 0 -43 23 -36 50l38 145h83zM171 481c0 -35 -19 -56 -50 -56s-50 21 -50 56s19 56 50 56s50 -21 50 -56z" />
    <glyph glyph-name="less" unicode="&#x3c;" 
d="M542 61l-456 182c-24 9 -36 27 -36 52c0 24 12 41 36 51l456 183v-83l-407 -153l407 -152v-80z" />
    <glyph glyph-name="equal" unicode="=" 
d="M531 345h-473v73h473v-73zM531 179h-473v73h473v-73z" />
    <glyph glyph-name="greater" unicode="&#x3e;" 
d="M505 243l-456 -182v80l407 152l-407 153v83l456 -183c24 -10 36 -27 36 -51c0 -25 -12 -43 -36 -52z" />
    <glyph glyph-name="question" unicode="?" horiz-adv-x="457" 
d="M234 678c-38 0 -88 -7 -145 -23l-43 -12l-14 65l42 13c63 20 114 26 161 26c113 0 190 -60 190 -164c0 -76 -30 -119 -76 -167l-92 -96v-82l-71 -13v62c0 44 3 59 33 91l72 76c43 47 62 72 62 128c0 58 -38 96 -119 96zM272 47c0 -35 -19 -56 -50 -56s-50 21 -50 56
s19 56 50 56s50 -21 50 -56z" />
    <glyph glyph-name="at" unicode="@" horiz-adv-x="933" 
d="M849 406c0 -152 -95 -254 -195 -254c-45 0 -69 27 -98 27c-41 0 -77 -16 -127 -16c-108 0 -159 76 -159 168c0 116 72 218 207 218c25 0 45 -1 103 -8l4 35h63l-46 -346s28 -22 58 -22c57 0 125 72 125 199c0 172 -133 282 -298 282c-199 0 -331 -141 -331 -337
c0 -173 107 -304 286 -304c95 0 155 39 228 39c20 0 42 -5 62 -16l47 -28l-25 -49l-46 22c-13 6 -27 9 -42 9c-60 0 -127 -36 -230 -36c-218 0 -347 162 -347 363c0 235 167 401 398 401c208 0 363 -144 363 -347zM573 487c-45 6 -70 7 -96 7c-101 0 -142 -79 -142 -165
c0 -61 30 -111 102 -111c19 0 35 2 102 14z" />
    <glyph glyph-name="A" unicode="A" horiz-adv-x="685" 
d="M670 0h-82l-64 168h-365l-64 -168h-80l270 709c10 28 30 42 60 42c31 0 50 -14 60 -41zM502 233l-158 438l-163 -438h321z" />
    <glyph glyph-name="B" unicode="B" horiz-adv-x="678" 
d="M403 0h-250c-45 0 -73 27 -73 68v610c0 41 26 66 71 66h246c120 0 197 -59 197 -178c0 -49 -17 -89 -41 -126l-45 -62l59 -61c36 -37 56 -80 56 -131c0 -114 -83 -186 -220 -186zM520 566c0 67 -33 114 -124 114h-241v-274h291l41 58c19 30 33 63 33 102zM447 342h-292
v-277h253c93 0 141 46 141 117c0 40 -17 72 -46 102z" />
    <glyph glyph-name="C" unicode="C" horiz-adv-x="671" 
d="M55 370c0 258 144 378 331 378c61 0 120 -15 195 -38l52 -16l-15 -70l-55 17c-72 22 -130 36 -176 36c-154 0 -252 -93 -252 -307s100 -307 253 -307c46 0 103 14 175 36l55 17l15 -70l-52 -16c-75 -23 -134 -38 -195 -38c-191 0 -331 113 -331 378z" />
    <glyph glyph-name="D" unicode="D" horiz-adv-x="730" 
d="M675 370c0 -236 -137 -370 -334 -370h-188c-45 0 -73 27 -73 68v608c0 41 28 68 73 68h191c199 0 331 -139 331 -374zM598 370c0 187 -98 308 -267 308h-174v-610h181c165 0 260 110 260 302z" />
    <glyph glyph-name="E" unicode="E" horiz-adv-x="616" 
d="M561 0h-408c-45 0 -73 27 -73 68v608c0 41 28 68 73 68h405v-68h-401v-262h353v-67h-353v-279h404v-68z" />
    <glyph glyph-name="F" unicode="F" horiz-adv-x="578" 
d="M548 676h-391v-276h358v-66h-358v-334h-77v676c0 41 28 68 73 68h395v-68z" />
    <glyph glyph-name="G" unicode="G" horiz-adv-x="724" 
d="M408 -8c-199 0 -353 113 -353 377c0 258 150 378 346 378c64 0 125 -15 204 -38l54 -16l-16 -70l-57 17c-76 22 -138 36 -186 36c-163 0 -266 -93 -266 -307c0 -213 113 -309 274 -309c58 0 105 6 177 20v207h-185v66h187c45 0 72 -27 72 -68v-194c0 -42 -19 -61 -61 -72
c-60 -16 -132 -27 -190 -27z" />
    <glyph glyph-name="H" unicode="H" horiz-adv-x="715" 
d="M635 0h-76v345h-403v-345h-76v744h76v-333h403v333h76v-744z" />
    <glyph glyph-name="I" unicode="I" horiz-adv-x="237" 
d="M157 0h-77v744h77v-744z" />
    <glyph glyph-name="J" unicode="J" horiz-adv-x="364" 
d="M289 744v-569c0 -117 -62 -179 -167 -179c-25 0 -59 5 -114 17l11 70c55 -13 83 -17 104 -17c66 0 90 36 90 114v564h76z" />
    <glyph glyph-name="K" unicode="K" horiz-adv-x="654" 
d="M629 0h-82l-209 426l-108 -126c-42 -49 -75 -85 -75 -154v-146h-75v744h75v-440l364 440h99l-223 -259z" />
    <glyph glyph-name="L" unicode="L" horiz-adv-x="576" 
d="M531 0h-378c-45 0 -73 27 -73 68v676h78v-675h373v-69z" />
    <glyph glyph-name="M" unicode="M" horiz-adv-x="866" 
d="M433 76l232 626c12 31 33 47 65 47c30 0 56 -15 56 -56v-693h-70v648l-231 -617c-9 -24 -26 -35 -54 -35c-29 0 -47 12 -55 35l-227 618v-649h-69v693c0 42 28 56 60 56c35 0 60 -15 71 -48z" />
    <glyph glyph-name="N" unicode="N" horiz-adv-x="737" 
d="M151 641v-641h-71v697c0 37 21 54 52 54c25 0 43 -11 57 -32l397 -614v639h71v-695c0 -37 -21 -54 -52 -54c-25 0 -43 11 -57 32z" />
    <glyph glyph-name="O" unicode="O" horiz-adv-x="793" 
d="M738 370c0 -245 -141 -378 -344 -378c-202 0 -339 136 -339 378c0 241 141 378 344 378c202 0 339 -136 339 -378zM660 370c0 199 -103 311 -266 311c-164 0 -262 -112 -262 -311c0 -201 104 -313 267 -313s261 111 261 313z" />
    <glyph glyph-name="P" unicode="P" horiz-adv-x="629" 
d="M584 519c0 -141 -93 -225 -227 -225h-203v-294h-74v676c0 41 28 68 73 68h215c125 0 216 -85 216 -225zM514 520c0 99 -60 160 -150 160h-210v-321h203c97 0 157 59 157 161z" />
    <glyph glyph-name="Q" unicode="Q" horiz-adv-x="773" 
d="M737 370c0 -167 -72 -282 -195 -333c0 0 74 -37 148 -37h33v-64h-33c-134 0 -174 64 -287 64c-207 0 -348 128 -348 370c0 241 141 378 344 378c202 0 338 -136 338 -378zM660 370c0 199 -103 311 -266 311c-164 0 -262 -112 -262 -311c0 -201 104 -305 267 -305
s261 103 261 305z" />
    <glyph glyph-name="R" unicode="R" horiz-adv-x="659" 
d="M634 0h-83l-142 303h-253v-303h-76v678c0 41 26 66 71 66h239c127 0 204 -68 204 -199c0 -54 -25 -104 -56 -144l-59 -76zM520 544c0 79 -35 136 -131 136h-233v-313h273l42 58c25 35 49 75 49 119z" />
    <glyph glyph-name="S" unicode="S" horiz-adv-x="638" 
d="M258 424l144 -33c114 -25 181 -85 181 -194c0 -142 -114 -205 -231 -205c-88 0 -158 17 -242 44l-50 16l18 71l51 -17c71 -24 147 -45 221 -45c77 0 156 38 156 133c0 66 -34 105 -118 124l-144 33c-113 25 -180 87 -180 193c0 142 114 205 230 205c88 0 154 -18 237 -45
l50 -16l-18 -71l-51 17c-71 24 -142 45 -216 45c-80 0 -155 -37 -155 -132c0 -65 33 -104 117 -123z" />
    <glyph glyph-name="T" unicode="T" horiz-adv-x="616" 
d="M587 676h-238v-676h-78v676h-238v68h554v-68z" />
    <glyph glyph-name="U" unicode="U" horiz-adv-x="722" 
d="M647 264c0 -172 -102 -278 -286 -278s-286 106 -286 278v480h76v-480c0 -133 69 -209 210 -209c144 0 210 75 210 209v480h76v-480z" />
    <glyph glyph-name="V" unicode="V" horiz-adv-x="667" 
d="M652 744l-265 -711c-9 -26 -26 -39 -56 -39s-46 13 -55 39l-261 711h83l237 -660l237 660h80z" />
    <glyph glyph-name="W" unicode="W" horiz-adv-x="911" 
d="M886 744l-133 -706c-6 -30 -27 -46 -58 -46s-51 14 -59 42l-181 631l-186 -631c-8 -27 -29 -41 -58 -41c-31 0 -50 17 -55 46l-131 705h73l120 -655l185 617c7 25 26 38 54 38s47 -13 54 -38l181 -618l122 656h72z" />
    <glyph glyph-name="X" unicode="X" horiz-adv-x="698" 
d="M653 0h-91l-212 322l-216 -322h-89l256 375l-253 369h92l213 -313l210 313h87l-249 -367z" />
    <glyph glyph-name="Y" unicode="Y" horiz-adv-x="648" 
d="M638 744l-272 -421v-323h-78v321l-278 423h88l231 -353l223 353h86z" />
    <glyph glyph-name="Z" unicode="Z" horiz-adv-x="646" 
d="M571 652l-430 -586h450v-66h-486c-34 0 -50 21 -50 51c0 17 5 27 15 41l432 586h-436v66h470c34 0 50 -21 50 -51c0 -17 -5 -27 -15 -41z" />
    <glyph glyph-name="bracketleft" unicode="[" horiz-adv-x="277" 
d="M258 -65h-187v809h187v-65h-112v-679h112v-65z" />
    <glyph glyph-name="backslash" unicode="\" horiz-adv-x="410" 
d="M322 0l-311 744h75l313 -744h-77z" />
    <glyph glyph-name="bracketright" unicode="]" horiz-adv-x="277" 
d="M209 -65h-187v65h112v679h-112v65h187v-809z" />
    <glyph glyph-name="asciicircum" unicode="^" 
d="M529 43h-83l-153 403l-151 -403h-81l186 466c9 23 23 34 47 34c23 0 39 -12 48 -34z" />
    <glyph glyph-name="underscore" unicode="_" horiz-adv-x="551" 
d="M560 -164h-573v67h573v-67z" />
    <glyph glyph-name="grave" unicode="`" horiz-adv-x="542" 
d="M324 637l-140 126h109l81 -78c9 -9 13 -19 13 -28c0 -14 -12 -33 -34 -33c-9 0 -20 5 -29 13z" />
    <glyph glyph-name="a" unicode="a" horiz-adv-x="598" 
d="M568 46l-29 -56l-49 29c-20 10 -42 16 -71 8l-39 -10c-49 -13 -107 -24 -151 -24c-113 0 -179 56 -179 149c0 122 101 163 215 163h165v62c0 83 -52 114 -128 114c-49 0 -111 -14 -173 -31l-43 -12l-14 67l42 12c71 20 131 33 189 33c110 0 198 -52 198 -183v-281z
M430 91v151h-166c-89 0 -140 -27 -140 -96c0 -60 42 -88 115 -88c32 0 80 7 131 19z" />
    <glyph glyph-name="b" unicode="b" horiz-adv-x="597" 
d="M298 479c-31 -1 -63 -4 -151 -27v-366c88 -20 117 -22 148 -22c128 0 178 87 178 207c0 123 -47 208 -175 208zM307 548c160 0 240 -100 240 -278c0 -166 -93 -274 -249 -274c-32 0 -78 3 -164 24c-38 9 -59 32 -59 72v663l72 15v-253c80 26 128 31 160 31z" />
    <glyph glyph-name="c" unicode="c" horiz-adv-x="526" 
d="M50 272c0 182 99 278 244 278c40 0 89 -11 153 -28l44 -12l-14 -68l-45 12c-61 16 -104 26 -135 26c-112 0 -170 -68 -170 -208s59 -208 171 -208c31 0 73 10 134 26l45 12l14 -68l-44 -12c-64 -17 -113 -28 -153 -28c-145 0 -244 84 -244 278z" />
    <glyph glyph-name="d" unicode="d" horiz-adv-x="597" 
d="M299 479c-128 0 -175 -85 -175 -208c0 -120 50 -207 178 -207c31 0 63 2 148 22v366c-87 22 -120 26 -151 27zM450 755l72 15v-678c0 -40 -21 -63 -59 -72c-94 -22 -136 -24 -168 -24c-156 0 -245 100 -245 274c0 176 88 278 245 278c36 0 72 -6 155 -31v238z" />
    <glyph glyph-name="e" unicode="e" horiz-adv-x="585" 
d="M464 305c0 100 -50 184 -169 184c-100 0 -163 -71 -169 -184h338zM311 -6c-154 0 -261 91 -261 277c0 196 115 281 246 281c145 0 244 -87 244 -267c0 -28 -14 -45 -42 -45h-372c5 -121 85 -176 188 -176c37 0 80 7 149 28l55 17l15 -66l-53 -17
c-74 -24 -119 -32 -169 -32z" />
    <glyph glyph-name="f" unicode="f" horiz-adv-x="371" 
d="M381 749l-11 -68c-54 12 -81 16 -102 16c-63 0 -86 -34 -86 -110v-53h173v-67h-173v-467h-73v467h-89v67h89v58c0 113 59 173 160 173c25 0 57 -5 112 -16z" />
    <glyph glyph-name="g" unicode="g" horiz-adv-x="598" 
d="M564 -16c0 -104 -86 -165 -280 -165c-116 0 -228 36 -228 142c0 48 22 83 39 104l52 63c14 17 19 31 19 47c0 24 -10 39 -38 58c-35 24 -78 60 -78 139c0 114 90 171 227 171h58c56 0 80 2 105 9l116 32l17 -63l-118 -34s53 -34 53 -114c0 -114 -86 -170 -228 -170
c-42 0 -63 6 -63 6c8 -9 13 -23 13 -39c0 -17 -4 -34 -25 -60h190c113 0 169 -52 169 -126zM437 372c0 82 -64 111 -158 111s-158 -29 -158 -111c0 -86 65 -114 158 -114c90 0 158 31 158 114zM494 -18c0 37 -28 65 -101 65h-233c-25 -27 -34 -52 -34 -83
c0 -62 73 -85 166 -85c139 0 202 35 202 103z" />
    <glyph glyph-name="h" unicode="h" horiz-adv-x="570" 
d="M298 478c-31 0 -63 -3 -151 -26v-452h-72v755l72 15v-254c84 26 128 32 160 32c147 0 196 -89 196 -196v-352h-72v349c0 74 -31 129 -133 129z" />
    <glyph glyph-name="i" unicode="i" horiz-adv-x="240" 
d="M158 0h-75v544h75v-544zM170 710c0 -34 -19 -56 -50 -56s-50 22 -50 56s19 56 50 56s50 -22 50 -56z" />
    <glyph glyph-name="j" unicode="j" horiz-adv-x="247" 
d="M177 710c0 -34 -19 -56 -50 -56s-50 22 -50 56s19 56 50 56s50 -22 50 -56zM165 544v-552c0 -113 -61 -173 -165 -173v64c67 2 90 38 90 112v549h75z" />
    <glyph glyph-name="k" unicode="k" horiz-adv-x="551" 
d="M531 0h-86l-163 301l-64 -63c-41 -39 -71 -73 -71 -144v-94h-72v755l72 15v-527l277 301h96l-181 -190z" />
    <glyph glyph-name="l" unicode="l" horiz-adv-x="225" 
d="M150 0h-75v754l75 16v-770z" />
    <glyph glyph-name="m" unicode="m" horiz-adv-x="865" 
d="M148 458v-458h-73v452c0 40 21 60 58 72c61 20 111 24 151 24c62 0 107 -17 136 -46c65 29 126 46 187 46c129 0 183 -76 183 -186v-362h-73v355c0 75 -29 124 -118 124c-53 0 -90 -12 -144 -32c11 -26 16 -54 16 -85v-362h-73v355c0 75 -30 125 -119 125
c-33 0 -69 -3 -131 -22z" />
    <glyph glyph-name="n" unicode="n" horiz-adv-x="583" 
d="M148 458v-458h-73v452c0 40 21 63 58 72c90 23 139 24 172 24c147 0 203 -86 203 -196v-352h-73v345c0 78 -32 135 -138 135c-33 0 -68 -2 -149 -22z" />
    <glyph glyph-name="o" unicode="o" horiz-adv-x="610" 
d="M560 272c0 -178 -102 -278 -257 -278s-253 102 -253 278c0 178 102 278 257 278s253 -100 253 -278zM485 272c0 135 -67 214 -182 214s-177 -79 -177 -214c0 -137 66 -214 181 -214s178 77 178 214z" />
    <glyph glyph-name="p" unicode="p" horiz-adv-x="597" 
d="M298 65c128 0 175 85 175 208c0 120 -50 207 -178 207c-31 0 -63 -2 -148 -22v-366c87 -22 120 -26 151 -27zM147 -171l-72 -15v638c0 40 21 63 59 72c94 22 136 24 168 24c156 0 245 -100 245 -274c0 -176 -88 -278 -245 -278c-36 0 -72 6 -155 31v-198z" />
    <glyph glyph-name="q" unicode="q" horiz-adv-x="597" 
d="M299 65c31 1 63 4 151 27v366c-88 20 -117 22 -148 22c-128 0 -178 -87 -178 -207c0 -123 47 -208 175 -208zM290 -4c-160 0 -240 100 -240 278c0 166 93 274 249 274c32 0 78 -3 164 -24c38 -9 59 -32 59 -72v-623l-72 -15v213c-80 -26 -128 -31 -160 -31z" />
    <glyph glyph-name="r" unicode="r" horiz-adv-x="356" 
d="M346 548v-71c-68 0 -129 -3 -197 -21v-456h-74v452c0 40 21 62 58 72c76 21 122 24 213 24z" />
    <glyph glyph-name="s" unicode="s" horiz-adv-x="548" 
d="M231 314l108 -19c92 -16 146 -66 146 -143c0 -109 -91 -159 -188 -159c-74 0 -127 13 -196 33l-41 12l14 67l43 -12c60 -17 118 -31 181 -31c61 0 114 25 114 86c0 42 -26 69 -95 80l-108 19c-92 16 -146 67 -146 144c0 109 91 159 188 159c74 0 127 -13 196 -33l41 -12
l-14 -68l-43 12c-60 17 -118 32 -181 32c-61 0 -114 -25 -114 -86c0 -42 26 -69 95 -81z" />
    <glyph glyph-name="t" unicode="t" horiz-adv-x="408" 
d="M367 78l11 -68c-55 -11 -90 -16 -115 -16c-105 0 -156 59 -156 172v301h-87v67h87v137l73 15v-152h185v-67h-185v-295c0 -76 23 -110 86 -110c21 0 47 4 101 16z" />
    <glyph glyph-name="u" unicode="u" horiz-adv-x="583" 
d="M435 86v458h73v-452c0 -40 -21 -63 -58 -72c-90 -23 -139 -24 -172 -24c-147 0 -203 86 -203 196v352h73v-345c0 -78 32 -135 138 -135c33 0 68 2 149 22z" />
    <glyph glyph-name="v" unicode="v" horiz-adv-x="540" 
d="M515 544l-191 -515c-10 -26 -31 -39 -59 -39s-49 13 -58 39l-182 515h82l161 -474l167 474h80z" />
    <glyph glyph-name="w" unicode="w" horiz-adv-x="790" 
d="M755 544l-111 -509c-6 -29 -27 -45 -56 -45c-28 0 -47 14 -56 41l-138 424l-145 -425c-9 -27 -28 -39 -56 -39c-30 0 -51 15 -57 44l-101 509h77l87 -468l149 439c7 22 22 33 46 33s40 -12 47 -33l148 -441l91 470h75z" />
    <glyph glyph-name="x" unicode="x" horiz-adv-x="548" 
d="M522 0h-90l-157 224l-157 -224h-87l199 273l-195 271h90l154 -217l146 217h88l-189 -265z" />
    <glyph glyph-name="y" unicode="y" horiz-adv-x="530" 
d="M157 -182c-25 0 -55 4 -108 18l11 68c53 -13 77 -18 98 -18c50 0 69 26 78 62l7 27l-219 569h84l175 -478l149 478h82l-208 -618c-25 -74 -73 -108 -149 -108z" />
    <glyph glyph-name="z" unicode="z" horiz-adv-x="534" 
d="M63 544h378c32 0 47 -20 47 -48c0 -16 -7 -31 -17 -43l-335 -390h353v-63h-392c-32 0 -47 20 -47 48c0 16 7 31 17 43l335 390h-339v63z" />
    <glyph glyph-name="braceleft" unicode="{" horiz-adv-x="271" 
d="M153 339c25 -16 38 -45 38 -76c0 -57 -47 -125 -47 -195c0 -47 27 -68 66 -68h42v-67h-42c-79 0 -137 47 -137 131c0 81 52 154 52 199c0 30 -17 51 -65 51v49c48 0 65 21 65 51c0 45 -52 118 -52 199c0 84 58 131 137 131h42v-67h-42c-39 0 -66 -21 -66 -68
c0 -70 47 -138 47 -195c0 -32 -13 -59 -38 -75z" />
    <glyph glyph-name="bar" unicode="|" horiz-adv-x="217" 
d="M143 -180h-68v943h68v-943z" />
    <glyph glyph-name="braceright" unicode="}" horiz-adv-x="271" 
d="M124 339c-25 16 -38 43 -38 75c0 57 47 125 47 195c0 47 -27 68 -66 68h-42v67h42c79 0 137 -47 137 -131c0 -81 -52 -154 -52 -199c0 -30 17 -51 65 -51v-49c-48 0 -65 -21 -65 -51c0 -45 52 -118 52 -199c0 -84 -58 -131 -137 -131h-42v67h42c39 0 66 21 66 68
c0 70 -47 138 -47 195c0 31 13 60 38 76z" />
    <glyph glyph-name="asciitilde" unicode="~" 
d="M303 254l-61 45c-18 14 -34 20 -51 20c-31 0 -61 -15 -89 -84l-57 37c34 88 92 120 147 120c31 0 62 -10 91 -31l61 -45c18 -14 34 -20 51 -20c31 0 60 15 88 84l57 -37c-34 -88 -91 -120 -146 -120c-31 0 -62 10 -91 31z" />
    <glyph glyph-name="Aring" unicode="&#xc5;" horiz-adv-x="685" 
d="M670 0h-82l-64 168h-365l-64 -168h-80l271 711c-31 17 -51 50 -51 89c0 62 48 103 110 103s111 -41 111 -103c0 -40 -21 -72 -52 -89zM502 233l-158 438l-163 -438h321zM345 858c-37 0 -60 -26 -60 -58c0 -34 24 -59 60 -59s61 25 61 59c0 32 -24 58 -61 58z" />
    <glyph glyph-name="dagger" unicode="&#x2020;" horiz-adv-x="551" 
d="M508 416l-204 18l20 -620h-95l20 620l-206 -18v94l205 -17l-19 251h95l-18 -251l202 17v-94z" />
    <glyph glyph-name="degree" unicode="&#xb0;" horiz-adv-x="476" 
d="M428 570c0 -112 -73 -195 -188 -195c-117 0 -187 84 -187 195c0 110 73 194 189 194s186 -84 186 -194zM360 570c0 81 -44 138 -120 138c-78 0 -118 -58 -118 -138c0 -81 43 -140 120 -140s118 58 118 140z" />
    <glyph glyph-name="cent" unicode="&#xa2;" 
d="M65 272c0 163 80 256 201 274v127h72v-127c34 -3 74 -12 124 -25l44 -12l-14 -68l-45 12c-61 16 -104 26 -135 26c-112 0 -170 -67 -170 -207s59 -207 171 -207c31 0 73 10 134 26l45 12l14 -68l-44 -12c-50 -13 -90 -22 -124 -25v-130h-72v130
c-121 15 -201 100 -201 274z" />
    <glyph glyph-name="sterling" unicode="&#xa3;" 
d="M396 0h-336c-21 0 -31 14 -31 33s10 34 31 34c126 0 142 73 142 136c0 23 -5 47 -15 72h-128v64h99c-59 100 -83 138 -83 220c0 119 92 192 218 192c60 0 121 -13 196 -36l43 -13l-15 -69l-44 13c-67 20 -127 34 -178 34c-103 0 -145 -52 -145 -121c0 -71 16 -90 87 -219
h198v-64h-170c9 -26 12 -52 12 -73c0 -49 -12 -94 -49 -134h165c69 0 101 21 103 84h61c0 -96 -57 -153 -161 -153z" />
    <glyph glyph-name="section" unicode="&#xa7;" 
d="M132 378v-54c0 -98 40 -165 172 -165c31 0 66 4 155 27v56c0 98 -40 163 -172 163c-31 0 -66 -4 -155 -27zM58 324v189c0 136 84 237 234 237c60 0 122 -14 195 -34l43 -12l-15 -69l-44 12c-64 17 -126 33 -177 33c-112 0 -162 -65 -162 -167v-69c81 26 130 31 162 31
c163 0 239 -82 239 -233v-191c0 -136 -85 -237 -234 -237c-60 0 -122 14 -195 34l-43 12l15 69l44 -12c64 -17 126 -33 177 -33c112 0 162 65 162 167v69c-81 -26 -130 -31 -162 -31c-163 0 -239 84 -239 235z" />
    <glyph glyph-name="bullet" unicode="&#x2022;" horiz-adv-x="433" 
d="M340 333c0 -85 -46 -134 -122 -134c-75 0 -121 49 -121 134s46 134 121 134c76 0 122 -49 122 -134z" />
    <glyph glyph-name="paragraph" unicode="&#xb6;" horiz-adv-x="635" 
d="M567 -186h-70v867h-144v-867h-70v414c-159 0 -237 115 -237 258s78 258 242 258h279v-930z" />
    <glyph glyph-name="germandbls" unicode="&#xdf;" horiz-adv-x="567" 
d="M522 183c0 -110 -79 -183 -199 -183h-90v64h90c92 0 126 51 126 117c0 39 -19 67 -52 96l-65 57c-31 27 -36 60 -12 94l46 64c17 24 29 58 29 94c0 69 -50 116 -130 116c-83 0 -122 -47 -122 -135v-567h-73v567c0 144 91 201 196 201c114 0 201 -64 201 -182
c0 -57 -23 -95 -38 -119l-55 -78l74 -63c46 -39 74 -83 74 -143z" />
    <glyph glyph-name="registered" unicode="&#xae;" horiz-adv-x="933" 
d="M656 167h-67l-71 146h-132v-146h-60v354c0 38 24 51 58 51h126c72 0 118 -46 118 -115c0 -20 -4 -46 -21 -73l-35 -51zM565 457c0 39 -25 62 -62 62h-117v-153h139l26 38c12 21 14 39 14 53zM857 367c0 -227 -177 -392 -391 -392c-216 0 -392 165 -392 392
c0 229 176 390 392 390c214 0 391 -158 391 -390zM794 367c0 198 -147 330 -328 330c-183 0 -330 -135 -330 -330c0 -192 147 -331 330 -331c181 0 328 139 328 331z" />
    <glyph glyph-name="copyright" unicode="&#xa9;" horiz-adv-x="933" 
d="M857 367c0 -227 -177 -392 -391 -392c-216 0 -392 165 -392 392c0 229 176 390 392 390c214 0 391 -158 391 -390zM794 367c0 198 -147 330 -328 330c-183 0 -330 -135 -330 -330c0 -192 147 -331 330 -331c181 0 328 139 328 331zM272 365c0 138 79 210 194 210
c32 0 69 -8 120 -21l35 -9l-14 -55l-36 9c-47 12 -78 18 -103 18c-86 0 -132 -49 -132 -152c0 -102 47 -151 133 -151c24 0 55 7 102 19l36 9l14 -55l-35 -9c-51 -13 -88 -21 -120 -21c-115 0 -194 63 -194 208z" />
    <glyph glyph-name="trademark" unicode="&#x2122;" horiz-adv-x="869" 
d="M802 334h-55v305l-96 -283c-5 -15 -17 -22 -34 -22c-16 0 -29 7 -34 22l-95 280v-302h-54v378c0 24 19 37 41 37c23 0 39 -9 46 -30l97 -306l98 304c6 20 24 29 45 29c26 0 41 -12 41 -34v-378zM364 691h-122v-357h-62v357h-121v53h305v-53z" />
    <glyph glyph-name="acute" unicode="&#xb4;" horiz-adv-x="542" 
d="M402 763l-140 -126c-9 -8 -20 -13 -29 -13c-22 0 -34 19 -34 33c0 9 4 19 13 28l81 78h109z" />
    <glyph glyph-name="dieresis" unicode="&#xa8;" horiz-adv-x="572" 
d="M223 710c0 -34 -19 -56 -50 -56s-50 22 -50 56s19 56 50 56s50 -22 50 -56zM452 710c0 -34 -19 -56 -50 -56s-50 22 -50 56s19 56 50 56s50 -22 50 -56z" />
    <glyph glyph-name="notequal" unicode="&#x2260;" 
d="M532 180h-257l-66 -139h-54l66 139h-162v71h193l44 96h-237v71h265l72 155h53l-72 -155h155v-71h-183l-43 -96h226v-71z" />
    <glyph glyph-name="AE" unicode="&#xc6;" horiz-adv-x="1022" 
d="M967 0h-408c-45 0 -72 27 -72 68v99h-322l-67 -167h-83l282 684c16 38 43 60 88 60h579v-68h-401v-262h360v-66h-360v-280h404v-68zM487 233v443h-118l-179 -443h297z" />
    <glyph glyph-name="Oslash" unicode="&#xd8;" horiz-adv-x="793" 
d="M738 370c0 -245 -141 -378 -344 -378c-58 0 -110 10 -155 32l-41 -76h-67l57 106c-84 63 -133 170 -133 316c0 241 141 378 344 378c54 0 105 -10 148 -29l40 73h66l-55 -102c87 -62 140 -171 140 -320zM660 370c0 116 -35 204 -97 256l-291 -541c36 -19 79 -29 127 -29
c163 0 261 112 261 314zM132 370c0 -114 33 -200 91 -253l291 540c-35 16 -75 25 -120 25c-164 0 -262 -113 -262 -312z" />
    <glyph glyph-name="infinity" unicode="&#x221e;" horiz-adv-x="801" 
d="M757 297c0 -122 -64 -212 -178 -212c-28 0 -64 2 -104 23l-71 38l-74 -38c-40 -21 -76 -23 -104 -23c-115 0 -178 90 -178 212c0 125 61 212 178 212c28 0 65 -3 104 -23l72 -37l73 37c39 20 76 23 104 23c116 0 178 -87 178 -212zM692 297c0 103 -47 147 -113 147
c-25 0 -54 -5 -86 -19l-59 -25v-206l59 -25c33 -14 61 -19 86 -19c64 0 113 45 113 147zM371 194v206l-59 25c-32 14 -61 19 -86 19c-66 0 -113 -44 -113 -147c0 -102 49 -147 113 -147c25 0 53 5 86 19z" />
    <glyph glyph-name="plusminus" unicode="&#xb1;" 
d="M531 290h-202v-171h-73v171h-198v70h198v180h73v-180h202v-70zM531 0h-473v67h473v-67z" />
    <glyph glyph-name="lessequal" unicode="&#x2264;" 
d="M539 113l-451 156c-24 8 -37 26 -37 52s13 42 37 51l451 157v-83l-403 -127l403 -126v-80zM537 0h-473v67h473v-67z" />
    <glyph glyph-name="greaterequal" unicode="&#x2265;" 
d="M502 269l-451 -156v80l403 126l-403 127v83l451 -157c24 -9 37 -25 37 -51s-13 -44 -37 -52zM526 0h-473v67h473v-67z" />
    <glyph glyph-name="yen" unicode="&#xa5;" 
d="M565 744l-195 -330h171v-63h-204v-72h204v-64h-204v-215h-79v215h-207v64h207v72h-207v63h173l-197 330h91l181 -318l178 318h88z" />
    <glyph glyph-name="mu" unicode="&#xb5;" 
d="M75 544h73v-345c0 -78 32 -133 138 -133c33 0 68 2 149 22v456h73v-450c0 -40 -21 -63 -58 -72c-90 -23 -139 -24 -172 -24c-57 -1 -102 10 -131 35v-219h-72v730z" />
    <glyph glyph-name="partialdiff" unicode="&#x2202;" 
d="M460 444v69c0 102 -48 167 -156 167c-51 0 -113 -16 -177 -33l-44 -12l-15 69l43 12c73 20 135 34 195 34c145 0 228 -101 228 -237v-270c0 -148 -90 -249 -242 -249c-156 0 -238 101 -238 243c0 148 87 238 244 238c32 0 81 -5 162 -31zM460 247v131
c-89 23 -125 28 -156 28c-132 0 -175 -71 -175 -169c0 -106 59 -176 165 -176c110 0 166 72 166 186z" />
    <glyph glyph-name="summation" unicode="&#x2211;" horiz-adv-x="685" 
d="M654 -179h-555c-30 0 -50 20 -50 48c0 16 6 32 15 44l268 369l-268 370c-9 12 -15 28 -15 44c0 28 20 48 50 48h545v-167h-72v95h-429l285 -389l-285 -390h439v106h72v-178z" />
    <glyph glyph-name="product" unicode="&#x220f;" horiz-adv-x="664" 
d="M632 675h-118v-675h-81v675h-202v-675h-81v675h-118v69h600v-69z" />
    <glyph glyph-name="pi" unicode="&#x3c0;" horiz-adv-x="696" 
d="M479 480v-308c0 -76 23 -110 86 -110c21 0 47 4 101 16l11 -68c-55 -11 -90 -16 -115 -16c-105 0 -156 59 -156 172v314h-209v-480h-74v480h-89v64h631v-64h-186z" />
    <glyph glyph-name="integral" unicode="&#x222b;" 
d="M287 587v-595c0 -113 -61 -173 -165 -173v64c67 2 92 38 92 112v597c0 113 59 173 160 173c25 0 57 -5 112 -16l-11 -68c-54 12 -81 16 -102 16c-63 0 -86 -34 -86 -110z" />
    <glyph glyph-name="ordfeminine" unicode="&#xaa;" 
d="M499 370l-24 -50l-42 20c-20 9 -39 7 -64 2l-50 -10c-26 -5 -51 -9 -75 -9c-89 0 -137 53 -137 123c0 97 76 125 166 125h114v36c0 61 -34 82 -84 82c-37 0 -78 -8 -129 -20l-42 -10l-13 58l44 12c54 15 106 23 141 23c81 0 148 -39 148 -145v-211zM387 401v114h-115
c-63 0 -96 -16 -96 -66c0 -46 27 -68 78 -68c23 0 50 5 88 12z" />
    <glyph glyph-name="ordmasculine" unicode="&#xba;" 
d="M480 539c0 -133 -74 -215 -189 -215c-116 0 -187 81 -187 215c0 133 74 214 189 214c116 0 187 -81 187 -214zM413 539c0 97 -46 157 -122 157c-78 0 -119 -60 -119 -157c0 -99 45 -158 121 -158c78 0 120 60 120 158z" />
    <glyph glyph-name="Omega" unicode="&#x2126;" horiz-adv-x="793" 
d="M738 432c0 -145 -96 -261 -232 -298v-71h157v-63h-224v183c130 16 221 111 221 249c0 147 -113 249 -266 249c-154 0 -262 -96 -262 -249c0 -141 91 -229 217 -248v-184h-224v63h157v71c-134 37 -227 144 -227 298c0 190 151 315 344 315c192 0 339 -128 339 -315z" />
    <glyph glyph-name="ae" unicode="&#xe6;" horiz-adv-x="965" 
d="M691 -6c-48 0 -96 8 -142 34c-20 11 -41 14 -71 8l-97 -20c-50 -10 -108 -23 -152 -23c-113 0 -179 56 -179 149c0 122 101 163 215 163h165v62c0 83 -52 114 -128 114c-49 0 -111 -14 -173 -31l-43 -12l-14 67l42 12c71 20 131 33 189 33c80 0 147 -28 178 -93
c46 65 117 95 195 95c145 0 244 -87 244 -267c0 -28 -14 -45 -42 -45h-372c5 -121 85 -176 188 -176c37 0 80 7 149 28l55 17l15 -66l-53 -17c-74 -24 -119 -32 -169 -32zM239 58c32 0 80 7 131 19l104 22c-24 37 -39 85 -42 143h-168c-89 0 -140 -27 -140 -96
c0 -60 42 -88 115 -88zM844 305c0 100 -50 184 -169 184c-100 0 -163 -71 -169 -184h338z" />
    <glyph glyph-name="oslash" unicode="&#xf8;" horiz-adv-x="610" 
d="M170 -52h-62l46 88c-66 45 -104 126 -104 236c0 178 102 278 257 278c39 0 75 -7 106 -19l31 59h62l-45 -86c63 -45 99 -124 99 -232c0 -178 -102 -278 -257 -278c-37 0 -70 6 -100 16zM126 272c0 -78 21 -138 61 -174l195 373c-23 10 -50 16 -79 16
c-115 0 -177 -80 -177 -215zM485 272c0 74 -20 132 -58 169l-193 -371c21 -9 46 -13 73 -13c115 0 178 78 178 215z" />
    <glyph glyph-name="questiondown" unicode="&#xbf;" horiz-adv-x="457" 
d="M225 -120c38 0 88 7 145 23l43 12l14 -65l-42 -13c-63 -20 -114 -26 -161 -26c-113 0 -190 60 -190 164c0 76 30 119 76 167l92 96v82l71 13v-62c0 -44 -3 -59 -33 -91l-72 -76c-43 -47 -62 -72 -62 -128c0 -58 38 -96 119 -96zM187 511c0 35 19 56 50 56s50 -21 50 -56
s-19 -56 -50 -56s-50 21 -50 56z" />
    <glyph glyph-name="exclamdown" unicode="&#xa1;" horiz-adv-x="208" 
d="M68 319l76 14v-519h-76v505zM56 511c0 35 19 56 50 56s50 -21 50 -56s-19 -56 -50 -56s-50 21 -50 56z" />
    <glyph glyph-name="logicalnot" unicode="&#xac;" 
d="M528 89h-72v215h-401v71h473v-286z" />
    <glyph glyph-name="radical" unicode="&#x221a;" horiz-adv-x="641" 
d="M642 677h-104l-193 -648c-8 -27 -25 -40 -50 -40c-26 0 -43 14 -51 40l-139 448h-95v67h158l128 -441l183 641h163v-67z" />
    <glyph glyph-name="florin" unicode="&#x192;" 
d="M292 467v-475c0 -113 -61 -173 -165 -173v64c67 2 92 38 92 112v472h-89v67h89v58c0 113 59 173 160 173c25 0 57 -5 112 -16l-11 -68c-54 12 -81 16 -102 16c-63 0 -86 -34 -86 -110v-53h173v-67h-173z" />
    <glyph glyph-name="approxequal" unicode="&#x2248;" 
d="M305 331l-62 44c-18 13 -34 19 -51 19c-31 0 -61 -14 -89 -81l-57 38c34 85 92 114 147 114c31 0 62 -10 91 -30l62 -44c18 -13 34 -19 51 -19c31 0 60 14 88 81l57 -38c-34 -85 -91 -114 -146 -114c-31 0 -62 10 -91 30zM314 164l-62 44c-18 13 -34 19 -51 19
c-31 0 -61 -14 -89 -81l-57 38c34 85 92 114 147 114c31 0 62 -10 91 -30l62 -44c18 -13 34 -19 51 -19c31 0 60 14 88 81l57 -38c-34 -85 -91 -114 -146 -114c-31 0 -62 10 -91 30z" />
    <glyph glyph-name="Delta" unicode="&#x2206;" horiz-adv-x="649" 
d="M638 0h-623l253 709c10 28 32 42 60 42s50 -14 60 -41zM534 64l-209 602l-205 -602h414z" />
    <glyph glyph-name="guillemotleft" unicode="&#xab;" horiz-adv-x="560" 
d="M55 281c0 17 9 34 22 47l145 141h95l-191 -188l191 -188h-95l-145 141c-13 13 -22 30 -22 47zM263 281c0 17 9 34 22 47l145 141h95l-191 -188l191 -188h-95l-145 141c-13 13 -22 30 -22 47z" />
    <glyph glyph-name="ellipsis" unicode="&#x2026;" horiz-adv-x="624" 
d="M155 47c0 -35 -19 -56 -50 -56s-50 21 -50 56s19 56 50 56s50 -21 50 -56zM363 47c0 -35 -19 -56 -50 -56s-50 21 -50 56s19 56 50 56s50 -21 50 -56zM571 47c0 -35 -19 -56 -50 -56s-50 21 -50 56s19 56 50 56s50 -21 50 -56z" />
    <glyph glyph-name="OE" unicode="&#x152;" horiz-adv-x="1109" 
d="M1054 0h-665c-197 0 -334 134 -334 370c0 235 132 374 331 374h665v-68h-401v-262h353v-67h-353v-279h404v-68zM132 370c0 -192 95 -302 260 -302h181v608v2h-174c-169 0 -267 -121 -267 -308z" />
    <glyph glyph-name="oe" unicode="&#x153;" horiz-adv-x="1019" 
d="M745 -6c-103 0 -182 40 -224 121c-41 -79 -117 -121 -218 -121c-155 0 -253 102 -253 278c0 178 102 278 257 278c100 0 175 -42 215 -121c42 85 120 123 208 123c145 0 244 -87 244 -267c0 -28 -14 -45 -42 -45h-372c5 -121 85 -176 188 -176c37 0 80 7 149 28l55 17
l15 -66l-53 -17c-74 -24 -119 -32 -169 -32zM485 272c0 135 -67 214 -182 214s-177 -79 -177 -214c0 -137 66 -214 181 -214s178 77 178 214zM898 305c0 100 -50 184 -169 184c-100 0 -163 -71 -169 -184h338z" />
    <glyph glyph-name="endash" unicode="&#x2013;" 
d="M530 290h-470v72h470v-72z" />
    <glyph glyph-name="emdash" unicode="&#x2014;" horiz-adv-x="1000" 
d="M940 290h-880v71h880v-71z" />
    <glyph glyph-name="quotedblleft" unicode="&#x201c;" horiz-adv-x="383" 
d="M214 568l46 164c6 20 19 31 39 31c30 0 43 -23 36 -50l-38 -145h-83zM39 568l46 164c6 20 19 31 39 31c30 0 43 -23 36 -50l-38 -145h-83z" />
    <glyph glyph-name="quotedblright" unicode="&#x201d;" horiz-adv-x="383" 
d="M167 763l-46 -164c-6 -20 -19 -31 -39 -31c-30 0 -43 23 -36 50l38 145h83zM342 763l-46 -164c-6 -20 -19 -31 -39 -31c-30 0 -43 23 -36 50l38 145h83z" />
    <glyph glyph-name="quoteleft" unicode="&#x2018;" horiz-adv-x="208" 
d="M39 568l46 164c6 20 19 31 39 31c30 0 43 -23 36 -50l-38 -145h-83z" />
    <glyph glyph-name="quoteright" unicode="&#x2019;" horiz-adv-x="208" 
d="M167 763l-46 -164c-6 -20 -19 -31 -39 -31c-30 0 -43 23 -36 50l38 145h83z" />
    <glyph glyph-name="divide" unicode="&#xf7;" 
d="M341 499c0 -32 -18 -54 -48 -54s-48 22 -48 54s18 54 48 54s48 -22 48 -54zM531 259h-473v71h473v-71zM341 89c0 -32 -18 -54 -48 -54s-48 22 -48 54s18 54 48 54s48 -22 48 -54z" />
    <glyph glyph-name="lozenge" unicode="&#x25ca;" horiz-adv-x="649" 
d="M624 372l-244 -356c-13 -19 -31 -29 -55 -29c-23 0 -40 9 -53 29l-244 356l244 356c13 18 31 28 55 28c23 0 40 -9 53 -28zM540 372l-211 315l-214 -315l214 -314z" />
    <glyph glyph-name="guilsinglleft" unicode="&#x2039;" horiz-adv-x="350" 
d="M53 281c0 17 9 34 22 47l145 141h95l-191 -188l191 -188h-95l-145 141c-13 13 -22 30 -22 47z" />
    <glyph glyph-name="guilsinglright" unicode="&#x203a;" horiz-adv-x="350" 
d="M297 281c0 -17 -9 -34 -22 -47l-145 -141h-95l191 188l-191 188h95l145 -141c13 -13 22 -30 22 -47z" />
    <glyph glyph-name="fi" unicode="&#xfb01;" horiz-adv-x="599" 
d="M529 716c0 -34 -19 -56 -50 -56s-50 22 -50 56s19 56 50 56s50 -22 50 -56zM182 467v-467h-73v467h-89v67h89v58c0 113 59 173 160 173c25 0 57 -5 112 -16l-11 -68c-54 12 -81 16 -102 16c-63 0 -85 -34 -86 -110v-53h336v-534h-77v467h-259z" />
    <glyph glyph-name="fl" unicode="&#xfb02;" horiz-adv-x="591" 
d="M442 0v680c-92 13 -138 17 -174 17c-63 0 -86 -34 -86 -110v-53h173v-67h-173v-467h-73v467h-89v67h89v58c0 113 59 173 160 173c38 0 88 -6 172 -18l75 22v-769h-74z" />
    <glyph glyph-name="daggerdbl" unicode="&#x2021;" horiz-adv-x="551" 
d="M508 49l-202 18l18 -253h-95l19 253l-205 -18v94l212 -17l-26 153l26 155l-212 -18v94l205 -17l-19 251h95l-18 -251l202 17v-94l-210 18l26 -155l-26 -153l210 17v-94z" />
    <glyph glyph-name="periodcentered" unicode="&#xb7;" horiz-adv-x="374" 
d="M239 367c0 -35 -19 -56 -50 -56s-50 21 -50 56s19 56 50 56s50 -21 50 -56z" />
    <glyph glyph-name="quotesinglbase" unicode="&#x201a;" horiz-adv-x="208" 
d="M167 104l-46 -164c-6 -20 -19 -31 -39 -31c-30 0 -43 23 -36 50l38 145h83z" />
    <glyph glyph-name="quotedblbase" unicode="&#x201e;" horiz-adv-x="383" 
d="M167 104l-46 -164c-6 -20 -19 -31 -39 -31c-30 0 -43 23 -36 50l38 145h83zM342 104l-46 -164c-6 -20 -19 -31 -39 -31c-30 0 -43 23 -36 50l38 145h83z" />
    <glyph glyph-name="perthousand" unicode="&#x2030;" horiz-adv-x="1315" 
d="M408 566c0 -122 -72 -195 -185 -195c-114 0 -183 74 -183 195c0 120 72 194 185 194c114 0 183 -74 183 -194zM341 566c0 86 -43 136 -118 136c-76 0 -115 -51 -115 -136c0 -87 42 -138 117 -138c76 0 116 50 116 138zM789 744l-601 -744h-82l602 744h81zM862 180
c0 -122 -72 -195 -185 -195c-114 0 -183 74 -183 195c0 120 72 194 185 194c114 0 183 -74 183 -194zM795 180c0 86 -43 136 -118 136c-76 0 -115 -51 -115 -136c0 -87 42 -138 117 -138c76 0 116 50 116 138zM1282 180c0 -122 -72 -195 -185 -195c-114 0 -183 74 -183 195
c0 120 72 194 185 194c114 0 183 -74 183 -194zM1215 180c0 86 -43 136 -118 136c-76 0 -115 -51 -115 -136c0 -87 42 -138 117 -138c76 0 116 50 116 138z" />
    <glyph glyph-name="circumflex" unicode="&#x2c6;" horiz-adv-x="531" 
d="M281 765c18 0 34 -7 45 -19l135 -128h-112l-68 85l-68 -85h-112l134 128c11 10 26 19 46 19z" />
    <glyph glyph-name="tilde" unicode="&#x2dc;" horiz-adv-x="531" 
d="M276 644l-49 36c-15 11 -27 16 -42 16c-24 0 -49 -12 -71 -68l-56 31c27 78 84 106 128 106c26 0 51 -7 73 -25l50 -36c15 -11 27 -16 42 -16c24 0 48 12 70 68l56 -31c-26 -77 -83 -106 -127 -106c-27 0 -51 7 -74 25z" />
    <glyph glyph-name="macron" unicode="&#xaf;" horiz-adv-x="531" 
d="M429 659h-324v71h324v-71z" />
    <glyph glyph-name="breve" unicode="&#x2d8;" horiz-adv-x="531" 
d="M278 614c-96 0 -171 59 -171 149h70c0 -54 42 -84 101 -84s101 31 101 84h70c0 -90 -76 -149 -171 -149z" />
    <glyph glyph-name="dotaccent" unicode="&#x2d9;" horiz-adv-x="531" 
d="M316 710c0 -34 -19 -56 -50 -56s-50 22 -50 56s19 56 50 56s50 -22 50 -56z" />
    <glyph glyph-name="ring" unicode="&#x2da;" horiz-adv-x="531" 
d="M278 590c-61 0 -110 43 -110 104c0 62 48 103 110 103s111 -41 111 -103c0 -61 -50 -104 -111 -104zM278 752c-37 0 -60 -26 -60 -58c0 -34 24 -59 60 -59s61 25 61 59c0 32 -24 58 -61 58z" />
    <glyph glyph-name="cedilla" unicode="&#xb8;" horiz-adv-x="531" 
d="M362 -117c0 -45 -35 -80 -98 -80c-28 0 -50 4 -87 20l13 43c30 -12 53 -16 73 -16c28 0 47 10 47 31c0 32 -38 34 -89 32l-4 7l41 80h42l-25 -51c49 0 87 -21 87 -66z" />
    <glyph glyph-name="hungarumlaut" unicode="&#x2dd;" horiz-adv-x="531" 
d="M281 763l-141 -134c-8 -9 -21 -13 -29 -13c-23 0 -35 20 -35 35c0 9 5 20 13 29l81 83h111zM474 763l-143 -141c-8 -9 -21 -13 -29 -13c-23 0 -35 20 -35 35c0 9 5 20 13 29l83 90h111z" />
    <glyph glyph-name="ogonek" unicode="&#x2db;" horiz-adv-x="531" 
d="M410 -170c-44 -18 -76 -23 -106 -23c-69 0 -120 28 -120 83c0 29 17 55 46 74l61 18l3 -5c-30 -18 -47 -43 -47 -71c0 -31 23 -44 60 -44c27 0 53 4 91 18z" />
    <glyph glyph-name="caron" unicode="&#x2c7;" horiz-adv-x="531" 
d="M281 616c-18 0 -34 7 -45 19l-135 128h112l68 -85l68 85h112l-134 -128c-11 -10 -26 -19 -46 -19z" />
    <glyph glyph-name="Euro" unicode="&#x20ac;" 
d="M433 271h-248c0 -145 63 -206 176 -206c33 0 75 9 136 25l45 12l14 -70l-44 -12c-64 -17 -113 -28 -153 -28c-148 0 -253 96 -253 279h-76v66h76v71h-76v66h76c0 183 105 279 253 279c40 0 89 -11 153 -28l44 -12l-14 -70l-45 12c-61 16 -103 25 -136 25
c-113 0 -176 -61 -176 -206h248v-66h-249v-71h249v-66z" />
    <glyph glyph-name="Eth" unicode="&#xd0;" horiz-adv-x="730" 
d="M675 370c0 -236 -137 -370 -334 -370h-188c-45 0 -73 27 -73 68v280h-70v66h70v262c0 41 28 68 73 68h191c199 0 331 -139 331 -374zM598 370c0 187 -98 308 -267 308h-174v-264h229v-66h-229v-280h181c165 0 260 110 260 302z" />
    <glyph glyph-name="eth" unicode="&#xf0;" horiz-adv-x="624" 
d="M314 450c-137 0 -180 -83 -180 -190c0 -117 61 -199 175 -199c120 0 172 76 172 190v171c-91 24 -132 27 -167 28zM309 519c40 0 80 -6 172 -32v39c0 45 -9 79 -25 106l-149 -82v73l107 56c-22 13 -55 19 -94 19h-70v65h69c72 0 125 -14 161 -45l89 51v-73l-49 -27
c23 -38 35 -84 35 -143v-279c0 -148 -85 -253 -248 -253s-247 121 -247 266c0 135 73 259 249 259z" />
    <glyph glyph-name="Lslash" unicode="&#x141;" horiz-adv-x="576" 
d="M326 490l-168 -80v-341h373v-69h-378c-45 0 -73 27 -73 68v305l-70 -33v75l70 33v296h78v-259l168 80v-75z" />
    <glyph glyph-name="lslash" unicode="&#x142;" horiz-adv-x="235" 
d="M158 0h-75v393l-68 -43v81l68 43v281l75 16v-249l67 43v-82l-67 -43v-440z" />
    <glyph glyph-name="Thorn" unicode="&#xde;" horiz-adv-x="629" 
d="M584 390c0 -141 -93 -225 -227 -225h-203v-165h-74v744h74v-129h214c125 0 216 -85 216 -225zM514 391c0 99 -60 160 -150 160h-210v-321h203c97 0 157 59 157 161z" />
    <glyph glyph-name="Scaron" unicode="&#x160;" horiz-adv-x="634" 
d="M258 424l144 -33c114 -25 181 -85 181 -194c0 -142 -114 -205 -231 -205c-88 0 -158 17 -242 44l-50 16l18 71l51 -17c71 -24 147 -45 221 -45c77 0 156 38 156 133c0 66 -34 105 -118 124l-144 33c-113 25 -180 87 -180 193c0 142 114 205 230 205c88 0 154 -18 237 -45
l50 -16l-18 -71l-51 17c-71 24 -142 45 -216 45c-80 0 -155 -37 -155 -132c0 -65 33 -104 117 -123zM332 791c-18 0 -34 7 -45 19l-135 128h112l68 -85l68 85h112l-134 -128c-11 -10 -26 -19 -46 -19z" />
    <glyph glyph-name="scaron" unicode="&#x161;" horiz-adv-x="545" 
d="M233 314l108 -19c92 -16 146 -66 146 -143c0 -109 -91 -159 -188 -159c-74 0 -127 13 -196 33l-41 12l14 67l43 -12c60 -17 118 -31 181 -31c61 0 114 25 114 86c0 42 -26 69 -95 80l-108 19c-92 16 -146 67 -146 144c0 109 91 159 188 159c74 0 127 -13 196 -33l41 -12
l-14 -68l-43 12c-60 17 -118 32 -181 32c-61 0 -114 -25 -114 -86c0 -42 26 -69 95 -81zM288 616c-18 0 -34 7 -45 19l-135 128h112l68 -85l68 85h112l-134 -128c-11 -10 -26 -19 -46 -19z" />
    <glyph glyph-name="Yacute" unicode="&#xdd;" horiz-adv-x="648" 
d="M638 744l-272 -421v-323h-78v321l-278 423h88l231 -353l223 353h86zM477 935l-140 -126c-9 -8 -20 -13 -29 -13c-22 0 -34 19 -34 33c0 9 4 19 13 28l81 78h109z" />
    <glyph glyph-name="yacute" unicode="&#xfd;" horiz-adv-x="530" 
d="M157 -182c-25 0 -55 4 -108 18l11 68c53 -13 77 -18 98 -18c50 0 69 26 78 62l7 27l-219 569h84l175 -478l149 478h82l-208 -618c-25 -74 -73 -108 -149 -108zM422 763l-140 -126c-9 -8 -20 -13 -29 -13c-22 0 -34 19 -34 33c0 9 4 19 13 28l81 78h109z" />
    <glyph glyph-name="Zcaron" unicode="&#x17d;" horiz-adv-x="646" 
d="M571 652l-430 -586h450v-66h-486c-34 0 -50 21 -50 51c0 17 5 27 15 41l432 586h-436v66h470c34 0 50 -21 50 -51c0 -17 -5 -27 -15 -41zM327 791c-18 0 -34 7 -45 19l-135 128h112l68 -85l68 85h112l-134 -128c-11 -10 -26 -19 -46 -19z" />
    <glyph glyph-name="zcaron" unicode="&#x17e;" horiz-adv-x="534" 
d="M63 544h378c32 0 47 -20 47 -48c0 -16 -7 -31 -17 -43l-335 -390h353v-63h-392c-32 0 -47 20 -47 48c0 16 7 31 17 43l335 390h-339v63zM284 616c-18 0 -34 7 -45 19l-135 128h112l68 -85l68 85h112l-134 -128c-11 -10 -26 -19 -46 -19z" />
    <glyph glyph-name="quotedbl" unicode="&#x22;" horiz-adv-x="371" 
d="M311 763l-7 -200h-66l-8 200h81zM141 763l-8 -200h-66l-7 200h81z" />
    <glyph glyph-name="exclam" unicode="!" horiz-adv-x="208" 
d="M144 239l-76 -14v519h76v-505zM156 47c0 -35 -19 -56 -50 -56s-50 21 -50 56s19 56 50 56s50 -21 50 -56z" />
    <glyph glyph-name="currency" unicode="&#xa4;" 
d="M433 271h-248c0 -145 63 -206 176 -206c33 0 75 9 136 25l45 12l14 -70l-44 -12c-64 -17 -113 -28 -153 -28c-148 0 -253 96 -253 279h-76v66h76v71h-76v66h76c0 183 105 279 253 279c40 0 89 -11 153 -28l44 -12l-14 -70l-45 12c-61 16 -103 25 -136 25
c-113 0 -176 -61 -176 -206h248v-66h-249v-71h249v-66z" />
    <glyph glyph-name="thorn" unicode="&#xfe;" horiz-adv-x="597" 
d="M298 65c128 0 175 85 175 208c0 120 -50 207 -178 207c-31 0 -63 -2 -148 -22v-366c87 -22 120 -26 151 -27zM75 -186v941l72 15v-244c80 18 125 22 155 22c156 0 245 -100 245 -274c0 -176 -88 -278 -245 -278c-36 0 -72 6 -155 31v-198z" />
    <glyph glyph-name="fraction" unicode="&#x2044;" horiz-adv-x="901" 
d="M789 744l-601 -744h-82l602 744h81z" />
    <glyph glyph-name="guillemotright" unicode="&#xbb;" horiz-adv-x="560" 
d="M505 281c0 -17 -9 -34 -22 -47l-145 -141h-95l191 188l-191 188h95l145 -141c13 -13 22 -30 22 -47zM297 281c0 -17 -9 -34 -22 -47l-145 -141h-95l191 188l-191 188h95l145 -141c13 -13 22 -30 22 -47z" />
    <glyph glyph-name="aacute" unicode="&#xe1;" horiz-adv-x="598" 
d="M568 46l-29 -56l-49 29c-20 10 -42 16 -71 8l-39 -10c-49 -13 -107 -24 -151 -24c-113 0 -179 56 -179 149c0 122 101 163 215 163h165v62c0 83 -52 114 -128 114c-49 0 -111 -14 -173 -31l-43 -12l-14 67l42 12c71 20 131 33 189 33c110 0 198 -52 198 -183v-281z
M430 91v151h-166c-89 0 -140 -27 -140 -96c0 -60 42 -88 115 -88c32 0 80 7 131 19zM440 763l-140 -126c-9 -8 -20 -13 -29 -13c-22 0 -34 19 -34 33c0 9 4 19 13 28l81 78h109z" />
    <glyph glyph-name="agrave" unicode="&#xe0;" horiz-adv-x="598" 
d="M568 46l-29 -56l-49 29c-20 10 -42 16 -71 8l-39 -10c-49 -13 -107 -24 -151 -24c-113 0 -179 56 -179 149c0 122 101 163 215 163h165v62c0 83 -52 114 -128 114c-49 0 -111 -14 -173 -31l-43 -12l-14 67l42 12c71 20 131 33 189 33c110 0 198 -52 198 -183v-281z
M430 91v151h-166c-89 0 -140 -27 -140 -96c0 -60 42 -88 115 -88c32 0 80 7 131 19zM314 637l-140 126h109l81 -78c9 -9 13 -19 13 -28c0 -14 -12 -33 -34 -33c-9 0 -20 5 -29 13z" />
    <glyph glyph-name="acircumflex" unicode="&#xe2;" horiz-adv-x="598" 
d="M568 46l-29 -56l-49 29c-20 10 -42 16 -71 8l-39 -10c-49 -13 -107 -24 -151 -24c-113 0 -179 56 -179 149c0 122 101 163 215 163h165v62c0 83 -52 114 -128 114c-49 0 -111 -14 -173 -31l-43 -12l-14 67l42 12c71 20 131 33 189 33c110 0 198 -52 198 -183v-281z
M430 91v151h-166c-89 0 -140 -27 -140 -96c0 -60 42 -88 115 -88c32 0 80 7 131 19zM305 765c18 0 34 -7 45 -19l135 -128h-112l-68 85l-68 -85h-112l134 128c11 10 26 19 46 19z" />
    <glyph glyph-name="adieresis" unicode="&#xe4;" horiz-adv-x="598" 
d="M568 46l-29 -56l-49 29c-20 10 -42 16 -71 8l-39 -10c-49 -13 -107 -24 -151 -24c-113 0 -179 56 -179 149c0 122 101 163 215 163h165v62c0 83 -52 114 -128 114c-49 0 -111 -14 -173 -31l-43 -12l-14 67l42 12c71 20 131 33 189 33c110 0 198 -52 198 -183v-281z
M430 91v151h-166c-89 0 -140 -27 -140 -96c0 -60 42 -88 115 -88c32 0 80 7 131 19zM244 710c0 -34 -19 -56 -50 -56s-50 22 -50 56s19 56 50 56s50 -22 50 -56zM473 710c0 -34 -19 -56 -50 -56s-50 22 -50 56s19 56 50 56s50 -22 50 -56z" />
    <glyph glyph-name="atilde" unicode="&#xe3;" horiz-adv-x="598" 
d="M568 46l-29 -56l-49 29c-20 10 -42 16 -71 8l-39 -10c-49 -13 -107 -24 -151 -24c-113 0 -179 56 -179 149c0 122 101 163 215 163h165v62c0 83 -52 114 -128 114c-49 0 -111 -14 -173 -31l-43 -12l-14 67l42 12c71 20 131 33 189 33c110 0 198 -52 198 -183v-281z
M430 91v151h-166c-89 0 -140 -27 -140 -96c0 -60 42 -88 115 -88c32 0 80 7 131 19zM307 644l-49 36c-15 11 -27 16 -42 16c-24 0 -49 -12 -71 -68l-56 31c27 78 84 106 128 106c26 0 51 -7 73 -25l50 -36c15 -11 27 -16 42 -16c24 0 48 12 70 68l56 -31
c-26 -77 -83 -106 -127 -106c-27 0 -51 7 -74 25z" />
    <glyph glyph-name="aring" unicode="&#xe5;" horiz-adv-x="598" 
d="M568 46l-29 -56l-49 29c-20 10 -42 16 -71 8l-39 -10c-49 -13 -107 -24 -151 -24c-113 0 -179 56 -179 149c0 122 101 163 215 163h165v62c0 83 -52 114 -128 114c-49 0 -111 -14 -173 -31l-43 -12l-14 67l42 12c71 20 131 33 189 33c110 0 198 -52 198 -183v-281z
M430 91v151h-166c-89 0 -140 -27 -140 -96c0 -60 42 -88 115 -88c32 0 80 7 131 19zM295 590c-61 0 -110 43 -110 104c0 62 48 103 110 103s111 -41 111 -103c0 -61 -50 -104 -111 -104zM295 752c-37 0 -60 -26 -60 -58c0 -34 24 -59 60 -59s61 25 61 59c0 32 -24 58 -61 58
z" />
    <glyph glyph-name="ccedilla" unicode="&#xe7;" horiz-adv-x="526" 
d="M50 272c0 182 99 278 244 278c40 0 89 -11 153 -28l44 -12l-14 -68l-45 12c-61 16 -104 26 -135 26c-112 0 -170 -68 -170 -208s59 -208 171 -208c31 0 73 10 134 26l45 12l14 -68l-44 -12c-64 -17 -113 -28 -153 -28c-145 0 -244 84 -244 278zM379 -117
c0 -45 -35 -80 -98 -80c-28 0 -50 4 -87 20l13 43c30 -12 53 -16 73 -16c28 0 47 10 47 31c0 32 -38 34 -89 32l-4 7l41 80h42l-25 -51c49 0 87 -21 87 -66z" />
    <glyph glyph-name="eacute" unicode="&#xe9;" horiz-adv-x="585" 
d="M464 305c0 100 -50 184 -169 184c-100 0 -163 -71 -169 -184h338zM311 -6c-154 0 -261 91 -261 277c0 196 115 281 246 281c145 0 244 -87 244 -267c0 -28 -14 -45 -42 -45h-372c5 -121 85 -176 188 -176c37 0 80 7 149 28l55 17l15 -66l-53 -17
c-74 -24 -119 -32 -169 -32zM450 763l-140 -126c-9 -8 -20 -13 -29 -13c-22 0 -34 19 -34 33c0 9 4 19 13 28l81 78h109z" />
    <glyph glyph-name="dotlessi" unicode="&#x131;" horiz-adv-x="240" 
d="M158 0h-75v544h75v-544z" />
    <glyph glyph-name="egrave" unicode="&#xe8;" horiz-adv-x="585" 
d="M464 305c0 100 -50 184 -169 184c-100 0 -163 -71 -169 -184h338zM311 -6c-154 0 -261 91 -261 277c0 196 115 281 246 281c145 0 244 -87 244 -267c0 -28 -14 -45 -42 -45h-372c5 -121 85 -176 188 -176c37 0 80 7 149 28l55 17l15 -66l-53 -17
c-74 -24 -119 -32 -169 -32zM314 637l-140 126h109l81 -78c9 -9 13 -19 13 -28c0 -14 -12 -33 -34 -33c-9 0 -20 5 -29 13z" />
    <glyph glyph-name="ecircumflex" unicode="&#xea;" horiz-adv-x="585" 
d="M464 305c0 100 -50 184 -169 184c-100 0 -163 -71 -169 -184h338zM311 -6c-154 0 -261 91 -261 277c0 196 115 281 246 281c145 0 244 -87 244 -267c0 -28 -14 -45 -42 -45h-372c5 -121 85 -176 188 -176c37 0 80 7 149 28l55 17l15 -66l-53 -17
c-74 -24 -119 -32 -169 -32zM300 765c18 0 34 -7 45 -19l135 -128h-112l-68 85l-68 -85h-112l134 128c11 10 26 19 46 19z" />
    <glyph glyph-name="edieresis" unicode="&#xeb;" horiz-adv-x="585" 
d="M464 305c0 100 -50 184 -169 184c-100 0 -163 -71 -169 -184h338zM311 -6c-154 0 -261 91 -261 277c0 196 115 281 246 281c145 0 244 -87 244 -267c0 -28 -14 -45 -42 -45h-372c5 -121 85 -176 188 -176c37 0 80 7 149 28l55 17l15 -66l-53 -17
c-74 -24 -119 -32 -169 -32zM235 710c0 -34 -19 -56 -50 -56s-50 22 -50 56s19 56 50 56s50 -22 50 -56zM464 710c0 -34 -19 -56 -50 -56s-50 22 -50 56s19 56 50 56s50 -22 50 -56z" />
    <glyph glyph-name="iacute" unicode="&#xed;" horiz-adv-x="240" 
d="M158 0h-75v544h75v-544zM256 763l-140 -126c-9 -8 -20 -13 -29 -13c-22 0 -34 19 -34 33c0 9 4 19 13 28l81 78h109z" />
    <glyph glyph-name="igrave" unicode="&#xec;" horiz-adv-x="240" 
d="M158 0h-75v544h75v-544zM119 637l-140 126h109l81 -78c9 -9 13 -19 13 -28c0 -14 -12 -33 -34 -33c-9 0 -20 5 -29 13z" />
    <glyph glyph-name="icircumflex" unicode="&#xee;" horiz-adv-x="240" 
d="M158 0h-75v544h75v-544zM122 765c18 0 34 -7 45 -19l135 -128h-112l-68 85l-68 -85h-112l134 128c11 10 26 19 46 19z" />
    <glyph glyph-name="idieresis" unicode="&#xef;" horiz-adv-x="240" 
d="M158 0h-75v544h75v-544zM57 710c0 -34 -19 -56 -50 -56s-50 22 -50 56s19 56 50 56s50 -22 50 -56zM286 710c0 -34 -19 -56 -50 -56s-50 22 -50 56s19 56 50 56s50 -22 50 -56z" />
    <glyph glyph-name="ntilde" unicode="&#xf1;" horiz-adv-x="583" 
d="M148 458v-458h-73v452c0 40 21 63 58 72c90 23 139 24 172 24c147 0 203 -86 203 -196v-352h-73v345c0 78 -32 135 -138 135c-33 0 -68 -2 -149 -22zM305 644l-49 36c-15 11 -27 16 -42 16c-24 0 -49 -12 -71 -68l-56 31c27 78 84 106 128 106c26 0 51 -7 73 -25l50 -36
c15 -11 27 -16 42 -16c24 0 48 12 70 68l56 -31c-26 -77 -83 -106 -127 -106c-27 0 -51 7 -74 25z" />
    <glyph glyph-name="oacute" unicode="&#xf3;" horiz-adv-x="610" 
d="M560 272c0 -178 -102 -278 -257 -278s-253 102 -253 278c0 178 102 278 257 278s253 -100 253 -278zM485 272c0 135 -67 214 -182 214s-177 -79 -177 -214c0 -137 66 -214 181 -214s178 77 178 214zM428 763l-140 -126c-9 -8 -20 -13 -29 -13c-22 0 -34 19 -34 33
c0 9 4 19 13 28l81 78h109z" />
    <glyph glyph-name="ograve" unicode="&#xf2;" horiz-adv-x="610" 
d="M560 272c0 -178 -102 -278 -257 -278s-253 102 -253 278c0 178 102 278 257 278s253 -100 253 -278zM485 272c0 135 -67 214 -182 214s-177 -79 -177 -214c0 -137 66 -214 181 -214s178 77 178 214zM334 637l-140 126h109l81 -78c9 -9 13 -19 13 -28
c0 -14 -12 -33 -34 -33c-9 0 -20 5 -29 13z" />
    <glyph glyph-name="ocircumflex" unicode="&#xf4;" horiz-adv-x="610" 
d="M560 272c0 -178 -102 -278 -257 -278s-253 102 -253 278c0 178 102 278 257 278s253 -100 253 -278zM485 272c0 135 -67 214 -182 214s-177 -79 -177 -214c0 -137 66 -214 181 -214s178 77 178 214zM309 765c18 0 34 -7 45 -19l135 -128h-112l-68 85l-68 -85h-112
l134 128c11 10 26 19 46 19z" />
    <glyph glyph-name="odieresis" unicode="&#xf6;" horiz-adv-x="610" 
d="M560 272c0 -178 -102 -278 -257 -278s-253 102 -253 278c0 178 102 278 257 278s253 -100 253 -278zM485 272c0 135 -67 214 -182 214s-177 -79 -177 -214c0 -137 66 -214 181 -214s178 77 178 214zM246 710c0 -34 -19 -56 -50 -56s-50 22 -50 56s19 56 50 56
s50 -22 50 -56zM475 710c0 -34 -19 -56 -50 -56s-50 22 -50 56s19 56 50 56s50 -22 50 -56z" />
    <glyph glyph-name="otilde" unicode="&#xf5;" horiz-adv-x="610" 
d="M560 272c0 -178 -102 -278 -257 -278s-253 102 -253 278c0 178 102 278 257 278s253 -100 253 -278zM485 272c0 135 -67 214 -182 214s-177 -79 -177 -214c0 -137 66 -214 181 -214s178 77 178 214zM319 644l-49 36c-15 11 -27 16 -42 16c-24 0 -49 -12 -71 -68l-56 31
c27 78 84 106 128 106c26 0 51 -7 73 -25l50 -36c15 -11 27 -16 42 -16c24 0 48 12 70 68l56 -31c-26 -77 -83 -106 -127 -106c-27 0 -51 7 -74 25z" />
    <glyph glyph-name="uacute" unicode="&#xfa;" horiz-adv-x="583" 
d="M435 86v458h73v-452c0 -40 -21 -63 -58 -72c-90 -23 -139 -24 -172 -24c-147 0 -203 86 -203 196v352h73v-345c0 -78 32 -135 138 -135c33 0 68 2 149 22zM424 763l-140 -126c-9 -8 -20 -13 -29 -13c-22 0 -34 19 -34 33c0 9 4 19 13 28l81 78h109z" />
    <glyph glyph-name="ugrave" unicode="&#xf9;" horiz-adv-x="583" 
d="M435 86v458h73v-452c0 -40 -21 -63 -58 -72c-90 -23 -139 -24 -172 -24c-147 0 -203 86 -203 196v352h73v-345c0 -78 32 -135 138 -135c33 0 68 2 149 22zM304 637l-140 126h109l81 -78c9 -9 13 -19 13 -28c0 -14 -12 -33 -34 -33c-9 0 -20 5 -29 13z" />
    <glyph glyph-name="ucircumflex" unicode="&#xfb;" horiz-adv-x="583" 
d="M435 86v458h73v-452c0 -40 -21 -63 -58 -72c-90 -23 -139 -24 -172 -24c-147 0 -203 86 -203 196v352h73v-345c0 -78 32 -135 138 -135c33 0 68 2 149 22zM297 765c18 0 34 -7 45 -19l135 -128h-112l-68 85l-68 -85h-112l134 128c11 10 26 19 46 19z" />
    <glyph glyph-name="udieresis" unicode="&#xfc;" horiz-adv-x="583" 
d="M435 86v458h73v-452c0 -40 -21 -63 -58 -72c-90 -23 -139 -24 -172 -24c-147 0 -203 86 -203 196v352h73v-345c0 -78 32 -135 138 -135c33 0 68 2 149 22zM230 710c0 -34 -19 -56 -50 -56s-50 22 -50 56s19 56 50 56s50 -22 50 -56zM459 710c0 -34 -19 -56 -50 -56
s-50 22 -50 56s19 56 50 56s50 -22 50 -56z" />
    <glyph glyph-name="ydieresis" unicode="&#xff;" horiz-adv-x="530" 
d="M157 -182c-25 0 -55 4 -108 18l11 68c53 -13 77 -18 98 -18c50 0 69 26 78 62l7 27l-219 569h84l175 -478l149 478h82l-208 -618c-25 -74 -73 -108 -149 -108zM212 710c0 -34 -19 -56 -50 -56s-50 22 -50 56s19 56 50 56s50 -22 50 -56zM441 710c0 -34 -19 -56 -50 -56
s-50 22 -50 56s19 56 50 56s50 -22 50 -56z" />
    <glyph glyph-name="Adieresis" unicode="&#xc4;" horiz-adv-x="685" 
d="M670 0h-82l-64 168h-365l-64 -168h-80l270 709c10 28 30 42 60 42c31 0 50 -14 60 -41zM502 233l-158 438l-163 -438h321zM281 864c0 -34 -19 -56 -50 -56s-50 22 -50 56s19 56 50 56s50 -22 50 -56zM510 864c0 -34 -19 -56 -50 -56s-50 22 -50 56s19 56 50 56
s50 -22 50 -56z" />
    <glyph glyph-name="Aacute" unicode="&#xc1;" horiz-adv-x="685" 
d="M670 0h-82l-64 168h-365l-64 -168h-80l270 709c10 28 30 42 60 42c31 0 50 -14 60 -41zM502 233l-158 438l-163 -438h321zM450 935l-140 -126c-9 -8 -20 -13 -29 -13c-22 0 -34 19 -34 33c0 9 4 19 13 28l81 78h109z" />
    <glyph glyph-name="Acircumflex" unicode="&#xc2;" horiz-adv-x="685" 
d="M670 0h-82l-64 168h-365l-64 -168h-80l270 709c10 28 30 42 60 42c31 0 50 -14 60 -41zM502 233l-158 438l-163 -438h321zM344 952c18 0 34 -7 45 -19l135 -128h-112l-68 85l-68 -85h-112l134 128c11 10 26 19 46 19z" />
    <glyph glyph-name="Atilde" unicode="&#xc3;" horiz-adv-x="685" 
d="M670 0h-82l-64 168h-365l-64 -168h-80l270 709c10 28 30 42 60 42c31 0 50 -14 60 -41zM502 233l-158 438l-163 -438h321zM355 823l-49 36c-15 11 -27 16 -42 16c-24 0 -49 -12 -71 -68l-56 31c27 78 84 106 128 106c26 0 51 -7 73 -25l50 -36c15 -11 27 -16 42 -16
c24 0 48 12 70 68l56 -31c-26 -77 -83 -106 -127 -106c-27 0 -51 7 -74 25z" />
    <glyph glyph-name="Agrave" unicode="&#xc0;" horiz-adv-x="685" 
d="M670 0h-82l-64 168h-365l-64 -168h-80l270 709c10 28 30 42 60 42c31 0 50 -14 60 -41zM502 233l-158 438l-163 -438h321zM381 809l-140 126h109l81 -78c9 -9 13 -19 13 -28c0 -14 -12 -33 -34 -33c-9 0 -20 5 -29 13z" />
    <glyph glyph-name="Ccedilla" unicode="&#xc7;" horiz-adv-x="671" 
d="M55 370c0 258 144 378 331 378c61 0 120 -15 195 -38l52 -16l-15 -70l-55 17c-72 22 -130 36 -176 36c-154 0 -252 -93 -252 -307s100 -307 253 -307c46 0 103 14 175 36l55 17l15 -70l-52 -16c-75 -23 -134 -38 -195 -38c-191 0 -331 113 -331 378zM471 -117
c0 -45 -35 -80 -98 -80c-28 0 -50 4 -87 20l13 43c30 -12 53 -16 73 -16c28 0 47 10 47 31c0 32 -38 34 -89 32l-4 7l41 80h42l-25 -51c49 0 87 -21 87 -66z" />
    <glyph glyph-name="Eacute" unicode="&#xc9;" horiz-adv-x="616" 
d="M561 0h-408c-45 0 -73 27 -73 68v608c0 41 28 68 73 68h405v-68h-401v-262h353v-67h-353v-279h404v-68zM448 935l-140 -126c-9 -8 -20 -13 -29 -13c-22 0 -34 19 -34 33c0 9 4 19 13 28l81 78h109z" />
    <glyph glyph-name="Edieresis" unicode="&#xcb;" horiz-adv-x="616" 
d="M561 0h-408c-45 0 -73 27 -73 68v608c0 41 28 68 73 68h405v-68h-401v-262h353v-67h-353v-279h404v-68zM258 863c0 -34 -19 -56 -50 -56s-50 22 -50 56s19 56 50 56s50 -22 50 -56zM487 863c0 -34 -19 -56 -50 -56s-50 22 -50 56s19 56 50 56s50 -22 50 -56z" />
    <glyph glyph-name="Egrave" unicode="&#xc8;" horiz-adv-x="616" 
d="M561 0h-408c-45 0 -73 27 -73 68v608c0 41 28 68 73 68h405v-68h-401v-262h353v-67h-353v-279h404v-68zM341 809l-140 126h109l81 -78c9 -9 13 -19 13 -28c0 -14 -12 -33 -34 -33c-9 0 -20 5 -29 13z" />
    <glyph glyph-name="Ecircumflex" unicode="&#xca;" horiz-adv-x="616" 
d="M561 0h-408c-45 0 -73 27 -73 68v608c0 41 28 68 73 68h405v-68h-401v-262h353v-67h-353v-279h404v-68zM320 952c18 0 34 -7 45 -19l135 -128h-112l-68 85l-68 -85h-112l134 128c11 10 26 19 46 19z" />
    <glyph glyph-name="Iacute" unicode="&#xcd;" horiz-adv-x="237" 
d="M157 0h-77v744h77v-744zM245 934l-140 -126c-9 -8 -20 -13 -29 -13c-22 0 -34 19 -34 33c0 9 4 19 13 28l81 78h109z" />
    <glyph glyph-name="Icircumflex" unicode="&#xce;" horiz-adv-x="237" 
d="M157 0h-77v744h77v-744zM119 952c18 0 34 -7 45 -19l135 -128h-112l-68 85l-68 -85h-112l134 128c11 10 26 19 46 19z" />
    <glyph glyph-name="Idieresis" unicode="&#xcf;" horiz-adv-x="237" 
d="M157 0h-77v744h77v-744zM54 864c0 -34 -19 -56 -50 -56s-50 22 -50 56s19 56 50 56s50 -22 50 -56zM283 864c0 -34 -19 -56 -50 -56s-50 22 -50 56s19 56 50 56s50 -22 50 -56z" />
    <glyph glyph-name="Igrave" unicode="&#xcc;" horiz-adv-x="237" 
d="M157 0h-77v744h77v-744zM140 808l-140 126h109l81 -78c9 -9 13 -19 13 -28c0 -14 -12 -33 -34 -33c-9 0 -20 5 -29 13z" />
    <glyph glyph-name="Ntilde" unicode="&#xd1;" horiz-adv-x="737" 
d="M151 641v-641h-71v697c0 37 21 54 52 54c25 0 43 -11 57 -32l397 -614v639h71v-695c0 -37 -21 -54 -52 -54c-25 0 -43 11 -57 32zM383 824l-49 36c-15 11 -27 16 -42 16c-24 0 -49 -12 -71 -68l-56 31c27 78 84 106 128 106c26 0 51 -7 73 -25l50 -36
c15 -11 27 -16 42 -16c24 0 48 12 70 68l56 -31c-26 -77 -83 -106 -127 -106c-27 0 -51 7 -74 25z" />
    <glyph glyph-name="Odieresis" unicode="&#xd6;" horiz-adv-x="793" 
d="M738 370c0 -245 -141 -378 -344 -378c-202 0 -339 136 -339 378c0 241 141 378 344 378c202 0 339 -136 339 -378zM660 370c0 199 -103 311 -266 311c-164 0 -262 -112 -262 -311c0 -201 104 -313 267 -313s261 111 261 313zM332 863c0 -34 -19 -56 -50 -56
s-50 22 -50 56s19 56 50 56s50 -22 50 -56zM561 863c0 -34 -19 -56 -50 -56s-50 22 -50 56s19 56 50 56s50 -22 50 -56z" />
    <glyph glyph-name="Otilde" unicode="&#xd5;" horiz-adv-x="793" 
d="M738 370c0 -245 -141 -378 -344 -378c-202 0 -339 136 -339 378c0 241 141 378 344 378c202 0 339 -136 339 -378zM660 370c0 199 -103 311 -266 311c-164 0 -262 -112 -262 -311c0 -201 104 -313 267 -313s261 111 261 313zM405 826l-49 36c-15 11 -27 16 -42 16
c-24 0 -49 -12 -71 -68l-56 31c27 78 84 106 128 106c26 0 51 -7 73 -25l50 -36c15 -11 27 -16 42 -16c24 0 48 12 70 68l56 -31c-26 -77 -83 -106 -127 -106c-27 0 -51 7 -74 25z" />
    <glyph glyph-name="Ograve" unicode="&#xd2;" horiz-adv-x="793" 
d="M738 370c0 -245 -141 -378 -344 -378c-202 0 -339 136 -339 378c0 241 141 378 344 378c202 0 339 -136 339 -378zM660 370c0 199 -103 311 -266 311c-164 0 -262 -112 -262 -311c0 -201 104 -313 267 -313s261 111 261 313zM414 808l-140 126h109l81 -78
c9 -9 13 -19 13 -28c0 -14 -12 -33 -34 -33c-9 0 -20 5 -29 13z" />
    <glyph glyph-name="Ocircumflex" unicode="&#xd4;" horiz-adv-x="793" 
d="M738 370c0 -245 -141 -378 -344 -378c-202 0 -339 136 -339 378c0 241 141 378 344 378c202 0 339 -136 339 -378zM660 370c0 199 -103 311 -266 311c-164 0 -262 -112 -262 -311c0 -201 104 -313 267 -313s261 111 261 313zM400 952c18 0 34 -7 45 -19l135 -128h-112
l-68 85l-68 -85h-112l134 128c11 10 26 19 46 19z" />
    <glyph glyph-name="Oacute" unicode="&#xd3;" horiz-adv-x="793" 
d="M738 370c0 -245 -141 -378 -344 -378c-202 0 -339 136 -339 378c0 241 141 378 344 378c202 0 339 -136 339 -378zM660 370c0 199 -103 311 -266 311c-164 0 -262 -112 -262 -311c0 -201 104 -313 267 -313s261 111 261 313zM527 934l-140 -126c-9 -8 -20 -13 -29 -13
c-22 0 -34 19 -34 33c0 9 4 19 13 28l81 78h109z" />
    <glyph glyph-name="Udieresis" unicode="&#xdc;" horiz-adv-x="722" 
d="M647 264c0 -172 -102 -278 -286 -278s-286 106 -286 278v480h76v-480c0 -133 69 -209 210 -209c144 0 210 75 210 209v480h76v-480zM304 863c0 -34 -19 -56 -50 -56s-50 22 -50 56s19 56 50 56s50 -22 50 -56zM533 863c0 -34 -19 -56 -50 -56s-50 22 -50 56s19 56 50 56
s50 -22 50 -56z" />
    <glyph glyph-name="Uacute" unicode="&#xda;" horiz-adv-x="722" 
d="M647 264c0 -172 -102 -278 -286 -278s-286 106 -286 278v480h76v-480c0 -133 69 -209 210 -209c144 0 210 75 210 209v480h76v-480zM492 935l-140 -126c-9 -8 -20 -13 -29 -13c-22 0 -34 19 -34 33c0 9 4 19 13 28l81 78h109z" />
    <glyph glyph-name="Ucircumflex" unicode="&#xdb;" horiz-adv-x="722" 
d="M647 264c0 -172 -102 -278 -286 -278s-286 106 -286 278v480h76v-480c0 -133 69 -209 210 -209c144 0 210 75 210 209v480h76v-480zM365 952c18 0 34 -7 45 -19l135 -128h-112l-68 85l-68 -85h-112l134 128c11 10 26 19 46 19z" />
    <glyph glyph-name="Ugrave" unicode="&#xd9;" horiz-adv-x="722" 
d="M647 264c0 -172 -102 -278 -286 -278s-286 106 -286 278v480h76v-480c0 -133 69 -209 210 -209c144 0 210 75 210 209v480h76v-480zM381 809l-140 126h109l81 -78c9 -9 13 -19 13 -28c0 -14 -12 -33 -34 -33c-9 0 -20 5 -29 13z" />
    <glyph glyph-name="Ydieresis" unicode="&#x178;" horiz-adv-x="648" 
d="M638 744l-272 -421v-323h-78v321l-278 423h88l231 -353l223 353h86zM266 864c0 -34 -19 -56 -50 -56s-50 22 -50 56s19 56 50 56s50 -22 50 -56zM495 864c0 -34 -19 -56 -50 -56s-50 22 -50 56s19 56 50 56s50 -22 50 -56z" />
    <glyph glyph-name="minus" unicode="&#x2212;" 
d="M530 290h-470v72h470v-72z" />
    </font>
</defs>
</svg>
