<?xml version="1.0" standalone="no"?>
<!DOCTYPE svg PUBLIC "-//W3C//DTD SVG 1.1//EN" "http://www.w3.org/Graphics/SVG/1.1/DTD/svg11.dtd" >
<svg xmlns="http://www.w3.org/2000/svg" xmlns:xlink="http://www.w3.org/1999/xlink" version="1.1">
<metadata>
Created by FontForge 20160407 at Mon Jun 20 22:21:56 2016
 By Jimmy Wärting
Copyright (c) 1999 by Hubert Jocham. All rights reserved.
</metadata>
<defs>
<font id="NewJuneMedium" horiz-adv-x="590" >
  <font-face 
    font-family="NewJuneMedium"
    font-weight="400"
    font-stretch="normal"
    units-per-em="1000"
    panose-1="2 0 5 3 4 0 0 2 0 4"
    ascent="780"
    descent="-220"
    x-height="546"
    cap-height="744"
    bbox="-61 -198 1287 952"
    underline-thickness="50"
    underline-position="-100"
    stemh="84"
    stemv="94"
    unicode-range="U+000D-FB02"
  />
<missing-glyph horiz-adv-x="1000" 
 />
    <glyph glyph-name="fi" unicode="fi" horiz-adv-x="618" 
d="M555 710c0 -38 -23 -62 -60 -62s-59 24 -59 62s22 62 59 62s60 -24 60 -62zM198 457v-457h-93v457h-86v80h86v53c0 115 62 175 169 175c29 0 63 -6 119 -18l-13 -80c-49 11 -77 16 -100 16c-60 0 -81 -30 -82 -100v-46h346v-537h-97v457h-249z" />
    <glyph glyph-name="fl" unicode="fl" horiz-adv-x="613" 
d="M448 0v667c-82 12 -128 17 -165 17c-62 0 -85 -31 -85 -101v-46h169v-80h-169v-457h-93v457h-86v80h86v53c0 115 63 176 171 176c40 0 90 -6 171 -20l97 24v-770h-96z" />
    <glyph glyph-name=".notdef" horiz-adv-x="1000" 
 />
    <glyph glyph-name=".null" horiz-adv-x="0" 
 />
    <glyph glyph-name=".null" horiz-adv-x="0" 
 />
    <glyph glyph-name="CR" unicode="&#xd;" horiz-adv-x="259" 
 />
    <glyph glyph-name="space" unicode=" " horiz-adv-x="259" 
 />
    <glyph glyph-name="numbersign" unicode="#" horiz-adv-x="706" 
d="M678 530l-12 -80h-131l-31 -165h135l-13 -81h-137l-38 -204h-87l39 204h-158l-40 -204h-89l40 204h-125l12 81h130l32 165h-135l13 80h137l41 214h87l-41 -214h155l41 214h87l-41 -214h129zM449 450h-157l-32 -165h158z" />
    <glyph glyph-name="dollar" unicode="$" 
d="M246 431l128 -31c110 -26 175 -85 175 -197c0 -136 -99 -202 -207 -209v-123h-86v124c-54 5 -103 19 -159 38l-50 16l19 91l50 -18c67 -23 135 -42 202 -42c68 0 135 35 135 119c0 63 -31 94 -108 113l-121 29c-107 25 -174 87 -174 196c0 137 100 204 206 209v121h86
v-123c52 -6 99 -19 155 -38l50 -16l-19 -91l-51 17c-67 24 -129 43 -197 43c-71 0 -134 -35 -134 -118c0 -58 28 -93 100 -110z" />
    <glyph glyph-name="percent" unicode="%" horiz-adv-x="906" 
d="M410 566c0 -122 -72 -195 -187 -195s-185 74 -185 195c0 120 73 194 187 194c116 0 185 -74 185 -194zM327 566c0 79 -37 125 -104 125c-66 0 -101 -47 -101 -125c0 -80 37 -127 103 -127c67 0 102 46 102 127zM793 744l-586 -744h-101l588 744h99zM868 180
c0 -122 -72 -195 -187 -195s-185 74 -185 195c0 120 73 194 187 194c116 0 185 -74 185 -194zM785 180c0 79 -38 125 -104 125s-101 -47 -101 -125c0 -80 37 -127 103 -127c67 0 102 46 102 127z" />
    <glyph glyph-name="ampersand" unicode="&#x26;" horiz-adv-x="713" 
d="M668 0h-118l-47 57c-44 -38 -130 -69 -218 -69c-157 0 -237 91 -237 199c0 76 36 151 150 203c-52 58 -88 103 -88 180c0 124 97 186 216 186c120 0 205 -60 205 -175c0 -102 -67 -165 -192 -217l171 -187c30 34 51 109 51 185v85h88v-88c0 -92 -29 -190 -79 -244z
M442 579c0 56 -36 101 -117 101c-85 0 -125 -47 -125 -110c0 -51 27 -87 85 -146c104 39 157 80 157 155zM447 119l-194 209c-79 -32 -108 -79 -108 -139s41 -121 144 -121c61 0 125 23 158 51z" />
    <glyph glyph-name="quotesingle" unicode="'" horiz-adv-x="218" 
d="M161 763l-9 -211h-86l-10 211h105z" />
    <glyph glyph-name="parenleft" unicode="(" horiz-adv-x="298" 
d="M37 341c0 349 130 403 239 403v-78c-50 -4 -143 -33 -143 -325c0 -307 93 -333 143 -337v-78c-98 0 -239 61 -239 415z" />
    <glyph glyph-name="parenright" unicode=")" horiz-adv-x="298" 
d="M265 341c0 -354 -141 -415 -240 -415v78c51 4 143 30 143 337c0 292 -92 321 -143 325v78c110 0 240 -54 240 -403z" />
    <glyph glyph-name="asterisk" unicode="*" horiz-adv-x="551" 
d="M505 564l-174 -41l116 -137l-81 -56l-90 154l-91 -153l-80 56l116 137l-174 41l28 90l165 -68l-14 176h100l-15 -176l165 67z" />
    <glyph glyph-name="plus" unicode="+" 
d="M534 252h-197v-207h-89v207h-193v84h193v206h89v-206h197v-84z" />
    <glyph glyph-name="comma" unicode="," horiz-adv-x="219" 
d="M182 116l-48 -171c-7 -23 -23 -36 -48 -36c-38 0 -53 26 -45 58l38 149h103z" />
    <glyph glyph-name="hyphen" unicode="-" horiz-adv-x="418" 
d="M363 283h-308v86h308v-86z" />
    <glyph glyph-name="period" unicode="." horiz-adv-x="219" 
d="M170 54c0 -39 -22 -63 -59 -63c-38 0 -60 24 -60 63s22 63 60 63c37 0 59 -24 59 -63z" />
    <glyph glyph-name="slash" unicode="/" horiz-adv-x="416" 
d="M406 744l-303 -744h-93l306 744h90z" />
    <glyph glyph-name="zero" unicode="0" 
d="M437 238v265c0 105 -42 165 -140 165s-140 -62 -140 -165v-265c0 -103 42 -165 140 -165s140 60 140 165zM531 503v-264c0 -157 -77 -250 -232 -250c-154 0 -238 93 -238 247v269c0 154 84 247 238 247c155 0 232 -93 232 -249z" />
    <glyph glyph-name="one" unicode="1" 
d="M553 0h-492v84h215v574h-42c-28 0 -81 -3 -113 -20l-20 82c33 18 102 24 142 24h56c52 0 80 -28 80 -75v-585h174v-84z" />
    <glyph glyph-name="two" unicode="2" 
d="M302 751c123 0 230 -58 230 -213c0 -77 -31 -154 -132 -247l-227 -210h361v-81h-425c-35 0 -54 23 -54 56c0 19 7 40 23 55l248 234c75 70 109 120 110 194c0 90 -63 124 -142 124c-50 0 -111 -15 -174 -34l-45 -13l-17 85l45 14c73 22 138 36 199 36z" />
    <glyph glyph-name="three" unicode="3" 
d="M547 193c0 -125 -95 -201 -242 -201c-65 0 -137 16 -214 37l-47 14l18 84l48 -14c65 -18 137 -36 190 -36c100 0 151 45 151 115c0 37 -14 64 -40 93l-46 49h-144v80h143l37 50c18 27 31 57 31 94c0 63 -39 105 -136 105c-49 0 -112 -15 -174 -33l-45 -13l-17 85l46 13
c72 21 136 36 197 36c146 0 225 -67 225 -189c0 -50 -18 -92 -43 -129l-41 -55l49 -52c37 -39 54 -80 54 -133z" />
    <glyph glyph-name="four" unicode="4" 
d="M394 135h-309c-37 0 -54 23 -54 55c0 19 8 36 19 50l302 469c17 28 42 41 72 41c43 0 65 -20 65 -63v-471h84v-81h-84v-135h-95v135zM394 216v394l-254 -394h254z" />
    <glyph glyph-name="five" unicode="5" 
d="M290 78c109 0 161 65 161 161c0 107 -60 156 -163 156c-32 0 -83 -8 -133 -21l-67 -19v389h427v-88h-341v-199c51 15 88 22 133 22c148 0 239 -76 239 -240c0 -151 -95 -247 -252 -247c-62 0 -121 13 -194 35l-45 13l17 84l46 -13c62 -17 121 -33 172 -33z" />
    <glyph glyph-name="six" unicode="6" 
d="M154 513v-62c67 21 116 28 151 28c162 0 242 -86 242 -239c0 -140 -82 -246 -243 -246c-155 0 -247 101 -247 251v268c0 139 89 237 237 237c60 0 123 -13 194 -34l45 -13l-17 -85l-46 13c-60 17 -122 32 -172 32c-100 0 -144 -57 -144 -150zM154 369v-121
c0 -105 54 -171 152 -171c95 0 144 63 144 161c0 91 -40 155 -158 155c-31 0 -67 -6 -138 -24z" />
    <glyph glyph-name="seven" unicode="7" 
d="M539 637l-264 -637h-106l278 659h-387v85h431c40 0 61 -21 61 -55c0 -18 -7 -37 -13 -52z" />
    <glyph glyph-name="eight" unicode="8" 
d="M298 -10c-157 0 -257 75 -257 199c0 53 17 96 54 135l48 52l-40 55c-25 38 -42 79 -42 129c0 119 89 192 233 192c147 0 236 -73 236 -192c0 -50 -17 -91 -43 -129l-39 -55l48 -52c36 -39 54 -82 54 -135c0 -124 -96 -199 -252 -199zM296 73c105 0 158 46 158 116
c0 37 -14 65 -40 94l-45 49h-148l-45 -49c-26 -29 -39 -57 -39 -94c0 -69 56 -116 159 -116zM295 666c-97 0 -140 -47 -140 -109c0 -37 14 -67 32 -95l34 -50h149l34 50c18 28 32 58 32 95c0 62 -44 109 -141 109z" />
    <glyph glyph-name="nine" unicode="9" 
d="M439 231v62c-68 -21 -116 -28 -152 -28c-162 0 -242 85 -242 238c0 140 83 247 243 247c155 0 247 -101 247 -251v-268c0 -139 -89 -237 -237 -237c-60 0 -123 13 -193 34l-46 13l18 85l45 -13c60 -17 122 -33 172 -33c100 0 145 58 145 151zM439 375v121
c0 105 -54 170 -153 170c-94 0 -144 -63 -144 -161c0 -93 42 -154 159 -154c30 0 66 5 138 24z" />
    <glyph glyph-name="colon" unicode=":" horiz-adv-x="219" 
d="M170 54c0 -39 -22 -63 -59 -63c-38 0 -60 24 -60 63s22 63 60 63c37 0 59 -24 59 -63zM170 477c0 -39 -22 -63 -59 -63c-38 0 -60 24 -60 63s22 63 60 63c37 0 59 -24 59 -63z" />
    <glyph glyph-name="semicolon" unicode=";" horiz-adv-x="219" 
d="M182 116l-48 -171c-7 -23 -23 -36 -48 -36c-38 0 -53 26 -45 58l38 149h103zM184 477c0 -39 -23 -63 -60 -63s-60 24 -60 63s23 63 60 63s60 -24 60 -63z" />
    <glyph glyph-name="less" unicode="&#x3c;" 
d="M543 56l-449 174c-30 11 -46 32 -46 65c0 32 16 53 45 64l450 176v-102l-390 -140l390 -139v-98z" />
    <glyph glyph-name="equal" unicode="=" 
d="M534 171h-479v84h479v-84zM534 341h-479v84h479v-84z" />
    <glyph glyph-name="greater" unicode="&#x3e;" 
d="M497 230l-450 -174v98l391 139l-391 140v102l451 -176c29 -11 44 -32 44 -64c0 -33 -15 -54 -45 -65z" />
    <glyph glyph-name="question" unicode="?" horiz-adv-x="460" 
d="M229 662c-37 0 -83 -6 -138 -22l-45 -13l-16 81l44 13c61 19 113 26 160 26c118 0 196 -62 196 -169c0 -73 -27 -118 -76 -168l-88 -90v-79l-91 -16v63c0 44 3 62 34 94l71 74c39 42 56 66 56 116c0 53 -32 90 -107 90zM280 53c0 -39 -22 -62 -59 -62
c-38 0 -60 23 -60 62s22 62 60 62c37 0 59 -23 59 -62z" />
    <glyph glyph-name="at" unicode="@" horiz-adv-x="933" 
d="M849 406c0 -152 -96 -253 -198 -253c-45 0 -68 25 -97 25c-40 0 -75 -16 -126 -16c-110 0 -161 75 -161 169c0 116 73 218 209 218c24 0 46 -1 94 -7l4 33h74l-45 -340c1 -1 26 -19 52 -19c56 0 120 68 120 191c0 167 -124 273 -289 273c-194 0 -323 -139 -323 -329
c0 -169 103 -295 277 -295c91 0 153 38 226 38c19 0 44 -4 64 -16l50 -30l-28 -55l-48 22c-13 6 -27 9 -43 9c-59 0 -123 -35 -227 -35c-219 0 -348 160 -348 362c0 234 169 402 400 402c210 0 363 -143 363 -347zM529 238l33 242c-38 5 -61 6 -86 6
c-94 0 -132 -76 -132 -157c0 -58 27 -104 93 -104c19 0 37 3 92 13z" />
    <glyph glyph-name="A" unicode="A" horiz-adv-x="696" 
d="M683 0h-110l-58 157h-336l-58 -157h-108l260 698c12 35 38 53 78 53c41 0 66 -18 78 -52zM490 241l-140 402l-146 -402h286z" />
    <glyph glyph-name="B" unicode="B" horiz-adv-x="684" 
d="M407 0h-254c-49 0 -80 29 -80 74v597c0 45 29 73 79 73h249c126 0 205 -60 205 -182c0 -50 -18 -91 -43 -129l-41 -55l52 -53c38 -39 60 -83 60 -136c0 -117 -84 -189 -227 -189zM505 559c0 61 -30 104 -113 104h-216v-249h262l37 53c19 27 30 57 30 92zM440 333h-264
v-251h228c84 0 128 42 128 106c0 36 -16 66 -42 93z" />
    <glyph glyph-name="C" unicode="C" horiz-adv-x="675" 
d="M51 370c0 257 145 378 336 378c63 0 125 -14 199 -37l54 -17l-17 -90l-57 17c-69 21 -124 35 -172 35c-144 0 -234 -88 -234 -286s92 -285 235 -285c47 0 103 13 171 34l57 18l17 -91l-54 -16c-74 -23 -136 -38 -199 -38c-195 0 -336 116 -336 378z" />
    <glyph glyph-name="D" unicode="D" horiz-adv-x="733" 
d="M682 370c0 -236 -138 -370 -340 -370h-189c-49 0 -80 29 -80 74v595c0 46 31 75 80 75h192c204 0 337 -139 337 -374zM577 370c0 176 -90 289 -245 289h-153v-572h160c151 0 238 102 238 283z" />
    <glyph glyph-name="E" unicode="E" horiz-adv-x="620" 
d="M569 0h-416c-49 0 -80 29 -80 74v595c0 46 31 75 80 75h413v-86h-387v-236h340v-84h-340v-252h390v-86z" />
    <glyph glyph-name="F" unicode="F" horiz-adv-x="586" 
d="M556 658h-377v-250h345v-84h-345v-324h-106v669c0 46 31 75 80 75h403v-86z" />
    <glyph glyph-name="G" unicode="G" horiz-adv-x="730" 
d="M407 -8c-204 0 -356 117 -356 378c0 255 150 378 351 378c66 0 130 -15 208 -38l56 -17l-19 -90l-60 17c-72 21 -132 35 -181 35c-153 0 -249 -89 -249 -287c0 -199 103 -290 255 -290c52 0 96 5 156 17v188h-174v82h195c49 0 79 -30 79 -74v-182c0 -52 -18 -76 -67 -89
c-63 -17 -134 -28 -194 -28z" />
    <glyph glyph-name="H" unicode="H" horiz-adv-x="718" 
d="M644 0h-104v335h-362v-335h-105v744h105v-324h362v324h104v-744z" />
    <glyph glyph-name="I" unicode="I" horiz-adv-x="253" 
d="M179 0h-106v744h106v-744z" />
    <glyph glyph-name="J" unicode="J" horiz-adv-x="390" 
d="M321 744v-557c0 -125 -69 -190 -184 -190c-32 0 -71 6 -127 19l14 88c51 -12 81 -17 105 -17c63 0 87 33 87 107v550h105z" />
    <glyph glyph-name="K" unicode="K" horiz-adv-x="668" 
d="M644 0h-112l-191 403l-95 -112c-39 -46 -70 -80 -70 -146v-145h-103v744h104v-408l332 408h127l-218 -259z" />
    <glyph glyph-name="L" unicode="L" horiz-adv-x="583" 
d="M541 0h-388c-49 0 -80 29 -80 74v670h107v-654h361v-90z" />
    <glyph glyph-name="M" unicode="M" horiz-adv-x="878" 
d="M439 125l201 560c14 40 39 64 88 64c44 0 76 -21 76 -72v-677h-95v613l-208 -575c-9 -29 -30 -42 -65 -42s-56 14 -66 42l-204 576v-614h-93v677c0 51 35 72 80 72c51 0 80 -24 93 -64z" />
    <glyph glyph-name="N" unicode="N" horiz-adv-x="742" 
d="M168 602v-602h-95v681c0 47 29 70 73 70c36 0 60 -17 76 -44l352 -563v600h95v-680c0 -46 -28 -69 -73 -69c-36 0 -59 17 -75 44z" />
    <glyph glyph-name="O" unicode="O" horiz-adv-x="797" 
d="M746 370c0 -245 -143 -378 -350 -378c-206 0 -345 136 -345 378c0 241 143 378 350 378c206 0 345 -136 345 -378zM640 370c0 188 -94 294 -244 294s-239 -106 -239 -294c0 -189 94 -295 244 -295c149 0 239 105 239 295z" />
    <glyph glyph-name="P" unicode="P" horiz-adv-x="638" 
d="M596 515c0 -144 -95 -230 -235 -230h-185v-285h-103v669c0 46 31 75 80 75h218c132 0 225 -87 225 -229zM500 515c0 97 -60 147 -146 147h-178v-293h180c89 0 144 53 144 146z" />
    <glyph glyph-name="Q" unicode="Q" horiz-adv-x="781" 
d="M745 371c0 -162 -71 -274 -186 -324c0 0 70 -33 141 -33h33v-82h-37c-137 0 -178 68 -292 68c-209 0 -353 126 -353 370c0 241 143 378 350 378c206 0 344 -136 344 -377zM640 370c0 188 -94 294 -244 294s-239 -106 -239 -294c0 -189 94 -289 244 -289
c149 0 239 99 239 289z" />
    <glyph glyph-name="R" unicode="R" horiz-adv-x="670" 
d="M648 0h-113l-133 293h-224v-293h-105v671c0 45 30 73 79 73h244c133 0 213 -71 213 -204c0 -57 -25 -107 -57 -148l-55 -69zM508 538c0 72 -33 124 -121 124h-209v-287h247l38 52c23 33 45 69 45 111z" />
    <glyph glyph-name="S" unicode="S" horiz-adv-x="643" 
d="M268 432l139 -31c117 -26 185 -85 185 -198c0 -145 -115 -211 -241 -211c-87 0 -157 15 -242 42l-54 18l21 92l55 -19c70 -24 146 -44 218 -44c70 0 140 34 140 118c0 59 -31 94 -107 111l-139 31c-117 26 -185 87 -185 197c0 146 115 211 241 211c87 0 154 -16 237 -43
l55 -18l-22 -92l-55 19c-70 24 -141 44 -213 44c-74 0 -140 -33 -140 -117c0 -59 30 -93 107 -110z" />
    <glyph glyph-name="T" unicode="T" horiz-adv-x="628" 
d="M599 657h-230v-657h-107v657h-230v87h567v-87z" />
    <glyph glyph-name="U" unicode="U" horiz-adv-x="724" 
d="M655 266c0 -174 -104 -279 -294 -279c-189 0 -293 105 -293 279v478h105v-480c0 -120 62 -187 188 -187c129 0 189 67 189 187v480h105v-478z" />
    <glyph glyph-name="V" unicode="V" horiz-adv-x="679" 
d="M665 744l-255 -700c-11 -33 -35 -50 -74 -50s-62 17 -73 50l-250 700h111l216 -630l217 630h108z" />
    <glyph glyph-name="W" unicode="W" horiz-adv-x="928" 
d="M906 744l-131 -695c-8 -37 -33 -57 -74 -57s-67 17 -76 52l-161 571l-166 -571c-10 -34 -37 -51 -75 -51c-41 0 -66 21 -72 57l-129 694h100l109 -626l170 581c8 30 31 45 65 45s57 -15 65 -45l166 -582l110 627h99z" />
    <glyph glyph-name="X" unicode="X" horiz-adv-x="710" 
d="M670 0h-120l-194 304l-199 -304h-118l250 375l-246 369h121l194 -295l191 295h117l-242 -367z" />
    <glyph glyph-name="Y" unicode="Y" horiz-adv-x="669" 
d="M660 744l-270 -426v-318h-106v316l-275 428h118l212 -334l205 334h116z" />
    <glyph glyph-name="Z" unicode="Z" horiz-adv-x="653" 
d="M579 633l-405 -549h427v-84h-492c-40 0 -59 25 -59 60c0 20 7 34 19 50l407 549h-413v85h476c40 0 59 -25 59 -61c0 -19 -6 -33 -19 -50z" />
    <glyph glyph-name="bracketleft" unicode="[" horiz-adv-x="298" 
d="M275 -65h-204v809h204v-78h-112v-653h112v-78z" />
    <glyph glyph-name="backslash" unicode="\" horiz-adv-x="416" 
d="M313 0l-303 744h90l306 -744h-93z" />
    <glyph glyph-name="bracketright" unicode="]" horiz-adv-x="298" 
d="M230 -65h-205v78h112v653h-112v78h205v-809z" />
    <glyph glyph-name="asciicircum" unicode="^" 
d="M535 43h-102l-140 387l-139 -387h-99l178 458c10 29 29 44 61 44c31 0 50 -16 61 -44z" />
    <glyph glyph-name="underscore" unicode="_" horiz-adv-x="500" 
d="M502 -168h-504v77h504v-77z" />
    <glyph glyph-name="grave" unicode="`" horiz-adv-x="542" 
d="M317 634l-149 129h132l79 -75c11 -11 15 -22 15 -33c0 -16 -13 -37 -39 -37c-14 0 -27 6 -38 16z" />
    <glyph glyph-name="a" unicode="a" horiz-adv-x="600" 
d="M573 56l-36 -67l-49 28c-21 12 -45 16 -74 8l-37 -9c-47 -12 -105 -23 -147 -23c-115 0 -183 57 -183 153c0 129 108 165 230 165h140v54c0 76 -47 103 -117 103c-48 0 -109 -13 -170 -30l-47 -14l-15 81l45 13c70 21 132 34 192 34c114 0 203 -52 203 -185v-272z
M418 100v138h-150c-80 0 -127 -25 -127 -88c0 -55 38 -80 104 -80c29 0 73 6 119 17z" />
    <glyph glyph-name="b" unicode="b" horiz-adv-x="598" 
d="M297 466c-28 -1 -58 -4 -134 -24v-345c77 -17 102 -19 131 -19c116 0 163 80 163 194c0 117 -44 194 -160 194zM311 549c162 0 240 -99 240 -277c0 -168 -94 -276 -253 -276c-38 0 -86 3 -167 24c-41 11 -62 34 -62 77v656c15 3 79 15 94 18v-250c66 22 115 28 148 28z
" />
    <glyph glyph-name="c" unicode="c" horiz-adv-x="528" 
d="M145 273c0 -131 54 -194 158 -194c32 0 75 10 131 26l45 12l15 -83l-44 -13c-62 -17 -112 -27 -155 -27c-147 0 -248 86 -248 279c0 182 101 279 248 279c43 0 93 -11 155 -28l44 -13l-15 -83l-45 13c-56 15 -100 25 -132 25c-103 0 -157 -63 -157 -193z" />
    <glyph glyph-name="d" unicode="d" horiz-adv-x="598" 
d="M301 466c-116 0 -160 -77 -160 -194c0 -115 47 -194 163 -194c30 0 59 2 131 19v345c-76 19 -106 23 -134 24zM435 753c15 3 79 15 94 18v-674c0 -43 -21 -67 -62 -77c-87 -22 -132 -24 -170 -24c-159 0 -250 100 -250 275c0 176 86 278 245 278c37 0 74 -7 143 -28v232z
" />
    <glyph glyph-name="e" unicode="e" horiz-adv-x="585" 
d="M47 272c0 196 116 281 250 281c147 0 246 -86 246 -267c0 -32 -15 -50 -47 -50h-354c6 -109 79 -158 175 -158c40 0 83 7 149 27l54 17l16 -79l-53 -17c-72 -23 -119 -32 -171 -32c-158 0 -265 92 -265 278zM448 311c0 91 -45 167 -153 167c-91 0 -147 -64 -153 -167h306
z" />
    <glyph glyph-name="f" unicode="f" horiz-adv-x="383" 
d="M393 747l-13 -80c-49 11 -77 16 -100 16c-60 0 -82 -30 -82 -100v-46h169v-80h-169v-457h-93v457h-86v80h86v53c0 115 62 175 169 175c29 0 65 -6 119 -18z" />
    <glyph glyph-name="g" unicode="g" horiz-adv-x="601" 
d="M425 372c0 74 -58 101 -144 101s-144 -27 -144 -101c0 -78 59 -104 144 -104c82 0 144 28 144 104zM482 -16c0 34 -26 59 -92 59h-221c-20 -22 -29 -46 -29 -74c0 -58 66 -79 155 -79c128 0 187 32 187 94zM52 -34c0 47 21 82 39 104l50 61c13 17 18 31 18 47
c0 23 -9 38 -36 56c-33 24 -76 60 -76 138c0 116 92 172 231 172h57c53 0 80 3 104 10l120 33l20 -75l-112 -32s48 -33 48 -108c0 -114 -87 -169 -231 -169c-38 0 -58 5 -58 5c7 -7 12 -21 12 -36c0 -17 -5 -33 -23 -55h179c118 0 175 -53 175 -130
c0 -106 -88 -167 -281 -167c-124 0 -236 38 -236 146z" />
    <glyph glyph-name="h" unicode="h" horiz-adv-x="573" 
d="M298 463c-28 0 -57 -3 -135 -23v-440h-94v753l94 18v-251c70 22 115 29 149 29c150 0 199 -88 199 -196v-353h-94v348c0 65 -28 115 -119 115z" />
    <glyph glyph-name="i" unicode="i" horiz-adv-x="246" 
d="M171 0h-95v546h95v-546zM183 705c0 -38 -23 -62 -60 -62s-60 24 -60 62s23 62 60 62s60 -24 60 -62z" />
    <glyph glyph-name="j" unicode="j" horiz-adv-x="253" 
d="M178 546v-551c0 -115 -65 -176 -181 -176v77c64 1 85 34 85 102v548h96zM189 705c0 -38 -22 -62 -59 -62c-38 0 -60 24 -60 62s22 62 60 62c37 0 59 -24 59 -62z" />
    <glyph glyph-name="k" unicode="k" horiz-adv-x="560" 
d="M542 0h-110l-147 284l-58 -58c-37 -37 -65 -68 -65 -135v-91h-93v753l93 18v-505l252 280h119l-175 -189z" />
    <glyph glyph-name="l" unicode="l" horiz-adv-x="235" 
d="M166 0h-97v752l97 19v-771z" />
    <glyph glyph-name="m" unicode="m" horiz-adv-x="867" 
d="M163 445v-445h-94v449c0 42 22 64 62 76c61 20 112 25 156 25c63 0 109 -16 139 -44c59 26 120 44 182 44c135 0 190 -76 190 -188v-362h-94v353c0 67 -27 112 -106 112c-50 0 -85 -12 -130 -29c9 -22 14 -47 14 -76v-360h-94v353c0 67 -26 112 -107 112
c-29 0 -62 -2 -118 -20z" />
    <glyph glyph-name="n" unicode="n" horiz-adv-x="584" 
d="M164 445v-445h-95v449c0 42 22 66 62 76c85 23 136 25 174 25c151 0 210 -85 210 -196v-354h-95v345c0 69 -28 120 -123 120c-30 0 -61 -2 -133 -20z" />
    <glyph glyph-name="o" unicode="o" horiz-adv-x="612" 
d="M566 273c0 -179 -104 -279 -262 -279s-257 102 -257 279c0 178 103 279 261 279s258 -101 258 -279zM469 273c0 128 -60 202 -165 202s-160 -74 -160 -202c0 -131 59 -202 164 -202s161 72 161 202z" />
    <glyph glyph-name="p" unicode="p" horiz-adv-x="598" 
d="M297 80c116 0 160 76 160 194c0 114 -47 193 -163 193c-34 0 -63 -3 -131 -19v-344c76 -20 106 -24 134 -24zM163 -168l-94 -18v635c0 42 21 66 62 76c87 22 132 25 170 25c159 0 250 -101 250 -275c0 -176 -86 -279 -245 -279c-37 0 -74 7 -143 28v-192z" />
    <glyph glyph-name="q" unicode="q" horiz-adv-x="598" 
d="M301 80c28 0 57 3 134 24v344c-77 18 -102 19 -131 19c-116 0 -163 -79 -163 -193c0 -118 44 -194 160 -194zM287 -4c-162 0 -240 100 -240 278c0 168 94 276 253 276c38 0 86 -4 167 -25c41 -10 62 -34 62 -76v-617l-94 -18v210c-66 -21 -115 -28 -148 -28z" />
    <glyph glyph-name="r" unicode="r" horiz-adv-x="365" 
d="M353 550v-86c-68 0 -127 -3 -189 -20v-444h-95v448c0 43 22 66 62 77c75 21 126 25 222 25z" />
    <glyph glyph-name="s" unicode="s" horiz-adv-x="549" 
d="M236 320l106 -18c95 -16 149 -65 149 -146c0 -111 -92 -163 -196 -163c-72 0 -127 12 -196 32l-44 14l16 81l46 -14c59 -17 117 -32 178 -32c55 0 103 22 103 77c0 38 -24 63 -86 72l-105 19c-95 16 -149 66 -149 147c0 111 92 163 196 163c72 0 126 -12 195 -33l45 -13
l-16 -82l-47 14c-58 17 -117 32 -178 32c-55 0 -103 -22 -103 -77c0 -38 24 -62 86 -73z" />
    <glyph glyph-name="t" unicode="t" horiz-adv-x="417" 
d="M376 92l13 -80c-54 -12 -91 -18 -121 -18c-112 0 -166 62 -166 182v281h-84v80h84v131l94 18v-149h179v-80h-179v-280c0 -67 21 -101 82 -101c22 0 50 5 98 16z" />
    <glyph glyph-name="u" unicode="u" horiz-adv-x="584" 
d="M420 100v446h95v-449c0 -43 -22 -67 -62 -77c-85 -22 -136 -24 -174 -24c-151 0 -210 84 -210 196v354h94v-345c0 -69 30 -121 123 -121c30 0 62 2 134 20z" />
    <glyph glyph-name="v" unicode="v" horiz-adv-x="550" 
d="M528 546l-186 -509c-10 -30 -37 -47 -72 -47c-36 0 -61 16 -72 47l-176 509h104l147 -451l153 451h102z" />
    <glyph glyph-name="w" unicode="w" horiz-adv-x="799" 
d="M768 546l-109 -503c-7 -34 -33 -53 -69 -53c-40 0 -60 17 -70 50l-121 378l-128 -380c-11 -32 -34 -47 -70 -47c-38 0 -63 18 -70 52l-100 503h98l80 -445l135 410c8 26 26 38 56 38c29 0 48 -13 56 -38l133 -412l83 447h96z" />
    <glyph glyph-name="x" unicode="x" horiz-adv-x="560" 
d="M537 0h-114l-142 210l-143 -210h-111l194 274l-190 272h113l140 -203l132 203h112l-185 -266z" />
    <glyph glyph-name="y" unicode="y" horiz-adv-x="543" 
d="M162 -182c-30 0 -62 5 -114 19l13 80c48 -12 73 -18 97 -18c49 0 66 25 74 58l7 25l-217 564h106l160 -450l137 450h103l-202 -600c-29 -86 -76 -128 -164 -128z" />
    <glyph glyph-name="z" unicode="z" horiz-adv-x="539" 
d="M59 546h383c37 0 54 -24 54 -56c0 -18 -8 -36 -20 -50l-313 -364h333v-76h-395c-37 0 -54 23 -54 55c0 19 8 37 20 52l313 362h-321v77z" />
    <glyph glyph-name="braceleft" unicode="{" horiz-adv-x="293" 
d="M170 339c25 -16 41 -44 41 -77c0 -56 -47 -120 -47 -186c0 -43 25 -64 64 -64h42v-79h-50c-86 0 -144 48 -144 132c0 81 51 147 51 193c0 29 -17 50 -70 50v61c53 0 70 20 70 50c0 45 -51 113 -51 193c0 84 58 132 144 132h50v-80h-42c-39 0 -64 -20 -64 -64
c0 -66 47 -129 47 -185c0 -34 -16 -61 -41 -76z" />
    <glyph glyph-name="bar" unicode="|" horiz-adv-x="233" 
d="M161 -180h-89v943h89v-943z" />
    <glyph glyph-name="braceright" unicode="}" horiz-adv-x="293" 
d="M128 339c-26 15 -41 42 -41 76c0 56 47 119 47 185c0 43 -25 64 -64 64h-43v80h51c86 0 144 -48 144 -132c0 -81 -52 -148 -52 -193c0 -30 18 -50 71 -50v-61c-53 0 -71 -21 -71 -50c0 -46 52 -113 52 -193c0 -84 -58 -132 -144 -132h-51v79h43c39 0 64 20 64 64
c0 66 -47 130 -47 186c0 33 15 61 41 77z" />
    <glyph glyph-name="asciitilde" unicode="~" 
d="M392 218c-33 0 -65 10 -94 31l-56 41c-17 13 -33 20 -50 20c-31 0 -59 -16 -86 -82l-67 43c36 92 97 126 156 126c33 0 64 -10 94 -31l55 -41c17 -13 33 -20 51 -20c30 0 58 17 85 82l66 -43c-35 -92 -95 -126 -154 -126z" />
    <glyph glyph-name="Aring" unicode="&#xc5;" horiz-adv-x="696" 
d="M683 0h-110l-58 157h-336l-58 -157h-108l267 717c-27 16 -44 48 -44 83c0 65 51 108 115 108c65 0 117 -43 117 -108c0 -36 -18 -67 -46 -84zM490 241l-140 402l-146 -402h286zM351 856c-36 0 -58 -25 -58 -56c0 -33 23 -57 58 -57s59 24 59 57c0 32 -23 56 -59 56z" />
    <glyph glyph-name="dagger" unicode="&#x2020;" horiz-adv-x="557" 
d="M516 406l-199 18l19 -610h-113l19 610l-201 -18v112l200 -17l-19 243h115l-18 -243l197 17v-112z" />
    <glyph glyph-name="degree" unicode="&#xb0;" horiz-adv-x="476" 
d="M429 569c0 -113 -73 -196 -189 -196c-118 0 -189 84 -189 196c0 110 74 195 191 195s187 -85 187 -195zM351 569c0 74 -41 126 -111 126c-72 0 -109 -53 -109 -126c0 -75 40 -129 111 -129s109 53 109 129z" />
    <glyph glyph-name="cent" unicode="&#xa2;" 
d="M160 273c0 -131 55 -193 159 -193c32 0 74 10 131 25l45 13l15 -83l-45 -13c-46 -12 -84 -21 -118 -24v-130h-86v131c-120 17 -199 103 -199 274c0 161 79 254 199 274v128h86v-128c34 -3 72 -12 118 -24l45 -12l-15 -83l-45 12c-57 15 -100 25 -132 25
c-104 0 -158 -62 -158 -192z" />
    <glyph glyph-name="sterling" unicode="&#xa3;" 
d="M392 0h-326c-27 0 -38 17 -38 40c0 22 11 41 38 41c111 0 130 65 130 124c0 22 -4 44 -13 67h-127v73h92c-53 89 -77 130 -77 207c0 125 93 199 225 199c60 0 123 -13 195 -35l45 -14l-17 -85l-45 14c-63 19 -121 32 -171 32c-96 0 -136 -47 -136 -113
c0 -65 17 -90 79 -204h186v-74h-156c7 -23 10 -47 10 -67c0 -45 -10 -85 -43 -122h146c58 0 94 19 95 81h76c0 -104 -58 -164 -168 -164z" />
    <glyph glyph-name="section" unicode="&#xa7;" 
d="M149 371v-51c0 -91 36 -151 155 -151c30 0 66 5 138 24v52c0 91 -36 150 -155 150c-35 0 -69 -6 -138 -24zM53 321v192c0 139 89 237 241 237c61 0 123 -13 194 -34l45 -13l-17 -85l-46 13c-60 17 -122 32 -171 32c-104 0 -150 -57 -150 -150v-62c67 21 116 28 151 28
c163 0 238 -82 238 -234v-194c0 -139 -90 -237 -241 -237c-61 0 -124 13 -194 33l-45 14l17 84l45 -12c60 -17 123 -33 172 -33c104 0 150 58 150 150v63c-68 -22 -116 -28 -151 -28c-163 0 -238 83 -238 236z" />
    <glyph glyph-name="bullet" unicode="&#x2022;" horiz-adv-x="440" 
d="M352 332c0 -90 -49 -143 -131 -143c-81 0 -130 53 -130 143c0 91 49 143 130 143c82 0 131 -52 131 -143z" />
    <glyph glyph-name="paragraph" unicode="&#xb6;" horiz-adv-x="635" 
d="M572 -186h-84v854h-130v-854h-85v412c-155 5 -231 118 -231 259c0 143 80 259 247 259h283v-930z" />
    <glyph glyph-name="germandbls" unicode="&#xdf;" horiz-adv-x="571" 
d="M529 186c0 -113 -80 -186 -204 -186h-85v80h83c81 0 113 46 113 107c0 37 -17 62 -47 90l-62 57c-31 28 -35 62 -12 97l42 62c16 24 26 56 26 91c0 59 -46 105 -115 105c-73 0 -109 -42 -109 -122v-567h-94v566c0 146 93 204 203 204c119 0 208 -65 208 -185
c0 -59 -22 -99 -40 -125l-48 -69l68 -59c46 -40 73 -85 73 -146z" />
    <glyph glyph-name="registered" unicode="&#xae;" horiz-adv-x="933" 
d="M656 169h-79l-66 142h-118v-142h-73v350c0 39 21 53 59 53h130c75 0 122 -46 122 -116c0 -23 -6 -51 -24 -77l-31 -45zM557 455c0 38 -25 58 -62 58h-102v-143h126l24 36c12 19 14 35 14 49zM857 367c0 -227 -177 -392 -391 -392c-216 0 -392 165 -392 392
c0 229 176 390 392 390c214 0 391 -158 391 -390zM783 367c0 193 -141 321 -317 321c-178 0 -319 -130 -319 -321c0 -188 141 -322 319 -322c176 0 317 134 317 322z" />
    <glyph glyph-name="copyright" unicode="&#xa9;" horiz-adv-x="933" 
d="M857 367c0 -227 -177 -392 -391 -392c-216 0 -392 165 -392 392c0 229 176 390 392 390c214 0 391 -158 391 -390zM783 367c0 193 -141 321 -317 321c-178 0 -319 -130 -319 -321c0 -188 141 -322 319 -322c176 0 317 134 317 322zM350 365c0 -95 43 -140 122 -140
c25 0 56 7 100 18l35 10l14 -65l-35 -10c-48 -13 -86 -20 -119 -20c-116 0 -195 64 -195 207c0 138 79 210 195 210c33 0 71 -8 119 -21l35 -9l-14 -65l-35 9c-44 11 -75 18 -100 18c-80 0 -122 -46 -122 -142z" />
    <glyph glyph-name="trademark" unicode="&#x2122;" horiz-adv-x="882" 
d="M819 332h-66v295l-89 -269c-5 -18 -19 -27 -40 -27c-20 0 -34 9 -40 27l-87 267v-293h-66v372c0 29 23 45 52 45c31 0 49 -13 57 -38l85 -278l88 277c7 24 27 36 56 36c32 0 50 -15 50 -42v-372zM368 682h-120v-350h-75v350h-119v62h314v-62z" />
    <glyph glyph-name="acute" unicode="&#xb4;" horiz-adv-x="542" 
d="M414 763l-149 -129c-11 -10 -24 -16 -38 -16c-26 0 -39 21 -39 37c0 11 4 22 15 33l79 75h132z" />
    <glyph glyph-name="dieresis" unicode="&#xa8;" horiz-adv-x="572" 
d="M231 705c0 -38 -22 -62 -58 -62s-58 24 -58 62s22 62 58 62s58 -24 58 -62zM460 705c0 -38 -22 -62 -58 -62c-37 0 -59 24 -59 62s22 62 59 62c36 0 58 -24 58 -62z" />
    <glyph glyph-name="notequal" unicode="&#x2260;" 
d="M535 172h-258l-64 -132h-71l64 132h-150v82h187l41 90h-228v81h263l70 149h70l-70 -149h146v-81h-181l-40 -90h221v-82z" />
    <glyph glyph-name="AE" unicode="&#xc6;" horiz-adv-x="1033" 
d="M983 0h-416c-50 0 -79 29 -79 73v84h-302l-62 -157h-111l278 677c18 44 51 67 104 67h585v-86h-388v-236h347v-83h-347v-253h391v-86zM488 241v417h-107l-165 -417h272z" />
    <glyph glyph-name="Oslash" unicode="&#xd8;" horiz-adv-x="797" 
d="M746 370c0 -245 -143 -378 -350 -378c-55 0 -106 9 -149 29l-40 -73h-82l58 108c-84 63 -132 170 -132 314c0 241 143 378 350 378c52 0 101 -9 143 -26l39 70h81l-56 -104c86 -63 138 -171 138 -318zM640 370c0 101 -29 182 -80 229l-271 -500c32 -16 70 -25 112 -25
c149 0 239 106 239 296zM157 370c0 -99 27 -179 75 -227l270 500c-31 13 -66 22 -106 22c-150 0 -239 -107 -239 -295z" />
    <glyph glyph-name="infinity" unicode="&#x221e;" horiz-adv-x="801" 
d="M759 297c0 -124 -64 -214 -183 -214c-29 0 -67 4 -108 25l-65 35l-67 -35c-42 -21 -77 -25 -108 -25c-119 0 -183 90 -183 214c0 127 62 214 183 214c31 0 69 -5 108 -24l66 -34l66 33c40 21 77 25 108 25c120 0 183 -87 183 -214zM676 297c0 96 -42 137 -102 137
c-24 0 -51 -6 -79 -18l-51 -22v-193l56 -24c28 -12 51 -16 74 -16c58 0 102 42 102 136zM360 201v193l-51 22c-27 12 -54 18 -78 18c-61 0 -103 -41 -103 -137c0 -94 44 -136 103 -136c25 0 51 5 79 18z" />
    <glyph glyph-name="plusminus" unicode="&#xb1;" 
d="M534 290h-197v-162h-89v162h-193v83h193v169h89v-169h197v-83zM534 0h-479v79h479v-79z" />
    <glyph glyph-name="lessequal" unicode="&#x2264;" 
d="M541 120l-446 146c-30 9 -46 29 -46 62c0 32 16 50 45 60l447 148v-95l-386 -115l386 -115v-91zM539 0h-479v79h479v-79z" />
    <glyph glyph-name="greaterequal" unicode="&#x2265;" 
d="M495 266l-446 -146v91l386 115l-386 115v95l446 -148c30 -10 46 -28 46 -60c0 -33 -16 -53 -46 -62zM530 0h-479v79h479v-79z" />
    <glyph glyph-name="yen" unicode="&#xa5;" 
d="M568 744l-183 -323h160v-72h-195v-69h195v-73h-195v-207h-106v207h-197v73h197v69h-197v72h160l-184 323h114l162 -310l158 310h111z" />
    <glyph glyph-name="mu" unicode="&#xb5;" 
d="M69 546h94v-345c0 -70 29 -119 123 -119c30 0 62 2 134 20v444h95v-447c0 -43 -22 -67 -62 -77c-85 -23 -136 -24 -174 -24c-51 -1 -92 8 -116 29v-213h-94v732z" />
    <glyph glyph-name="partialdiff" unicode="&#x2202;" 
d="M443 451v62c0 93 -46 150 -145 150c-50 0 -112 -15 -172 -32l-45 -13l-18 85l45 13c71 21 133 34 194 34c148 0 237 -98 237 -237v-268c0 -150 -92 -251 -247 -251c-159 0 -243 101 -243 245c0 150 86 240 243 240c35 0 83 -7 151 -28zM443 248v121
c-75 19 -109 25 -139 25c-119 0 -158 -65 -158 -156c0 -98 54 -161 148 -161c99 0 149 66 149 171z" />
    <glyph glyph-name="summation" unicode="&#x2211;" horiz-adv-x="689" 
d="M658 -179h-553c-37 0 -59 24 -59 58c0 15 5 32 14 45l258 358l-254 352c-11 14 -18 33 -18 52c0 34 22 58 59 58h543v-182h-89v95h-395l272 -374l-272 -375h405v104h89v-191z" />
    <glyph glyph-name="product" unicode="&#x220f;" horiz-adv-x="677" 
d="M645 659h-111v-659h-104v659h-183v-659h-104v659h-111v85h613v-85z" />
    <glyph glyph-name="pi" unicode="&#x3c0;" horiz-adv-x="702" 
d="M490 468v-291c0 -70 22 -101 82 -101c22 0 49 4 98 16l13 -80c-54 -12 -92 -18 -121 -18c-110 0 -166 60 -166 175v299h-185v-468h-94v468h-85v78h637v-78h-179z" />
    <glyph glyph-name="integral" unicode="&#x222b;" 
d="M300 582v-587c0 -115 -65 -176 -180 -176v77c63 1 86 34 86 102v591c0 115 63 176 169 176c30 0 65 -6 119 -18l-12 -80c-50 11 -78 16 -100 16c-60 0 -82 -31 -82 -101z" />
    <glyph glyph-name="ordfeminine" unicode="&#xaa;" 
d="M502 374l-29 -57l-46 22c-21 7 -40 6 -62 1l-43 -9c-26 -5 -54 -10 -79 -10c-91 0 -141 52 -141 124c0 98 77 127 171 127h104v32c0 56 -31 75 -78 75c-36 0 -75 -6 -121 -18l-50 -13l-14 67l45 12c56 15 105 24 144 24c85 0 153 -39 153 -146v-205zM377 405v104h-105
c-57 0 -88 -14 -88 -60c0 -43 26 -63 72 -63c20 0 48 4 82 11z" />
    <glyph glyph-name="ordmasculine" unicode="&#xba;" 
d="M486 538c0 -135 -76 -216 -194 -216c-120 0 -193 80 -193 216c0 134 76 215 195 215s192 -81 192 -215zM404 538c0 93 -42 149 -112 149c-72 0 -109 -56 -109 -149c0 -95 40 -151 111 -151s110 57 110 151z" />
    <glyph glyph-name="Omega" unicode="&#x2126;" horiz-adv-x="797" 
d="M641 432c0 139 -103 233 -245 233s-240 -89 -240 -233c0 -133 83 -217 199 -234v-198h-240v77h163v65c-136 37 -227 140 -227 292c0 189 151 313 350 313c198 0 345 -125 345 -311c0 -145 -94 -257 -230 -294v-65h163v-77h-240v197c119 15 202 105 202 235z" />
    <glyph glyph-name="ae" unicode="&#xe6;" horiz-adv-x="956" 
d="M682 -6c-48 0 -96 8 -141 33c-20 10 -42 14 -70 8l-92 -20c-48 -10 -105 -21 -149 -22c-115 0 -183 57 -183 153c0 131 112 165 234 165h136v54c0 76 -48 103 -117 103c-48 0 -109 -13 -170 -30l-47 -14l-15 81l45 14c71 21 133 33 192 33c77 0 142 -27 174 -85
c46 59 114 86 188 86c148 0 247 -86 247 -267c0 -36 -20 -50 -55 -50h-346c6 -109 79 -158 177 -158c38 0 81 7 146 27l55 17l16 -79l-53 -17c-72 -23 -119 -32 -172 -32zM245 70c29 0 73 6 119 17l94 20c-22 34 -35 78 -38 131h-152c-80 0 -127 -25 -127 -88
c0 -55 38 -80 104 -80zM819 311c0 91 -45 167 -154 167c-90 0 -147 -64 -152 -167h306z" />
    <glyph glyph-name="oslash" unicode="&#xf8;" horiz-adv-x="612" 
d="M175 -52h-75l48 91c-65 46 -101 126 -101 234c0 178 103 279 261 279c37 0 72 -7 102 -18l30 57h75l-47 -88c62 -45 98 -124 98 -230c0 -179 -104 -279 -262 -279c-36 0 -68 5 -97 15zM471 273c0 63 -17 117 -47 150l-179 -342c18 -8 40 -11 63 -11c105 0 163 73 163 203
zM142 273c0 -67 18 -123 50 -155l180 344c-19 8 -44 14 -68 14c-105 0 -162 -75 -162 -203z" />
    <glyph glyph-name="questiondown" unicode="&#xbf;" horiz-adv-x="460" 
d="M232 -104c39 0 82 9 137 23l46 12l16 -81l-44 -13c-62 -18 -113 -26 -160 -26c-118 0 -196 63 -196 170c0 71 30 119 75 165l89 91v79l91 17v-64c0 -44 -3 -62 -34 -94l-71 -73c-39 -43 -57 -67 -57 -117c0 -53 34 -89 108 -89zM181 504c0 39 22 63 59 63s60 -24 60 -63
c0 -38 -23 -62 -60 -62s-59 24 -59 62z" />
    <glyph glyph-name="exclamdown" unicode="&#xa1;" horiz-adv-x="219" 
d="M63 316l97 17v-519h-97v502zM52 505c0 38 22 62 59 62c38 0 60 -24 60 -62c0 -39 -22 -63 -60 -63c-37 0 -59 24 -59 63z" />
    <glyph glyph-name="logicalnot" unicode="&#xac;" 
d="M532 87h-88v210h-392v84h480v-294z" />
    <glyph glyph-name="radical" unicode="&#x221a;" horiz-adv-x="650" 
d="M650 664h-102l-184 -627c-9 -32 -32 -48 -65 -48c-34 0 -57 16 -66 48l-131 429h-92v80h173l117 -424l172 622h178v-80z" />
    <glyph glyph-name="florin" unicode="&#x192;" 
d="M304 457v-462c0 -115 -67 -176 -180 -176v77c63 2 86 35 86 102v459h-85v80h85v53c0 115 63 175 169 175c30 0 65 -6 120 -18l-13 -80c-49 11 -78 16 -100 16c-60 0 -82 -30 -82 -100v-46h168v-80h-168z" />
    <glyph glyph-name="approxequal" unicode="&#x2248;" 
d="M300 331l-57 40c-17 12 -33 18 -51 18c-30 0 -60 -15 -86 -77l-66 42c36 88 95 118 154 118c33 0 64 -9 93 -30l57 -40c17 -12 33 -18 51 -18c30 0 60 15 86 78l66 -44c-37 -87 -95 -117 -154 -117c-33 0 -63 9 -93 30zM309 156l-58 40c-17 12 -32 18 -50 18
c-31 0 -60 -15 -86 -77l-66 42c36 88 95 118 154 118c32 0 64 -10 93 -30l57 -40c17 -12 33 -18 51 -18c30 0 59 15 86 78l65 -44c-36 -87 -94 -117 -153 -117c-33 0 -64 10 -93 30z" />
    <glyph glyph-name="Delta" unicode="&#x2206;" horiz-adv-x="664" 
d="M652 0h-636l242 699c12 34 40 52 78 52c39 0 65 -18 77 -52zM518 82l-186 554l-182 -554h368z" />
    <glyph glyph-name="guillemotleft" unicode="&#xab;" horiz-adv-x="567" 
d="M49 281c0 18 9 36 23 51l141 139h110l-190 -190l190 -190h-110l-141 139c-14 15 -23 34 -23 51zM261 281c0 18 9 36 23 51l141 139h111l-190 -190l190 -190h-111l-141 139c-14 15 -23 34 -23 51z" />
    <glyph glyph-name="ellipsis" unicode="&#x2026;" horiz-adv-x="658" 
d="M170 54c0 -39 -22 -63 -59 -63c-38 0 -60 24 -60 63s22 63 60 63c37 0 59 -24 59 -63zM389 54c0 -39 -22 -63 -59 -63s-60 24 -60 63s23 63 60 63s59 -24 59 -63zM609 54c0 -39 -23 -63 -60 -63s-60 24 -60 63s23 63 60 63s60 -24 60 -63z" />
    <glyph glyph-name="OE" unicode="&#x152;" horiz-adv-x="1100" 
d="M1049 0h-659c-201 0 -340 134 -340 370c0 235 134 374 337 374h659v-87h-387v-236h341v-83h-341v-253h390v-85zM155 370c0 -181 87 -283 238 -283h160v571h-153c-155 0 -245 -112 -245 -288z" />
    <glyph glyph-name="oe" unicode="&#x153;" horiz-adv-x="1007" 
d="M308 552c96 0 168 -39 209 -110c43 77 118 111 202 111c147 0 246 -86 246 -267c0 -32 -15 -50 -47 -50h-354c6 -109 79 -158 175 -158c40 0 83 6 149 27l54 17l16 -79l-53 -17c-72 -23 -119 -32 -171 -32c-99 0 -175 36 -218 110c-42 -72 -115 -110 -212 -110
c-158 0 -257 102 -257 279c0 178 103 279 261 279zM469 273c0 128 -60 202 -165 202s-160 -74 -160 -202c0 -131 59 -202 164 -202s161 72 161 202zM870 311c0 91 -45 167 -153 167c-91 0 -147 -64 -153 -167h306z" />
    <glyph glyph-name="endash" unicode="&#x2013;" 
d="M535 283h-480v85h480v-85z" />
    <glyph glyph-name="emdash" unicode="&#x2014;" horiz-adv-x="1000" 
d="M940 283h-880v84h880v-84z" />
    <glyph glyph-name="quotedblleft" unicode="&#x201c;" horiz-adv-x="398" 
d="M33 556l49 171c7 23 22 36 46 36c38 0 51 -27 43 -58l-38 -149h-100zM215 556l49 171c7 23 21 36 46 36c37 0 51 -27 43 -58l-38 -149h-100z" />
    <glyph glyph-name="quotedblright" unicode="&#x201d;" horiz-adv-x="398" 
d="M361 763l-49 -171c-6 -23 -22 -36 -46 -36c-37 0 -51 27 -43 58l38 149h100zM179 763l-48 -171c-7 -23 -21 -36 -47 -36c-37 0 -51 27 -43 58l38 149h100z" />
    <glyph glyph-name="quoteleft" unicode="&#x2018;" horiz-adv-x="219" 
d="M35 556l49 171c6 23 22 36 48 36c37 0 52 -27 44 -58l-38 -149h-103z" />
    <glyph glyph-name="quoteright" unicode="&#x2019;" horiz-adv-x="219" 
d="M182 763l-48 -171c-7 -23 -23 -36 -48 -36c-37 0 -52 27 -44 58l38 149h102z" />
    <glyph glyph-name="divide" unicode="&#xf7;" 
d="M351 496c0 -35 -22 -60 -58 -60s-58 25 -58 60c0 36 22 60 58 60s58 -24 58 -60zM351 91c0 -36 -22 -60 -58 -60s-58 24 -58 60s22 60 58 60s58 -24 58 -60zM534 252h-479v84h479v-84z" />
    <glyph glyph-name="lozenge" unicode="&#x25ca;" horiz-adv-x="653" 
d="M629 372l-240 -354c-14 -20 -35 -31 -63 -31c-26 0 -47 10 -61 32l-240 353l240 353c14 20 36 31 63 31c26 0 47 -10 61 -31zM523 372l-193 291l-195 -291l195 -291z" />
    <glyph glyph-name="guilsinglleft" unicode="&#x2039;" horiz-adv-x="356" 
d="M47 281c0 18 9 36 23 51l142 139h114l-190 -190l190 -190h-114l-142 139c-14 15 -23 34 -23 51z" />
    <glyph glyph-name="guilsinglright" unicode="&#x203a;" horiz-adv-x="356" 
d="M309 281c0 -17 -9 -36 -23 -51l-141 -139h-114l189 190l-189 190h114l141 -139c14 -15 23 -33 23 -51z" />
    <glyph glyph-name="daggerdbl" unicode="&#x2021;" horiz-adv-x="557" 
d="M516 41l-197 17l18 -244h-115l19 244l-200 -17v111l206 -17l-25 144l25 145l-206 -18v112l200 -17l-19 243h115l-18 -243l197 17v-112l-204 18l25 -145l-25 -143l204 16v-111z" />
    <glyph glyph-name="periodcentered" unicode="&#xb7;" horiz-adv-x="374" 
d="M249 366c0 -39 -23 -63 -60 -63s-60 24 -60 63s23 63 60 63s60 -24 60 -63z" />
    <glyph glyph-name="quotesinglbase" unicode="&#x201a;" horiz-adv-x="219" 
d="M182 116l-48 -171c-7 -23 -23 -36 -48 -36c-37 0 -52 26 -44 58l38 149h102z" />
    <glyph glyph-name="quotedblbase" unicode="&#x201e;" horiz-adv-x="398" 
d="M361 116l-49 -171c-6 -23 -22 -36 -46 -36c-37 0 -51 26 -43 58l38 149h100zM179 116l-48 -171c-7 -23 -21 -36 -47 -36c-37 0 -51 26 -43 58l38 149h100z" />
    <glyph glyph-name="perthousand" unicode="&#x2030;" horiz-adv-x="1320" 
d="M410 566c0 -122 -72 -195 -187 -195s-185 74 -185 195c0 120 73 194 187 194c116 0 185 -74 185 -194zM327 566c0 79 -37 125 -104 125c-66 0 -101 -47 -101 -125c0 -80 37 -127 103 -127c67 0 102 46 102 127zM793 744l-586 -744h-101l588 744h99zM868 180
c0 -122 -72 -195 -187 -195s-185 74 -185 195c0 120 73 194 187 194c116 0 185 -74 185 -194zM785 180c0 79 -38 125 -104 125s-101 -47 -101 -125c0 -80 37 -127 103 -127c67 0 102 46 102 127zM1287 180c0 -122 -72 -195 -187 -195s-185 74 -185 195c0 120 73 194 187 194
c116 0 185 -74 185 -194zM1204 180c0 79 -38 125 -104 125s-101 -47 -101 -125c0 -80 37 -127 103 -127c67 0 102 46 102 127z" />
    <glyph glyph-name="circumflex" unicode="&#x2c6;" horiz-adv-x="531" 
d="M281 765c22 0 41 -8 55 -22l133 -129h-125l-63 80l-62 -80h-125l131 129c13 12 30 22 56 22z" />
    <glyph glyph-name="tilde" unicode="&#x2dc;" horiz-adv-x="531" 
d="M347 613c-28 0 -52 8 -76 26l-45 32c-14 11 -26 16 -41 16c-24 0 -48 -13 -69 -66l-62 35c29 81 86 110 134 110c27 0 52 -7 75 -25l46 -33c14 -10 26 -15 41 -15c24 0 47 13 68 66l62 -36c-28 -80 -85 -110 -133 -110z" />
    <glyph glyph-name="macron" unicode="&#xaf;" horiz-adv-x="531" 
d="M435 650h-337v82h337v-82z" />
    <glyph glyph-name="breve" unicode="&#x2d8;" horiz-adv-x="531" 
d="M274 610c-100 0 -178 60 -178 153h87c0 -52 37 -80 91 -80c52 0 91 29 91 80h87c0 -93 -78 -153 -178 -153z" />
    <glyph glyph-name="dotaccent" unicode="&#x2d9;" horiz-adv-x="531" 
d="M326 705c0 -38 -23 -62 -60 -62s-60 24 -60 62s23 62 60 62s60 -24 60 -62z" />
    <glyph glyph-name="ring" unicode="&#x2da;" horiz-adv-x="531" 
d="M278 589c-64 0 -116 45 -116 109c0 65 51 108 116 108s116 -43 116 -108c0 -64 -52 -109 -116 -109zM278 754c-36 0 -58 -25 -58 -56c0 -33 23 -57 58 -57s59 24 59 57c0 31 -23 56 -59 56z" />
    <glyph glyph-name="cedilla" unicode="&#xb8;" horiz-adv-x="531" 
d="M362 -116c0 -47 -36 -82 -100 -82c-29 0 -53 5 -91 21l15 48c32 -14 56 -18 75 -18c25 0 43 9 43 29c0 29 -36 32 -88 30l-5 9l41 79h47l-24 -49c49 0 87 -21 87 -67z" />
    <glyph glyph-name="hungarumlaut" unicode="&#x2dd;" horiz-adv-x="531" 
d="M283 763l-139 -135c-10 -11 -25 -17 -38 -17c-26 0 -39 21 -39 39c0 10 4 22 13 32l79 81h124zM483 763l-141 -141c-10 -11 -25 -16 -38 -16c-26 0 -39 21 -39 38c0 10 5 22 14 32l79 87h125z" />
    <glyph glyph-name="ogonek" unicode="&#x2db;" horiz-adv-x="531" 
d="M383 -146c-43 -18 -78 -24 -111 -24c-69 0 -120 28 -120 86c0 39 20 66 49 84l64 6l3 -6c-30 -18 -46 -41 -46 -68c0 -29 22 -41 56 -41c27 0 53 4 92 19z" />
    <glyph glyph-name="caron" unicode="&#x2c7;" horiz-adv-x="531" 
d="M281 612c-22 0 -42 8 -55 22l-133 129h125l63 -80l62 80h125l-131 -129c-13 -12 -30 -22 -56 -22z" />
    <glyph glyph-name="Euro" unicode="&#x20ac;" 
d="M435 264h-233c1 -129 60 -184 162 -184c33 0 77 9 133 24l45 13l15 -85l-43 -12c-63 -17 -113 -28 -156 -28c-147 0 -253 94 -255 272h-74v75h73v68h-73v74h74c2 178 108 272 255 272c43 0 93 -11 155 -28l44 -13l-15 -84l-46 12c-56 16 -99 25 -132 25
c-102 0 -160 -55 -161 -184h232v-74h-234v-68h234v-75z" />
    <glyph glyph-name="Eth" unicode="&#xd0;" horiz-adv-x="736" 
d="M686 370c0 -236 -139 -370 -340 -370h-189c-55 0 -80 34 -80 84v259h-67v74h67v242c0 50 25 85 80 85h191c204 0 338 -139 338 -374zM581 370c0 182 -94 289 -255 289h-144v-242h210v-74h-210v-256h151c156 0 248 96 248 283z" />
    <glyph glyph-name="eth" unicode="&#xf0;" horiz-adv-x="624" 
d="M314 436c-124 0 -163 -77 -163 -177c0 -111 55 -185 158 -185c108 0 155 69 155 177v160c-76 20 -116 24 -150 25zM301 517c45 0 86 -8 163 -30v38c0 40 -8 72 -23 98l-146 -78v76l102 52c-22 12 -53 18 -90 18h-67v72h75c72 0 126 -14 164 -45l94 52v-76l-50 -27
c25 -41 37 -89 37 -154v-266c0 -149 -87 -253 -254 -253c-165 0 -251 118 -251 266c0 138 76 257 246 257z" />
    <glyph glyph-name="Lslash" unicode="&#x141;" horiz-adv-x="586" 
d="M348 482l-165 -75v-317h360v-90h-387c-49 0 -80 28 -80 74v287l-66 -30v84l66 30v299h107v-254l165 76v-84z" />
    <glyph glyph-name="lslash" unicode="&#x142;" horiz-adv-x="251" 
d="M176 0h-97v380l-65 -40v90l65 40v283l97 19v-245l65 40v-91l-65 -40v-436z" />
    <glyph glyph-name="Thorn" unicode="&#xde;" horiz-adv-x="638" 
d="M596 389c0 -144 -95 -230 -235 -230h-185v-159h-103v744h103v-126h195c132 0 225 -87 225 -229zM500 390c0 95 -60 146 -146 146h-178v-293h180c89 0 144 54 144 147z" />
    <glyph glyph-name="Scaron" unicode="&#x160;" horiz-adv-x="640" 
d="M268 432l139 -31c117 -26 185 -85 185 -198c0 -145 -115 -211 -241 -211c-87 0 -157 15 -242 42l-54 18l21 92l55 -19c70 -24 146 -44 218 -44c70 0 140 34 140 118c0 59 -31 94 -107 111l-139 31c-117 26 -185 87 -185 197c0 146 115 211 241 211c87 0 154 -16 237 -43
l55 -18l-22 -92l-55 19c-70 24 -141 44 -213 44c-74 0 -140 -33 -140 -117c0 -59 30 -93 107 -110zM333 787c-22 0 -42 8 -55 22l-133 129h125l63 -80l62 80h125l-131 -129c-13 -12 -30 -22 -56 -22z" />
    <glyph glyph-name="scaron" unicode="&#x161;" horiz-adv-x="546" 
d="M237 320l106 -18c95 -16 149 -65 149 -146c0 -111 -92 -163 -196 -163c-72 0 -127 12 -196 32l-44 14l16 81l46 -14c59 -17 117 -32 178 -32c55 0 103 22 103 77c0 38 -24 63 -86 72l-105 19c-95 16 -149 66 -149 147c0 111 92 163 196 163c72 0 126 -12 195 -33l45 -13
l-16 -82l-47 14c-58 17 -117 32 -178 32c-55 0 -103 -22 -103 -77c0 -38 24 -62 86 -73zM288 612c-22 0 -42 8 -55 22l-133 129h125l63 -80l62 80h125l-131 -129c-13 -12 -30 -22 -56 -22z" />
    <glyph glyph-name="Yacute" unicode="&#xdd;" horiz-adv-x="669" 
d="M660 744l-270 -426v-318h-106v316l-275 428h118l212 -334l205 334h116zM502 936l-149 -129c-11 -10 -24 -16 -38 -16c-26 0 -39 21 -39 37c0 11 4 22 15 33l79 75h132z" />
    <glyph glyph-name="yacute" unicode="&#xfd;" horiz-adv-x="543" 
d="M162 -182c-30 0 -62 5 -114 19l13 80c48 -12 73 -18 97 -18c49 0 66 25 74 58l7 25l-217 564h106l160 -450l137 450h103l-202 -600c-29 -86 -76 -128 -164 -128zM444 763l-149 -129c-11 -10 -24 -16 -38 -16c-26 0 -39 21 -39 37c0 11 4 22 15 33l79 75h132z" />
    <glyph glyph-name="Zcaron" unicode="&#x17d;" horiz-adv-x="653" 
d="M579 633l-405 -549h427v-84h-492c-40 0 -59 25 -59 60c0 20 7 34 19 50l407 549h-413v85h476c40 0 59 -25 59 -61c0 -19 -6 -33 -19 -50zM331 787c-22 0 -42 8 -55 22l-133 129h125l63 -80l62 80h125l-131 -129c-13 -12 -30 -22 -56 -22z" />
    <glyph glyph-name="zcaron" unicode="&#x17e;" horiz-adv-x="539" 
d="M59 546h383c37 0 54 -24 54 -56c0 -18 -8 -36 -20 -50l-313 -364h333v-76h-395c-37 0 -54 23 -54 55c0 19 8 37 20 52l313 362h-321v77zM284 612c-22 0 -42 8 -55 22l-133 129h125l63 -80l62 80h125l-131 -129c-13 -12 -30 -22 -56 -22z" />
    <glyph glyph-name="quotedbl" unicode="&#x22;" horiz-adv-x="387" 
d="M154 763l-9 -211h-80l-9 211h98zM330 763l-8 -211h-79l-10 211h97z" />
    <glyph glyph-name="exclam" unicode="!" horiz-adv-x="219" 
d="M159 242l-96 -17v519h96v-502zM171 53c0 -39 -22 -62 -60 -62c-37 0 -59 23 -59 62s22 62 59 62c38 0 60 -23 60 -62z" />
    <glyph glyph-name="thorn" unicode="&#xfe;" horiz-adv-x="598" 
d="M297 80c116 0 160 76 160 194c0 115 -46 193 -162 193c-32 0 -62 -4 -132 -20v-343c76 -20 106 -24 134 -24zM69 -186v939l94 18v-242c66 15 112 20 144 20c159 0 244 -99 244 -274c0 -176 -86 -279 -245 -279c-37 0 -74 7 -143 28v-192z" />
    <glyph glyph-name="fraction" unicode="&#x2044;" horiz-adv-x="906" 
d="M793 744l-586 -744h-101l588 744h99z" />
    <glyph glyph-name="guillemotright" unicode="&#xbb;" horiz-adv-x="567" 
d="M518 281c0 -17 -9 -36 -23 -51l-141 -139h-110l189 190l-189 190h110l141 -139c14 -15 23 -33 23 -51zM305 281c0 -17 -8 -36 -23 -51l-141 -139h-110l190 190l-190 190h110l141 -139c15 -15 23 -33 23 -51z" />
    <glyph glyph-name="aacute" unicode="&#xe1;" horiz-adv-x="600" 
d="M573 56l-36 -67l-49 28c-21 12 -45 16 -74 8l-37 -9c-47 -12 -105 -23 -147 -23c-115 0 -183 57 -183 153c0 129 108 165 230 165h140v54c0 76 -47 103 -117 103c-48 0 -109 -13 -170 -30l-47 -14l-15 81l45 13c70 21 132 34 192 34c114 0 203 -52 203 -185v-272z
M418 100v138h-150c-80 0 -127 -25 -127 -88c0 -55 38 -80 104 -80c29 0 73 6 119 17zM456 763l-149 -129c-11 -10 -24 -16 -38 -16c-26 0 -39 21 -39 37c0 11 4 22 15 33l79 75h132z" />
    <glyph glyph-name="agrave" unicode="&#xe0;" horiz-adv-x="600" 
d="M573 56l-36 -67l-49 28c-21 12 -45 16 -74 8l-37 -9c-47 -12 -105 -23 -147 -23c-115 0 -183 57 -183 153c0 129 108 165 230 165h140v54c0 76 -47 103 -117 103c-48 0 -109 -13 -170 -30l-47 -14l-15 81l45 13c70 21 132 34 192 34c114 0 203 -52 203 -185v-272z
M418 100v138h-150c-80 0 -127 -25 -127 -88c0 -55 38 -80 104 -80c29 0 73 6 119 17zM312 634l-149 129h132l79 -75c11 -11 15 -22 15 -33c0 -16 -13 -37 -39 -37c-14 0 -27 6 -38 16z" />
    <glyph glyph-name="acircumflex" unicode="&#xe2;" horiz-adv-x="600" 
d="M573 56l-36 -67l-49 28c-21 12 -45 16 -74 8l-37 -9c-47 -12 -105 -23 -147 -23c-115 0 -183 57 -183 153c0 129 108 165 230 165h140v54c0 76 -47 103 -117 103c-48 0 -109 -13 -170 -30l-47 -14l-15 81l45 13c70 21 132 34 192 34c114 0 203 -52 203 -185v-272z
M418 100v138h-150c-80 0 -127 -25 -127 -88c0 -55 38 -80 104 -80c29 0 73 6 119 17zM305 765c22 0 41 -8 55 -22l133 -129h-125l-63 80l-62 -80h-125l131 129c13 12 30 22 56 22z" />
    <glyph glyph-name="adieresis" unicode="&#xe4;" horiz-adv-x="600" 
d="M573 56l-36 -67l-49 28c-21 12 -45 16 -74 8l-37 -9c-47 -12 -105 -23 -147 -23c-115 0 -183 57 -183 153c0 129 108 165 230 165h140v54c0 76 -47 103 -117 103c-48 0 -109 -13 -170 -30l-47 -14l-15 81l45 13c70 21 132 34 192 34c114 0 203 -52 203 -185v-272z
M418 100v138h-150c-80 0 -127 -25 -127 -88c0 -55 38 -80 104 -80c29 0 73 6 119 17zM252 705c0 -38 -22 -62 -58 -62s-58 24 -58 62s22 62 58 62s58 -24 58 -62zM481 705c0 -38 -22 -62 -58 -62c-37 0 -59 24 -59 62s22 62 59 62c36 0 58 -24 58 -62z" />
    <glyph glyph-name="atilde" unicode="&#xe3;" horiz-adv-x="600" 
d="M573 56l-36 -67l-49 28c-21 12 -45 16 -74 8l-37 -9c-47 -12 -105 -23 -147 -23c-115 0 -183 57 -183 153c0 129 108 165 230 165h140v54c0 76 -47 103 -117 103c-48 0 -109 -13 -170 -30l-47 -14l-15 81l45 13c70 21 132 34 192 34c114 0 203 -52 203 -185v-272z
M418 100v138h-150c-80 0 -127 -25 -127 -88c0 -55 38 -80 104 -80c29 0 73 6 119 17zM380 613c-28 0 -52 8 -76 26l-45 32c-14 11 -26 16 -41 16c-24 0 -48 -13 -69 -66l-62 35c29 81 86 110 134 110c27 0 52 -7 75 -25l46 -33c14 -10 26 -15 41 -15c24 0 47 13 68 66
l62 -36c-28 -80 -85 -110 -133 -110z" />
    <glyph glyph-name="aring" unicode="&#xe5;" horiz-adv-x="600" 
d="M573 56l-36 -67l-49 28c-21 12 -45 16 -74 8l-37 -9c-47 -12 -105 -23 -147 -23c-115 0 -183 57 -183 153c0 129 108 165 230 165h140v54c0 76 -47 103 -117 103c-48 0 -109 -13 -170 -30l-47 -14l-15 81l45 13c70 21 132 34 192 34c114 0 203 -52 203 -185v-272z
M418 100v138h-150c-80 0 -127 -25 -127 -88c0 -55 38 -80 104 -80c29 0 73 6 119 17zM297 589c-64 0 -116 45 -116 109c0 65 51 108 116 108s116 -43 116 -108c0 -64 -52 -109 -116 -109zM297 754c-36 0 -58 -25 -58 -56c0 -33 23 -57 58 -57s59 24 59 57
c0 31 -23 56 -59 56z" />
    <glyph glyph-name="ccedilla" unicode="&#xe7;" horiz-adv-x="528" 
d="M145 273c0 -131 54 -194 158 -194c32 0 75 10 131 26l45 12l15 -83l-44 -13c-62 -17 -112 -27 -155 -27c-147 0 -248 86 -248 279c0 182 101 279 248 279c43 0 93 -11 155 -28l44 -13l-15 -83l-45 13c-56 15 -100 25 -132 25c-103 0 -157 -63 -157 -193zM381 -116
c0 -47 -36 -82 -100 -82c-29 0 -53 5 -91 21l15 48c32 -14 56 -18 75 -18c25 0 43 9 43 29c0 29 -36 32 -88 30l-5 9l41 79h47l-24 -49c49 0 87 -21 87 -67z" />
    <glyph glyph-name="eacute" unicode="&#xe9;" horiz-adv-x="585" 
d="M47 272c0 196 116 281 250 281c147 0 246 -86 246 -267c0 -32 -15 -50 -47 -50h-354c6 -109 79 -158 175 -158c40 0 83 7 149 27l54 17l16 -79l-53 -17c-72 -23 -119 -32 -171 -32c-158 0 -265 92 -265 278zM448 311c0 91 -45 167 -153 167c-91 0 -147 -64 -153 -167h306
zM463 763l-149 -129c-11 -10 -24 -16 -38 -16c-26 0 -39 21 -39 37c0 11 4 22 15 33l79 75h132z" />
    <glyph glyph-name="dotlessi" unicode="&#x131;" horiz-adv-x="246" 
d="M171 0h-95v546h95v-546z" />
    <glyph glyph-name="egrave" unicode="&#xe8;" horiz-adv-x="585" 
d="M47 272c0 196 116 281 250 281c147 0 246 -86 246 -267c0 -32 -15 -50 -47 -50h-354c6 -109 79 -158 175 -158c40 0 83 7 149 27l54 17l16 -79l-53 -17c-72 -23 -119 -32 -171 -32c-158 0 -265 92 -265 278zM448 311c0 91 -45 167 -153 167c-91 0 -147 -64 -153 -167h306
zM307 634l-149 129h132l79 -75c11 -11 15 -22 15 -33c0 -16 -13 -37 -39 -37c-14 0 -27 6 -38 16z" />
    <glyph glyph-name="ecircumflex" unicode="&#xea;" horiz-adv-x="585" 
d="M47 272c0 196 116 281 250 281c147 0 246 -86 246 -267c0 -32 -15 -50 -47 -50h-354c6 -109 79 -158 175 -158c40 0 83 7 149 27l54 17l16 -79l-53 -17c-72 -23 -119 -32 -171 -32c-158 0 -265 92 -265 278zM448 311c0 91 -45 167 -153 167c-91 0 -147 -64 -153 -167h306
zM300 765c22 0 41 -8 55 -22l133 -129h-125l-63 80l-62 -80h-125l131 129c13 12 30 22 56 22z" />
    <glyph glyph-name="edieresis" unicode="&#xeb;" horiz-adv-x="585" 
d="M47 272c0 196 116 281 250 281c147 0 246 -86 246 -267c0 -32 -15 -50 -47 -50h-354c6 -109 79 -158 175 -158c40 0 83 7 149 27l54 17l16 -79l-53 -17c-72 -23 -119 -32 -171 -32c-158 0 -265 92 -265 278zM448 311c0 91 -45 167 -153 167c-91 0 -147 -64 -153 -167h306
zM243 705c0 -38 -22 -62 -58 -62s-58 24 -58 62s22 62 58 62s58 -24 58 -62zM472 705c0 -38 -22 -62 -58 -62c-37 0 -59 24 -59 62s22 62 59 62c36 0 58 -24 58 -62z" />
    <glyph glyph-name="iacute" unicode="&#xed;" horiz-adv-x="246" 
d="M171 0h-95v546h95v-546zM270 763l-149 -129c-11 -10 -24 -16 -38 -16c-26 0 -39 21 -39 37c0 11 4 22 15 33l79 75h132z" />
    <glyph glyph-name="igrave" unicode="&#xec;" horiz-adv-x="246" 
d="M171 0h-95v546h95v-546zM120 634l-149 129h132l79 -75c11 -11 15 -22 15 -33c0 -16 -13 -37 -39 -37c-14 0 -27 6 -38 16z" />
    <glyph glyph-name="icircumflex" unicode="&#xee;" horiz-adv-x="246" 
d="M171 0h-95v546h95v-546zM126 765c22 0 41 -8 55 -22l133 -129h-125l-63 80l-62 -80h-125l131 129c13 12 30 22 56 22z" />
    <glyph glyph-name="idieresis" unicode="&#xef;" horiz-adv-x="246" 
d="M171 0h-95v546h95v-546zM69 705c0 -38 -22 -62 -58 -62s-58 24 -58 62s22 62 58 62s58 -24 58 -62zM298 705c0 -38 -22 -62 -58 -62c-37 0 -59 24 -59 62s22 62 59 62c36 0 58 -24 58 -62z" />
    <glyph glyph-name="ntilde" unicode="&#xf1;" horiz-adv-x="584" 
d="M164 445v-445h-95v449c0 42 22 66 62 76c85 23 136 25 174 25c151 0 210 -85 210 -196v-354h-95v345c0 69 -28 120 -123 120c-30 0 -61 -2 -133 -20zM376 613c-28 0 -52 8 -76 26l-45 32c-14 11 -26 16 -41 16c-24 0 -48 -13 -69 -66l-62 35c29 81 86 110 134 110
c27 0 52 -7 75 -25l46 -33c14 -10 26 -15 41 -15c24 0 47 13 68 66l62 -36c-28 -80 -85 -110 -133 -110z" />
    <glyph glyph-name="oacute" unicode="&#xf3;" horiz-adv-x="612" 
d="M566 273c0 -179 -104 -279 -262 -279s-257 102 -257 279c0 178 103 279 261 279s258 -101 258 -279zM469 273c0 128 -60 202 -165 202s-160 -74 -160 -202c0 -131 59 -202 164 -202s161 72 161 202zM444 763l-149 -129c-11 -10 -24 -16 -38 -16c-26 0 -39 21 -39 37
c0 11 4 22 15 33l79 75h132z" />
    <glyph glyph-name="ograve" unicode="&#xf2;" horiz-adv-x="612" 
d="M566 273c0 -179 -104 -279 -262 -279s-257 102 -257 279c0 178 103 279 261 279s258 -101 258 -279zM469 273c0 128 -60 202 -165 202s-160 -74 -160 -202c0 -131 59 -202 164 -202s161 72 161 202zM328 634l-149 129h132l79 -75c11 -11 15 -22 15 -33
c0 -16 -13 -37 -39 -37c-14 0 -27 6 -38 16z" />
    <glyph glyph-name="ocircumflex" unicode="&#xf4;" horiz-adv-x="612" 
d="M566 273c0 -179 -104 -279 -262 -279s-257 102 -257 279c0 178 103 279 261 279s258 -101 258 -279zM469 273c0 128 -60 202 -165 202s-160 -74 -160 -202c0 -131 59 -202 164 -202s161 72 161 202zM309 765c22 0 41 -8 55 -22l133 -129h-125l-63 80l-62 -80h-125
l131 129c13 12 30 22 56 22z" />
    <glyph glyph-name="odieresis" unicode="&#xf6;" horiz-adv-x="612" 
d="M566 273c0 -179 -104 -279 -262 -279s-257 102 -257 279c0 178 103 279 261 279s258 -101 258 -279zM469 273c0 128 -60 202 -165 202s-160 -74 -160 -202c0 -131 59 -202 164 -202s161 72 161 202zM254 705c0 -38 -22 -62 -58 -62s-58 24 -58 62s22 62 58 62
s58 -24 58 -62zM483 705c0 -38 -22 -62 -58 -62c-37 0 -59 24 -59 62s22 62 59 62c36 0 58 -24 58 -62z" />
    <glyph glyph-name="otilde" unicode="&#xf5;" horiz-adv-x="612" 
d="M566 273c0 -179 -104 -279 -262 -279s-257 102 -257 279c0 178 103 279 261 279s258 -101 258 -279zM469 273c0 128 -60 202 -165 202s-160 -74 -160 -202c0 -131 59 -202 164 -202s161 72 161 202zM392 613c-28 0 -52 8 -76 26l-45 32c-14 11 -26 16 -41 16
c-24 0 -48 -13 -69 -66l-62 35c29 81 86 110 134 110c27 0 52 -7 75 -25l46 -33c14 -10 26 -15 41 -15c24 0 47 13 68 66l62 -36c-28 -80 -85 -110 -133 -110z" />
    <glyph glyph-name="uacute" unicode="&#xfa;" horiz-adv-x="584" 
d="M420 100v446h95v-449c0 -43 -22 -67 -62 -77c-85 -22 -136 -24 -174 -24c-151 0 -210 84 -210 196v354h94v-345c0 -69 30 -121 123 -121c30 0 62 2 134 20zM438 763l-149 -129c-11 -10 -24 -16 -38 -16c-26 0 -39 21 -39 37c0 11 4 22 15 33l79 75h132z" />
    <glyph glyph-name="ugrave" unicode="&#xf9;" horiz-adv-x="584" 
d="M420 100v446h95v-449c0 -43 -22 -67 -62 -77c-85 -22 -136 -24 -174 -24c-151 0 -210 84 -210 196v354h94v-345c0 -69 30 -121 123 -121c30 0 62 2 134 20zM299 634l-149 129h132l79 -75c11 -11 15 -22 15 -33c0 -16 -13 -37 -39 -37c-14 0 -27 6 -38 16z" />
    <glyph glyph-name="ucircumflex" unicode="&#xfb;" horiz-adv-x="584" 
d="M420 100v446h95v-449c0 -43 -22 -67 -62 -77c-85 -22 -136 -24 -174 -24c-151 0 -210 84 -210 196v354h94v-345c0 -69 30 -121 123 -121c30 0 62 2 134 20zM296 765c22 0 41 -8 55 -22l133 -129h-125l-63 80l-62 -80h-125l131 129c13 12 30 22 56 22z" />
    <glyph glyph-name="udieresis" unicode="&#xfc;" horiz-adv-x="584" 
d="M420 100v446h95v-449c0 -43 -22 -67 -62 -77c-85 -22 -136 -24 -174 -24c-151 0 -210 84 -210 196v354h94v-345c0 -69 30 -121 123 -121c30 0 62 2 134 20zM238 705c0 -38 -22 -62 -58 -62s-58 24 -58 62s22 62 58 62s58 -24 58 -62zM467 705c0 -38 -22 -62 -58 -62
c-37 0 -59 24 -59 62s22 62 59 62c36 0 58 -24 58 -62z" />
    <glyph glyph-name="ydieresis" unicode="&#xff;" horiz-adv-x="543" 
d="M162 -182c-30 0 -62 5 -114 19l13 80c48 -12 73 -18 97 -18c49 0 66 25 74 58l7 25l-217 564h106l160 -450l137 450h103l-202 -600c-29 -86 -76 -128 -164 -128zM228 705c0 -38 -22 -62 -58 -62s-58 24 -58 62s22 62 58 62s58 -24 58 -62zM457 705c0 -38 -22 -62 -58 -62
c-37 0 -59 24 -59 62s22 62 59 62c36 0 58 -24 58 -62z" />
    <glyph glyph-name="Adieresis" unicode="&#xc4;" horiz-adv-x="696" 
d="M683 0h-110l-58 157h-336l-58 -157h-108l260 698c12 35 38 53 78 53c41 0 66 -18 78 -52zM490 241l-140 402l-146 -402h286zM295 863c0 -38 -22 -62 -58 -62s-58 24 -58 62s22 62 58 62s58 -24 58 -62zM524 863c0 -38 -22 -62 -58 -62c-37 0 -59 24 -59 62s22 62 59 62
c36 0 58 -24 58 -62z" />
    <glyph glyph-name="Aacute" unicode="&#xc1;" horiz-adv-x="696" 
d="M683 0h-110l-58 157h-336l-58 -157h-108l260 698c12 35 38 53 78 53c41 0 66 -18 78 -52zM490 241l-140 402l-146 -402h286zM471 936l-149 -129c-11 -10 -24 -16 -38 -16c-26 0 -39 21 -39 37c0 11 4 22 15 33l79 75h132z" />
    <glyph glyph-name="Acircumflex" unicode="&#xc2;" horiz-adv-x="696" 
d="M683 0h-110l-58 157h-336l-58 -157h-108l260 698c12 35 38 53 78 53c41 0 66 -18 78 -52zM490 241l-140 402l-146 -402h286zM350 952c22 0 41 -8 55 -22l133 -129h-125l-63 80l-62 -80h-125l131 129c13 12 30 22 56 22z" />
    <glyph glyph-name="Atilde" unicode="&#xc3;" horiz-adv-x="696" 
d="M683 0h-110l-58 157h-336l-58 -157h-108l260 698c12 35 38 53 78 53c41 0 66 -18 78 -52zM490 241l-140 402l-146 -402h286zM431 792c-28 0 -52 8 -76 26l-45 32c-14 11 -26 16 -41 16c-24 0 -48 -13 -69 -66l-62 35c29 81 86 110 134 110c27 0 52 -7 75 -25l46 -33
c14 -10 26 -15 41 -15c24 0 47 13 68 66l62 -36c-28 -80 -85 -110 -133 -110z" />
    <glyph glyph-name="Agrave" unicode="&#xc0;" horiz-adv-x="696" 
d="M683 0h-110l-58 157h-336l-58 -157h-108l260 698c12 35 38 53 78 53c41 0 66 -18 78 -52zM490 241l-140 402l-146 -402h286zM379 807l-149 129h132l79 -75c11 -11 15 -22 15 -33c0 -16 -13 -37 -39 -37c-14 0 -27 6 -38 16z" />
    <glyph glyph-name="Ccedilla" unicode="&#xc7;" horiz-adv-x="675" 
d="M51 370c0 257 145 378 336 378c63 0 125 -14 199 -37l54 -17l-17 -90l-57 17c-69 21 -124 35 -172 35c-144 0 -234 -88 -234 -286s92 -285 235 -285c47 0 103 13 171 34l57 18l17 -91l-54 -16c-74 -23 -136 -38 -199 -38c-195 0 -336 116 -336 378zM475 -116
c0 -47 -36 -82 -100 -82c-29 0 -53 5 -91 21l15 48c32 -14 56 -18 75 -18c25 0 43 9 43 29c0 29 -36 32 -88 30l-5 9l41 79h47l-24 -49c49 0 87 -21 87 -67z" />
    <glyph glyph-name="Eacute" unicode="&#xc9;" horiz-adv-x="620" 
d="M569 0h-416c-49 0 -80 29 -80 74v595c0 46 31 75 80 75h413v-86h-387v-236h340v-84h-340v-252h390v-86zM466 936l-149 -129c-11 -10 -24 -16 -38 -16c-26 0 -39 21 -39 37c0 11 4 22 15 33l79 75h132z" />
    <glyph glyph-name="Edieresis" unicode="&#xcb;" horiz-adv-x="620" 
d="M569 0h-416c-49 0 -80 29 -80 74v595c0 46 31 75 80 75h413v-86h-387v-236h340v-84h-340v-252h390v-86zM268 862c0 -38 -22 -62 -58 -62s-58 24 -58 62s22 62 58 62s58 -24 58 -62zM497 862c0 -38 -22 -62 -58 -62c-37 0 -59 24 -59 62s22 62 59 62c36 0 58 -24 58 -62z
" />
    <glyph glyph-name="Egrave" unicode="&#xc8;" horiz-adv-x="620" 
d="M569 0h-416c-49 0 -80 29 -80 74v595c0 46 31 75 80 75h413v-86h-387v-236h340v-84h-340v-252h390v-86zM335 807l-149 129h132l79 -75c11 -11 15 -22 15 -33c0 -16 -13 -37 -39 -37c-14 0 -27 6 -38 16z" />
    <glyph glyph-name="Ecircumflex" unicode="&#xca;" horiz-adv-x="620" 
d="M569 0h-416c-49 0 -80 29 -80 74v595c0 46 31 75 80 75h413v-86h-387v-236h340v-84h-340v-252h390v-86zM321 952c22 0 41 -8 55 -22l133 -129h-125l-63 80l-62 -80h-125l131 129c13 12 30 22 56 22z" />
    <glyph glyph-name="Iacute" unicode="&#xcd;" horiz-adv-x="253" 
d="M179 0h-106v744h106v-744zM269 935l-149 -129c-11 -10 -24 -16 -38 -16c-26 0 -39 21 -39 37c0 11 4 22 15 33l79 75h132z" />
    <glyph glyph-name="Icircumflex" unicode="&#xce;" horiz-adv-x="253" 
d="M179 0h-106v744h106v-744zM127 952c22 0 41 -8 55 -22l133 -129h-125l-63 80l-62 -80h-125l131 129c13 12 30 22 56 22z" />
    <glyph glyph-name="Idieresis" unicode="&#xcf;" horiz-adv-x="253" 
d="M179 0h-106v744h106v-744zM71 863c0 -38 -22 -62 -58 -62s-58 24 -58 62s22 62 58 62s58 -24 58 -62zM300 863c0 -38 -22 -62 -58 -62c-37 0 -59 24 -59 62s22 62 59 62c36 0 58 -24 58 -62z" />
    <glyph glyph-name="Igrave" unicode="&#xcc;" horiz-adv-x="253" 
d="M179 0h-106v744h106v-744zM143 806l-149 129h132l79 -75c11 -11 15 -22 15 -33c0 -16 -13 -37 -39 -37c-14 0 -27 6 -38 16z" />
    <glyph glyph-name="Ntilde" unicode="&#xd1;" horiz-adv-x="742" 
d="M168 602v-602h-95v681c0 47 29 70 73 70c36 0 60 -17 76 -44l352 -563v600h95v-680c0 -46 -28 -69 -73 -69c-36 0 -59 17 -75 44zM458 793c-28 0 -52 8 -76 26l-45 32c-14 11 -26 16 -41 16c-24 0 -48 -13 -69 -66l-62 35c29 81 86 110 134 110c27 0 52 -7 75 -25l46 -33
c14 -10 26 -15 41 -15c24 0 47 13 68 66l62 -36c-28 -80 -85 -110 -133 -110z" />
    <glyph glyph-name="Odieresis" unicode="&#xd6;" horiz-adv-x="797" 
d="M746 370c0 -245 -143 -378 -350 -378c-206 0 -345 136 -345 378c0 241 143 378 350 378c206 0 345 -136 345 -378zM640 370c0 188 -94 294 -244 294s-239 -106 -239 -294c0 -189 94 -295 244 -295c149 0 239 105 239 295zM342 862c0 -38 -22 -62 -58 -62s-58 24 -58 62
s22 62 58 62s58 -24 58 -62zM571 862c0 -38 -22 -62 -58 -62c-37 0 -59 24 -59 62s22 62 59 62c36 0 58 -24 58 -62z" />
    <glyph glyph-name="Otilde" unicode="&#xd5;" horiz-adv-x="797" 
d="M746 370c0 -245 -143 -378 -350 -378c-206 0 -345 136 -345 378c0 241 143 378 350 378c206 0 345 -136 345 -378zM640 370c0 188 -94 294 -244 294s-239 -106 -239 -294c0 -189 94 -295 244 -295c149 0 239 105 239 295zM480 795c-28 0 -52 8 -76 26l-45 32
c-14 11 -26 16 -41 16c-24 0 -48 -13 -69 -66l-62 35c29 81 86 110 134 110c27 0 52 -7 75 -25l46 -33c14 -10 26 -15 41 -15c24 0 47 13 68 66l62 -36c-28 -80 -85 -110 -133 -110z" />
    <glyph glyph-name="Ograve" unicode="&#xd2;" horiz-adv-x="797" 
d="M746 370c0 -245 -143 -378 -350 -378c-206 0 -345 136 -345 378c0 241 143 378 350 378c206 0 345 -136 345 -378zM640 370c0 188 -94 294 -244 294s-239 -106 -239 -294c0 -189 94 -295 244 -295c149 0 239 105 239 295zM412 806l-149 129h132l79 -75
c11 -11 15 -22 15 -33c0 -16 -13 -37 -39 -37c-14 0 -27 6 -38 16z" />
    <glyph glyph-name="Ocircumflex" unicode="&#xd4;" horiz-adv-x="797" 
d="M746 370c0 -245 -143 -378 -350 -378c-206 0 -345 136 -345 378c0 241 143 378 350 378c206 0 345 -136 345 -378zM640 370c0 188 -94 294 -244 294s-239 -106 -239 -294c0 -189 94 -295 244 -295c149 0 239 105 239 295zM402 952c22 0 41 -8 55 -22l133 -129h-125
l-63 80l-62 -80h-125l131 129c13 12 30 22 56 22z" />
    <glyph glyph-name="Oacute" unicode="&#xd3;" horiz-adv-x="797" 
d="M746 370c0 -245 -143 -378 -350 -378c-206 0 -345 136 -345 378c0 241 143 378 350 378c206 0 345 -136 345 -378zM640 370c0 188 -94 294 -244 294s-239 -106 -239 -294c0 -189 94 -295 244 -295c149 0 239 105 239 295zM544 935l-149 -129c-11 -10 -24 -16 -38 -16
c-26 0 -39 21 -39 37c0 11 4 22 15 33l79 75h132z" />
    <glyph glyph-name="Udieresis" unicode="&#xdc;" horiz-adv-x="724" 
d="M655 266c0 -174 -104 -279 -294 -279c-189 0 -293 105 -293 279v478h105v-480c0 -120 62 -187 188 -187c129 0 189 67 189 187v480h105v-478zM312 862c0 -38 -22 -62 -58 -62s-58 24 -58 62s22 62 58 62s58 -24 58 -62zM541 862c0 -38 -22 -62 -58 -62
c-37 0 -59 24 -59 62s22 62 59 62c36 0 58 -24 58 -62z" />
    <glyph glyph-name="Uacute" unicode="&#xda;" horiz-adv-x="724" 
d="M655 266c0 -174 -104 -279 -294 -279c-189 0 -293 105 -293 279v478h105v-480c0 -120 62 -187 188 -187c129 0 189 67 189 187v480h105v-478zM511 936l-149 -129c-11 -10 -24 -16 -38 -16c-26 0 -39 21 -39 37c0 11 4 22 15 33l79 75h132z" />
    <glyph glyph-name="Ucircumflex" unicode="&#xdb;" horiz-adv-x="724" 
d="M655 266c0 -174 -104 -279 -294 -279c-189 0 -293 105 -293 279v478h105v-480c0 -120 62 -187 188 -187c129 0 189 67 189 187v480h105v-478zM365 952c22 0 41 -8 55 -22l133 -129h-125l-63 80l-62 -80h-125l131 129c13 12 30 22 56 22z" />
    <glyph glyph-name="Ugrave" unicode="&#xd9;" horiz-adv-x="724" 
d="M655 266c0 -174 -104 -279 -294 -279c-189 0 -293 105 -293 279v478h105v-480c0 -120 62 -187 188 -187c129 0 189 67 189 187v480h105v-478zM371 807l-149 129h132l79 -75c11 -11 15 -22 15 -33c0 -16 -13 -37 -39 -37c-14 0 -27 6 -38 16z" />
    <glyph glyph-name="Ydieresis" unicode="&#x178;" horiz-adv-x="669" 
d="M660 744l-270 -426v-318h-106v316l-275 428h118l212 -334l205 334h116zM284 863c0 -38 -22 -62 -58 -62s-58 24 -58 62s22 62 58 62s58 -24 58 -62zM513 863c0 -38 -22 -62 -58 -62c-37 0 -59 24 -59 62s22 62 59 62c36 0 58 -24 58 -62z" />
    <glyph glyph-name="minus" unicode="&#x2212;" horiz-adv-x="584" 
d="M528 283h-472v85h472v-85z" />
    <glyph glyph-name="brokenbar" unicode="&#xa6;" horiz-adv-x="233" 
d="M161 388h-89v375h89v-375zM161 -180h-89v376h89v-376z" />
    <glyph glyph-name="multiply" unicode="&#xd7;" 
d="M358 290l163 -164l-63 -62l-164 163l-163 -163l-63 62l163 164l-163 165l63 62l163 -163l164 163l63 -62z" />
    </font>
</defs>
</svg>
