<?xml version="1.0" standalone="no"?>
<!DOCTYPE svg PUBLIC "-//W3C//DTD SVG 1.1//EN" "http://www.w3.org/Graphics/SVG/1.1/DTD/svg11.dtd" >
<svg xmlns="http://www.w3.org/2000/svg" xmlns:xlink="http://www.w3.org/1999/xlink" version="1.1">
<metadata>
Created by FontForge 20160407 at Mon Jun 20 22:21:56 2016
 By Jimmy Wärting
Copyright (c) 1999 by Hubert Jocham. All rights reserved.
</metadata>
<defs>
<font id="NewJune-Bold" horiz-adv-x="590" >
  <font-face 
    font-family="NewJuneBold"
    font-weight="400"
    font-stretch="normal"
    units-per-em="1000"
    panose-1="2 0 5 3 4 0 0 2 0 4"
    ascent="800"
    descent="-200"
    x-height="549"
    cap-height="744"
    bbox="-70 -199 1298 953"
    underline-thickness="50"
    underline-position="-100"
    stemh="118"
    stemv="136"
    unicode-range="U+000D-FB02"
  />
<missing-glyph horiz-adv-x="1000" 
 />
    <glyph glyph-name=".notdef" horiz-adv-x="1000" 
 />
    <glyph glyph-name=".null" horiz-adv-x="0" 
 />
    <glyph glyph-name=".null" horiz-adv-x="0" 
 />
    <glyph glyph-name="CR" unicode="&#xd;" horiz-adv-x="259" 
 />
    <glyph glyph-name="space" unicode=" " horiz-adv-x="259" 
 />
    <glyph glyph-name="numbersign" unicode="#" horiz-adv-x="706" 
d="M677 539l-16 -105h-117l-25 -134h119l-16 -106h-123l-36 -194h-116l37 194h-130l-38 -194h-117l38 194h-111l16 106h116l26 134h-120l16 105h124l39 205h115l-39 -205h128l39 205h115l-39 -205h115zM429 434h-130l-26 -134h131z" />
    <glyph glyph-name="dollar" unicode="$" 
d="M263 447l110 -26c114 -27 182 -89 182 -206c0 -137 -89 -207 -200 -219v-125h-114v125c-50 3 -95 15 -144 30l-57 18l24 132l55 -20c63 -23 129 -37 192 -37c56 0 102 30 102 89c0 57 -29 74 -101 91l-89 21c-111 26 -182 91 -182 205c0 138 89 209 200 219v123h114v-123
c47 -5 93 -16 141 -31l58 -18l-24 -131l-57 19c-64 21 -123 37 -187 37c-61 0 -102 -30 -102 -88c0 -45 24 -72 79 -85z" />
    <glyph glyph-name="percent" unicode="%" horiz-adv-x="915" 
d="M415 566c0 -122 -74 -196 -191 -196c-118 0 -189 75 -189 196c0 120 74 194 191 194c118 0 189 -74 189 -194zM300 566c0 64 -27 102 -76 102c-48 0 -73 -38 -73 -102c0 -66 27 -104 75 -104c49 0 74 37 74 104zM802 744l-557 -744h-138l558 744h137zM881 180
c0 -122 -74 -195 -191 -195c-119 0 -190 74 -190 195s74 194 191 194c119 0 190 -73 190 -194zM765 180c0 65 -27 103 -75 103s-73 -39 -73 -103c0 -65 26 -104 74 -104c49 0 74 38 74 104z" />
    <glyph glyph-name="ampersand" unicode="&#x26;" horiz-adv-x="737" 
d="M702 0h-166l-40 47c-26 -23 -101 -58 -206 -58c-163 0 -245 93 -245 207c0 79 38 151 136 197c-45 52 -75 97 -75 170c0 128 97 193 223 193c128 0 213 -63 213 -180c0 -108 -80 -173 -172 -213l142 -152c27 29 46 98 46 166v76h122v-78c0 -99 -33 -195 -85 -252z
M417 572c0 46 -29 81 -89 81c-65 0 -96 -37 -96 -90c0 -43 22 -74 65 -120c80 32 120 67 120 129zM420 132l-163 174c-47 -19 -74 -55 -74 -108c0 -54 36 -101 121 -101c55 0 99 21 116 35z" />
    <glyph glyph-name="quotesingle" unicode="'" horiz-adv-x="241" 
d="M192 763l-12 -234h-119l-12 234h143z" />
    <glyph glyph-name="parenleft" unicode="(" horiz-adv-x="341" 
d="M38 340c0 349 149 404 274 404v-104c-48 -4 -136 -30 -136 -300c0 -283 88 -307 136 -310v-104c-113 0 -274 60 -274 414z" />
    <glyph glyph-name="parenright" unicode=")" horiz-adv-x="341" 
d="M305 340c0 -354 -161 -414 -274 -414v104c48 3 135 27 135 310c0 270 -87 296 -135 300v104c125 0 274 -55 274 -404z" />
    <glyph glyph-name="asterisk" unicode="*" horiz-adv-x="551" 
d="M514 549l-159 -38l106 -124l-108 -72l-77 136l-78 -135l-107 72l105 124l-159 38l37 118l147 -60l-13 154h135l-13 -155l147 60z" />
    <glyph glyph-name="plus" unicode="+" 
d="M540 239h-187v-198h-121v198h-183v109h183v198h121v-198h187v-109z" />
    <glyph glyph-name="comma" unicode="," horiz-adv-x="242" 
d="M213 139l-53 -184c-9 -29 -30 -46 -67 -46c-52 0 -71 33 -61 73l38 157h143z" />
    <glyph glyph-name="hyphen" unicode="-" horiz-adv-x="428" 
d="M383 270h-338v110h338v-110z" />
    <glyph glyph-name="period" unicode="." horiz-adv-x="242" 
d="M201 68c0 -48 -30 -78 -79 -78c-50 0 -80 30 -80 78c0 47 30 77 80 77c49 0 79 -30 79 -77z" />
    <glyph glyph-name="slash" unicode="/" horiz-adv-x="429" 
d="M421 744l-288 -744h-125l292 744h121z" />
    <glyph glyph-name="zero" unicode="0" 
d="M401 235v272c0 81 -31 127 -105 127s-105 -47 -105 -127v-272c0 -80 31 -128 105 -128s105 46 105 128zM541 504v-265c0 -158 -82 -249 -243 -249s-248 90 -248 246v268c0 156 87 248 246 248c162 0 245 -91 245 -248z" />
    <glyph glyph-name="one" unicode="1" 
d="M559 0h-512v114h201v511h-29c-27 0 -83 -6 -114 -25l-23 114c47 24 130 30 171 30h49c61 0 94 -33 94 -88v-542h163v-114z" />
    <glyph glyph-name="two" unicode="2" 
d="M294 751c138 0 244 -64 244 -224c0 -81 -32 -157 -131 -248l-183 -168h316v-111h-430c-44 0 -67 28 -67 70c0 20 6 49 25 67l227 211c69 64 100 108 101 176c0 74 -50 106 -121 106c-48 0 -106 -15 -161 -32l-48 -15l-20 117l50 16c67 21 136 35 198 35z" />
    <glyph glyph-name="three" unicode="3" 
d="M554 200c0 -135 -100 -208 -259 -208c-67 0 -140 15 -211 36l-52 16l22 116l51 -16c57 -18 129 -34 180 -34c84 0 127 36 127 94c0 31 -11 54 -32 78l-34 37h-147v108h144l27 36c17 22 26 47 26 78c0 56 -36 89 -117 89c-47 0 -109 -15 -162 -31l-48 -15l-20 117l50 15
c67 21 135 35 197 35c153 0 242 -64 242 -198c0 -53 -20 -96 -48 -134l-31 -41l36 -38c41 -42 59 -85 59 -140z" />
    <glyph glyph-name="four" unicode="4" 
d="M363 125h-273c-47 0 -69 29 -69 70c0 24 10 45 22 63l270 437c22 38 55 56 98 56c60 0 91 -27 91 -84v-431h74v-111h-74v-125h-139v125zM363 236v302l-187 -302h187z" />
    <glyph glyph-name="five" unicode="5" 
d="M281 110c91 0 133 52 133 133c0 86 -49 130 -134 130c-39 0 -92 -11 -140 -24l-62 -17v412h448v-121h-328v-155c30 9 71 18 118 18c154 0 239 -79 239 -242c0 -161 -99 -251 -264 -251c-65 0 -129 11 -197 33l-50 16l21 115l50 -15c55 -17 116 -32 166 -32z" />
    <glyph glyph-name="six" unicode="6" 
d="M188 513v-49c40 13 87 22 129 22c161 0 239 -84 239 -239c0 -146 -88 -252 -255 -252c-162 0 -255 100 -255 253v265c0 145 100 237 254 237c61 0 126 -12 191 -33l50 -16l-22 -117l-48 15c-52 16 -115 31 -162 31c-84 0 -121 -43 -121 -117zM188 352v-103
c0 -87 39 -138 115 -138c71 0 110 48 110 130c0 76 -30 129 -122 129c-29 0 -67 -10 -103 -18z" />
    <glyph glyph-name="seven" unicode="7" 
d="M542 601l-247 -601h-156l264 625h-354v119h433c52 0 77 -28 77 -72c0 -24 -8 -49 -17 -71z" />
    <glyph glyph-name="eight" unicode="8" 
d="M297 -9c-161 0 -264 74 -264 207c0 55 18 99 58 141l35 38l-30 41c-27 38 -44 82 -44 134c0 127 95 200 243 200c149 0 244 -73 244 -200c0 -52 -17 -96 -45 -134l-30 -41l35 -38c40 -43 58 -86 58 -141c0 -133 -98 -207 -260 -207zM296 103c80 0 122 39 122 97
c0 31 -11 55 -33 80l-33 37h-114l-33 -37c-22 -24 -32 -49 -32 -80c0 -57 43 -97 123 -97zM295 635c-73 0 -109 -39 -109 -92c0 -32 13 -57 28 -80l25 -37h113l25 37c15 23 28 48 28 80c0 53 -36 92 -110 92z" />
    <glyph glyph-name="nine" unicode="9" 
d="M403 231v49c-40 -13 -87 -22 -129 -22c-161 0 -239 83 -239 238c0 146 88 254 255 254c162 0 255 -101 255 -254v-265c0 -145 -100 -236 -254 -236c-62 0 -126 11 -191 32l-50 16l22 117l48 -15c52 -16 115 -31 162 -31c84 0 121 43 121 117zM403 392v103
c0 87 -39 138 -115 138c-71 0 -110 -48 -110 -130c0 -78 31 -129 122 -129c29 0 67 9 103 18z" />
    <glyph glyph-name="colon" unicode=":" horiz-adv-x="242" 
d="M201 68c0 -48 -30 -78 -79 -78c-50 0 -80 30 -80 78c0 47 30 77 80 77c49 0 79 -30 79 -77zM201 468c0 -47 -30 -77 -79 -77c-50 0 -80 30 -80 77s30 77 80 77c49 0 79 -30 79 -77z" />
    <glyph glyph-name="semicolon" unicode=";" horiz-adv-x="242" 
d="M213 139l-53 -184c-9 -29 -30 -46 -67 -46c-52 0 -71 33 -61 73l38 157h143zM209 468c0 -47 -30 -77 -79 -77c-50 0 -80 30 -80 77s30 77 80 77c49 0 79 -30 79 -77z" />
    <glyph glyph-name="less" unicode="&#x3c;" 
d="M546 45l-437 159c-41 14 -64 43 -64 91s22 77 62 91l439 162v-140l-357 -114l357 -114v-135z" />
    <glyph glyph-name="equal" unicode="=" 
d="M540 156h-491v106h491v-106zM540 334h-491v106h491v-106z" />
    <glyph glyph-name="greater" unicode="&#x3e;" 
d="M481 204l-437 -159v135l357 114l-357 114v140l439 -162c40 -14 62 -43 62 -91s-23 -77 -64 -91z" />
    <glyph glyph-name="question" unicode="?" horiz-adv-x="466" 
d="M219 630c-36 0 -73 -4 -123 -19l-51 -15l-19 112l48 14c58 17 111 24 159 24c126 0 206 -65 206 -178c0 -66 -21 -116 -76 -170l-78 -77l-1 -73l-132 -24v66c0 44 4 67 37 100l68 69c32 32 45 54 46 94c0 43 -21 77 -84 77zM297 65c0 -46 -29 -74 -79 -74s-79 28 -79 74
s29 75 79 75s79 -29 79 -75z" />
    <glyph glyph-name="at" unicode="@" horiz-adv-x="933" 
d="M852 407c0 -153 -100 -249 -207 -249c-44 0 -65 20 -95 20c-38 0 -70 -16 -122 -16c-114 0 -167 72 -167 171c0 115 76 218 213 218c23 0 48 -2 77 -5l3 28h99l-45 -327c3 -2 22 -14 41 -14c54 0 110 62 110 175c0 157 -106 256 -272 256c-184 0 -307 -135 -307 -314
c0 -160 95 -277 259 -277c84 0 148 37 222 37c20 0 45 -5 67 -17l57 -33l-35 -70l-47 23c-15 7 -32 11 -48 11c-58 0 -114 -35 -221 -35c-221 0 -350 158 -350 361c0 232 172 403 403 403c214 0 365 -139 365 -346zM540 467c-22 3 -43 5 -66 5c-78 0 -110 -70 -110 -141
c0 -51 22 -89 75 -89c20 0 38 5 72 11z" />
    <glyph glyph-name="A" unicode="A" horiz-adv-x="718" 
d="M708 0h-166l-45 136h-277l-46 -136h-164l238 676c17 50 54 76 116 76c59 0 98 -27 114 -75zM466 256l-105 331l-109 -331h214z" />
    <glyph glyph-name="B" unicode="B" horiz-adv-x="697" 
d="M414 0h-260c-59 0 -94 33 -94 87v570c0 54 34 87 93 87h257c138 0 219 -62 219 -190c0 -51 -18 -96 -47 -134l-31 -41l38 -38c42 -42 66 -89 66 -145c0 -123 -84 -196 -241 -196zM475 546c0 48 -25 82 -90 82h-165v-197h202l29 41c15 21 24 46 24 74zM425 316h-205v-199
h176c66 0 100 33 100 84c0 28 -11 52 -32 74z" />
    <glyph glyph-name="C" unicode="C" horiz-adv-x="682" 
d="M42 371c0 253 147 378 348 378c67 0 133 -14 205 -36l58 -18l-21 -132l-60 18c-63 19 -112 31 -164 31c-124 0 -196 -77 -196 -241c0 -166 74 -240 197 -240c50 0 104 9 163 29l60 20l21 -133l-58 -18c-71 -22 -139 -37 -206 -36c-204 0 -347 121 -347 378z" />
    <glyph glyph-name="D" unicode="D" horiz-adv-x="739" 
d="M696 370c0 -236 -141 -370 -352 -370h-190c-59 0 -94 33 -94 87v569c0 54 35 88 94 88h193c213 0 349 -139 349 -374zM535 370c0 154 -74 249 -200 249h-112v-493h118c123 0 194 86 194 244z" />
    <glyph glyph-name="E" unicode="E" horiz-adv-x="628" 
d="M585 0h-431c-59 0 -94 33 -94 87v569c0 54 35 88 94 88h429v-123h-360v-183h315v-118h-315v-198h362v-122z" />
    <glyph glyph-name="F" unicode="F" horiz-adv-x="603" 
d="M573 620h-349v-196h319v-119h-319v-305h-164v656c0 54 35 88 94 88h419v-124z" />
    <glyph glyph-name="G" unicode="G" horiz-adv-x="741" 
d="M404 -7c-213 0 -362 124 -362 378c0 251 151 378 361 378c70 0 141 -15 216 -37l60 -18l-23 -133l-66 19c-65 19 -121 31 -173 31c-133 0 -213 -78 -213 -244c0 -171 82 -252 216 -252c41 0 79 4 115 11v148h-152v115h209c57 0 94 -36 94 -87v-157
c0 -72 -15 -105 -80 -123c-67 -18 -136 -29 -202 -29z" />
    <glyph glyph-name="H" unicode="H" horiz-adv-x="723" 
d="M663 0h-163v316h-277v-316h-163v744h163v-306h277v306h163v-744z" />
    <glyph glyph-name="I" unicode="I" horiz-adv-x="285" 
d="M225 0h-165v744h165v-744z" />
    <glyph glyph-name="J" unicode="J" horiz-adv-x="443" 
d="M386 744v-534c0 -139 -83 -212 -218 -212c-47 0 -95 9 -154 25l19 125c44 -11 78 -19 107 -19c59 0 82 28 82 94v521h164z" />
    <glyph glyph-name="K" unicode="K" horiz-adv-x="697" 
d="M675 0h-173l-156 355l-68 -82c-33 -40 -58 -70 -58 -131v-142h-160v744h161v-343l267 343h186l-209 -259z" />
    <glyph glyph-name="L" unicode="L" horiz-adv-x="597" 
d="M560 0h-406c-59 0 -94 33 -94 87v657h165v-611h335v-133z" />
    <glyph glyph-name="M" unicode="M" horiz-adv-x="903" 
d="M843 647v-647h-146v542l-161 -488c-11 -40 -39 -59 -87 -59s-77 20 -90 59l-158 489v-543h-141v647c0 69 49 103 122 103c83 0 118 -41 136 -97l134 -427l140 427c18 56 49 97 132 97c73 0 119 -34 119 -103z" />
    <glyph glyph-name="N" unicode="N" horiz-adv-x="753" 
d="M202 523v-523h-142v649c0 67 43 102 115 102c59 0 93 -30 115 -69l260 -460v522h143v-649c0 -66 -43 -101 -115 -101c-58 0 -91 30 -113 68z" />
    <glyph glyph-name="O" unicode="O" horiz-adv-x="806" 
d="M763 370c0 -244 -147 -378 -363 -378c-215 0 -358 137 -358 378s148 379 363 379s358 -137 358 -379zM598 370c0 165 -74 258 -198 258c-123 0 -193 -93 -193 -258c0 -166 74 -259 198 -259c122 0 193 92 193 259z" />
    <glyph glyph-name="P" unicode="P" horiz-adv-x="656" 
d="M619 506c0 -149 -99 -239 -251 -239h-148v-267h-160v656c0 54 35 88 94 88h224c145 0 241 -91 241 -238zM471 506c0 91 -58 118 -138 118h-113v-236h135c71 0 116 43 116 118z" />
    <glyph glyph-name="Q" unicode="Q" horiz-adv-x="796" 
d="M761 372c0 -152 -69 -257 -167 -305c0 0 62 -26 126 -26h32v-118h-43c-144 0 -188 77 -302 77c-213 0 -365 123 -365 370c0 241 147 379 362 379c216 0 357 -136 357 -377zM598 370c0 165 -74 258 -198 258c-123 0 -193 -93 -193 -258c0 -166 74 -255 198 -255
c122 0 193 88 193 255z" />
    <glyph glyph-name="R" unicode="R" horiz-adv-x="693" 
d="M675 0h-172l-116 274h-164v-274h-163v657c0 52 36 87 93 87h256c144 0 231 -76 231 -215c0 -61 -26 -111 -61 -154l-46 -56zM483 525c0 60 -29 101 -99 101h-161v-234h193l30 40c20 27 37 57 37 93z" />
    <glyph glyph-name="S" unicode="S" horiz-adv-x="653" 
d="M287 448l129 -28c125 -27 194 -85 194 -204c0 -152 -118 -225 -261 -225c-85 0 -156 12 -241 39l-63 21l26 136l63 -22c69 -24 144 -44 213 -44c57 0 108 26 108 88c0 45 -25 71 -84 84l-130 28c-124 27 -194 88 -194 205c0 153 116 223 261 223c85 0 154 -13 239 -40
l63 -20l-28 -137l-63 23c-70 25 -139 44 -209 44c-60 0 -107 -26 -107 -88c0 -45 24 -70 84 -83z" />
    <glyph glyph-name="T" unicode="T" horiz-adv-x="653" 
d="M624 618h-214v-618h-165v618h-214v126h593v-126z" />
    <glyph glyph-name="U" unicode="U" horiz-adv-x="729" 
d="M510 267v477h164v-472c0 -178 -109 -285 -310 -285s-309 106 -309 285v472h164v-477c0 -94 49 -144 145 -144s146 50 146 144z" />
    <glyph glyph-name="V" unicode="V" horiz-adv-x="702" 
d="M692 744l-235 -679c-16 -47 -53 -71 -111 -71c-57 0 -93 24 -109 71l-227 679h167l174 -570l177 570h164z" />
    <glyph glyph-name="W" unicode="W" horiz-adv-x="962" 
d="M947 744l-127 -674c-11 -50 -47 -79 -107 -79s-98 24 -111 73l-120 451l-126 -451c-13 -48 -52 -72 -110 -72c-61 0 -97 29 -106 79l-125 673h157l86 -566l138 508c10 38 42 58 88 58s77 -20 87 -58l135 -509l88 567h153z" />
    <glyph glyph-name="X" unicode="X" horiz-adv-x="733" 
d="M706 0h-181l-158 268l-162 -268h-178l239 374l-234 370h181l156 -258l152 258h178l-229 -366z" />
    <glyph glyph-name="Y" unicode="Y" horiz-adv-x="712" 
d="M704 744l-264 -435v-309h-165v307l-268 437h179l174 -296l167 296h177z" />
    <glyph glyph-name="Z" unicode="Z" horiz-adv-x="667" 
d="M596 595l-355 -473h380v-122h-503c-53 0 -78 33 -78 79c0 26 10 48 26 69l358 473h-366v123h486c54 0 78 -33 78 -80c0 -25 -9 -47 -26 -69z" />
    <glyph glyph-name="bracketleft" unicode="[" horiz-adv-x="341" 
d="M311 -65h-241v809h241v-104h-112v-602h112v-103z" />
    <glyph glyph-name="backslash" unicode="\" horiz-adv-x="429" 
d="M295 0l-287 744h121l292 -744h-126z" />
    <glyph glyph-name="bracketright" unicode="]" horiz-adv-x="341" 
d="M272 -65h-241v103h112v602h-112v104h241v-809z" />
    <glyph glyph-name="asciicircum" unicode="^" 
d="M546 43h-139l-114 354l-114 -354h-136l162 442c13 40 40 63 88 63c47 0 74 -23 89 -62z" />
    <glyph glyph-name="underscore" unicode="_" horiz-adv-x="551" 
d="M560 -175h-573v95h573v-95z" />
    <glyph glyph-name="grave" unicode="`" horiz-adv-x="542" 
d="M302 628l-166 135h178l74 -69c16 -15 20 -29 20 -43c0 -21 -16 -45 -50 -45c-23 0 -40 9 -56 22z" />
    <glyph glyph-name="a" unicode="a" horiz-adv-x="604" 
d="M584 77l-51 -90l-48 27c-25 14 -51 15 -80 8l-33 -8c-45 -11 -101 -20 -140 -20c-120 0 -192 59 -192 159c0 143 122 171 260 171h92v37c0 61 -39 82 -97 82c-44 0 -104 -11 -163 -29l-55 -17l-18 108l51 16c70 22 136 34 199 34c123 0 214 -51 214 -189v-252zM393 118
v112h-117c-63 0 -101 -20 -101 -72c0 -44 31 -65 83 -65c23 0 57 4 93 14z" />
    <glyph glyph-name="b" unicode="b" horiz-adv-x="600" 
d="M296 440c-22 0 -49 -3 -102 -19v-302c55 -12 73 -14 97 -14c94 0 133 66 133 168c0 106 -36 167 -128 167zM319 552c166 0 241 -99 241 -277c0 -172 -98 -280 -263 -280c-50 0 -102 5 -172 25c-47 14 -68 39 -68 86v643c46 8 92 16 137 25v-244c40 13 89 22 125 22z" />
    <glyph glyph-name="c" unicode="c" horiz-adv-x="531" 
d="M181 274c0 -111 45 -165 132 -165c34 0 78 11 126 25l44 13l18 -113l-46 -14c-57 -17 -109 -27 -157 -27c-153 0 -258 91 -258 281c0 184 105 281 258 281c48 0 100 -10 157 -27l46 -14l-18 -113l-44 13c-48 14 -92 25 -126 25c-87 0 -132 -53 -132 -165z" />
    <glyph glyph-name="d" unicode="d" horiz-adv-x="600" 
d="M304 440c-92 0 -128 -61 -128 -167c0 -103 39 -168 133 -168c28 0 49 3 97 14v302c-56 15 -80 18 -102 19zM406 749c45 8 91 16 137 25v-668c0 -47 -21 -73 -68 -86c-74 -21 -125 -25 -174 -25c-165 0 -261 101 -261 277c0 177 84 280 246 280c39 0 78 -10 120 -22v219z
" />
    <glyph glyph-name="e" unicode="e" horiz-adv-x="585" 
d="M40 273c0 196 120 283 259 283c152 0 251 -86 251 -269c0 -39 -18 -58 -58 -58h-317c7 -85 65 -124 148 -124c45 0 90 7 149 25l53 17l18 -104l-53 -17c-69 -22 -119 -32 -177 -32c-164 0 -273 93 -273 279zM416 323c0 73 -36 133 -121 133c-72 0 -116 -51 -121 -133h242
z" />
    <glyph glyph-name="f" unicode="f" horiz-adv-x="407" 
d="M417 743l-17 -104c-39 10 -70 16 -95 16c-54 0 -74 -22 -74 -81v-30h159v-106h-159v-438h-135v438h-79v106h79v41c0 121 70 180 187 180c39 0 81 -8 134 -22z" />
    <glyph glyph-name="g" unicode="g" horiz-adv-x="607" 
d="M400 371c0 59 -46 82 -116 82c-69 0 -115 -23 -115 -82c0 -62 46 -84 115 -84c67 0 116 24 116 84zM457 -12c0 29 -22 48 -73 48h-196c-12 -13 -21 -34 -21 -58c0 -49 52 -66 134 -66c105 0 156 26 156 76zM44 -25c0 46 19 80 38 104l46 58c13 17 18 31 18 46
c0 22 -8 36 -32 53c-31 23 -74 60 -74 135c0 120 96 175 241 175h55c47 0 79 5 100 11l129 37l25 -101l-99 -28s39 -29 39 -94c0 -114 -91 -168 -238 -168c-30 0 -47 4 -47 4c4 -5 8 -17 8 -31c0 -17 -6 -32 -17 -45h157c127 0 186 -54 186 -138c0 -109 -92 -172 -283 -172
c-141 0 -252 42 -252 154z" />
    <glyph glyph-name="h" unicode="h" horiz-adv-x="579" 
d="M299 434c-23 0 -47 -3 -103 -18v-416h-139v749l139 25v-245c42 13 87 23 127 23c155 0 203 -86 203 -196v-356h-137v345c0 48 -23 89 -90 89z" />
    <glyph glyph-name="i" unicode="i" horiz-adv-x="258" 
d="M197 0h-136v549h136v-549zM208 695c0 -46 -29 -75 -79 -75s-79 29 -79 75c0 45 29 74 79 74s79 -29 79 -74z" />
    <glyph glyph-name="j" unicode="j" horiz-adv-x="264" 
d="M203 549v-548c0 -119 -72 -182 -211 -182v102c56 1 75 28 75 83v545h136zM214 695c0 -46 -29 -75 -79 -75s-79 29 -79 75c0 45 29 74 79 74s79 -29 79 -74z" />
    <glyph glyph-name="k" unicode="k" horiz-adv-x="577" 
d="M564 0h-157l-117 250l-44 -48c-30 -33 -54 -59 -53 -118v-84h-136v749l136 25v-460l200 235h166l-162 -186z" />
    <glyph glyph-name="l" unicode="l" horiz-adv-x="256" 
d="M198 0h-141v748l141 26v-774z" />
    <glyph glyph-name="m" unicode="m" horiz-adv-x="872" 
d="M194 420v-420h-137v442c0 48 24 72 70 86c61 19 114 26 165 26c65 0 113 -14 145 -41c49 22 110 41 174 41c145 0 203 -77 203 -192v-362h-136v350c0 49 -22 86 -82 86c-44 0 -74 -12 -101 -22c5 -13 10 -32 10 -57v-357h-136v350c0 51 -20 86 -83 86
c-23 0 -48 -2 -92 -16z" />
    <glyph glyph-name="n" unicode="n" horiz-adv-x="586" 
d="M196 420v-420h-139v442c0 48 24 73 70 86c76 21 130 26 178 26c160 0 223 -82 223 -197v-357h-137v345c0 51 -22 91 -93 91c-24 0 -49 -2 -102 -16z" />
    <glyph glyph-name="o" unicode="o" horiz-adv-x="617" 
d="M577 274c0 -179 -106 -280 -270 -280c-166 0 -267 102 -267 280c0 180 106 281 270 281c165 0 267 -101 267 -281zM438 274c0 115 -47 178 -131 178c-85 0 -127 -64 -127 -178c0 -117 46 -178 130 -178s128 62 128 178z" />
    <glyph glyph-name="p" unicode="p" horiz-adv-x="600" 
d="M296 109c92 0 128 60 128 166c0 103 -39 167 -133 167c-38 0 -61 -6 -97 -13v-302c56 -15 80 -18 102 -18zM194 -161l-137 -25v628c0 47 21 72 68 86c74 21 124 26 174 26c165 0 261 -102 261 -277c0 -177 -84 -280 -246 -280c-39 0 -78 9 -120 22v-180z" />
    <glyph glyph-name="q" unicode="q" horiz-adv-x="600" 
d="M304 109c22 0 46 3 102 18v302c-55 12 -73 13 -97 13c-94 0 -133 -64 -133 -167c0 -106 36 -166 128 -166zM281 -3c-166 0 -241 99 -241 277c0 171 98 280 263 280c50 0 102 -6 172 -26c47 -14 68 -39 68 -86v-604l-137 -25v206c-40 -13 -89 -22 -125 -22z" />
    <glyph glyph-name="r" unicode="r" horiz-adv-x="383" 
d="M368 553v-114c-69 0 -124 -5 -175 -19v-420h-136v440c0 49 24 74 70 87c72 20 134 26 241 26z" />
    <glyph glyph-name="s" unicode="s" horiz-adv-x="550" 
d="M247 333l100 -16c101 -16 156 -65 156 -152c0 -115 -93 -172 -211 -172c-70 0 -127 10 -196 31l-51 16l20 109l52 -17c56 -18 115 -33 173 -33c43 0 81 16 81 59c0 30 -20 49 -68 56l-101 17c-101 16 -155 66 -155 153c0 115 94 171 212 171c70 0 126 -10 195 -31l51 -16
l-20 -110l-53 17c-56 18 -115 34 -172 34c-44 0 -81 -17 -81 -59c0 -31 19 -49 68 -57z" />
    <glyph glyph-name="t" unicode="t" horiz-adv-x="436" 
d="M394 119l17 -104c-53 -14 -94 -21 -134 -21c-126 0 -185 69 -185 203v241h-77v106h77v117l135 25v-142h167v-106h-167v-251c0 -49 18 -84 74 -84c26 0 58 7 93 16z" />
    <glyph glyph-name="u" unicode="u" horiz-adv-x="586" 
d="M389 128v421h139v-442c0 -49 -24 -75 -70 -87c-75 -21 -130 -25 -177 -25c-160 0 -224 82 -224 196v358h137v-345c0 -51 24 -92 93 -92c24 0 49 2 102 16z" />
    <glyph glyph-name="v" unicode="v" horiz-adv-x="569" 
d="M554 549l-174 -496c-12 -39 -52 -64 -101 -64c-50 0 -85 22 -99 64l-165 496h149l119 -403l124 403h147z" />
    <glyph glyph-name="w" unicode="w" horiz-adv-x="818" 
d="M795 549l-105 -489c-9 -44 -45 -71 -95 -71c-64 0 -87 24 -100 68l-86 286l-93 -289c-14 -43 -46 -64 -98 -64c-54 0 -87 25 -96 70l-100 489h143l64 -398l106 352c10 33 35 49 76 49c40 0 66 -17 75 -49l104 -353l67 399h138z" />
    <glyph glyph-name="x" unicode="x" horiz-adv-x="584" 
d="M566 0h-161l-113 182l-114 -182h-158l184 275l-180 274h160l110 -175l104 175h159l-174 -268z" />
    <glyph glyph-name="y" unicode="y" horiz-adv-x="569" 
d="M173 -182c-41 0 -77 7 -128 22l17 104c39 -11 67 -18 96 -18c46 0 59 21 67 48l7 23l-215 552h153l129 -392l112 392h145l-188 -563c-37 -110 -83 -168 -195 -168z" />
    <glyph glyph-name="z" unicode="z" horiz-adv-x="550" 
d="M51 549h392c47 0 69 -30 69 -71c0 -21 -9 -45 -25 -64l-270 -311h293v-103h-401c-47 0 -69 29 -69 70c0 25 11 49 28 69l268 306h-285v104z" />
    <glyph glyph-name="braceleft" unicode="{" horiz-adv-x="338" 
d="M205 338c26 -14 46 -40 46 -78c0 -55 -46 -109 -46 -167c0 -36 21 -56 59 -56h44v-104h-69c-100 0 -158 50 -158 134c0 81 51 134 51 181c0 28 -19 49 -82 49v83c63 0 82 20 82 49c0 46 -51 103 -51 180c0 85 58 135 158 135h69v-105h-44c-38 0 -59 -19 -59 -57
c0 -58 46 -110 46 -166c0 -38 -20 -64 -46 -78z" />
    <glyph glyph-name="bar" unicode="|" horiz-adv-x="265" 
d="M198 -180h-131v943h131v-943z" />
    <glyph glyph-name="braceright" unicode="}" horiz-adv-x="338" 
d="M135 338c-26 14 -46 40 -46 78c0 56 46 108 46 166c0 35 -20 57 -58 57h-45v105h69c101 0 158 -50 158 -135c0 -79 -51 -134 -51 -180c0 -29 20 -49 83 -49v-83c-63 0 -83 -21 -83 -49c0 -47 51 -103 51 -181c0 -84 -57 -134 -158 -134h-69v104h45c38 0 58 18 58 56
c0 58 -46 112 -46 167c0 38 20 64 46 78z" />
    <glyph glyph-name="asciitilde" unicode="~" 
d="M387 207c-37 0 -69 11 -100 33l-45 32c-15 12 -30 19 -49 19c-30 0 -55 -18 -80 -77l-85 54c39 102 106 140 173 140c37 0 68 -11 99 -33l45 -32c15 -12 31 -19 50 -19c29 0 54 19 79 78l85 -55c-39 -102 -105 -140 -172 -140z" />
    <glyph glyph-name="Aring" unicode="&#xc5;" horiz-adv-x="718" 
d="M708 0h-166l-45 136h-277l-46 -136h-164l257 728c-18 16 -30 44 -30 72c0 70 57 119 127 119c71 0 127 -47 127 -119c0 -29 -12 -57 -31 -73zM466 256l-105 331l-109 -331h214zM364 852c-34 0 -54 -23 -54 -52c0 -30 21 -53 54 -53c32 0 55 23 55 53c0 31 -22 52 -55 52z
" />
    <glyph glyph-name="dagger" unicode="&#x2020;" horiz-adv-x="569" 
d="M533 387l-190 17l18 -590h-151l18 590l-192 -17v147l190 -16l-17 226h153l-16 -226l187 15v-146z" />
    <glyph glyph-name="degree" unicode="&#xb0;" horiz-adv-x="476" 
d="M432 566c0 -114 -74 -198 -192 -198c-120 0 -192 85 -192 198c0 112 75 198 194 198s190 -86 190 -198zM332 566c0 61 -34 104 -92 104c-59 0 -90 -43 -90 -104c0 -62 33 -106 91 -106c59 0 91 44 91 106z" />
    <glyph glyph-name="cent" unicode="&#xa2;" 
d="M197 274c0 -111 46 -164 133 -164c34 0 77 10 125 24l45 13l17 -113l-46 -13c-39 -11 -73 -19 -105 -23v-130h-115v132c-118 22 -195 111 -195 274c0 157 77 250 195 274v130h115v-129c32 -3 66 -11 105 -22l46 -13l-17 -113l-45 13c-48 14 -92 24 -126 24
c-87 0 -132 -52 -132 -164z" />
    <glyph glyph-name="sterling" unicode="&#xa3;" 
d="M383 0h-305c-38 0 -52 23 -52 53s14 55 52 55c82 0 107 50 107 102c0 18 -3 36 -10 55h-125v91h78c-41 69 -66 115 -66 183c0 136 96 212 239 212c62 0 127 -13 193 -34l50 -16l-20 -117l-48 16c-54 18 -109 29 -158 30c-80 0 -115 -38 -115 -99c0 -53 18 -90 61 -174
h162v-92h-129c5 -19 8 -38 8 -55c0 -37 -7 -67 -31 -100h107c35 0 80 16 80 76h105c0 -119 -60 -186 -183 -186z" />
    <glyph glyph-name="section" unicode="&#xa7;" 
d="M183 357v-44c0 -77 29 -125 121 -125c29 0 67 8 104 18v45c0 76 -29 124 -121 124c-43 0 -75 -11 -104 -18zM42 314v199c0 145 100 237 257 237c61 0 125 -12 190 -33l50 -16l-22 -117l-48 15c-52 16 -114 31 -161 31c-87 0 -125 -43 -125 -117v-49c40 13 87 22 129 22
c162 0 236 -81 236 -236v-200c0 -145 -100 -237 -256 -237c-62 0 -126 12 -191 33l-50 16l22 117l48 -15c52 -16 115 -31 162 -31c86 0 125 43 125 116v49c-41 -13 -88 -22 -130 -22c-161 0 -236 83 -236 238z" />
    <glyph glyph-name="bullet" unicode="&#x2022;" horiz-adv-x="454" 
d="M377 331c0 -102 -57 -161 -150 -161c-92 0 -149 59 -149 161s57 161 149 161c93 0 150 -59 150 -161z" />
    <glyph glyph-name="paragraph" unicode="&#xb6;" horiz-adv-x="635" 
d="M582 -186h-111v829h-104v-829h-114v409c-147 13 -219 124 -219 259c0 145 83 262 257 262h291v-930z" />
    <glyph glyph-name="germandbls" unicode="&#xdf;" horiz-adv-x="579" 
d="M544 191c0 -117 -82 -191 -216 -191h-73v111h67c59 0 89 36 89 87c0 34 -15 54 -39 79l-56 57c-29 29 -31 67 -11 103l34 59c13 22 21 51 21 83c0 40 -39 85 -86 85c-54 0 -82 -33 -82 -97v-567h-137v564c0 150 98 210 218 210c129 0 220 -67 220 -191
c0 -63 -20 -106 -43 -138l-35 -50l56 -51c47 -43 73 -89 73 -153z" />
    <glyph glyph-name="registered" unicode="&#xae;" horiz-adv-x="933" 
d="M655 174h-102l-57 133h-90v-133h-97v341c0 40 14 58 60 58h139c79 0 129 -47 129 -120c0 -28 -11 -59 -30 -85l-24 -33zM540 450c0 37 -23 50 -61 50h-73v-121h102l20 30c10 15 12 27 12 41zM857 367c0 -227 -177 -392 -391 -392c-216 0 -392 165 -392 392
c0 229 176 390 392 390c214 0 391 -158 391 -390zM761 367c0 184 -130 302 -295 302c-168 0 -297 -120 -297 -302c0 -179 129 -303 297 -303c165 0 295 124 295 303z" />
    <glyph glyph-name="copyright" unicode="&#xa9;" horiz-adv-x="933" 
d="M857 367c0 -227 -177 -392 -391 -392c-216 0 -392 165 -392 392c0 229 176 390 392 390c214 0 391 -158 391 -390zM761 367c0 184 -130 302 -295 302c-168 0 -297 -120 -297 -302c0 -179 129 -303 297 -303c165 0 295 124 295 303zM378 366c0 -81 36 -120 101 -120
c26 0 57 8 94 18l34 10l14 -85l-35 -10c-43 -13 -82 -20 -118 -20c-116 0 -197 67 -197 207c0 137 81 208 197 208c36 0 75 -7 118 -19l35 -11l-14 -85l-34 10c-37 10 -68 17 -94 17c-66 0 -101 -38 -101 -120z" />
    <glyph glyph-name="trademark" unicode="&#x2122;" horiz-adv-x="908" 
d="M854 328h-90v276l-74 -243c-6 -24 -24 -35 -52 -35s-45 11 -52 35l-72 242v-275h-88v360c0 39 29 61 73 61c47 0 70 -22 79 -55l62 -220l66 223c9 31 33 50 79 50c43 0 69 -23 69 -58v-361zM376 665h-115v-337h-102v337h-115v79h332v-79z" />
    <glyph glyph-name="acute" unicode="&#xb4;" horiz-adv-x="542" 
d="M437 763l-166 -135c-16 -13 -33 -22 -56 -22c-34 0 -50 24 -50 45c0 14 4 28 20 43l74 69h178z" />
    <glyph glyph-name="dieresis" unicode="&#xa8;" horiz-adv-x="572" 
d="M248 695c0 -45 -28 -74 -75 -74s-75 29 -75 74s28 74 75 74s75 -29 75 -74zM476 695c0 -45 -28 -74 -75 -74s-75 29 -75 74s28 74 75 74s75 -29 75 -74z" />
    <glyph glyph-name="notequal" unicode="&#x2260;" 
d="M541 157h-261l-58 -119h-105l58 119h-126v103h176l36 77h-212v103h261l65 135h104l-65 -135h127v-103h-176l-35 -77h211v-103z" />
    <glyph glyph-name="AE" unicode="&#xc6;" horiz-adv-x="1056" 
d="M1014 0h-432c-58 0 -93 32 -93 84v52h-261l-52 -136h-166l270 664c22 54 66 80 134 80h597v-123h-359v-183h318v-118h-318v-198h362v-122zM489 256v365h-83l-138 -365h221z" />
    <glyph glyph-name="Oslash" unicode="&#xd8;" horiz-adv-x="806" 
d="M763 370c0 -244 -147 -377 -363 -377c-50 0 -97 7 -138 22l-36 -66h-113l61 111c-84 64 -132 169 -132 310c0 241 148 379 363 379c48 0 94 -8 134 -22l35 65h112l-59 -109c85 -63 136 -169 136 -313zM598 370c0 72 -16 138 -44 175l-230 -417c23 -11 50 -17 81 -17
c122 0 193 92 193 259zM207 370c0 -70 17 -136 42 -173l228 417c-23 9 -48 15 -77 15c-123 0 -193 -94 -193 -259z" />
    <glyph glyph-name="infinity" unicode="&#x221e;" horiz-adv-x="801" 
d="M762 298c0 -128 -64 -219 -193 -219c-29 0 -73 8 -115 30l-52 27l-55 -28c-44 -22 -78 -29 -114 -29c-129 0 -193 91 -193 219c0 129 63 218 193 218c37 0 77 -9 114 -28l54 -28l52 26c43 22 80 30 116 30c130 0 193 -89 193 -218zM645 298c0 80 -34 115 -82 115
c-22 0 -45 -7 -65 -16l-34 -15v-168l50 -21c17 -7 31 -10 49 -10c47 0 82 35 82 115zM338 214v168l-34 16c-19 9 -42 15 -64 15c-49 0 -82 -35 -82 -115s34 -115 82 -115c25 0 47 6 67 16z" />
    <glyph glyph-name="plusminus" unicode="&#xb1;" 
d="M540 290h-187v-143h-121v143h-183v108h183v149h121v-149h187v-108zM540 0h-491v103h491v-103z" />
    <glyph glyph-name="lessequal" unicode="&#x2264;" 
d="M544 133l-435 127c-41 11 -63 36 -63 81c0 44 21 68 61 80l437 129v-118l-351 -92l351 -93v-114zM543 0h-491v103h491v-103z" />
    <glyph glyph-name="greaterequal" unicode="&#x2265;" 
d="M481 260l-436 -127v114l351 93l-351 92v118l437 -129c41 -12 62 -36 62 -80c0 -45 -22 -70 -63 -81zM538 0h-492v103h492v-103z" />
    <glyph glyph-name="yen" unicode="&#xa5;" 
d="M575 744l-159 -309h136v-91h-176v-61h176v-92h-176v-191h-160v191h-177v92h177v61h-177v91h135l-159 309h160l123 -294l119 294h158z" />
    <glyph glyph-name="mu" unicode="&#xb5;" 
d="M57 549h137v-345c0 -52 23 -91 93 -91c24 0 49 2 102 16v420h139v-441c0 -49 -24 -75 -70 -87c-75 -21 -130 -23 -177 -23c-40 0 -73 5 -87 18v-202h-137v735z" />
    <glyph glyph-name="partialdiff" unicode="&#x2202;" 
d="M407 464v49c0 76 -40 117 -122 117c-47 0 -110 -14 -162 -31l-47 -15l-22 117l49 16c65 21 129 32 191 33c154 0 255 -92 255 -237v-265c0 -154 -95 -253 -256 -253c-165 0 -255 100 -255 248c0 153 84 243 242 243c42 0 86 -9 127 -22zM407 249v103
c-45 11 -76 18 -104 18c-92 0 -121 -53 -121 -129c0 -82 41 -130 112 -130c76 0 113 51 113 138z" />
    <glyph glyph-name="summation" unicode="&#x2211;" horiz-adv-x="697" 
d="M667 -179h-551c-50 0 -77 33 -77 77c0 15 3 34 13 48l239 337l-226 314c-15 20 -26 44 -26 70c0 44 27 77 77 77h541v-212h-124v94h-327l246 -343l-246 -344h337v99h124v-217z" />
    <glyph glyph-name="product" unicode="&#x220f;" horiz-adv-x="703" 
d="M672 626h-96v-626h-153v626h-143v-626h-152v626h-97v118h641v-118z" />
    <glyph glyph-name="pi" unicode="&#x3c0;" horiz-adv-x="713" 
d="M511 445v-258c0 -59 20 -84 74 -84c25 0 53 6 93 16l16 -104c-52 -14 -94 -21 -133 -21c-119 0 -185 62 -185 182v269h-136v-445h-136v445h-77v104h651v-104h-167z" />
    <glyph glyph-name="integral" unicode="&#x222b;" 
d="M325 571v-570c0 -119 -72 -182 -210 -182v102c55 1 75 28 75 83v578c0 120 70 183 187 183c40 0 82 -8 134 -22l-16 -104c-40 10 -71 16 -96 16c-54 0 -74 -25 -74 -84z" />
    <glyph glyph-name="ordfeminine" unicode="&#xaa;" 
d="M510 385l-40 -74l-40 21c-18 9 -40 9 -65 4l-21 -5c-32 -8 -71 -14 -103 -14c-94 0 -148 51 -148 127c0 102 80 133 180 133h86v22c0 46 -27 60 -68 60c-33 0 -79 -7 -125 -20l-45 -13l-16 86c72 23 140 39 197 39c93 0 163 -39 163 -148v-192zM359 414v85h-84
c-46 0 -72 -12 -72 -50c0 -35 22 -51 59 -51c16 0 42 4 69 10z" />
    <glyph glyph-name="ordmasculine" unicode="&#xba;" 
d="M498 535c0 -137 -80 -218 -205 -218c-127 0 -204 80 -204 218s80 218 206 218s203 -80 203 -218zM385 535c0 86 -33 134 -92 134c-60 0 -89 -49 -89 -134c0 -87 32 -135 91 -135s90 49 90 135z" />
    <glyph glyph-name="Omega" unicode="&#x2126;" horiz-adv-x="806" 
d="M601 431c0 125 -82 202 -201 202c-118 0 -196 -74 -196 -202c0 -116 66 -191 162 -206v-225h-270v105h173v52c-138 37 -227 134 -227 282c0 186 153 309 363 309s358 -120 358 -305c0 -143 -91 -248 -227 -285v-53h175v-105h-272v225c97 14 162 92 162 206z" />
    <glyph glyph-name="ae" unicode="&#xe6;" horiz-adv-x="937" 
d="M665 -6c-50 -1 -96 9 -140 30c-21 10 -45 14 -68 8l-81 -18c-45 -10 -101 -19 -144 -20c-120 0 -192 59 -192 159c0 149 134 171 274 171h78v37c0 62 -40 82 -97 82c-44 0 -104 -12 -162 -29l-56 -17l-18 108l53 17c71 23 136 33 198 33c70 0 131 -23 165 -68
c45 47 108 69 175 69c153 0 252 -86 252 -269c0 -50 -31 -58 -82 -58h-294c8 -86 69 -124 156 -124c41 0 83 7 141 25l54 17l18 -104l-53 -17c-69 -22 -119 -32 -177 -32zM258 93c23 0 57 5 93 13l75 16c-17 30 -27 65 -31 108h-119c-63 0 -101 -20 -101 -72
c0 -44 31 -65 83 -65zM767 323c0 73 -35 133 -121 133c-71 0 -115 -51 -120 -133h241z" />
    <glyph glyph-name="oslash" unicode="&#xf8;" horiz-adv-x="617" 
d="M184 -52h-101l53 97c-62 47 -96 125 -96 229c0 180 106 281 270 281c34 0 66 -5 94 -14l29 53h100l-51 -92c61 -47 95 -124 95 -228c0 -179 -106 -280 -270 -280c-34 0 -64 4 -92 12zM443 274c0 43 -11 87 -26 111l-149 -282c12 -5 27 -7 42 -7c86 0 133 62 133 178z
M175 274c0 -44 11 -91 27 -114l149 284c-11 5 -30 9 -44 9c-86 0 -132 -65 -132 -179z" />
    <glyph glyph-name="questiondown" unicode="&#xbf;" horiz-adv-x="466" 
d="M248 -73c34 0 75 7 124 21l49 14l20 -112l-49 -15c-58 -18 -111 -24 -158 -24c-128 0 -207 68 -207 181c0 108 80 172 155 244v73l133 24v-66c0 -44 -5 -68 -37 -100l-68 -69c-33 -33 -47 -54 -47 -97s24 -74 85 -74zM169 492c0 46 30 75 79 75c50 0 80 -29 80 -75
s-30 -75 -80 -75c-49 0 -79 29 -79 75z" />
    <glyph glyph-name="exclamdown" unicode="&#xa1;" horiz-adv-x="242" 
d="M54 309l137 24v-519h-137v495zM43 492c0 46 29 75 79 75s79 -29 79 -75s-29 -75 -79 -75s-79 29 -79 75z" />
    <glyph glyph-name="logicalnot" unicode="&#xac;" 
d="M539 84h-120v200h-372v109h492v-309z" />
    <glyph glyph-name="radical" unicode="&#x221a;" horiz-adv-x="667" 
d="M667 638h-98l-166 -585c-12 -43 -47 -65 -96 -65c-50 0 -84 22 -96 65l-115 390h-86v106h202l97 -387l148 582h210v-106z" />
    <glyph glyph-name="florin" unicode="&#x192;" 
d="M328 438v-437c0 -118 -78 -182 -211 -182v102c56 2 76 29 76 83v434h-79v106h79v41c0 119 70 180 187 180c39 0 81 -8 134 -22l-17 -104c-39 10 -70 16 -95 16c-54 0 -74 -22 -74 -81v-30h159v-106h-159z" />
    <glyph glyph-name="approxequal" unicode="&#x2248;" 
d="M290 331l-48 32c-15 10 -30 17 -50 17c-29 0 -57 -18 -81 -71l-83 52c40 92 101 126 168 126c37 0 67 -9 98 -30l46 -32c15 -11 32 -17 51 -17c28 0 59 16 82 72l83 -55c-41 -93 -102 -124 -169 -124c-37 0 -66 8 -97 30zM299 140l-49 32c-15 10 -29 17 -50 17
c-30 0 -56 -19 -80 -71l-83 52c40 92 101 126 168 126c35 0 67 -10 97 -30l47 -32c15 -10 31 -17 51 -17c29 0 58 18 81 72l83 -55c-41 -93 -102 -124 -169 -124c-35 0 -66 9 -96 30z" />
    <glyph glyph-name="Delta" unicode="&#x2206;" horiz-adv-x="693" 
d="M679 0h-662l221 678c16 48 56 73 113 73c63 0 97 -26 112 -74zM485 120l-138 455l-136 -455h274z" />
    <glyph glyph-name="guillemotleft" unicode="&#xab;" horiz-adv-x="580" 
d="M37 282c0 18 8 39 25 57l132 136h141l-187 -193l187 -194h-141l-132 135c-17 18 -25 40 -25 59zM258 282c0 18 8 39 25 57l133 136h142l-189 -193l189 -194h-142l-133 135c-17 18 -25 40 -25 59z" />
    <glyph glyph-name="ellipsis" unicode="&#x2026;" horiz-adv-x="727" 
d="M201 68c0 -48 -30 -78 -79 -78c-50 0 -80 30 -80 78c0 47 30 77 80 77c49 0 79 -30 79 -77zM443 68c0 -48 -29 -78 -79 -78s-79 30 -79 78c0 47 29 77 79 77s79 -30 79 -77zM686 68c0 -48 -30 -78 -79 -78c-50 0 -80 30 -80 78c0 47 30 77 80 77c49 0 79 -30 79 -77z" />
    <glyph glyph-name="OE" unicode="&#x152;" horiz-adv-x="1083" 
d="M1041 0h-647c-210 0 -352 134 -352 370c0 235 137 374 350 374h646v-123h-359v-183h315v-118h-315v-198h362v-122zM204 370c0 -158 71 -244 193 -244h118v493h-111c-127 0 -200 -95 -200 -249z" />
    <glyph glyph-name="oe" unicode="&#x153;" horiz-adv-x="983" 
d="M310 555c87 0 155 -31 197 -88c44 61 113 89 190 89c152 0 251 -86 251 -269c0 -39 -18 -58 -58 -58h-317c7 -85 65 -124 148 -124c45 0 90 6 149 25l53 17l18 -104l-53 -17c-69 -22 -119 -32 -177 -32c-90 0 -161 29 -205 88c-43 -58 -111 -88 -199 -88
c-166 0 -267 102 -267 280c0 180 106 281 270 281zM438 274c0 115 -47 178 -131 178c-85 0 -127 -64 -127 -178c0 -117 46 -178 130 -178s128 62 128 178zM814 323c0 73 -36 133 -121 133c-72 0 -116 -51 -121 -133h242z" />
    <glyph glyph-name="endash" unicode="&#x2013;" 
d="M545 270h-500v109h500v-109z" />
    <glyph glyph-name="emdash" unicode="&#x2014;" horiz-adv-x="1000" 
d="M940 270h-880v108h880v-108z" />
    <glyph glyph-name="quotedblleft" unicode="&#x201c;" horiz-adv-x="428" 
d="M22 532l53 184c9 29 30 46 62 46c52 0 66 -33 56 -73l-38 -157h-133zM218 532l53 184c9 29 25 46 62 46c52 0 66 -33 56 -73l-38 -157h-133z" />
    <glyph glyph-name="quotedblright" unicode="&#x201d;" horiz-adv-x="428" 
d="M399 763l-53 -184c-9 -29 -30 -46 -62 -46c-52 0 -66 33 -56 73l38 157h133zM203 763l-53 -184c-9 -29 -25 -46 -62 -46c-52 0 -66 33 -56 73l38 157h133z" />
    <glyph glyph-name="quoteleft" unicode="&#x2018;" horiz-adv-x="242" 
d="M28 532l53 184c8 29 30 46 67 46c51 0 70 -33 60 -73l-38 -157h-142z" />
    <glyph glyph-name="quoteright" unicode="&#x2019;" horiz-adv-x="242" 
d="M213 763l-53 -184c-8 -29 -30 -46 -67 -46c-51 0 -70 33 -60 73l38 157h142z" />
    <glyph glyph-name="divide" unicode="&#xf7;" 
d="M371 491c0 -43 -29 -72 -78 -72c-48 0 -78 29 -78 72c0 42 30 72 78 72c49 0 78 -30 78 -72zM371 95c0 -43 -29 -71 -78 -71c-48 0 -78 28 -78 71s30 72 78 72c49 0 78 -29 78 -72zM540 239h-491v109h491v-109z" />
    <glyph glyph-name="lozenge" unicode="&#x25ca;" horiz-adv-x="660" 
d="M640 371l-233 -348c-15 -22 -44 -35 -78 -35c-33 0 -62 12 -77 36l-233 347l233 348c16 24 45 36 79 36c32 0 61 -12 76 -36zM487 372l-155 242l-157 -242l157 -243z" />
    <glyph glyph-name="guilsinglleft" unicode="&#x2039;" horiz-adv-x="369" 
d="M36 282c0 18 8 39 25 57l134 136h152l-187 -193l187 -194h-152l-134 135c-17 18 -25 40 -25 59z" />
    <glyph glyph-name="guilsinglright" unicode="&#x203a;" horiz-adv-x="369" 
d="M333 282c0 -19 -8 -41 -25 -59l-134 -135h-152l187 194l-187 193h152l134 -136c17 -18 25 -39 25 -57z" />
    <glyph glyph-name="fi" unicode="&#xfb01;" horiz-adv-x="657" 
d="M607 698c0 -46 -29 -75 -79 -75s-79 29 -79 75c0 45 29 74 79 74s79 -29 79 -74zM231 438v-438h-135v438h-79v106h79v41c0 120 70 180 187 180c38 0 77 -7 134 -21l-17 -105c-39 10 -70 17 -95 17c-54 0 -74 -23 -74 -82v-30h366v-544h-138v438h-228z" />
    <glyph glyph-name="fl" unicode="&#xfb02;" horiz-adv-x="657" 
d="M459 0v641c-62 11 -108 16 -145 16c-61 0 -83 -24 -83 -83v-30h159v-106h-159v-438h-135v438h-79v106h79v41c0 120 72 182 194 182c43 0 95 -6 170 -22l140 28v-773h-141z" />
    <glyph glyph-name="daggerdbl" unicode="&#x2021;" horiz-adv-x="569" 
d="M533 25l-187 15l16 -226h-153l17 226l-190 -16v147l195 -17l-23 125l23 125l-195 -17v147l190 -16l-17 226h153l-16 -226l187 15v-146l-193 17l24 -125l-24 -124l193 16v-146z" />
    <glyph glyph-name="periodcentered" unicode="&#xb7;" horiz-adv-x="374" 
d="M268 364c0 -48 -30 -78 -79 -78c-50 0 -80 30 -80 78c0 47 30 77 80 77c49 0 79 -30 79 -77z" />
    <glyph glyph-name="quotesinglbase" unicode="&#x201a;" horiz-adv-x="242" 
d="M213 139l-53 -184c-8 -29 -30 -46 -67 -46c-51 0 -70 33 -60 73l38 157h142z" />
    <glyph glyph-name="quotedblbase" unicode="&#x201e;" horiz-adv-x="428" 
d="M399 139l-53 -184c-9 -29 -30 -46 -62 -46c-52 0 -66 33 -56 73l38 157h133zM203 139l-53 -184c-9 -29 -25 -46 -62 -46c-52 0 -66 33 -56 73l38 157h133z" />
    <glyph glyph-name="perthousand" unicode="&#x2030;" horiz-adv-x="1329" 
d="M415 566c0 -122 -74 -196 -191 -196c-118 0 -189 75 -189 196c0 120 74 194 191 194c118 0 189 -74 189 -194zM300 566c0 64 -27 102 -76 102c-48 0 -73 -38 -73 -102c0 -66 27 -104 75 -104c49 0 74 37 74 104zM802 744l-557 -744h-138l558 744h137zM881 180
c0 -122 -74 -195 -191 -195c-119 0 -190 74 -190 195s74 194 191 194c119 0 190 -73 190 -194zM765 180c0 65 -27 103 -75 103s-73 -39 -73 -103c0 -65 26 -104 74 -104c49 0 74 38 74 104zM1298 180c0 -122 -74 -195 -191 -195c-119 0 -190 74 -190 195s74 194 191 194
c119 0 190 -73 190 -194zM1182 180c0 65 -27 103 -75 103s-73 -39 -73 -103c0 -65 26 -104 74 -104c49 0 74 38 74 104z" />
    <glyph glyph-name="circumflex" unicode="&#x2c6;" horiz-adv-x="531" 
d="M281 765c31 0 56 -9 75 -29l128 -131h-151l-52 70l-51 -70h-151l127 131c16 16 38 29 75 29z" />
    <glyph glyph-name="tilde" unicode="&#x2dc;" horiz-adv-x="531" 
d="M342 602c-31 0 -56 8 -81 26l-36 26c-13 9 -25 15 -41 15c-23 0 -44 -14 -64 -62l-73 44c31 86 90 118 144 118c30 0 56 -8 80 -27l37 -26c12 -9 24 -14 40 -14c24 0 44 15 64 62l73 -45c-31 -85 -89 -117 -143 -117z" />
    <glyph glyph-name="macron" unicode="&#xaf;" horiz-adv-x="531" 
d="M447 631h-363v106h363v-106z" />
    <glyph glyph-name="breve" unicode="&#x2d8;" horiz-adv-x="531" 
d="M266 601c-109 0 -191 63 -191 162h120c0 -47 26 -73 70 -73c38 0 73 26 73 73h119c0 -99 -82 -162 -191 -162z" />
    <glyph glyph-name="dotaccent" unicode="&#x2d9;" horiz-adv-x="531" 
d="M345 695c0 -46 -30 -75 -79 -75c-50 0 -80 29 -80 75c0 45 30 74 80 74c49 0 79 -29 79 -74z" />
    <glyph glyph-name="ring" unicode="&#x2da;" horiz-adv-x="531" 
d="M278 586c-70 0 -127 50 -127 120c0 71 55 118 127 118c71 0 127 -47 127 -118c0 -70 -57 -120 -127 -120zM278 758c-34 0 -54 -24 -54 -52c0 -31 21 -53 54 -53c32 0 55 22 55 53c0 28 -22 52 -55 52z" />
    <glyph glyph-name="cedilla" unicode="&#xb8;" horiz-adv-x="531" 
d="M363 -115c0 -51 -38 -84 -106 -84c-31 0 -59 5 -98 22l18 57c37 -17 62 -20 80 -20c20 0 34 7 34 23c0 25 -31 28 -84 26l-8 13l41 78h56l-21 -44c50 0 88 -22 88 -71z" />
    <glyph glyph-name="hungarumlaut" unicode="&#x2dd;" horiz-adv-x="531" 
d="M287 763l-135 -136c-15 -17 -34 -25 -56 -25c-31 0 -48 23 -48 46c0 13 3 27 15 39l74 76h150zM500 763l-135 -140c-16 -17 -35 -24 -56 -24c-32 0 -49 23 -49 46c0 12 5 26 16 38l73 80h151z" />
    <glyph glyph-name="ogonek" unicode="&#x2db;" horiz-adv-x="531" 
d="M414 -168c-43 -17 -82 -25 -121 -25c-69 0 -122 27 -122 83c0 33 20 60 49 76l76 20l4 -8c-30 -18 -45 -39 -45 -63c0 -25 21 -36 49 -36c26 0 54 6 94 21z" />
    <glyph glyph-name="caron" unicode="&#x2c7;" horiz-adv-x="531" 
d="M281 604c-31 0 -57 9 -75 29l-128 131h151l52 -70l51 70h151l-127 -131c-15 -17 -38 -29 -75 -29z" />
    <glyph glyph-name="Euro" unicode="&#x20ac;" 
d="M440 251h-202c3 -97 52 -141 133 -141c33 0 79 9 125 23l46 14l18 -114l-43 -13c-59 -18 -111 -27 -160 -27c-147 0 -255 89 -261 258h-70v92h68v61h-68v91h70c7 168 114 257 261 257c49 0 99 -9 157 -27l46 -14l-18 -114l-47 14c-46 14 -91 23 -124 23
c-80 0 -129 -42 -132 -139h201v-91h-204v-61h204v-92z" />
    <glyph glyph-name="Eth" unicode="&#xd0;" horiz-adv-x="749" 
d="M707 370c0 -236 -142 -370 -352 -370h-191c-74 0 -94 49 -94 115v217h-60v92h60v200c0 70 19 120 94 120h193c213 0 350 -139 350 -374zM545 370c0 173 -85 249 -229 249h-82v-195h170v-92h-170v-206h88c140 0 223 68 223 244z" />
    <glyph glyph-name="eth" unicode="&#xf0;" horiz-adv-x="625" 
d="M313 408c-96 0 -128 -64 -128 -150c0 -99 43 -158 123 -158c84 0 121 55 121 151v138c-45 12 -82 18 -116 19zM286 513c55 0 98 -13 144 -26v35c0 30 -6 59 -18 84l-141 -72v82l91 45c-20 10 -47 16 -80 16h-62v86h88c72 0 128 -15 169 -45l105 53v-81l-53 -27
c30 -46 40 -99 40 -175v-240c0 -151 -91 -253 -264 -253c-170 0 -260 112 -260 265c0 144 81 253 241 253z" />
    <glyph glyph-name="Lslash" unicode="&#x141;" horiz-adv-x="607" 
d="M10 416l60 25v303h165v-241l159 67v-103l-159 -66v-268h335v-133h-406c-59 0 -94 33 -94 87v252l-60 -25v102z" />
    <glyph glyph-name="lslash" unicode="&#x142;" horiz-adv-x="282" 
d="M212 0h-141v355l-59 -34v108l59 34v286l141 25v-238l60 34v-109l-60 -34v-427z" />
    <glyph glyph-name="Thorn" unicode="&#xde;" horiz-adv-x="656" 
d="M619 386c0 -148 -99 -238 -251 -238h-148v-148h-160v744h160v-120h158c145 0 241 -90 241 -238zM471 387c0 89 -58 118 -138 118h-113v-237h135c71 0 116 44 116 119z" />
    <glyph glyph-name="Scaron" unicode="&#x160;" horiz-adv-x="651" 
d="M287 448l129 -28c125 -27 194 -85 194 -204c0 -152 -118 -225 -261 -225c-85 0 -156 12 -241 39l-63 21l26 136l63 -22c69 -24 144 -44 213 -44c57 0 108 26 108 88c0 45 -25 71 -84 84l-130 28c-124 27 -194 88 -194 205c0 153 116 223 261 223c85 0 154 -13 239 -40
l63 -20l-28 -137l-63 23c-70 25 -139 44 -209 44c-60 0 -107 -26 -107 -88c0 -45 24 -70 84 -83zM338 781c-31 0 -57 9 -75 29l-128 131h151l52 -70l51 70h151l-127 -131c-15 -17 -38 -29 -75 -29z" />
    <glyph glyph-name="scaron" unicode="&#x161;" horiz-adv-x="548" 
d="M248 333l100 -16c101 -16 156 -65 156 -152c0 -115 -93 -172 -211 -172c-70 0 -127 10 -196 31l-51 16l20 109l52 -17c56 -18 115 -33 173 -33c43 0 81 16 81 59c0 30 -20 49 -68 56l-101 17c-101 16 -155 66 -155 153c0 115 94 171 212 171c70 0 126 -10 195 -31l51 -16
l-20 -110l-53 17c-56 18 -115 34 -172 34c-44 0 -81 -17 -81 -59c0 -31 19 -49 68 -57zM288 604c-31 0 -57 9 -75 29l-128 131h151l52 -70l51 70h151l-127 -131c-15 -17 -38 -29 -75 -29z" />
    <glyph glyph-name="Yacute" unicode="&#xdd;" horiz-adv-x="712" 
d="M704 744l-264 -435v-309h-165v307l-268 437h179l174 -296l167 296h177zM552 940l-166 -135c-16 -13 -33 -22 -56 -22c-34 0 -50 24 -50 45c0 14 4 28 20 43l74 69h178z" />
    <glyph glyph-name="yacute" unicode="&#xfd;" horiz-adv-x="569" 
d="M173 -182c-41 0 -77 7 -128 22l17 104c39 -11 67 -18 96 -18c46 0 59 21 67 48l7 23l-215 552h153l129 -392l112 392h145l-188 -563c-37 -110 -83 -168 -195 -168zM488 763l-166 -135c-16 -13 -33 -22 -56 -22c-34 0 -50 24 -50 45c0 14 4 28 20 43l74 69h178z" />
    <glyph glyph-name="Zcaron" unicode="&#x17d;" horiz-adv-x="667" 
d="M596 595l-355 -473h380v-122h-503c-53 0 -78 33 -78 79c0 26 10 48 26 69l358 473h-366v123h486c54 0 78 -33 78 -80c0 -25 -9 -47 -26 -69zM340 781c-31 0 -57 9 -75 29l-128 131h151l52 -70l51 70h151l-127 -131c-15 -17 -38 -29 -75 -29z" />
    <glyph glyph-name="zcaron" unicode="&#x17e;" horiz-adv-x="550" 
d="M51 549h392c47 0 69 -30 69 -71c0 -21 -9 -45 -25 -64l-270 -311h293v-103h-401c-47 0 -69 29 -69 70c0 25 11 49 28 69l268 306h-285v104zM286 604c-31 0 -57 9 -75 29l-128 131h151l52 -70l51 70h151l-127 -131c-15 -17 -38 -29 -75 -29z" />
    <glyph glyph-name="quotedbl" unicode="&#x22;" horiz-adv-x="419" 
d="M180 763l-12 -234h-107l-12 234h131zM370 763l-11 -234h-107l-13 234h131z" />
    <glyph glyph-name="exclam" unicode="!" horiz-adv-x="242" 
d="M190 248l-137 -24v520h137v-496zM201 65c0 -46 -29 -74 -79 -74s-79 28 -79 74s29 75 79 75s79 -29 79 -75z" />
    <glyph glyph-name="thorn" unicode="&#xfe;" horiz-adv-x="600" 
d="M296 109c92 0 128 60 128 166c0 105 -37 165 -129 165c-33 0 -60 -6 -101 -16v-297c56 -15 80 -18 102 -18zM57 -186v935l137 25v-240c40 11 87 18 123 18c164 0 243 -99 243 -275c0 -177 -84 -280 -246 -280c-39 0 -78 9 -120 22v-180z" />
    <glyph glyph-name="fraction" unicode="&#x2044;" horiz-adv-x="915" 
d="M802 744l-557 -744h-138l558 744h137z" />
    <glyph glyph-name="guillemotright" unicode="&#xbb;" horiz-adv-x="580" 
d="M543 282c0 -19 -8 -41 -25 -59l-132 -135h-141l187 194l-187 193h141l132 -136c17 -18 25 -39 25 -57zM322 282c0 -19 -8 -41 -25 -59l-133 -135h-142l189 194l-189 193h142l133 -136c17 -18 25 -39 25 -57z" />
    <glyph glyph-name="aacute" unicode="&#xe1;" horiz-adv-x="604" 
d="M584 77l-51 -90l-48 27c-25 14 -51 15 -80 8l-33 -8c-45 -11 -101 -20 -140 -20c-120 0 -192 59 -192 159c0 143 122 171 260 171h92v37c0 61 -39 82 -97 82c-44 0 -104 -11 -163 -29l-55 -17l-18 108l51 16c70 22 136 34 199 34c123 0 214 -51 214 -189v-252zM393 118
v112h-117c-63 0 -101 -20 -101 -72c0 -44 31 -65 83 -65c23 0 57 4 93 14zM490 763l-166 -135c-16 -13 -33 -22 -56 -22c-34 0 -50 24 -50 45c0 14 4 28 20 43l74 69h178z" />
    <glyph glyph-name="agrave" unicode="&#xe0;" horiz-adv-x="604" 
d="M584 77l-51 -90l-48 27c-25 14 -51 15 -80 8l-33 -8c-45 -11 -101 -20 -140 -20c-120 0 -192 59 -192 159c0 143 122 171 260 171h92v37c0 61 -39 82 -97 82c-44 0 -104 -11 -163 -29l-55 -17l-18 108l51 16c70 22 136 34 199 34c123 0 214 -51 214 -189v-252zM393 118
v112h-117c-63 0 -101 -20 -101 -72c0 -44 31 -65 83 -65c23 0 57 4 93 14zM307 628l-166 135h178l74 -69c16 -15 20 -29 20 -43c0 -21 -16 -45 -50 -45c-23 0 -40 9 -56 22z" />
    <glyph glyph-name="acircumflex" unicode="&#xe2;" horiz-adv-x="604" 
d="M584 77l-51 -90l-48 27c-25 14 -51 15 -80 8l-33 -8c-45 -11 -101 -20 -140 -20c-120 0 -192 59 -192 159c0 143 122 171 260 171h92v37c0 61 -39 82 -97 82c-44 0 -104 -11 -163 -29l-55 -17l-18 108l51 16c70 22 136 34 199 34c123 0 214 -51 214 -189v-252zM393 118
v112h-117c-63 0 -101 -20 -101 -72c0 -44 31 -65 83 -65c23 0 57 4 93 14zM306 765c31 0 56 -9 75 -29l128 -131h-151l-52 70l-51 -70h-151l127 131c16 16 38 29 75 29z" />
    <glyph glyph-name="adieresis" unicode="&#xe4;" horiz-adv-x="604" 
d="M584 77l-51 -90l-48 27c-25 14 -51 15 -80 8l-33 -8c-45 -11 -101 -20 -140 -20c-120 0 -192 59 -192 159c0 143 122 171 260 171h92v37c0 61 -39 82 -97 82c-44 0 -104 -11 -163 -29l-55 -17l-18 108l51 16c70 22 136 34 199 34c123 0 214 -51 214 -189v-252zM393 118
v112h-117c-63 0 -101 -20 -101 -72c0 -44 31 -65 83 -65c23 0 57 4 93 14zM269 695c0 -45 -28 -74 -75 -74s-75 29 -75 74s28 74 75 74s75 -29 75 -74zM497 695c0 -45 -28 -74 -75 -74s-75 29 -75 74s28 74 75 74s75 -29 75 -74z" />
    <glyph glyph-name="atilde" unicode="&#xe3;" horiz-adv-x="604" 
d="M584 77l-51 -90l-48 27c-25 14 -51 15 -80 8l-33 -8c-45 -11 -101 -20 -140 -20c-120 0 -192 59 -192 159c0 143 122 171 260 171h92v37c0 61 -39 82 -97 82c-44 0 -104 -11 -163 -29l-55 -17l-18 108l51 16c70 22 136 34 199 34c123 0 214 -51 214 -189v-252zM393 118
v112h-117c-63 0 -101 -20 -101 -72c0 -44 31 -65 83 -65c23 0 57 4 93 14zM380 602c-31 0 -56 8 -81 26l-36 26c-13 9 -25 15 -41 15c-23 0 -44 -14 -64 -62l-73 44c31 86 90 118 144 118c30 0 56 -8 80 -27l37 -26c12 -9 24 -14 40 -14c24 0 44 15 64 62l73 -45
c-31 -85 -89 -117 -143 -117z" />
    <glyph glyph-name="aring" unicode="&#xe5;" horiz-adv-x="604" 
d="M584 77l-51 -90l-48 27c-25 14 -51 15 -80 8l-33 -8c-45 -11 -101 -20 -140 -20c-120 0 -192 59 -192 159c0 143 122 171 260 171h92v37c0 61 -39 82 -97 82c-44 0 -104 -11 -163 -29l-55 -17l-18 108l51 16c70 22 136 34 199 34c123 0 214 -51 214 -189v-252zM393 118
v112h-117c-63 0 -101 -20 -101 -72c0 -44 31 -65 83 -65c23 0 57 4 93 14zM304 586c-70 0 -127 50 -127 120c0 71 55 118 127 118c71 0 127 -47 127 -118c0 -70 -57 -120 -127 -120zM304 758c-34 0 -54 -24 -54 -52c0 -31 21 -53 54 -53c32 0 55 22 55 53
c0 28 -22 52 -55 52z" />
    <glyph glyph-name="ccedilla" unicode="&#xe7;" horiz-adv-x="531" 
d="M181 274c0 -111 45 -165 132 -165c34 0 78 11 126 25l44 13l18 -113l-46 -14c-57 -17 -109 -27 -157 -27c-153 0 -258 91 -258 281c0 184 105 281 258 281c48 0 100 -10 157 -27l46 -14l-18 -113l-44 13c-48 14 -92 25 -126 25c-87 0 -132 -53 -132 -165zM389 -115
c0 -51 -38 -84 -106 -84c-31 0 -59 5 -98 22l18 57c37 -17 62 -20 80 -20c20 0 34 7 34 23c0 25 -31 28 -84 26l-8 13l41 78h56l-21 -44c50 0 88 -22 88 -71z" />
    <glyph glyph-name="eacute" unicode="&#xe9;" horiz-adv-x="585" 
d="M40 273c0 196 120 283 259 283c152 0 251 -86 251 -269c0 -39 -18 -58 -58 -58h-317c7 -85 65 -124 148 -124c45 0 90 7 149 25l53 17l18 -104l-53 -17c-69 -22 -119 -32 -177 -32c-164 0 -273 93 -273 279zM416 323c0 73 -36 133 -121 133c-72 0 -116 -51 -121 -133h242
zM489 763l-166 -135c-16 -13 -33 -22 -56 -22c-34 0 -50 24 -50 45c0 14 4 28 20 43l74 69h178z" />
    <glyph glyph-name="dotlessi" unicode="&#x131;" horiz-adv-x="258" 
d="M197 0h-136v549h136v-549z" />
    <glyph glyph-name="egrave" unicode="&#xe8;" horiz-adv-x="585" 
d="M40 273c0 196 120 283 259 283c152 0 251 -86 251 -269c0 -39 -18 -58 -58 -58h-317c7 -85 65 -124 148 -124c45 0 90 7 149 25l53 17l18 -104l-53 -17c-69 -22 -119 -32 -177 -32c-164 0 -273 93 -273 279zM416 323c0 73 -36 133 -121 133c-72 0 -116 -51 -121 -133h242
zM292 628l-166 135h178l74 -69c16 -15 20 -29 20 -43c0 -21 -16 -45 -50 -45c-23 0 -40 9 -56 22z" />
    <glyph glyph-name="ecircumflex" unicode="&#xea;" horiz-adv-x="585" 
d="M40 273c0 196 120 283 259 283c152 0 251 -86 251 -269c0 -39 -18 -58 -58 -58h-317c7 -85 65 -124 148 -124c45 0 90 7 149 25l53 17l18 -104l-53 -17c-69 -22 -119 -32 -177 -32c-164 0 -273 93 -273 279zM416 323c0 73 -36 133 -121 133c-72 0 -116 -51 -121 -133h242
zM300 765c31 0 56 -9 75 -29l128 -131h-151l-52 70l-51 -70h-151l127 131c16 16 38 29 75 29z" />
    <glyph glyph-name="edieresis" unicode="&#xeb;" horiz-adv-x="585" 
d="M40 273c0 196 120 283 259 283c152 0 251 -86 251 -269c0 -39 -18 -58 -58 -58h-317c7 -85 65 -124 148 -124c45 0 90 7 149 25l53 17l18 -104l-53 -17c-69 -22 -119 -32 -177 -32c-164 0 -273 93 -273 279zM416 323c0 73 -36 133 -121 133c-72 0 -116 -51 -121 -133h242
zM262 695c0 -45 -28 -74 -75 -74s-75 29 -75 74s28 74 75 74s75 -29 75 -74zM490 695c0 -45 -28 -74 -75 -74s-75 29 -75 74s28 74 75 74s75 -29 75 -74z" />
    <glyph glyph-name="iacute" unicode="&#xed;" horiz-adv-x="258" 
d="M197 0h-136v549h136v-549zM297 763l-166 -135c-16 -13 -33 -22 -56 -22c-34 0 -50 24 -50 45c0 14 4 28 20 43l74 69h178z" />
    <glyph glyph-name="igrave" unicode="&#xec;" horiz-adv-x="258" 
d="M197 0h-136v549h136v-549zM120 628l-166 135h178l74 -69c16 -15 20 -29 20 -43c0 -21 -16 -45 -50 -45c-23 0 -40 9 -56 22z" />
    <glyph glyph-name="icircumflex" unicode="&#xee;" horiz-adv-x="258" 
d="M197 0h-136v549h136v-549zM132 765c31 0 56 -9 75 -29l128 -131h-151l-52 70l-51 -70h-151l127 131c16 16 38 29 75 29z" />
    <glyph glyph-name="idieresis" unicode="&#xef;" horiz-adv-x="258" 
d="M197 0h-136v549h136v-549zM92 695c0 -45 -28 -74 -75 -74s-75 29 -75 74s28 74 75 74s75 -29 75 -74zM320 695c0 -45 -28 -74 -75 -74s-75 29 -75 74s28 74 75 74s75 -29 75 -74z" />
    <glyph glyph-name="ntilde" unicode="&#xf1;" horiz-adv-x="586" 
d="M196 420v-420h-139v442c0 48 24 73 70 86c76 21 130 26 178 26c160 0 223 -82 223 -197v-357h-137v345c0 51 -22 91 -93 91c-24 0 -49 -2 -102 -16zM371 602c-31 0 -56 8 -81 26l-36 26c-13 9 -25 15 -41 15c-23 0 -44 -14 -64 -62l-73 44c31 86 90 118 144 118
c30 0 56 -8 80 -27l37 -26c12 -9 24 -14 40 -14c24 0 44 15 64 62l73 -45c-31 -85 -89 -117 -143 -117z" />
    <glyph glyph-name="oacute" unicode="&#xf3;" horiz-adv-x="617" 
d="M577 274c0 -179 -106 -280 -270 -280c-166 0 -267 102 -267 280c0 180 106 281 270 281c165 0 267 -101 267 -281zM438 274c0 115 -47 178 -131 178c-85 0 -127 -64 -127 -178c0 -117 46 -178 130 -178s128 62 128 178zM477 763l-166 -135c-16 -13 -33 -22 -56 -22
c-34 0 -50 24 -50 45c0 14 4 28 20 43l74 69h178z" />
    <glyph glyph-name="ograve" unicode="&#xf2;" horiz-adv-x="617" 
d="M577 274c0 -179 -106 -280 -270 -280c-166 0 -267 102 -267 280c0 180 106 281 270 281c165 0 267 -101 267 -281zM438 274c0 115 -47 178 -131 178c-85 0 -127 -64 -127 -178c0 -117 46 -178 130 -178s128 62 128 178zM318 628l-166 135h178l74 -69
c16 -15 20 -29 20 -43c0 -21 -16 -45 -50 -45c-23 0 -40 9 -56 22z" />
    <glyph glyph-name="ocircumflex" unicode="&#xf4;" horiz-adv-x="617" 
d="M577 274c0 -179 -106 -280 -270 -280c-166 0 -267 102 -267 280c0 180 106 281 270 281c165 0 267 -101 267 -281zM438 274c0 115 -47 178 -131 178c-85 0 -127 -64 -127 -178c0 -117 46 -178 130 -178s128 62 128 178zM310 765c31 0 56 -9 75 -29l128 -131h-151l-52 70
l-51 -70h-151l127 131c16 16 38 29 75 29z" />
    <glyph glyph-name="odieresis" unicode="&#xf6;" horiz-adv-x="617" 
d="M577 274c0 -179 -106 -280 -270 -280c-166 0 -267 102 -267 280c0 180 106 281 270 281c165 0 267 -101 267 -281zM438 274c0 115 -47 178 -131 178c-85 0 -127 -64 -127 -178c0 -117 46 -178 130 -178s128 62 128 178zM273 695c0 -45 -28 -74 -75 -74s-75 29 -75 74
s28 74 75 74s75 -29 75 -74zM501 695c0 -45 -28 -74 -75 -74s-75 29 -75 74s28 74 75 74s75 -29 75 -74z" />
    <glyph glyph-name="otilde" unicode="&#xf5;" horiz-adv-x="617" 
d="M577 274c0 -179 -106 -280 -270 -280c-166 0 -267 102 -267 280c0 180 106 281 270 281c165 0 267 -101 267 -281zM438 274c0 115 -47 178 -131 178c-85 0 -127 -64 -127 -178c0 -117 46 -178 130 -178s128 62 128 178zM392 602c-31 0 -56 8 -81 26l-36 26
c-13 9 -25 15 -41 15c-23 0 -44 -14 -64 -62l-73 44c31 86 90 118 144 118c30 0 56 -8 80 -27l37 -26c12 -9 24 -14 40 -14c24 0 44 15 64 62l73 -45c-31 -85 -89 -117 -143 -117z" />
    <glyph glyph-name="uacute" unicode="&#xfa;" horiz-adv-x="586" 
d="M389 128v421h139v-442c0 -49 -24 -75 -70 -87c-75 -21 -130 -25 -177 -25c-160 0 -224 82 -224 196v358h137v-345c0 -51 24 -92 93 -92c24 0 49 2 102 16zM466 763l-166 -135c-16 -13 -33 -22 -56 -22c-34 0 -50 24 -50 45c0 14 4 28 20 43l74 69h178z" />
    <glyph glyph-name="ugrave" unicode="&#xf9;" horiz-adv-x="586" 
d="M389 128v421h139v-442c0 -49 -24 -75 -70 -87c-75 -21 -130 -25 -177 -25c-160 0 -224 82 -224 196v358h137v-345c0 -51 24 -92 93 -92c24 0 49 2 102 16zM286 628l-166 135h178l74 -69c16 -15 20 -29 20 -43c0 -21 -16 -45 -50 -45c-23 0 -40 9 -56 22z" />
    <glyph glyph-name="ucircumflex" unicode="&#xfb;" horiz-adv-x="586" 
d="M389 128v421h139v-442c0 -49 -24 -75 -70 -87c-75 -21 -130 -25 -177 -25c-160 0 -224 82 -224 196v358h137v-345c0 -51 24 -92 93 -92c24 0 49 2 102 16zM294 765c31 0 56 -9 75 -29l128 -131h-151l-52 70l-51 -70h-151l127 131c16 16 38 29 75 29z" />
    <glyph glyph-name="udieresis" unicode="&#xfc;" horiz-adv-x="586" 
d="M389 128v421h139v-442c0 -49 -24 -75 -70 -87c-75 -21 -130 -25 -177 -25c-160 0 -224 82 -224 196v358h137v-345c0 -51 24 -92 93 -92c24 0 49 2 102 16zM255 695c0 -45 -28 -74 -75 -74s-75 29 -75 74s28 74 75 74s75 -29 75 -74zM483 695c0 -45 -28 -74 -75 -74
s-75 29 -75 74s28 74 75 74s75 -29 75 -74z" />
    <glyph glyph-name="ydieresis" unicode="&#xff;" horiz-adv-x="569" 
d="M173 -182c-41 0 -77 7 -128 22l17 104c39 -11 67 -18 96 -18c46 0 59 21 67 48l7 23l-215 552h153l129 -392l112 392h145l-188 -563c-37 -110 -83 -168 -195 -168zM259 695c0 -45 -28 -74 -75 -74s-75 29 -75 74s28 74 75 74s75 -29 75 -74zM487 695
c0 -45 -28 -74 -75 -74s-75 29 -75 74s28 74 75 74s75 -29 75 -74z" />
    <glyph glyph-name="Adieresis" unicode="&#xc4;" horiz-adv-x="718" 
d="M708 0h-166l-45 136h-277l-46 -136h-164l238 676c17 50 54 76 116 76c59 0 98 -27 114 -75zM466 256l-105 331l-109 -331h214zM326 863c0 -45 -28 -74 -75 -74s-75 29 -75 74s28 74 75 74s75 -29 75 -74zM554 863c0 -45 -28 -74 -75 -74s-75 29 -75 74s28 74 75 74
s75 -29 75 -74z" />
    <glyph glyph-name="Aacute" unicode="&#xc1;" horiz-adv-x="718" 
d="M708 0h-166l-45 136h-277l-46 -136h-164l238 676c17 50 54 76 116 76c59 0 98 -27 114 -75zM466 256l-105 331l-109 -331h214zM515 940l-166 -135c-16 -13 -33 -22 -56 -22c-34 0 -50 24 -50 45c0 14 4 28 20 43l74 69h178z" />
    <glyph glyph-name="Acircumflex" unicode="&#xc2;" horiz-adv-x="718" 
d="M708 0h-166l-45 136h-277l-46 -136h-164l238 676c17 50 54 76 116 76c59 0 98 -27 114 -75zM466 256l-105 331l-109 -331h214zM364 952c31 0 56 -9 75 -29l128 -131h-151l-52 70l-51 -70h-151l127 131c16 16 38 29 75 29z" />
    <glyph glyph-name="Atilde" unicode="&#xc3;" horiz-adv-x="718" 
d="M708 0h-166l-45 136h-277l-46 -136h-164l238 676c17 50 54 76 116 76c59 0 98 -27 114 -75zM466 256l-105 331l-109 -331h214zM438 784c-31 0 -56 8 -81 26l-36 26c-13 9 -25 15 -41 15c-23 0 -44 -14 -64 -62l-73 44c31 86 90 118 144 118c30 0 56 -8 80 -27l37 -26
c12 -9 24 -14 40 -14c24 0 44 15 64 62l73 -45c-31 -85 -89 -117 -143 -117z" />
    <glyph glyph-name="Agrave" unicode="&#xc0;" horiz-adv-x="718" 
d="M708 0h-166l-45 136h-277l-46 -136h-164l238 676c17 50 54 76 116 76c59 0 98 -27 114 -75zM466 256l-105 331l-109 -331h214zM375 805l-166 135h178l74 -69c16 -15 20 -29 20 -43c0 -21 -16 -45 -50 -45c-23 0 -40 9 -56 22z" />
    <glyph glyph-name="Ccedilla" unicode="&#xc7;" horiz-adv-x="682" 
d="M42 371c0 253 147 378 348 378c67 0 133 -14 205 -36l58 -18l-21 -132l-60 18c-63 19 -112 31 -164 31c-124 0 -196 -77 -196 -241c0 -166 74 -240 197 -240c50 0 104 9 163 29l60 20l21 -133l-58 -18c-71 -22 -139 -37 -206 -36c-204 0 -347 121 -347 378zM486 -115
c0 -51 -38 -84 -106 -84c-31 0 -59 5 -98 22l18 57c37 -17 62 -20 80 -20c20 0 34 7 34 23c0 25 -31 28 -84 26l-8 13l41 78h56l-21 -44c50 0 88 -22 88 -71z" />
    <glyph glyph-name="Eacute" unicode="&#xc9;" horiz-adv-x="628" 
d="M585 0h-431c-59 0 -94 33 -94 87v569c0 54 35 88 94 88h429v-123h-360v-183h315v-118h-315v-198h362v-122zM504 940l-166 -135c-16 -13 -33 -22 -56 -22c-34 0 -50 24 -50 45c0 14 4 28 20 43l74 69h178z" />
    <glyph glyph-name="Edieresis" unicode="&#xcb;" horiz-adv-x="628" 
d="M585 0h-431c-59 0 -94 33 -94 87v569c0 54 35 88 94 88h429v-123h-360v-183h315v-118h-315v-198h362v-122zM292 862c0 -45 -28 -74 -75 -74s-75 29 -75 74s28 74 75 74s75 -29 75 -74zM520 862c0 -45 -28 -74 -75 -74s-75 29 -75 74s28 74 75 74s75 -29 75 -74z" />
    <glyph glyph-name="Egrave" unicode="&#xc8;" horiz-adv-x="628" 
d="M585 0h-431c-59 0 -94 33 -94 87v569c0 54 35 88 94 88h429v-123h-360v-183h315v-118h-315v-198h362v-122zM323 805l-166 135h178l74 -69c16 -15 20 -29 20 -43c0 -21 -16 -45 -50 -45c-23 0 -40 9 -56 22z" />
    <glyph glyph-name="Ecircumflex" unicode="&#xca;" horiz-adv-x="628" 
d="M585 0h-431c-59 0 -94 33 -94 87v569c0 54 35 88 94 88h429v-123h-360v-183h315v-118h-315v-198h362v-122zM326 952c31 0 56 -9 75 -29l128 -131h-151l-52 70l-51 -70h-151l127 131c16 16 38 29 75 29z" />
    <glyph glyph-name="Iacute" unicode="&#xcd;" horiz-adv-x="285" 
d="M225 0h-165v744h165v-744zM316 939l-166 -135c-16 -13 -33 -22 -56 -22c-34 0 -50 24 -50 45c0 14 4 28 20 43l74 69h178z" />
    <glyph glyph-name="Icircumflex" unicode="&#xce;" horiz-adv-x="285" 
d="M225 0h-165v744h165v-744zM142 952c31 0 56 -9 75 -29l128 -131h-151l-52 70l-51 -70h-151l127 131c16 16 38 29 75 29z" />
    <glyph glyph-name="Idieresis" unicode="&#xcf;" horiz-adv-x="285" 
d="M225 0h-165v744h165v-744zM105 863c0 -45 -28 -74 -75 -74s-75 29 -75 74s28 74 75 74s75 -29 75 -74zM333 863c0 -45 -28 -74 -75 -74s-75 29 -75 74s28 74 75 74s75 -29 75 -74z" />
    <glyph glyph-name="Igrave" unicode="&#xcc;" horiz-adv-x="285" 
d="M225 0h-165v744h165v-744zM146 804l-166 135h178l74 -69c16 -15 20 -29 20 -43c0 -21 -16 -45 -50 -45c-23 0 -40 9 -56 22z" />
    <glyph glyph-name="Ntilde" unicode="&#xd1;" horiz-adv-x="753" 
d="M202 523v-523h-142v649c0 67 43 102 115 102c59 0 93 -30 115 -69l260 -460v522h143v-649c0 -66 -43 -101 -115 -101c-58 0 -91 30 -113 68zM462 785c-31 0 -56 8 -81 26l-36 26c-13 9 -25 15 -41 15c-23 0 -44 -14 -64 -62l-73 44c31 86 90 118 144 118
c30 0 56 -8 80 -27l37 -26c12 -9 24 -14 40 -14c24 0 44 15 64 62l73 -45c-31 -85 -89 -117 -143 -117z" />
    <glyph glyph-name="Odieresis" unicode="&#xd6;" horiz-adv-x="806" 
d="M763 370c0 -244 -147 -378 -363 -378c-215 0 -358 137 -358 378s148 379 363 379s358 -137 358 -379zM598 370c0 165 -74 258 -198 258c-123 0 -193 -93 -193 -258c0 -166 74 -259 198 -259c122 0 193 92 193 259zM365 862c0 -45 -28 -74 -75 -74s-75 29 -75 74
s28 74 75 74s75 -29 75 -74zM593 862c0 -45 -28 -74 -75 -74s-75 29 -75 74s28 74 75 74s75 -29 75 -74z" />
    <glyph glyph-name="Otilde" unicode="&#xd5;" horiz-adv-x="806" 
d="M763 370c0 -244 -147 -378 -363 -378c-215 0 -358 137 -358 378s148 379 363 379s358 -137 358 -379zM598 370c0 165 -74 258 -198 258c-123 0 -193 -93 -193 -258c0 -166 74 -259 198 -259c122 0 193 92 193 259zM485 786c-31 0 -56 8 -81 26l-36 26
c-13 9 -25 15 -41 15c-23 0 -44 -14 -64 -62l-73 44c31 86 90 118 144 118c30 0 56 -8 80 -27l37 -26c12 -9 24 -14 40 -14c24 0 44 15 64 62l73 -45c-31 -85 -89 -117 -143 -117z" />
    <glyph glyph-name="Ograve" unicode="&#xd2;" horiz-adv-x="806" 
d="M763 370c0 -244 -147 -378 -363 -378c-215 0 -358 137 -358 378s148 379 363 379s358 -137 358 -379zM598 370c0 165 -74 258 -198 258c-123 0 -193 -93 -193 -258c0 -166 74 -259 198 -259c122 0 193 92 193 259zM408 804l-166 135h178l74 -69c16 -15 20 -29 20 -43
c0 -21 -16 -45 -50 -45c-23 0 -40 9 -56 22z" />
    <glyph glyph-name="Ocircumflex" unicode="&#xd4;" horiz-adv-x="806" 
d="M763 370c0 -244 -147 -378 -363 -378c-215 0 -358 137 -358 378s148 379 363 379s358 -137 358 -379zM598 370c0 165 -74 258 -198 258c-123 0 -193 -93 -193 -258c0 -166 74 -259 198 -259c122 0 193 92 193 259zM407 952c31 0 56 -9 75 -29l128 -131h-151l-52 70
l-51 -70h-151l127 131c16 16 38 29 75 29z" />
    <glyph glyph-name="Oacute" unicode="&#xd3;" horiz-adv-x="806" 
d="M763 370c0 -244 -147 -378 -363 -378c-215 0 -358 137 -358 378s148 379 363 379s358 -137 358 -379zM598 370c0 165 -74 258 -198 258c-123 0 -193 -93 -193 -258c0 -166 74 -259 198 -259c122 0 193 92 193 259zM579 939l-166 -135c-16 -13 -33 -22 -56 -22
c-34 0 -50 24 -50 45c0 14 4 28 20 43l74 69h178z" />
    <glyph glyph-name="Udieresis" unicode="&#xdc;" horiz-adv-x="729" 
d="M510 267v477h164v-472c0 -178 -109 -285 -310 -285s-309 106 -309 285v472h164v-477c0 -94 49 -144 145 -144s146 50 146 144zM330 862c0 -45 -28 -74 -75 -74s-75 29 -75 74s28 74 75 74s75 -29 75 -74zM558 862c0 -45 -28 -74 -75 -74s-75 29 -75 74s28 74 75 74
s75 -29 75 -74z" />
    <glyph glyph-name="Uacute" unicode="&#xda;" horiz-adv-x="729" 
d="M510 267v477h164v-472c0 -178 -109 -285 -310 -285s-309 106 -309 285v472h164v-477c0 -94 49 -144 145 -144s146 50 146 144zM551 940l-166 -135c-16 -13 -33 -22 -56 -22c-34 0 -50 24 -50 45c0 14 4 28 20 43l74 69h178z" />
    <glyph glyph-name="Ucircumflex" unicode="&#xdb;" horiz-adv-x="729" 
d="M510 267v477h164v-472c0 -178 -109 -285 -310 -285s-309 106 -309 285v472h164v-477c0 -94 49 -144 145 -144s146 50 146 144zM365 952c31 0 56 -9 75 -29l128 -131h-151l-52 70l-51 -70h-151l127 131c16 16 38 29 75 29z" />
    <glyph glyph-name="Ugrave" unicode="&#xd9;" horiz-adv-x="729" 
d="M510 267v477h164v-472c0 -178 -109 -285 -310 -285s-309 106 -309 285v472h164v-477c0 -94 49 -144 145 -144s146 50 146 144zM352 805l-166 135h178l74 -69c16 -15 20 -29 20 -43c0 -21 -16 -45 -50 -45c-23 0 -40 9 -56 22z" />
    <glyph glyph-name="Ydieresis" unicode="&#x178;" horiz-adv-x="712" 
d="M704 744l-264 -435v-309h-165v307l-268 437h179l174 -296l167 296h177zM324 863c0 -45 -28 -74 -75 -74s-75 29 -75 74s28 74 75 74s75 -29 75 -74zM552 863c0 -45 -28 -74 -75 -74s-75 29 -75 74s28 74 75 74s75 -29 75 -74z" />
    <glyph glyph-name="minus" unicode="&#x2212;" horiz-adv-x="572" 
d="M523 270h-474v109h474v-109z" />
    <glyph glyph-name="currency" unicode="&#xa4;" 
d="M440 251h-202c3 -97 52 -141 133 -141c33 0 79 9 125 23l46 14l18 -114l-43 -13c-59 -18 -111 -27 -160 -27c-147 0 -255 89 -261 258h-70v92h68v61h-68v91h70c7 168 114 257 261 257c49 0 99 -9 157 -27l46 -14l-18 -114l-47 14c-46 14 -91 23 -124 23
c-80 0 -129 -42 -132 -139h201v-91h-204v-61h204v-92z" />
    </font>
</defs>
</svg>
